<svg id="Layer_1" data-name="Layer 1" xmlns="http://www.w3.org/2000/svg" viewBox="0 0 138.74 138.74"><defs><style>.cls-1{fill:#15a2b9;}</style></defs><title>atom logo</title><circle class="cls-1" cx="67.46" cy="67.45" r="12.06"/><circle class="cls-1" cx="20.26" cy="114.65" r="4.32"/><circle class="cls-1" cx="67.46" cy="134.42" r="4.32"/><circle class="cls-1" cx="134.42" cy="67.46" r="4.32"/><circle class="cls-1" cx="20.26" cy="20.25" r="4.32"/><path class="cls-1" d="M371.9,393.93a8.57,8.57,0,0,1-1.68,4.84,15.46,15.46,0,0,1-3.46,3.44,36.9,36.9,0,0,1-8.25,4.52,94.85,94.85,0,0,1-17.83,5.1,205,205,0,0,1-73.43-.25,95,95,0,0,1-17.73-5.19,37.08,37.08,0,0,1-8.13-4.53,15.21,15.21,0,0,1-3.34-3.36,7.35,7.35,0,0,1,0-9.12,15.12,15.12,0,0,1,3.35-3.33,37.28,37.28,0,0,1,8.14-4.46,94.83,94.83,0,0,1,17.73-5.06,204.23,204.23,0,0,1,73.24.24,94,94,0,0,1,17.63,5.17,36.18,36.18,0,0,1,8,4.46,14.64,14.64,0,0,1,3.23,3.25,7.55,7.55,0,0,1,1.48,4.28Zm-1,0a7.56,7.56,0,0,0-1.5-4.26,14.6,14.6,0,0,0-3.25-3.22,36.85,36.85,0,0,0-8-4.4,94.41,94.41,0,0,0-17.63-5,203.72,203.72,0,0,0-73,.24,93.92,93.92,0,0,0-17.54,5.14,35.51,35.51,0,0,0-7.91,4.4,14.12,14.12,0,0,0-3.13,3.14,6.35,6.35,0,0,0,0,8A14,14,0,0,0,242,401a35.73,35.73,0,0,0,7.92,4.33,93.55,93.55,0,0,0,17.54,5,203.23,203.23,0,0,0,72.84-.24A92.94,92.94,0,0,0,357.78,405a35.43,35.43,0,0,0,7.8-4.33c2.32-1.73,4.32-4.12,4.32-6.74Z" transform="translate(-236.48 -326.48)"/><path class="cls-1" d="M303.93,461.9a8.56,8.56,0,0,1-4.83-1.68,15.46,15.46,0,0,1-3.44-3.46,37.34,37.34,0,0,1-4.53-8.25A95.58,95.58,0,0,1,286,430.68a204.67,204.67,0,0,1,.24-73.43,95,95,0,0,1,5.2-17.73,37,37,0,0,1,4.52-8.13,15.43,15.43,0,0,1,3.36-3.34,8.07,8.07,0,0,1,4.57-1.57,8,8,0,0,1,4.55,1.6,14.9,14.9,0,0,1,3.33,3.35,36.46,36.46,0,0,1,4.46,8.14,95.62,95.62,0,0,1,5.07,17.73,204.53,204.53,0,0,1-.25,73.24,94.78,94.78,0,0,1-5.16,17.63,36.63,36.63,0,0,1-4.47,8,14.23,14.23,0,0,1-3.25,3.23,7.53,7.53,0,0,1-4.28,1.48Zm0-1a7.59,7.59,0,0,0,4.27-1.5,14.56,14.56,0,0,0,3.21-3.25,36,36,0,0,0,4.4-8,94.44,94.44,0,0,0,5-17.63,204,204,0,0,0-.25-73,94.66,94.66,0,0,0-5.13-17.54,36.33,36.33,0,0,0-4.4-7.91,14.34,14.34,0,0,0-3.14-3.13,7.07,7.07,0,0,0-4-1.39,7,7,0,0,0-4,1.42,13.64,13.64,0,0,0-3.11,3.14,35.77,35.77,0,0,0-4.34,7.92,93.55,93.55,0,0,0-5,17.54,202.92,202.92,0,0,0,.25,72.84,92.92,92.92,0,0,0,5.1,17.44,35.43,35.43,0,0,0,4.33,7.8c1.73,2.32,4.12,4.32,6.74,4.32Z" transform="translate(-236.48 -326.48)"/><path class="cls-1" d="M255.89,345.88a8.43,8.43,0,0,1,4.61-2.23,15.59,15.59,0,0,1,4.87,0,36.92,36.92,0,0,1,9,2.64,95.6,95.6,0,0,1,16.21,9A194.14,194.14,0,0,1,318.86,379a193.13,193.13,0,0,1,23.51,28.38,94.62,94.62,0,0,1,8.86,16.21,36.7,36.7,0,0,1,2.55,8.95,15,15,0,0,1,0,4.73,7.36,7.36,0,0,1-6.46,6.43,14.94,14.94,0,0,1-4.72,0,37,37,0,0,1-8.92-2.6,95.27,95.27,0,0,1-16.11-9,204.28,204.28,0,0,1-51.62-52,94.76,94.76,0,0,1-8.81-16.12,36.36,36.36,0,0,1-2.52-8.83,15,15,0,0,1,0-4.58,7.62,7.62,0,0,1,2-4.08Zm.7.7a7.64,7.64,0,0,0-1.95,4.08,14.9,14.9,0,0,0,0,4.57,36.49,36.49,0,0,0,2.57,8.79,94.38,94.38,0,0,0,8.91,16A203.79,203.79,0,0,0,318,431.52a94,94,0,0,0,16,8.78,36.12,36.12,0,0,0,8.7,2.48,14.3,14.3,0,0,0,4.43,0,6.36,6.36,0,0,0,5.62-5.65,14.25,14.25,0,0,0,0-4.42,35.72,35.72,0,0,0-2.54-8.67,94.55,94.55,0,0,0-8.86-15.94,203.38,203.38,0,0,0-51.69-51.33A93.57,93.57,0,0,0,273.7,348a35.33,35.33,0,0,0-8.58-2.45c-2.86-.41-6-.14-7.82,1.71Z" transform="translate(-236.48 -326.48)"/><path class="cls-1" d="M257.3,440.57c1.86,1.85,5,2.13,7.82,1.71a35.33,35.33,0,0,0,8.58-2.45,92.83,92.83,0,0,0,15.94-8.72,203.63,203.63,0,0,0,51.69-51.34,93.78,93.78,0,0,0,8.86-15.94,35.52,35.52,0,0,0,2.54-8.66,14.25,14.25,0,0,0,0-4.42,6.36,6.36,0,0,0-5.62-5.65,14,14,0,0,0-4.43,0,35.67,35.67,0,0,0-8.7,2.48,93.9,93.9,0,0,0-16,8.77,204.22,204.22,0,0,0-51.82,51.47,95.15,95.15,0,0,0-8.91,16,36.49,36.49,0,0,0-2.57,8.79,14.9,14.9,0,0,0,0,4.57,7.64,7.64,0,0,0,1.95,4.08Zm-.71.71a7.62,7.62,0,0,1-2-4.07,15,15,0,0,1,0-4.59,36.16,36.16,0,0,1,2.52-8.82,94,94,0,0,1,8.81-16.12,203.85,203.85,0,0,1,51.62-52,94.58,94.58,0,0,1,16.11-9,36.57,36.57,0,0,1,8.92-2.6,14.94,14.94,0,0,1,4.72,0,7.36,7.36,0,0,1,6.46,6.43,15.08,15.08,0,0,1,0,4.74,36.7,36.7,0,0,1-2.55,8.95,95.37,95.37,0,0,1-8.86,16.21,204.44,204.44,0,0,1-51.75,52.09,95.65,95.65,0,0,1-16.21,9,37.34,37.34,0,0,1-9,2.63,15.29,15.29,0,0,1-4.87,0,8.57,8.57,0,0,1-4.61-2.23Z" transform="translate(-236.48 -326.48)"/></svg>