<svg id="Layer_1" data-name="Layer 1" xmlns="http://www.w3.org/2000/svg" viewBox="0 0 223.2 63.39"><defs><style>.cls-1{fill:#15a2b9;}.cls-2{font-size:24px;fill:#fff;font-family:MyriadPro-Regular, Myriad Pro;}.cls-3{letter-spacing:-0.03em;}.cls-4{letter-spacing:-0.02em;}.cls-5{letter-spacing:0em;}.cls-6{letter-spacing:0em;}.cls-7{letter-spacing:0em;}</style></defs><title>fusion editing &amp;amp; writing logo full reverse type</title><circle class="cls-1" cx="198.11" cy="27.19" r="4.24"/><circle class="cls-1" cx="181.5" cy="43.8" r="1.52"/><circle class="cls-1" cx="198.11" cy="50.76" r="1.52"/><circle class="cls-1" cx="221.68" cy="27.19" r="1.52"/><circle class="cls-1" cx="181.5" cy="10.58" r="1.52"/><path class="cls-1" d="M419.18,393.6a3.11,3.11,0,0,1-.62,1.78,5.44,5.44,0,0,1-1.25,1.24,13,13,0,0,1-2.94,1.61,33.23,33.23,0,0,1-6.3,1.79,72.14,72.14,0,0,1-25.88-.12,33.52,33.52,0,0,1-6.26-1.84,13.4,13.4,0,0,1-2.88-1.61,3.17,3.17,0,0,1,0-5.68,13.11,13.11,0,0,1,2.89-1.58,33.43,33.43,0,0,1,6.25-1.77,71.64,71.64,0,0,1,25.79.12,33.76,33.76,0,0,1,6.21,1.83,13.44,13.44,0,0,1,2.82,1.57,3.61,3.61,0,0,1,1.65,2.66Zm-.5,0A3.57,3.57,0,0,0,417,391a12.77,12.77,0,0,0-2.83-1.55,33.89,33.89,0,0,0-6.21-1.76,71.4,71.4,0,0,0-25.69.13,32.45,32.45,0,0,0-6.15,1.81,12.45,12.45,0,0,0-2.77,1.54,2.69,2.69,0,0,0,0,4.89,12.57,12.57,0,0,0,2.77,1.51,33.36,33.36,0,0,0,6.16,1.75,67.85,67.85,0,0,0,12.81,1.09,66.68,66.68,0,0,0,12.78-1.22,32.52,32.52,0,0,0,6.11-1.79,12.13,12.13,0,0,0,2.71-1.52,3.07,3.07,0,0,0,1.46-2.25Z" transform="translate(-197 -366.41)"/><path class="cls-1" d="M395.11,417.67a3.12,3.12,0,0,1-1.78-.63,5.61,5.61,0,0,1-1.24-1.24,13.42,13.42,0,0,1-1.61-2.94,33.65,33.65,0,0,1-1.79-6.3,72.2,72.2,0,0,1,.12-25.89,33.42,33.42,0,0,1,1.84-6.25,12.94,12.94,0,0,1,1.61-2.88,3.8,3.8,0,0,1,2.85-1.75,3.75,3.75,0,0,1,2.83,1.77,13,13,0,0,1,1.58,2.88,33.43,33.43,0,0,1,1.77,6.25,71.64,71.64,0,0,1-.12,25.79,33.31,33.31,0,0,1-1.83,6.21,13,13,0,0,1-1.57,2.82,3.62,3.62,0,0,1-2.66,1.66Zm0-.5a3.58,3.58,0,0,0,2.63-1.68,12.55,12.55,0,0,0,1.55-2.83,34,34,0,0,0,1.76-6.2,71.39,71.39,0,0,0-.13-25.69,32.76,32.76,0,0,0-1.81-6.16,12.68,12.68,0,0,0-1.54-2.77,2.7,2.7,0,0,0-4.89,0,12.8,12.8,0,0,0-1.51,2.77,33.36,33.36,0,0,0-1.75,6.16,67.85,67.85,0,0,0-1.09,12.81,66.86,66.86,0,0,0,1.22,12.79,33.52,33.52,0,0,0,1.79,6.11,12.36,12.36,0,0,0,1.52,2.71,3.13,3.13,0,0,0,2.25,1.46Z" transform="translate(-197 -366.41)"/><path class="cls-1" d="M378.1,376.58a3.19,3.19,0,0,1,1.7-.82,5.47,5.47,0,0,1,1.76,0,13.9,13.9,0,0,1,3.22.94,34.71,34.71,0,0,1,5.72,3.19,72.6,72.6,0,0,1,18.22,18.39,34.14,34.14,0,0,1,3.12,5.73,12.65,12.65,0,0,1,.89,3.17,3.16,3.16,0,0,1-4,4,12.67,12.67,0,0,1-3.15-.92,33.23,33.23,0,0,1-5.68-3.17,71.79,71.79,0,0,1-18.14-18.32,32.59,32.59,0,0,1-3.1-5.68,12.42,12.42,0,0,1-.88-3.11,3.61,3.61,0,0,1,.7-3.05Zm.35.35a3.57,3.57,0,0,0-.67,3.05,12.46,12.46,0,0,0,.91,3.09,33,33,0,0,0,3.14,5.63,71.5,71.5,0,0,0,18.25,18.08,32.45,32.45,0,0,0,5.64,3.07,12.76,12.76,0,0,0,3,.87,2.69,2.69,0,0,0,3.44-3.47,12.66,12.66,0,0,0-.89-3,34.05,34.05,0,0,0-3.12-5.59,71.63,71.63,0,0,0-18.19-18,33,33,0,0,0-5.59-3.05,12.92,12.92,0,0,0-3-.85,3.12,3.12,0,0,0-2.63.57Z" transform="translate(-197 -366.41)"/><path class="cls-1" d="M378.81,409.91a3.15,3.15,0,0,0,2.63.56,12,12,0,0,0,3-.85,31.62,31.62,0,0,0,5.59-3.05,71.63,71.63,0,0,0,18.19-18,33.25,33.25,0,0,0,3.12-5.59,12.53,12.53,0,0,0,.89-3,2.69,2.69,0,0,0-3.44-3.47,12.76,12.76,0,0,0-3,.87,33.13,33.13,0,0,0-5.64,3.07,71.5,71.5,0,0,0-18.25,18.08,33.11,33.11,0,0,0-3.14,5.64,12.34,12.34,0,0,0-.91,3.09,3.55,3.55,0,0,0,.67,3Zm-.36.35a3.6,3.6,0,0,1-.7-3.05,12.66,12.66,0,0,1,.88-3.11,33,33,0,0,1,3.1-5.68,72.22,72.22,0,0,1,18.14-18.32,33.87,33.87,0,0,1,5.68-3.16,13.13,13.13,0,0,1,3.15-.93,3.17,3.17,0,0,1,4,4,12.84,12.84,0,0,1-.89,3.18,34,34,0,0,1-3.12,5.72,67.34,67.34,0,0,1-8.28,10,68.16,68.16,0,0,1-9.94,8.38,34,34,0,0,1-5.72,3.19,13.43,13.43,0,0,1-3.22.94,5.76,5.76,0,0,1-1.76,0,3.2,3.2,0,0,1-1.7-.83Z" transform="translate(-197 -366.41)"/><text class="cls-2" transform="translate(0 20.09)"><tspan xml:space="preserve">                    </tspan><tspan class="cls-3" x="101.76" y="0">F</tspan><tspan x="112.61" y="0">usion</tspan><tspan class="cls-4" x="0" y="28.8">W</tspan><tspan class="cls-5" x="19.92" y="28.8">r</tspan><tspan class="cls-6" x="27.86" y="28.8">iting &amp; </tspan><tspan class="cls-7" x="98.47" y="28.8">E</tspan><tspan x="110.18" y="28.8">diting</tspan></text></svg>