<svg id="Layer_1" data-name="Layer 1" xmlns="http://www.w3.org/2000/svg" viewBox="0 0 900 650"><defs><style>.cls-1{fill:#17a2b8;}.cls-2,.cls-3{fill:#f7931e;stroke:#000;stroke-miterlimit:10;}.cls-2{stroke-width:2px;}</style></defs><title>iowa savings bank portfolio image</title><rect class="cls-1" x="1" y="1" width="898" height="648"/><path d="M898,2V648H2V2H898m2-2H0V650H900V0Z"/><path d="M450,624A299,299,0,0,1,238.58,113.58,299,299,0,1,1,661.42,536.42,297,297,0,0,1,450,624Z"/><path d="M450,27A298.07,298.07,0,0,1,566,599.58,298.07,298.07,0,0,1,334,50.42,296.06,296.06,0,0,1,450,27m0-2C284.31,25,150,159.31,150,325S284.31,625,450,625,750,490.69,750,325,615.69,25,450,25Z"/><rect class="cls-2" x="400" y="145" width="100" height="50"/><path class="cls-3" d="M699.5,490.5c-11,.24-23,0-36-1a361.69,361.69,0,0,1-38-5,226.12,226.12,0,0,1-68-26,198.69,198.69,0,0,1-58-38,169.29,169.29,0,0,1-33-45,163.5,163.5,0,0,1-17-51,163.5,163.5,0,0,1-17,51,169.29,169.29,0,0,1-33,45,198.69,198.69,0,0,1-58,38,226.12,226.12,0,0,1-68,26,361.69,361.69,0,0,1-38,5c-13,1-25,1.24-36,1L168,424c11.12.52,27.36.91,47,0,24-1.11,36.07-1.6,51-6a152.36,152.36,0,0,0,48-24,177.74,177.74,0,0,0,61-64s23-39,25-96H500l-101-.5H499c2,57,25,96,25,96a177.74,177.74,0,0,0,61,64,152.36,152.36,0,0,0,48,24c14.93,4.4,27,4.89,51,6,19.64.91,35.88.52,47,0"/></svg>