<svg id="Layer_1" data-name="Layer 1" xmlns="http://www.w3.org/2000/svg" viewBox="0 0 600 400"><defs><style>.cls-1{fill:#ccc;}.cls-2{fill:#fff;}.cls-3{font-size:48px;font-family:BernardMT-Condensed, Bernard MT Condensed;}</style></defs><title>Testimonial Kimberly Becker</title><rect class="cls-1" x="0.5" y="0.5" width="599" height="399"/><path d="M599,1V399H1V1H599m1-1H0V400H600V0Z"/><rect class="cls-1" x="15.5" y="15.5" width="569" height="369"/><path d="M584,16V384H16V16H584m1-1H15V385H585V15Z"/><circle class="cls-2" cx="300.5" cy="48.5" r="24.5"/><text class="cls-3" transform="translate(288.9 79.41)">“</text><rect class="cls-2" x="45" y="90" width="510" height="170"/><path d="M60.58,123.19l-3.41,16H55.51l3.41-16Z"/><path d="M61.41,127h1.38l.69-3.08h1.64L64.43,127H66.1l-.31,1.45H64.12l-1.81,8.31c-.17.84-.06,1.25.69,1.25a4.45,4.45,0,0,0,.86-.09l-.29,1.31a4.67,4.67,0,0,1-1.3.16c-1.23,0-2.08-.49-1.68-2.36l1.87-8.58H61.1Z"/><path d="M71.18,127h1.66l-2.6,12.22H68.58Zm1-4.52H73.8L73.28,125H71.62Z"/><path d="M74.67,135.61l-.09.47c-.22,1.16,0,2,1,2,.75,0,1.16-.42,1.4-1.47A3,3,0,0,0,76,133.36c-1.45-1.39-1.92-2.23-1.59-4a2.73,2.73,0,0,1,2.85-2.55c2.13,0,2.77,1.52,2.43,3.24l-.1.48H78l.1-.58c.18-1.08,0-1.77-.92-1.77-.61,0-1,.42-1.2,1.39s0,1.43,1,2.43c1.69,1.65,2.1,2.64,1.69,4.64s-1.5,2.77-3.14,2.77c-2.45,0-3-1.61-2.53-3.58l0-.22Z"/><path d="M86.8,127c-.43,5.95-.6,8.61-.77,9.88h0c.45-1.45,1.23-3.46,3.72-9.88h1.58c-.31,6-.41,8.36-.59,9.83h0c.37-1.28.89-2.79,3.41-9.83h1.67l-4.78,12.22H89.43c.23-4,.34-7.52.54-9.6h0c-.44,1.49-1.88,5.09-3.63,9.6H84.63L85.15,127Z"/><path d="M97.72,127h1.66l-2.6,12.22H95.12Zm1-4.52h1.65L99.82,125H98.16Z"/><path d="M100.91,127h1.38l.69-3.08h1.64l-.69,3.08h1.67l-.31,1.45h-1.66l-1.82,8.31c-.17.84-.06,1.25.69,1.25a4.45,4.45,0,0,0,.86-.09l-.29,1.31a4.67,4.67,0,0,1-1.3.16c-1.22,0-2.08-.49-1.68-2.36l1.87-8.58H100.6Z"/><path d="M109.91,122.48l-1.19,5.61a2.59,2.59,0,0,1,2.27-1.28c1.79,0,2.17,1.37,1.8,3.14l-2,9.27h-1.66l1.89-8.94c.25-1.15.25-2.05-.86-2.05s-1.72,1.13-2.09,2.82l-1.74,8.17H104.7l3.55-16.74Z"/><path d="M122.7,138.75c-.56,2.66-.86,4.79-3.87,4.79-2.53,0-2.9-1.62-2.64-2.94l0-.12h1.69l0,.15c-.1.57-.09,1.51,1.12,1.51s1.57-1.16,2-3l.27-1.3a2.22,2.22,0,0,1-2.09,1.29c-2,0-2.27-1.89-1.88-3.66l1.06-5c.35-1.62,1-3.63,3.17-3.63a1.66,1.66,0,0,1,1.83,1.3,9.29,9.29,0,0,1,.33-1.11h1.59c-.17.68-.42,1.78-.72,3.22Zm-2.7-8.37-1,5c-.27,1.25-.2,2.25.9,2.25,1.35,0,1.8-1.62,2.17-3.29l.67-3.07c.31-1.43.46-3-1-3C120.63,128.23,120.24,129.25,120,130.38Z"/><path d="M126.83,131.16c.42-2,.7-3.33.84-4.16h1.58a15.12,15.12,0,0,1-.31,1.81,3.13,3.13,0,0,1,2.86-2l-.44,1.95c-1.61.07-2.62,1.1-3.07,3.25l-1.51,7.18h-1.66Z"/><path d="M133.45,133.44c-.07.28-.36,1.68-.44,2.05-.3,1.4-.23,2.52.94,2.52s1.36-.93,1.59-2l.08-.34h1.63l-.07.32c-.37,1.64-.9,3.42-3.4,3.42-2.76,0-2.78-2.24-2.34-4.32l.93-4.38c.39-1.91,1-3.89,3.52-3.89,2.73,0,2.84,2.13,2.44,4-.07.31-.49,2.28-.57,2.62Zm3-1.37c.05-.26.32-1.52.38-1.77.23-1.15,0-2.13-1-2.13s-1.48,1.17-1.7,2.23l-.36,1.67Z"/><path d="M144.79,136.69c-.15.74-.43,2.11-.49,2.53h-1.61a9.72,9.72,0,0,1,.17-1.09,2.25,2.25,0,0,1-2.19,1.28c-1.79,0-2.15-1.72-1.75-3.6.57-2.67,1.94-3.46,4.78-3.92l.48-.08.39-1.83c.26-1.17,0-1.81-.9-1.81s-1.17.74-1.46,1.87l-.07.28h-1.63l0-.16c.33-1.59.79-3.35,3.28-3.35,2,0,2.79,1.19,2.4,3Zm-.88-3.52-.43.08c-1.65.31-2.52.81-2.91,2.53-.26,1.19-.12,2.15.88,2.15s1.68-1.08,2.14-3.25Z"/><path d="M148.12,127h1.38l.69-3.08h1.64l-.69,3.08h1.67l-.31,1.45h-1.67L149,136.76c-.18.84-.06,1.25.68,1.25a4.56,4.56,0,0,0,.87-.09l-.29,1.31a4.72,4.72,0,0,1-1.3.16c-1.23,0-2.08-.49-1.68-2.36l1.86-8.58h-1.35Z"/><path d="M157.12,138.24l-1.09,5.1h-1.66l2.74-12.81c.36-1.67.59-2.77.72-3.53h1.61c0,.16-.09.65-.2,1.16a2.51,2.51,0,0,1,2.24-1.35c1.91,0,2.2,1.78,1.74,3.94l-1,4.62c-.53,2.5-1.39,4-3.31,4A1.66,1.66,0,0,1,157.12,138.24Zm3.42-2.78,1-4.68c.29-1.37.32-2.53-.83-2.53s-1.77,1.4-2.14,3.14l-.76,3.55c-.32,1.54-.46,3,.95,3C159.81,137.93,160.25,136.81,160.54,135.46Z"/><path d="M163.74,139.22l3.55-16.74H169l-3.56,16.74Z"/><path d="M170.48,133.44c-.07.28-.36,1.68-.44,2.05-.3,1.4-.23,2.52.93,2.52s1.37-.93,1.6-2l.08-.34h1.63l-.07.32c-.37,1.64-.9,3.42-3.4,3.42-2.76,0-2.78-2.24-2.34-4.32l.93-4.38c.39-1.91,1-3.89,3.52-3.89,2.73,0,2.84,2.13,2.43,4-.06.31-.48,2.28-.56,2.62Zm3-1.37c.05-.26.32-1.52.38-1.77.23-1.15,0-2.13-1-2.13s-1.48,1.17-1.7,2.23l-.36,1.67Z"/><path d="M181.82,136.69c-.15.74-.43,2.11-.49,2.53h-1.61a9.72,9.72,0,0,1,.17-1.09,2.25,2.25,0,0,1-2.19,1.28c-1.79,0-2.15-1.72-1.75-3.6.57-2.67,1.94-3.46,4.78-3.92l.48-.08.39-1.83c.26-1.17,0-1.81-.9-1.81s-1.17.74-1.46,1.87l-.07.28h-1.63l0-.16c.33-1.59.79-3.35,3.28-3.35,2,0,2.79,1.19,2.4,3Zm-.88-3.52-.44.08c-1.64.31-2.51.81-2.9,2.53-.26,1.19-.12,2.15.88,2.15s1.68-1.08,2.14-3.25Z"/><path d="M185.52,135.61l-.09.47c-.22,1.16,0,2,1,2,.75,0,1.16-.42,1.4-1.47a3,3,0,0,0-1.07-3.21c-1.45-1.39-1.92-2.23-1.59-4a2.73,2.73,0,0,1,2.85-2.55c2.13,0,2.77,1.52,2.43,3.24l-.1.48h-1.57l.1-.58c.18-1.08,0-1.77-.92-1.77-.6,0-1,.42-1.2,1.39s0,1.43,1,2.43c1.69,1.65,2.1,2.64,1.69,4.64s-1.49,2.77-3.14,2.77c-2.45,0-3-1.61-2.53-3.58l.05-.22Z"/><path d="M197.37,135.92c-.34,1.58-.58,2.79-.66,3.3h-1.63c0-.22.12-.73.2-1.18a2.35,2.35,0,0,1-2.31,1.37c-.89,0-2.3-.4-1.66-3.35l1.92-9.06h1.66l-1.9,8.88c-.31,1.45-.06,2.05.79,2.05s1.63-.59,2.12-2.94l1.69-8h1.68Z"/><path d="M200.9,131.16c.42-2,.69-3.33.83-4.16h1.58a15.12,15.12,0,0,1-.31,1.81,3.13,3.13,0,0,1,2.86-2l-.43,1.95c-1.62.07-2.62,1.1-3.07,3.25l-1.52,7.18h-1.66Z"/><path d="M207.51,133.44c-.07.28-.36,1.68-.44,2.05-.29,1.4-.23,2.52.94,2.52s1.36-.93,1.6-2l.07-.34h1.64l-.08.32c-.37,1.64-.9,3.42-3.39,3.42-2.77,0-2.79-2.24-2.35-4.32l.93-4.38c.4-1.91,1-3.89,3.52-3.89,2.73,0,2.84,2.13,2.44,4-.07.31-.49,2.28-.56,2.62Zm3-1.37c.05-.26.32-1.52.38-1.77.23-1.15,0-2.13-1-2.13s-1.48,1.17-1.69,2.23l-.36,1.67Z"/><path d="M217.62,127H219l.69-3.08h1.64l-.69,3.08h1.67l-.31,1.45h-1.67l-1.81,8.31c-.17.84-.06,1.25.69,1.25a4.45,4.45,0,0,0,.86-.09l-.29,1.31a4.67,4.67,0,0,1-1.3.16c-1.23,0-2.08-.49-1.68-2.36l1.87-8.58h-1.36Z"/><path d="M226.62,122.48l-1.19,5.61a2.58,2.58,0,0,1,2.27-1.28c1.78,0,2.17,1.37,1.8,3.14l-2,9.27h-1.66l1.89-8.94c.24-1.15.25-2.05-.87-2.05s-1.72,1.13-2.08,2.82l-1.75,8.17h-1.65L225,122.48Z"/><path d="M236.08,136.69c-.15.74-.43,2.11-.49,2.53H234c0-.31.1-.73.17-1.09a2.23,2.23,0,0,1-2.18,1.28c-1.8,0-2.16-1.72-1.76-3.6.57-2.67,1.95-3.46,4.78-3.92l.48-.08.39-1.83c.26-1.17,0-1.81-.9-1.81s-1.17.74-1.45,1.87l-.07.28H231.8l0-.16c.33-1.59.79-3.35,3.28-3.35,2.06,0,2.8,1.19,2.4,3Zm-.87-3.52-.44.08c-1.65.31-2.51.81-2.9,2.53-.26,1.19-.13,2.15.87,2.15s1.69-1.08,2.14-3.25Z"/><path d="M239.41,127h1.38l.69-3.08h1.64l-.69,3.08h1.67l-.31,1.45h-1.67l-1.81,8.31c-.17.84-.06,1.25.69,1.25a4.45,4.45,0,0,0,.86-.09l-.29,1.31a4.67,4.67,0,0,1-1.3.16c-1.23,0-2.08-.49-1.68-2.36l1.87-8.58H239.1Z"/><path d="M251.71,123.19l-3.41,16h-1.66l3.41-16Z"/><path d="M257.72,127c-.43,5.95-.59,8.61-.77,9.88h0c.46-1.45,1.24-3.46,3.72-9.88h1.58c-.31,6-.41,8.36-.58,9.83h0c.37-1.28.89-2.79,3.41-9.83h1.67L262,139.22h-1.66c.23-4,.34-7.52.54-9.6h0c-.44,1.49-1.88,5.09-3.63,9.6h-1.68l.52-12.22Z"/><path d="M267.66,131.16c.42-2,.69-3.33.84-4.16h1.58a17.81,17.81,0,0,1-.31,1.81,3.13,3.13,0,0,1,2.86-2l-.44,1.95c-1.62.07-2.62,1.1-3.07,3.25l-1.51,7.18H266Z"/><path d="M274.33,127H276l-2.6,12.22h-1.66Zm1-4.52H277l-.52,2.48h-1.66Z"/><path d="M277.52,127h1.38l.69-3.08h1.64l-.69,3.08h1.67l-.31,1.45h-1.67l-1.81,8.31c-.17.84-.06,1.25.69,1.25a4.45,4.45,0,0,0,.86-.09l-.29,1.31a4.67,4.67,0,0,1-1.3.16c-1.23,0-2.08-.49-1.68-2.36l1.86-8.58h-1.35Z"/><path d="M283.82,133.44c-.06.28-.35,1.68-.43,2.05-.3,1.4-.24,2.52.93,2.52s1.36-.93,1.6-2l.07-.34h1.64l-.07.32c-.38,1.64-.9,3.42-3.4,3.42-2.77,0-2.78-2.24-2.34-4.32l.92-4.38c.4-1.91,1-3.89,3.52-3.89,2.74,0,2.84,2.13,2.44,4-.06.31-.48,2.28-.56,2.62Zm3-1.37c.05-.26.32-1.52.37-1.77.24-1.15.05-2.13-1-2.13s-1.48,1.17-1.7,2.23l-.36,1.67Z"/><path d="M293.94,127h1.37l.7-3.08h1.63L297,127h1.67l-.31,1.45h-1.67l-1.82,8.31c-.17.84-.06,1.25.69,1.25a4.45,4.45,0,0,0,.86-.09l-.29,1.31a4.65,4.65,0,0,1-1.29.16c-1.23,0-2.08-.49-1.68-2.36l1.86-8.58h-1.35Z"/><path d="M302.93,122.48l-1.18,5.61a2.57,2.57,0,0,1,2.26-1.28c1.79,0,2.18,1.37,1.81,3.14l-2,9.27h-1.66l1.9-8.94c.24-1.15.25-2.05-.87-2.05s-1.72,1.13-2.09,2.82l-1.74,8.17h-1.66l3.55-16.74Z"/><path d="M308.94,127h1.65L308,139.22h-1.65Zm1-4.52h1.66L311,125h-1.65Z"/><path d="M312.43,135.61l-.1.47c-.22,1.16,0,2,1.06,2,.75,0,1.16-.42,1.39-1.47a3,3,0,0,0-1.07-3.21c-1.45-1.39-1.91-2.23-1.59-4a2.74,2.74,0,0,1,2.86-2.55c2.13,0,2.76,1.52,2.42,3.24l-.09.48h-1.57l.09-.58c.18-1.08,0-1.77-.92-1.77-.6,0-1,.42-1.2,1.39s0,1.43,1,2.43c1.69,1.65,2.1,2.64,1.69,4.64s-1.49,2.77-3.14,2.77c-2.45,0-3-1.61-2.53-3.58l.05-.22Z"/><path d="M321.14,139.22l3.56-16.74h1.65l-3.55,16.74Z"/><path d="M327.88,133.44c-.06.28-.35,1.68-.43,2.05-.3,1.4-.24,2.52.93,2.52s1.37-.93,1.6-2l.08-.34h1.63l-.07.32c-.37,1.64-.9,3.42-3.4,3.42-2.76,0-2.78-2.24-2.34-4.32l.93-4.38c.39-1.91,1-3.89,3.51-3.89,2.74,0,2.85,2.13,2.44,4-.06.31-.48,2.28-.56,2.62Zm3-1.37c.05-.26.32-1.52.37-1.77.24-1.15.05-2.13-1-2.13s-1.48,1.17-1.7,2.23l-.36,1.67Z"/><path d="M334.66,127H336l.69-3.08h1.64l-.69,3.08h1.67l-.31,1.45h-1.66l-1.82,8.31c-.17.84-.06,1.25.69,1.25a4.45,4.45,0,0,0,.86-.09l-.29,1.31a4.67,4.67,0,0,1-1.3.16c-1.22,0-2.08-.49-1.68-2.36l1.87-8.58h-1.36Z"/><path d="M339.46,127h1.38l.69-3.08h1.64l-.69,3.08h1.67l-.31,1.45h-1.67l-1.81,8.31c-.17.84-.06,1.25.69,1.25a4.45,4.45,0,0,0,.86-.09l-.29,1.31a4.67,4.67,0,0,1-1.3.16c-1.22,0-2.08-.49-1.68-2.36l1.87-8.58h-1.36Z"/><path d="M345.76,133.44c-.06.28-.35,1.68-.43,2.05-.3,1.4-.24,2.52.93,2.52s1.37-.93,1.6-2l.07-.34h1.64l-.07.32c-.37,1.64-.9,3.42-3.4,3.42-2.77,0-2.78-2.24-2.34-4.32l.93-4.38c.39-1.91,1-3.89,3.51-3.89,2.74,0,2.84,2.13,2.44,4-.06.31-.48,2.28-.56,2.62Zm3-1.37c.05-.26.32-1.52.37-1.77.24-1.15.05-2.13-1-2.13s-1.48,1.17-1.7,2.23l-.36,1.67Z"/><path d="M352.76,131.16c.42-2,.69-3.33.84-4.16h1.58a17.81,17.81,0,0,1-.31,1.81,3.13,3.13,0,0,1,2.85-2l-.43,1.95c-1.62.07-2.62,1.1-3.07,3.25l-1.51,7.18h-1.66Z"/><path d="M367.93,130.76l-1,4.87c-.55,2.65-1.41,3.78-3.61,3.78-2,0-3.1-1.24-2.54-3.91l1.09-5.13c.44-2.07,1.3-3.56,3.53-3.56S368.45,128.28,367.93,130.76Zm-4.4-.39-1.15,5.4c-.33,1.54.17,2.23,1.09,2.23s1.36-.54,1.71-2.16l1.14-5.31c.3-1.39.05-2.31-1.1-2.31S363.81,129.06,363.53,130.37Z"/><path d="M368.6,139.22l2.29-10.77h-1.32l.31-1.45h1.32l.38-1.81c.32-1.48.85-2.82,2.69-2.82a4,4,0,0,1,1,.13l-.33,1.45a2.07,2.07,0,0,0-.56-.06c-.7,0-1,.5-1.16,1.45l-.34,1.66h1.54l-.31,1.45h-1.54l-2.29,10.77Z"/><path d="M378.32,131.16c.42-2,.69-3.33.84-4.16h1.58c0,.23-.09.74-.32,1.81a3.14,3.14,0,0,1,2.86-2l-.43,1.95c-1.62.07-2.62,1.1-3.07,3.25l-1.52,7.18H376.6Z"/><path d="M384.93,133.44c-.07.28-.36,1.68-.43,2.05-.3,1.4-.24,2.52.93,2.52s1.36-.93,1.6-2l.07-.34h1.64l-.08.32c-.37,1.64-.9,3.42-3.39,3.42-2.77,0-2.79-2.24-2.34-4.32l.92-4.38c.4-1.91,1-3.89,3.52-3.89,2.74,0,2.84,2.13,2.44,4-.07.31-.48,2.28-.56,2.62Zm3-1.37c.06-.26.33-1.52.38-1.77.23-1.15,0-2.13-1-2.13s-1.48,1.17-1.7,2.23l-.36,1.67Z"/><path d="M396.52,135.6l-.07.32c-.36,1.64-.92,3.49-3.4,3.49-2.71,0-2.72-2.14-2.32-4l1-4.86c.41-2,1.07-3.74,3.37-3.74,2.61,0,2.78,1.92,2.46,3.53l-.12.62h-1.62l.13-.7c.25-1.26.12-2-.94-2-.9,0-1.25.8-1.58,2.27l-1.13,5.3c-.28,1.34-.18,2.22.91,2.22.94,0,1.22-.77,1.52-2l.11-.43Z"/><path d="M405.59,130.76l-1,4.87c-.55,2.65-1.41,3.78-3.61,3.78-2,0-3.1-1.24-2.53-3.91l1.08-5.13c.44-2.07,1.31-3.56,3.54-3.56S406.1,128.28,405.59,130.76Zm-4.41-.39-1.15,5.4c-.32,1.54.17,2.23,1.09,2.23s1.36-.54,1.71-2.16l1.14-5.31c.3-1.39,0-2.31-1.09-2.31S401.47,129.06,401.18,130.37Z"/><path d="M407.85,130.52c.47-2.22.6-2.93.72-3.52h1.6c0,.27-.12.76-.19,1.1a2.52,2.52,0,0,1,2.21-1.29,1.45,1.45,0,0,1,1.6,1.32,2.85,2.85,0,0,1,2.41-1.32c1.25,0,2.23.75,1.77,3l-2,9.44h-1.67l2-9.19c.21-1.05.17-1.8-.77-1.8s-1.56,1.12-1.83,2.38l-1.83,8.61h-1.68l1.92-9.07c.32-1.45.07-1.92-.69-1.92-1.07,0-1.62,1.18-1.9,2.48l-1.81,8.51H406Z"/><path d="M420.33,130.52c.47-2.22.6-2.93.72-3.52h1.6c0,.27-.12.76-.19,1.1a2.52,2.52,0,0,1,2.21-1.29,1.45,1.45,0,0,1,1.6,1.32,2.85,2.85,0,0,1,2.41-1.32c1.25,0,2.24.75,1.77,3l-2,9.44h-1.67l2-9.19c.21-1.05.17-1.8-.77-1.8s-1.56,1.12-1.83,2.38l-1.83,8.61h-1.68l1.92-9.07c.32-1.45.07-1.92-.69-1.92-1.07,0-1.62,1.18-1.9,2.48l-1.81,8.51h-1.66Z"/><path d="M433.53,133.44c-.07.28-.36,1.68-.44,2.05-.29,1.4-.23,2.52.94,2.52s1.36-.93,1.6-2l.07-.34h1.64l-.08.32c-.37,1.64-.9,3.42-3.39,3.42-2.77,0-2.79-2.24-2.34-4.32l.92-4.38c.4-1.91,1-3.89,3.52-3.89,2.73,0,2.84,2.13,2.44,4-.07.31-.49,2.28-.56,2.62Zm3-1.37c.05-.26.33-1.52.38-1.77.23-1.15,0-2.13-1-2.13s-1.48,1.17-1.69,2.23l-.36,1.67Z"/><path d="M440.61,130.72c.52-2.45.67-3.19.77-3.72H443c0,.26-.09.62-.2,1.13a2.7,2.7,0,0,1,2.38-1.32c1.34,0,2.21.92,1.79,2.9l-2,9.51h-1.66l1.94-9.14c.25-1.18.07-1.85-.88-1.85s-1.7.8-2.14,2.92l-1.72,8.07h-1.66Z"/><path d="M456.9,122.48,454,136.07c-.31,1.46-.5,2.44-.62,3.15h-1.61a6.77,6.77,0,0,1,.15-1.13,2.4,2.4,0,0,1-2.21,1.32c-1.89,0-2.25-1.71-1.77-3.94l1.05-4.86c.42-1.92,1.14-3.8,3.2-3.8a1.79,1.79,0,0,1,1.88,1.09l1.14-5.42Zm-6.23,8.16-1,4.92c-.26,1.21-.26,2.37.88,2.37s1.73-1.33,2.13-3.14l.83-3.89c.36-1.63.25-2.67-1-2.67C451.5,128.23,451,129.12,450.67,130.64Z"/><path d="M461.91,136.69c-.15.74-.43,2.11-.49,2.53h-1.61c0-.31.1-.73.17-1.09a2.24,2.24,0,0,1-2.19,1.28c-1.79,0-2.15-1.72-1.75-3.6.57-2.67,1.95-3.46,4.78-3.92l.48-.08.39-1.83c.26-1.17,0-1.81-.9-1.81s-1.17.74-1.45,1.87l-.07.28h-1.64l0-.16c.33-1.59.79-3.35,3.28-3.35,2.06,0,2.8,1.19,2.4,3Zm-.87-3.52-.44.08c-1.65.31-2.51.81-2.9,2.53-.26,1.19-.13,2.15.87,2.15s1.68-1.08,2.14-3.25Z"/><path d="M465.24,127h1.38l.69-3.08H469l-.69,3.08h1.67l-.31,1.45H468l-1.81,8.31c-.17.84-.06,1.25.69,1.25a4.45,4.45,0,0,0,.86-.09l-.29,1.31a4.67,4.67,0,0,1-1.3.16c-1.23,0-2.08-.49-1.68-2.36l1.86-8.58h-1.35Z"/><path d="M471.63,127h1.65l-2.6,12.22H469Zm1-4.52h1.66l-.53,2.48h-1.65Z"/><path d="M480.92,130.76l-1,4.87c-.56,2.65-1.42,3.78-3.62,3.78-2,0-3.09-1.24-2.53-3.91l1.08-5.13c.44-2.07,1.31-3.56,3.54-3.56S481.43,128.28,480.92,130.76Zm-4.4-.39-1.16,5.4c-.32,1.54.18,2.23,1.1,2.23s1.36-.54,1.71-2.16l1.14-5.31c.29-1.39.05-2.31-1.1-2.31S476.8,129.06,476.52,130.37Z"/><path d="M483.14,130.72c.51-2.45.67-3.19.76-3.72h1.61a11.36,11.36,0,0,1-.19,1.13,2.7,2.7,0,0,1,2.38-1.32c1.34,0,2.21.92,1.78,2.9l-2,9.51H485.8l1.93-9.14c.26-1.18.08-1.85-.88-1.85s-1.69.8-2.13,2.92L483,139.22h-1.66Z"/><path d="M493.63,139.22l2.29-10.77H494.6l.31-1.45h1.32l.39-1.81c.32-1.48.85-2.82,2.69-2.82a3.94,3.94,0,0,1,1,.13L500,124a2.16,2.16,0,0,0-.57-.06c-.7,0-.95.5-1.15,1.45L497.9,127h1.54l-.31,1.45h-1.54l-2.29,10.77Z"/><path d="M506.05,130.76l-1,4.87c-.55,2.65-1.41,3.78-3.61,3.78-2,0-3.1-1.24-2.53-3.91l1.08-5.13c.44-2.07,1.31-3.56,3.54-3.56S506.56,128.28,506.05,130.76Zm-4.41-.39-1.15,5.4c-.32,1.54.17,2.23,1.09,2.23s1.36-.54,1.71-2.16l1.14-5.31c.3-1.39.05-2.31-1.09-2.31S501.93,129.06,501.64,130.37Z"/><path d="M508.18,131.16c.42-2,.69-3.33.83-4.16h1.58a15.12,15.12,0,0,1-.31,1.81,3.14,3.14,0,0,1,2.86-2l-.43,1.95c-1.62.07-2.62,1.1-3.07,3.25l-1.52,7.18h-1.66Z"/><path d="M518.45,134.07l-1.84,5.15h-1.74c1-2.78,4.75-12.93,5.93-16h2.47l-.78,16h-1.67l.28-5.15Zm2.74-1.53c.2-3.13.35-6.32.49-7.82h-.07c-.3,1.19-1.58,4.82-2.62,7.82Z"/><path d="M530.5,136.69c-.15.74-.43,2.11-.49,2.53H528.4a9.72,9.72,0,0,1,.17-1.09,2.25,2.25,0,0,1-2.19,1.28c-1.79,0-2.15-1.72-1.75-3.6.57-2.67,1.94-3.46,4.78-3.92l.48-.08.39-1.83c.26-1.17,0-1.81-.9-1.81s-1.17.74-1.46,1.87l-.07.28h-1.63l0-.16c.34-1.59.8-3.35,3.29-3.35,2.05,0,2.79,1.19,2.4,3Zm-.88-3.52-.44.08c-1.64.31-2.51.81-2.9,2.53-.26,1.19-.12,2.15.88,2.15s1.68-1.08,2.14-3.25Z"/><path d="M534.17,131.16c.42-2,.69-3.33.83-4.16h1.58a15.12,15.12,0,0,1-.31,1.81,3.14,3.14,0,0,1,2.86-2l-.43,1.95c-1.62.07-2.62,1.1-3.07,3.25l-1.52,7.18h-1.66Z"/><path d="M545.88,130.76l-1,4.87c-.55,2.65-1.41,3.78-3.61,3.78-2,0-3.1-1.24-2.53-3.91l1.08-5.13c.44-2.07,1.3-3.56,3.54-3.56S546.4,128.28,545.88,130.76Zm-4.4-.39-1.15,5.4c-.32,1.54.17,2.23,1.09,2.23s1.36-.54,1.71-2.16l1.14-5.31c.3-1.39.05-2.31-1.1-2.31C542.17,128.22,541.77,129.06,541.48,130.37Z"/><path d="M548.1,130.72c.52-2.45.67-3.19.77-3.72h1.61c0,.26-.09.62-.2,1.13a2.7,2.7,0,0,1,2.38-1.32c1.34,0,2.21.92,1.79,2.9l-2,9.51h-1.66l1.94-9.14c.25-1.18.07-1.85-.88-1.85s-1.69.8-2.14,2.92L548,139.22H546.3Z"/><path d="M62.6,163.72l-.07.3c-.52,2.15-1.08,4.21-3.84,4.21-2.55,0-3.13-1.69-2.57-4.36L57.79,156c.63-3,1.59-4.26,3.71-4.26,2.94,0,3.1,2.25,2.63,4.22l-.08.31H62.39l.1-.43c.31-1.54.27-2.64-1.1-2.64-1.08,0-1.49.92-1.85,2.56L57.8,164c-.41,2-.14,2.81,1.07,2.81s1.51-1,1.91-2.59l.12-.48Z"/><path d="M65.4,160c.42-2,.69-3.33.84-4.16h1.58c0,.23-.09.74-.32,1.81a3.14,3.14,0,0,1,2.86-2l-.43,2c-1.62.07-2.62,1.1-3.07,3.24L65.34,168H63.68Z"/><path d="M77.12,159.56l-1,4.87c-.55,2.65-1.41,3.78-3.61,3.78-2,0-3.1-1.24-2.53-3.91L71,159.17c.44-2.07,1.3-3.56,3.54-3.56S77.63,157.08,77.12,159.56Zm-4.41-.39-1.15,5.4c-.32,1.54.17,2.23,1.09,2.23s1.36-.54,1.71-2.16l1.14-5.31c.3-1.39,0-2.31-1.09-2.31S73,157.86,72.71,159.17Z"/><path d="M79.33,159.52c.52-2.45.67-3.19.77-3.72h1.61c0,.26-.09.62-.2,1.13a2.71,2.71,0,0,1,2.38-1.32c1.34,0,2.21.92,1.79,2.9l-2,9.51H82l1.94-9.14c.25-1.18.07-1.85-.88-1.85s-1.69.8-2.14,2.92L79.19,168H77.53Z"/><path d="M89.23,161.34h0c.84-1.3,2.73-4,3.76-5.54h1.81c-1.17,1.64-2.26,3.11-3.41,4.72L92.5,168H90.83l-.77-6c-.15.24-1.18,1.53-1.32,1.72L87.82,168H86.17l3.56-16.74h1.64Z"/><path d="M94.28,168l.68-3.2h1.61l-.68,3.2Z"/><path d="M106.44,152,103,168h-1.65l3.4-16Z"/><path d="M115.35,164.4l-.08.32c-.35,1.64-.91,3.49-3.39,3.49-2.71,0-2.72-2.14-2.32-4l1-4.86c.41-2,1.07-3.74,3.37-3.74,2.61,0,2.78,1.92,2.46,3.53l-.12.61h-1.62l.13-.69c.25-1.26.12-2.05-.94-2.05-.9,0-1.25.8-1.58,2.27l-1.13,5.3c-.28,1.34-.18,2.22.9,2.22s1.23-.77,1.53-2l.11-.43Z"/><path d="M122.73,165.49c-.15.74-.43,2.11-.49,2.53h-1.61c0-.31.1-.73.17-1.09a2.23,2.23,0,0,1-2.18,1.28c-1.8,0-2.15-1.72-1.76-3.6.57-2.67,2-3.46,4.78-3.92l.48-.08.39-1.83c.26-1.17,0-1.81-.9-1.81s-1.17.74-1.45,1.87l-.07.28h-1.64l0-.16c.34-1.59.8-3.35,3.29-3.35,2,0,2.79,1.19,2.39,3Zm-.87-3.52-.44.08c-1.65.31-2.51.81-2.9,2.53-.26,1.19-.13,2.15.87,2.15s1.69-1.08,2.14-3.25Z"/><path d="M126.49,159.52c.51-2.45.67-3.19.76-3.72h1.61a11.36,11.36,0,0,1-.19,1.13,2.7,2.7,0,0,1,2.38-1.32c1.34,0,2.21.92,1.78,2.9l-2,9.51h-1.66l1.93-9.14c.26-1.18.08-1.85-.87-1.85s-1.7.8-2.14,2.92L126.35,168h-1.66Z"/><path d="M138.63,164.41l-.1.47c-.22,1.16,0,2,1.06,2,.75,0,1.16-.42,1.39-1.47a3,3,0,0,0-1.07-3.21c-1.45-1.39-1.91-2.23-1.59-4a2.74,2.74,0,0,1,2.86-2.55c2.13,0,2.76,1.52,2.42,3.24l-.09.48h-1.57l.09-.58c.18-1.08,0-1.77-.92-1.77-.6,0-1,.42-1.2,1.39s0,1.43,1,2.43c1.7,1.65,2.1,2.64,1.69,4.64s-1.49,2.77-3.14,2.77c-2.44,0-3-1.61-2.53-3.58l.05-.22Z"/><path d="M150.21,165.49c-.15.74-.43,2.11-.49,2.53h-1.61c0-.31.1-.73.17-1.09a2.23,2.23,0,0,1-2.18,1.28c-1.8,0-2.15-1.72-1.76-3.6.57-2.67,1.95-3.46,4.78-3.92l.48-.08.39-1.83c.26-1.17,0-1.81-.9-1.81s-1.17.74-1.45,1.87l-.07.28h-1.64l0-.16c.33-1.59.79-3.35,3.28-3.35,2.06,0,2.8,1.19,2.4,3Zm-.87-3.52-.44.08c-1.65.31-2.51.81-2.9,2.53-.26,1.19-.13,2.15.87,2.15s1.69-1.08,2.14-3.25Z"/><path d="M155.27,155.8c-.07,3.66-.21,8.93-.37,10.25h0c.7-2.22,2.65-7.21,3.85-10.25h1.7l-5.31,12.89c-1.43,3.43-2.28,3.62-3.63,3.62a4.9,4.9,0,0,1-1.07-.13l.34-1.5a3.58,3.58,0,0,0,.75.08c.85,0,1.21-.42,2-2.37l0-12.59Z"/><path d="M166.4,155.8c-.42,5.95-.59,8.61-.77,9.88h0c.46-1.45,1.24-3.46,3.73-9.88H171c-.32,6-.41,8.36-.59,9.83h0c.37-1.28.9-2.79,3.42-9.83h1.67L170.7,168H169c.23-4,.35-7.52.54-9.6h0c-.44,1.49-1.89,5.09-3.63,9.6h-1.69l.53-12.22Z"/><path d="M177.33,155.8H179L176.38,168h-1.65Zm1-4.52H180l-.53,2.48h-1.65Z"/><path d="M180.52,155.8h1.37l.7-3.08h1.63l-.68,3.08h1.67l-.31,1.45h-1.67l-1.82,8.31c-.17.84-.06,1.25.69,1.25a4.45,4.45,0,0,0,.86-.09l-.29,1.31a4.65,4.65,0,0,1-1.29.16c-1.23,0-2.08-.49-1.68-2.36l1.86-8.58h-1.35Z"/><path d="M189.51,151.28l-1.18,5.61a2.57,2.57,0,0,1,2.26-1.28c1.79,0,2.18,1.37,1.81,3.14l-2,9.27h-1.66l1.9-8.94c.24-1.15.25-2.05-.87-2.05s-1.72,1.13-2.09,2.82L186,168H184.3l3.55-16.74Z"/><path d="M202.46,165.49c-.15.74-.43,2.11-.49,2.53h-1.62c0-.31.1-.73.17-1.09a2.23,2.23,0,0,1-2.18,1.28c-1.79,0-2.15-1.72-1.76-3.6.57-2.67,1.95-3.46,4.79-3.92l.48-.08.39-1.83c.26-1.17,0-1.81-.91-1.81s-1.16.74-1.45,1.87l-.07.28h-1.63l0-.16c.34-1.59.8-3.35,3.29-3.35,2.05,0,2.79,1.19,2.4,3Zm-.88-3.52-.44.08c-1.64.31-2.51.81-2.9,2.53-.26,1.19-.12,2.15.88,2.15s1.68-1.08,2.13-3.25Z"/><path d="M208,151.28h1.66l-1.17,5.44a2.44,2.44,0,0,1,2.11-1.11c1.74,0,2.34,1.43,1.82,3.9l-1,4.7c-.45,2.16-1.21,4-3.26,4a1.68,1.68,0,0,1-1.82-1.35A11.89,11.89,0,0,1,206,168h-1.6c.15-.65.37-1.78.69-3.23Zm1.77,12.89,1-4.79c.29-1.41.2-2.35-.92-2.35-1.29,0-1.77,1.35-2.07,2.79l-.88,4.25c-.34,1.63-.14,2.64,1,2.64C208.87,166.71,209.36,165.86,209.73,164.17Z"/><path d="M214.73,164.41l-.1.47c-.22,1.16,0,2,1.06,2,.75,0,1.16-.42,1.39-1.47a3,3,0,0,0-1.07-3.21c-1.45-1.39-1.91-2.23-1.59-4a2.74,2.74,0,0,1,2.86-2.55c2.13,0,2.76,1.52,2.42,3.24l-.09.48H218l.09-.58c.19-1.08,0-1.77-.92-1.77-.6,0-1,.42-1.2,1.39s0,1.43,1,2.43c1.7,1.65,2.1,2.64,1.69,4.64s-1.49,2.77-3.14,2.77c-2.44,0-3-1.61-2.53-3.58l0-.22Z"/><path d="M227.73,159.56l-1,4.87c-.55,2.65-1.42,3.78-3.62,3.78-2,0-3.09-1.24-2.53-3.91l1.09-5.13c.43-2.07,1.3-3.56,3.53-3.56S228.25,157.08,227.73,159.56Zm-4.4-.39-1.16,5.4c-.32,1.54.18,2.23,1.1,2.23s1.36-.54,1.71-2.16l1.14-5.31c.3-1.39,0-2.31-1.1-2.31S223.61,157.86,223.33,159.17Z"/><path d="M228.15,168l3.55-16.74h1.66L229.81,168Z"/><path d="M239.06,164.72c-.34,1.58-.58,2.79-.67,3.3h-1.62c0-.22.11-.73.2-1.18a2.35,2.35,0,0,1-2.32,1.37c-.89,0-2.29-.4-1.66-3.35l1.92-9.06h1.66l-1.9,8.88c-.3,1.45-.06,2,.8,2s1.62-.59,2.12-2.94l1.68-8H241Z"/><path d="M242.44,155.8h1.37l.7-3.08h1.63l-.68,3.08h1.67l-.31,1.45h-1.67l-1.82,8.31c-.17.84-.06,1.25.69,1.25a4.45,4.45,0,0,0,.86-.09l-.29,1.31a4.65,4.65,0,0,1-1.29.16c-1.23,0-2.08-.49-1.68-2.36l1.86-8.58h-1.35Z"/><path d="M248.74,162.24c-.07.28-.36,1.68-.44,2-.3,1.4-.23,2.52.93,2.52s1.37-.93,1.6-2l.08-.34h1.63l-.07.32c-.37,1.64-.9,3.42-3.4,3.42-2.76,0-2.78-2.24-2.34-4.32l.93-4.38c.39-1.91,1-3.89,3.51-3.89,2.74,0,2.85,2.13,2.44,4-.06.31-.48,2.28-.56,2.62Zm3-1.37c0-.26.32-1.52.38-1.77.23-1.15,0-2.13-1-2.13s-1.48,1.17-1.7,2.23l-.36,1.67Z"/><path d="M263.71,164.4l-.08.32c-.35,1.64-.91,3.49-3.39,3.49-2.71,0-2.72-2.14-2.32-4l1-4.86c.41-2,1.07-3.74,3.37-3.74,2.61,0,2.78,1.92,2.46,3.53l-.12.61H263l.13-.69c.25-1.26.12-2.05-.94-2.05-.9,0-1.25.8-1.58,2.27l-1.13,5.3c-.28,1.34-.18,2.22.9,2.22s1.23-.77,1.53-2l.11-.43Z"/><path d="M267.67,162.24c-.07.28-.36,1.68-.43,2-.3,1.4-.24,2.52.93,2.52s1.36-.93,1.6-2l.07-.34h1.64l-.08.32c-.37,1.64-.9,3.42-3.39,3.42-2.77,0-2.79-2.24-2.34-4.32l.92-4.38c.4-1.91,1-3.89,3.52-3.89,2.74,0,2.84,2.13,2.44,4-.07.31-.48,2.28-.56,2.62Zm3-1.37c.06-.26.33-1.52.38-1.77.24-1.15,0-2.13-1-2.13s-1.48,1.17-1.7,2.23l-.36,1.67Z"/><path d="M274.67,160c.42-2,.69-3.33.83-4.16h1.58a15.12,15.12,0,0,1-.31,1.81,3.14,3.14,0,0,1,2.86-2l-.43,2c-1.62.07-2.62,1.1-3.07,3.24L274.61,168H273Z"/><path d="M280.76,155.8h1.38l.69-3.08h1.64l-.69,3.08h1.67l-.31,1.45h-1.67l-1.81,8.31c-.17.84-.06,1.25.68,1.25a4.48,4.48,0,0,0,.87-.09l-.29,1.31a4.67,4.67,0,0,1-1.3.16c-1.23,0-2.08-.49-1.68-2.36l1.86-8.58h-1.35Z"/><path d="M290.6,165.49c-.15.74-.43,2.11-.49,2.53H288.5c0-.31.1-.73.17-1.09a2.23,2.23,0,0,1-2.18,1.28c-1.8,0-2.15-1.72-1.76-3.6.57-2.67,1.95-3.46,4.79-3.92l.48-.08.39-1.83c.26-1.17,0-1.81-.91-1.81s-1.17.74-1.45,1.87l-.07.28h-1.63l0-.16c.34-1.59.8-3.35,3.29-3.35,2.05,0,2.79,1.19,2.4,3Zm-.87-3.52-.44.08c-1.65.31-2.51.81-2.9,2.53-.26,1.19-.12,2.15.87,2.15s1.69-1.08,2.14-3.25Z"/><path d="M295.16,155.8h1.66L294.22,168h-1.66Zm1-4.52h1.66l-.52,2.48H295.6Z"/><path d="M298.58,159.52c.52-2.45.67-3.19.77-3.72H301c0,.26-.09.62-.2,1.13a2.71,2.71,0,0,1,2.38-1.32c1.34,0,2.21.92,1.79,2.9l-2,9.51h-1.65l1.93-9.14c.25-1.18.07-1.85-.88-1.85s-1.69.8-2.14,2.92L298.44,168h-1.66Z"/><path d="M306.87,155.8h1.38l.69-3.08h1.64l-.69,3.08h1.67l-.31,1.45h-1.67l-1.81,8.31c-.17.84-.06,1.25.69,1.25a4.45,4.45,0,0,0,.86-.09L309,168a4.67,4.67,0,0,1-1.3.16c-1.23,0-2.08-.49-1.68-2.36l1.86-8.58h-1.35Z"/><path d="M314.33,155.8c-.07,3.66-.21,8.93-.36,10.25h0c.71-2.22,2.65-7.21,3.85-10.25h1.7l-5.31,12.89c-1.43,3.43-2.28,3.62-3.62,3.62a4.91,4.91,0,0,1-1.08-.13l.35-1.5a3.41,3.41,0,0,0,.75.08c.84,0,1.21-.42,2-2.37l.06-12.59Z"/><path d="M323.5,155.8h1.38l.69-3.08h1.64l-.69,3.08h1.67l-.31,1.45h-1.67l-1.81,8.31c-.17.84-.06,1.25.68,1.25a4.48,4.48,0,0,0,.87-.09l-.29,1.31a4.67,4.67,0,0,1-1.3.16c-1.23,0-2.08-.49-1.68-2.36l1.86-8.58h-1.35Z"/><path d="M332.5,151.28l-1.19,5.61a2.57,2.57,0,0,1,2.27-1.28c1.78,0,2.17,1.37,1.8,3.14l-2,9.27h-1.65l1.89-8.94c.24-1.15.25-2.05-.87-2.05s-1.72,1.13-2.08,2.82L328.94,168h-1.65l3.55-16.74Z"/><path d="M342,165.49c-.15.74-.43,2.11-.49,2.53h-1.61c0-.31.1-.73.17-1.09a2.24,2.24,0,0,1-2.19,1.28c-1.79,0-2.15-1.72-1.75-3.6.57-2.67,2-3.46,4.78-3.92l.48-.08.39-1.83c.26-1.17,0-1.81-.9-1.81s-1.17.74-1.45,1.87l-.07.28h-1.64l0-.16c.33-1.59.79-3.35,3.28-3.35,2.06,0,2.79,1.19,2.4,3Zm-.87-3.52-.44.08c-1.65.31-2.52.81-2.9,2.53-.26,1.19-.13,2.15.87,2.15s1.68-1.08,2.14-3.25Z"/><path d="M345.29,155.8h1.38l.69-3.08H349l-.69,3.08H350l-.31,1.45H348l-1.81,8.31c-.17.84-.06,1.25.69,1.25a4.45,4.45,0,0,0,.86-.09l-.29,1.31a4.67,4.67,0,0,1-1.3.16c-1.23,0-2.08-.49-1.68-2.36l1.86-8.58H345Z"/><path d="M357.67,151.28l-1.18,5.61a2.57,2.57,0,0,1,2.26-1.28c1.79,0,2.18,1.37,1.81,3.14l-2,9.27h-1.66l1.9-8.94c.24-1.15.25-2.05-.87-2.05s-1.72,1.13-2.09,2.82L354.12,168h-1.66L356,151.28Z"/><path d="M363.64,162.24c-.06.28-.35,1.68-.43,2-.3,1.4-.24,2.52.93,2.52s1.36-.93,1.6-2l.07-.34h1.64l-.08.32c-.37,1.64-.9,3.42-3.39,3.42-2.77,0-2.79-2.24-2.34-4.32l.92-4.38c.4-1.91,1-3.89,3.52-3.89,2.74,0,2.84,2.13,2.44,4-.07.31-.48,2.28-.56,2.62Zm3-1.37c.05-.26.32-1.52.37-1.77.24-1.15,0-2.13-1-2.13s-1.48,1.17-1.7,2.23l-.36,1.67Z"/><path d="M377.52,151.28l-1.19,5.61a2.59,2.59,0,0,1,2.27-1.28c1.79,0,2.17,1.37,1.8,3.14l-2,9.27h-1.66l1.89-8.94c.25-1.15.25-2.05-.86-2.05s-1.72,1.13-2.09,2.82L374,168h-1.66l3.55-16.74Z"/><path d="M387,165.49c-.15.74-.43,2.11-.49,2.53h-1.61c0-.31.1-.73.17-1.09a2.23,2.23,0,0,1-2.18,1.28c-1.8,0-2.16-1.72-1.76-3.6.57-2.67,1.95-3.46,4.78-3.92l.48-.08.39-1.83c.26-1.17,0-1.81-.9-1.81s-1.17.74-1.45,1.87l-.07.28H382.7l0-.16c.33-1.59.79-3.35,3.28-3.35,2.06,0,2.8,1.19,2.4,3Zm-.87-3.52-.44.08c-1.65.31-2.51.81-2.9,2.53-.26,1.19-.13,2.15.87,2.15s1.69-1.08,2.14-3.25Z"/><path d="M390.69,164.41l-.1.47c-.22,1.16,0,2,1.06,2,.75,0,1.16-.42,1.39-1.47a3,3,0,0,0-1.07-3.21c-1.45-1.39-1.91-2.23-1.59-4a2.73,2.73,0,0,1,2.86-2.55c2.13,0,2.76,1.52,2.42,3.24l-.09.48H394l.09-.58c.18-1.08,0-1.77-.92-1.77-.6,0-1,.42-1.2,1.39s0,1.43,1,2.43c1.69,1.65,2.1,2.64,1.69,4.64s-1.49,2.77-3.14,2.77c-2.45,0-3-1.61-2.53-3.58l.05-.22Z"/><path d="M400.85,155.8h1.37l.7-3.08h1.63l-.68,3.08h1.67l-.31,1.45h-1.67l-1.81,8.31c-.18.84-.06,1.25.68,1.25a4.37,4.37,0,0,0,.86-.09L403,168a4.72,4.72,0,0,1-1.3.16c-1.23,0-2.08-.49-1.68-2.36l1.86-8.58h-1.35Z"/><path d="M409.84,151.28l-1.18,5.61a2.57,2.57,0,0,1,2.26-1.28c1.79,0,2.18,1.37,1.81,3.14l-2,9.27h-1.66l1.9-8.94c.24-1.15.25-2.05-.87-2.05s-1.72,1.13-2.08,2.82L406.29,168h-1.66l3.56-16.74Z"/><path d="M415.81,162.24c-.06.28-.35,1.68-.43,2-.3,1.4-.24,2.52.93,2.52s1.36-.93,1.6-2l.07-.34h1.64l-.07.32c-.38,1.64-.9,3.42-3.4,3.42-2.77,0-2.78-2.24-2.34-4.32l.92-4.38c.4-1.91,1-3.89,3.52-3.89,2.74,0,2.84,2.13,2.44,4-.06.31-.48,2.28-.56,2.62Zm3-1.37c.05-.26.32-1.52.37-1.77.24-1.15.05-2.13-1-2.13s-1.48,1.17-1.7,2.23l-.36,1.67Z"/><path d="M426.35,164.41l-.1.47c-.22,1.16,0,2,1.06,2,.75,0,1.16-.42,1.39-1.47a3,3,0,0,0-1.07-3.21c-1.45-1.39-1.91-2.23-1.59-4a2.74,2.74,0,0,1,2.86-2.55c2.13,0,2.76,1.52,2.42,3.24l-.09.48h-1.57l.09-.58c.18-1.08,0-1.77-.92-1.77-.6,0-1,.42-1.2,1.39s0,1.43,1,2.43c1.69,1.65,2.1,2.64,1.69,4.64s-1.49,2.77-3.14,2.77c-2.45,0-3-1.61-2.53-3.58l.05-.22Z"/><path d="M433.06,155.8h1.37l.7-3.08h1.63l-.68,3.08h1.67l-.31,1.45h-1.67L434,165.56c-.17.84-.06,1.25.69,1.25a4.45,4.45,0,0,0,.86-.09l-.29,1.31a4.65,4.65,0,0,1-1.29.16c-1.23,0-2.08-.49-1.68-2.36l1.86-8.58h-1.35Z"/><path d="M438.5,160c.42-2,.7-3.33.84-4.16h1.58a15.12,15.12,0,0,1-.31,1.81,3.13,3.13,0,0,1,2.86-2l-.43,2c-1.62.07-2.63,1.1-3.08,3.24L438.45,168h-1.66Z"/><path d="M450.22,159.56l-1,4.87c-.55,2.65-1.42,3.78-3.62,3.78-2,0-3.09-1.24-2.53-3.91l1.09-5.13c.44-2.07,1.3-3.56,3.53-3.56S450.74,157.08,450.22,159.56Zm-4.4-.39-1.15,5.4c-.33,1.54.17,2.23,1.09,2.23s1.36-.54,1.71-2.16l1.14-5.31c.3-1.39.05-2.31-1.1-2.31S446.1,157.86,445.82,159.17Z"/><path d="M452.44,159.52c.51-2.45.67-3.19.76-3.72h1.61a11.36,11.36,0,0,1-.19,1.13,2.7,2.7,0,0,1,2.38-1.32c1.34,0,2.21.92,1.79,2.9l-2,9.51H455.1l1.94-9.14c.25-1.18.07-1.85-.88-1.85s-1.7.8-2.14,2.92L452.3,168h-1.66Z"/><path d="M465.23,167.55c-.55,2.66-.86,4.79-3.86,4.79-2.53,0-2.91-1.62-2.65-2.94l0-.12h1.68l0,.15c-.1.57-.1,1.51,1.12,1.51s1.56-1.17,2-3l.28-1.3a2.23,2.23,0,0,1-2.09,1.29c-2.05,0-2.27-1.89-1.89-3.66l1.07-5c.35-1.62,1-3.63,3.17-3.63a1.66,1.66,0,0,1,1.83,1.3,9.57,9.57,0,0,1,.32-1.11h1.59c-.16.68-.42,1.78-.72,3.22Zm-2.69-8.37-1.06,5c-.26,1.25-.19,2.25.91,2.25,1.34,0,1.79-1.62,2.17-3.29l.67-3.07c.31-1.43.45-3-1-3C463.17,157,462.78,158.05,462.54,159.18Z"/><path d="M474.5,155.8c-.43,5.95-.6,8.61-.78,9.88h0c.45-1.45,1.23-3.46,3.72-9.88h1.58c-.31,6-.41,8.36-.59,9.83h0c.37-1.28.89-2.79,3.41-9.83h1.67L478.79,168h-1.66c.23-4,.34-7.52.54-9.6h0c-.44,1.49-1.88,5.09-3.63,9.6h-1.68l.52-12.22Z"/><path d="M490.44,159.56l-1,4.87c-.55,2.65-1.41,3.78-3.61,3.78-2,0-3.1-1.24-2.53-3.91l1.08-5.13c.44-2.07,1.3-3.56,3.53-3.56S491,157.08,490.44,159.56Zm-4.4-.39-1.15,5.4c-.32,1.54.17,2.23,1.09,2.23s1.36-.54,1.71-2.16l1.14-5.31c.3-1.39.05-2.31-1.1-2.31S486.32,157.86,486,159.17Z"/><path d="M492.57,160c.42-2,.7-3.33.84-4.16H495a15.12,15.12,0,0,1-.31,1.81,3.13,3.13,0,0,1,2.86-2l-.44,2c-1.61.07-2.62,1.1-3.07,3.24L492.52,168h-1.66Z"/><path d="M499.68,161.34h0c.84-1.3,2.73-4,3.76-5.54h1.81c-1.17,1.64-2.27,3.11-3.41,4.72L503,168h-1.67l-.77-6c-.15.24-1.18,1.53-1.32,1.72l-.92,4.29h-1.65l3.55-16.74h1.65Z"/><path d="M510.23,162.24c-.07.28-.36,1.68-.44,2-.29,1.4-.23,2.52.94,2.52s1.36-.93,1.6-2l.07-.34H514l-.07.32c-.37,1.64-.9,3.42-3.4,3.42-2.76,0-2.78-2.24-2.34-4.32l.93-4.38c.39-1.91,1-3.89,3.52-3.89,2.73,0,2.84,2.13,2.44,4-.07.31-.49,2.28-.57,2.62Zm3-1.37c0-.26.32-1.52.38-1.77.23-1.15,0-2.13-1-2.13s-1.48,1.17-1.7,2.23l-.36,1.67Z"/><path d="M517,155.8h1.38l.7-3.08h1.63L520,155.8h1.67l-.31,1.45h-1.67l-1.82,8.31c-.17.84-.06,1.25.69,1.25a4.45,4.45,0,0,0,.86-.09l-.29,1.31a4.65,4.65,0,0,1-1.29.16c-1.23,0-2.08-.49-1.68-2.36l1.86-8.58H516.7Z"/><path d="M526,151.28l-1.18,5.61a2.57,2.57,0,0,1,2.26-1.28c1.79,0,2.18,1.37,1.8,3.14l-2,9.27h-1.66l1.9-8.94c.24-1.15.24-2.05-.87-2.05s-1.72,1.13-2.09,2.82L522.45,168h-1.66l3.55-16.74Z"/><path d="M532,155.8h1.66L531.06,168h-1.65Zm1-4.52h1.66l-.53,2.48h-1.65Z"/><path d="M539.93,164.4l-.07.32c-.35,1.64-.91,3.49-3.39,3.49-2.71,0-2.72-2.14-2.33-4l1-4.86c.41-2,1.07-3.74,3.36-3.74,2.62,0,2.78,1.92,2.47,3.53l-.12.61h-1.62l.12-.69c.25-1.26.13-2.05-.93-2.05s-1.26.8-1.58,2.27l-1.13,5.3c-.29,1.34-.19,2.22.9,2.22s1.23-.77,1.53-2l.1-.43Z"/><path d="M61.56,194.29c-.15.74-.43,2.11-.49,2.53H59.46c0-.31.1-.73.17-1.09A2.23,2.23,0,0,1,57.45,197c-1.8,0-2.16-1.72-1.76-3.6.57-2.67,2-3.47,4.78-3.92l.48-.08.39-1.83c.26-1.17,0-1.81-.9-1.81s-1.17.74-1.45,1.87l-.07.28H57.28l0-.16c.33-1.59.79-3.35,3.28-3.35,2.06,0,2.8,1.19,2.4,3Zm-.87-3.52-.44.08c-1.65.31-2.51.81-2.9,2.53-.26,1.19-.13,2.15.87,2.15s1.69-1.08,2.14-3.25Z"/><path d="M65.32,188.32c.51-2.45.67-3.19.76-3.72h1.61a11.36,11.36,0,0,1-.19,1.13,2.7,2.7,0,0,1,2.38-1.32c1.33,0,2.21.92,1.78,2.9l-2,9.51H68l1.93-9.14c.26-1.18.07-1.85-.88-1.85s-1.69.8-2.13,2.92l-1.73,8.07H63.52Z"/><path d="M81.6,180.08l-2.88,13.59c-.32,1.46-.5,2.44-.62,3.15H76.49a7.75,7.75,0,0,1,.14-1.13,2.39,2.39,0,0,1-2.2,1.32c-1.9,0-2.25-1.72-1.77-3.95l1-4.85c.42-1.92,1.14-3.8,3.2-3.8a1.82,1.82,0,0,1,1.89,1.09l1.13-5.42Zm-6.23,8.16-1,4.92c-.26,1.21-.26,2.37.88,2.37s1.74-1.33,2.13-3.14l.84-3.89c.35-1.63.25-2.67-1-2.67C76.2,185.83,75.69,186.72,75.37,188.24Z"/><path d="M86.61,184.6h1.66l-2.6,12.22H84Zm1-4.52h1.65l-.52,2.48H87.05Z"/><path d="M90,188.32c.52-2.45.67-3.19.77-3.72h1.61a9.47,9.47,0,0,1-.2,1.13,2.72,2.72,0,0,1,2.38-1.32c1.34,0,2.21.92,1.79,2.9l-2,9.51H92.7l1.93-9.14c.25-1.18.07-1.85-.88-1.85s-1.69.8-2.13,2.92l-1.73,8.07H88.24Z"/><path d="M98.32,184.6H99.7l.69-3.08H102l-.69,3.08H103l-.31,1.45H101l-1.81,8.31c-.17.84-.06,1.25.69,1.25a4.45,4.45,0,0,0,.86-.09l-.29,1.31a4.67,4.67,0,0,1-1.3.16c-1.23,0-2.08-.49-1.68-2.36l1.86-8.58H98Z"/><path d="M104.62,191c-.06.28-.35,1.68-.43,2.05-.3,1.4-.24,2.52.93,2.52s1.36-.93,1.6-2l.07-.34h1.64l-.07.32c-.38,1.64-.9,3.42-3.4,3.42-2.77,0-2.78-2.24-2.34-4.32l.92-4.38c.4-1.91,1-3.89,3.52-3.89,2.74,0,2.84,2.13,2.44,4-.06.31-.48,2.28-.56,2.62Zm3-1.37c.05-.26.32-1.52.37-1.77.24-1.15,0-2.13-1-2.13s-1.48,1.17-1.7,2.23l-.36,1.67Z"/><path d="M109.86,196.82l3.55-16.74h1.66l-3.55,16.74Z"/><path d="M114,196.82l3.56-16.74h1.65l-3.55,16.74Z"/><path d="M120.77,191c-.06.28-.35,1.68-.43,2.05-.3,1.4-.24,2.52.93,2.52s1.36-.93,1.6-2l.07-.34h1.64l-.07.32c-.37,1.64-.9,3.42-3.4,3.42-2.77,0-2.78-2.24-2.34-4.32l.93-4.38c.39-1.91,1-3.89,3.51-3.89,2.74,0,2.84,2.13,2.44,4-.06.31-.48,2.28-.56,2.62Zm3-1.37c0-.26.32-1.52.37-1.77.24-1.15,0-2.13-1-2.13s-1.48,1.17-1.7,2.23l-.36,1.67Z"/><path d="M132.36,193.2l-.07.32c-.35,1.64-.91,3.49-3.4,3.49-2.7,0-2.71-2.14-2.32-4l1-4.86c.42-2,1.07-3.74,3.37-3.74,2.62,0,2.78,1.92,2.47,3.53l-.12.61h-1.63l.13-.69c.25-1.26.13-2.05-.93-2.05-.91,0-1.26.8-1.58,2.27l-1.13,5.3c-.29,1.33-.19,2.22.9,2.22.94,0,1.23-.77,1.53-2l.1-.43Z"/><path d="M135.14,184.6h1.37l.7-3.08h1.63l-.68,3.08h1.67l-.31,1.45h-1.67L136,194.36c-.17.84-.06,1.25.69,1.25a4.45,4.45,0,0,0,.86-.09l-.29,1.31A4.65,4.65,0,0,1,136,197c-1.23,0-2.08-.49-1.68-2.36l1.86-8.58h-1.35Z"/><path d="M145.49,193.52c-.35,1.58-.59,2.79-.67,3.3H143.2c0-.22.11-.73.19-1.18a2.34,2.34,0,0,1-2.31,1.37c-.89,0-2.29-.4-1.66-3.35l1.92-9.06H143l-1.9,8.88c-.31,1.45-.06,2.05.8,2.05s1.62-.59,2.12-2.94l1.68-8h1.68Z"/><path d="M153.4,194.29c-.15.74-.43,2.11-.49,2.53H151.3c0-.31.1-.73.17-1.09a2.23,2.23,0,0,1-2.18,1.28c-1.8,0-2.15-1.72-1.76-3.6.57-2.67,1.95-3.47,4.79-3.92l.47-.08.4-1.83c.26-1.17,0-1.81-.91-1.81s-1.17.74-1.45,1.87l-.07.28h-1.63l0-.16c.34-1.59.8-3.35,3.29-3.35,2.05,0,2.79,1.19,2.4,3Zm-.87-3.52-.44.08c-1.65.31-2.51.81-2.9,2.53-.26,1.19-.12,2.15.87,2.15s1.69-1.08,2.14-3.25Z"/><path d="M155.36,196.82l3.55-16.74h1.66L157,196.82Z"/><path d="M169.27,193.2l-.07.32c-.35,1.64-.91,3.49-3.4,3.49-2.7,0-2.71-2.14-2.32-4l1-4.86c.42-2,1.07-3.74,3.37-3.74,2.62,0,2.78,1.92,2.47,3.53l-.12.61H168.6l.13-.69c.25-1.26.13-2.05-.93-2.05s-1.26.8-1.58,2.27l-1.13,5.3c-.29,1.33-.19,2.22.9,2.22.94,0,1.23-.77,1.53-2l.1-.43Z"/><path d="M176.66,194.29c-.15.74-.43,2.11-.49,2.53h-1.62c0-.31.1-.73.17-1.09a2.23,2.23,0,0,1-2.18,1.28c-1.79,0-2.15-1.72-1.75-3.6.56-2.67,1.94-3.47,4.78-3.92l.48-.08.39-1.83c.26-1.17,0-1.81-.91-1.81s-1.16.74-1.45,1.87l-.07.28h-1.63l0-.16c.34-1.59.8-3.35,3.29-3.35,2.05,0,2.79,1.19,2.4,3Zm-.88-3.52-.44.08c-1.64.31-2.51.81-2.9,2.53-.26,1.19-.12,2.15.88,2.15s1.68-1.08,2.13-3.25Z"/><path d="M180.44,195.84l-1.08,5.1H177.7l2.73-12.81c.36-1.67.59-2.77.72-3.53h1.61a10.36,10.36,0,0,1-.19,1.16,2.48,2.48,0,0,1,2.24-1.35c1.9,0,2.19,1.78,1.73,3.94l-1,4.62c-.53,2.5-1.39,4-3.32,4A1.67,1.67,0,0,1,180.44,195.84Zm3.42-2.78,1-4.68c.29-1.37.33-2.54-.82-2.54s-1.78,1.41-2.15,3.14l-.75,3.56c-.33,1.54-.47,3,.94,3C183.13,195.53,183.58,194.41,183.86,193.06Z"/><path d="M193.17,194.29c-.15.74-.43,2.11-.49,2.53h-1.61a9.72,9.72,0,0,1,.17-1.09,2.25,2.25,0,0,1-2.19,1.28c-1.79,0-2.15-1.72-1.75-3.6.57-2.67,1.94-3.47,4.78-3.92l.48-.08.39-1.83c.26-1.17,0-1.81-.91-1.81s-1.16.74-1.45,1.87l-.07.28h-1.63l0-.16c.34-1.59.8-3.35,3.29-3.35,2,0,2.79,1.19,2.4,3Zm-.88-3.52-.44.08c-1.64.31-2.51.81-2.9,2.53-.26,1.19-.12,2.15.88,2.15s1.68-1.08,2.14-3.25Z"/><path d="M198.68,180.08h1.65l-1.17,5.44a2.45,2.45,0,0,1,2.12-1.11c1.73,0,2.33,1.43,1.81,3.9l-1,4.7c-.46,2.16-1.22,4-3.26,4a1.69,1.69,0,0,1-1.83-1.35c-.06.32-.18.82-.29,1.18h-1.6c.16-.65.37-1.78.69-3.23ZM200.44,193l1-4.78c.29-1.41.2-2.35-.92-2.35-1.29,0-1.77,1.35-2.07,2.79l-.88,4.25c-.34,1.63-.14,2.64,1,2.64C199.58,195.51,200.08,194.66,200.44,193Z"/><path d="M206.17,184.6h1.66l-2.6,12.22h-1.66Zm1-4.52h1.65l-.52,2.48h-1.66Z"/><path d="M207.8,196.82l3.55-16.74H213l-3.56,16.74Z"/><path d="M214.57,184.6h1.66l-2.6,12.22H212Zm1-4.52h1.65l-.52,2.48H215Z"/><path d="M217.76,184.6h1.38l.69-3.08h1.64l-.69,3.08h1.67l-.31,1.45h-1.67l-1.81,8.31c-.17.84-.06,1.25.69,1.25a4.45,4.45,0,0,0,.86-.09l-.29,1.31a4.67,4.67,0,0,1-1.3.16c-1.22,0-2.08-.49-1.68-2.36l1.87-8.58h-1.36Z"/><path d="M224.15,184.6h1.65l-2.59,12.22h-1.66Zm1-4.52h1.66l-.52,2.48h-1.66Z"/><path d="M228.33,191c-.06.28-.35,1.68-.43,2.05-.3,1.4-.23,2.52.93,2.52s1.37-.93,1.6-2l.08-.34h1.63l-.07.32c-.37,1.64-.9,3.42-3.4,3.42-2.76,0-2.78-2.24-2.34-4.32l.93-4.38c.39-1.91,1-3.89,3.51-3.89,2.74,0,2.85,2.13,2.44,4-.06.31-.48,2.28-.56,2.62Zm3-1.37c0-.26.32-1.52.37-1.77.24-1.15,0-2.13-1-2.13s-1.48,1.17-1.7,2.23l-.36,1.67Z"/><path d="M235.46,193.21l-.09.47c-.22,1.15,0,2,1,2,.75,0,1.16-.42,1.4-1.47a3,3,0,0,0-1.07-3.21c-1.45-1.4-1.92-2.23-1.59-4a2.73,2.73,0,0,1,2.85-2.55c2.13,0,2.77,1.52,2.43,3.24l-.1.48h-1.57l.1-.58c.18-1.08,0-1.77-.92-1.77-.6,0-1,.42-1.2,1.39s0,1.43,1,2.43c1.69,1.65,2.1,2.64,1.69,4.64S238,197,236.32,197c-2.45,0-3-1.61-2.53-3.58l.05-.22Z"/><path d="M245.63,184.6H247l.7-3.08h1.63l-.68,3.08h1.67l-.31,1.45h-1.67l-1.82,8.31c-.17.84-.06,1.25.69,1.25a4.45,4.45,0,0,0,.86-.09l-.29,1.31a4.65,4.65,0,0,1-1.29.16c-1.23,0-2.08-.49-1.68-2.36l1.86-8.58h-1.35Z"/><path d="M257,188.36l-1,4.87c-.55,2.65-1.42,3.78-3.62,3.78-2,0-3.09-1.24-2.53-3.91L251,188c.43-2.07,1.3-3.56,3.53-3.56S257.54,185.88,257,188.36Zm-4.4-.39-1.16,5.4c-.32,1.54.18,2.23,1.1,2.23s1.36-.54,1.71-2.16l1.14-5.31c.29-1.4.05-2.31-1.1-2.31S252.91,186.66,252.63,188Z"/><path d="M267.18,193.2l-.07.32c-.35,1.64-.91,3.49-3.39,3.49-2.71,0-2.72-2.14-2.33-4l1-4.86c.41-2,1.07-3.74,3.37-3.74,2.61,0,2.77,1.92,2.46,3.53l-.12.61h-1.62l.13-.69c.24-1.26.12-2.05-.94-2.05-.9,0-1.26.8-1.58,2.27l-1.13,5.3c-.29,1.33-.19,2.22.9,2.22s1.23-.77,1.53-2l.1-.43Z"/><path d="M276.25,188.36l-1,4.87c-.55,2.65-1.41,3.78-3.61,3.78-2,0-3.1-1.24-2.53-3.91l1.08-5.13c.44-2.07,1.3-3.56,3.54-3.56S276.77,185.88,276.25,188.36Zm-4.4-.39-1.15,5.4c-.32,1.54.17,2.23,1.09,2.23s1.36-.54,1.71-2.16l1.14-5.31c.3-1.4.05-2.31-1.1-2.31S272.13,186.66,271.85,188Z"/><path d="M278.47,188.32c.52-2.45.67-3.19.77-3.72h1.61c0,.26-.09.62-.2,1.13a2.7,2.7,0,0,1,2.38-1.32c1.34,0,2.21.92,1.79,2.9l-2,9.51h-1.66l1.94-9.14c.25-1.18.07-1.85-.88-1.85s-1.69.8-2.14,2.92l-1.72,8.07h-1.66Z"/><path d="M287,193.21l-.1.47c-.22,1.15,0,2,1.06,2,.75,0,1.16-.42,1.39-1.47a3,3,0,0,0-1.07-3.21c-1.45-1.4-1.91-2.23-1.59-4a2.73,2.73,0,0,1,2.85-2.55c2.14,0,2.77,1.52,2.43,3.24l-.09.48h-1.57l.09-.58c.18-1.08,0-1.77-.92-1.77-.6,0-1,.42-1.2,1.39s0,1.43,1,2.43c1.69,1.65,2.1,2.64,1.69,4.64s-1.49,2.77-3.14,2.77c-2.45,0-3-1.61-2.53-3.58l.05-.22Z"/><path d="M295,184.6h1.65l-2.6,12.22h-1.65Zm1-4.52h1.66l-.53,2.48h-1.65Z"/><path d="M298.51,193.21l-.1.47c-.22,1.15,0,2,1.06,2,.75,0,1.16-.42,1.39-1.47a3,3,0,0,0-1.07-3.21c-1.45-1.4-1.91-2.23-1.59-4a2.74,2.74,0,0,1,2.86-2.55c2.13,0,2.76,1.52,2.42,3.24l-.09.48h-1.57l.09-.58c.18-1.08,0-1.77-.92-1.77-.6,0-1,.42-1.2,1.39s0,1.43,1,2.43c1.69,1.65,2.1,2.64,1.69,4.64S301,197,299.36,197c-2.44,0-3-1.61-2.53-3.58l.05-.22Z"/><path d="M305.21,184.6h1.38l.7-3.08h1.63l-.68,3.08h1.67l-.31,1.45h-1.67l-1.82,8.31c-.17.84-.06,1.25.69,1.25a4.45,4.45,0,0,0,.86-.09l-.29,1.31a4.65,4.65,0,0,1-1.29.16c-1.23,0-2.08-.49-1.68-2.36l1.86-8.58h-1.35Z"/><path d="M311.51,191c-.06.28-.35,1.68-.43,2.05-.3,1.4-.24,2.52.93,2.52s1.37-.93,1.6-2l.08-.34h1.63l-.07.32c-.37,1.64-.9,3.42-3.4,3.42-2.76,0-2.78-2.24-2.34-4.32l.93-4.38c.39-1.91,1-3.89,3.51-3.89,2.74,0,2.84,2.13,2.44,4-.06.31-.48,2.28-.56,2.62Zm3-1.37c.05-.26.32-1.52.37-1.77.24-1.15.05-2.13-1-2.13s-1.48,1.17-1.7,2.23l-.36,1.67Z"/><path d="M318.6,188.32c.51-2.45.67-3.19.76-3.72H321a11.36,11.36,0,0,1-.19,1.13,2.7,2.7,0,0,1,2.38-1.32c1.34,0,2.21.92,1.78,2.9l-2,9.51h-1.66l1.93-9.14c.26-1.18.08-1.85-.87-1.85s-1.7.8-2.14,2.92l-1.72,8.07H316.8Z"/><path d="M326.89,184.6h1.37l.7-3.08h1.63l-.68,3.08h1.67l-.31,1.45H329.6l-1.82,8.31c-.17.84-.06,1.25.69,1.25a4.45,4.45,0,0,0,.86-.09l-.29,1.31a4.65,4.65,0,0,1-1.29.16c-1.23,0-2.08-.49-1.68-2.36l1.86-8.58h-1.35Z"/><path d="M330.67,196.82l3.55-16.74h1.66l-3.55,16.74Z"/><path d="M338.24,184.6c-.07,3.66-.21,8.93-.37,10.25h0c.71-2.22,2.65-7.21,3.86-10.25h1.69l-5.31,12.89c-1.42,3.43-2.27,3.62-3.62,3.62a4.91,4.91,0,0,1-1.08-.13l.35-1.5a3.5,3.5,0,0,0,.75.08c.84,0,1.21-.42,2-2.37l.05-12.59Z"/><path d="M353.63,188.36l-1,4.87c-.55,2.65-1.41,3.78-3.61,3.78-2,0-3.1-1.24-2.53-3.91l1.08-5.13c.44-2.07,1.31-3.56,3.54-3.56S354.14,185.88,353.63,188.36Zm-4.41-.39-1.15,5.4c-.32,1.54.17,2.23,1.09,2.23s1.36-.54,1.71-2.16l1.14-5.31c.3-1.4.05-2.31-1.09-2.31S349.51,186.66,349.22,188Z"/><path d="M360.78,193.52c-.34,1.58-.58,2.79-.67,3.3h-1.62c0-.22.11-.73.2-1.18a2.35,2.35,0,0,1-2.32,1.37c-.89,0-2.29-.4-1.66-3.35l1.92-9.06h1.66l-1.89,8.88c-.31,1.45-.07,2.05.79,2.05s1.62-.59,2.12-2.94l1.69-8h1.68Z"/><path d="M364.16,184.6h1.37l.7-3.08h1.63l-.68,3.08h1.67l-.31,1.45h-1.67l-1.82,8.31c-.17.84-.06,1.25.69,1.25a4.45,4.45,0,0,0,.86-.09l-.29,1.31A4.65,4.65,0,0,1,365,197c-1.23,0-2.08-.49-1.68-2.36l1.86-8.58h-1.35Z"/><path d="M369.72,195.84l-1.08,5.1H367l2.73-12.81c.36-1.67.59-2.77.72-3.53H372a10.36,10.36,0,0,1-.19,1.16,2.49,2.49,0,0,1,2.24-1.35c1.9,0,2.2,1.78,1.73,3.94l-1,4.62c-.53,2.5-1.39,4-3.32,4A1.67,1.67,0,0,1,369.72,195.84Zm3.42-2.78,1-4.68c.29-1.37.33-2.54-.82-2.54s-1.78,1.41-2.15,3.14l-.75,3.56c-.33,1.54-.47,3,.94,3C372.41,195.53,372.86,194.41,373.14,193.06Z"/><path d="M378.91,191c-.07.28-.36,1.68-.44,2.05-.3,1.4-.23,2.52.93,2.52s1.37-.93,1.6-2l.08-.34h1.63l-.07.32c-.37,1.64-.9,3.42-3.4,3.42-2.76,0-2.78-2.24-2.34-4.32l.93-4.38c.39-1.91,1-3.89,3.51-3.89,2.74,0,2.85,2.13,2.44,4-.06.31-.48,2.28-.56,2.62Zm3-1.37c0-.26.32-1.52.38-1.77.23-1.15,0-2.13-1-2.13s-1.48,1.17-1.7,2.23l-.36,1.67Z"/><path d="M385.9,188.76c.42-2,.7-3.33.84-4.16h1.58a17.81,17.81,0,0,1-.31,1.81,3.13,3.13,0,0,1,2.86-2l-.44,1.95c-1.62.07-2.62,1.1-3.07,3.24l-1.51,7.19h-1.66Z"/><path d="M390.72,196.82,393,186.05h-1.32l.31-1.45h1.32l.39-1.81c.32-1.48.85-2.82,2.69-2.82a3.94,3.94,0,0,1,1,.13l-.32,1.45a2.16,2.16,0,0,0-.57-.06c-.7,0-.95.49-1.15,1.45L395,184.6h1.54l-.31,1.45h-1.54l-2.29,10.77Z"/><path d="M403.14,188.36l-1,4.87c-.55,2.65-1.41,3.78-3.61,3.78-2,0-3.1-1.24-2.53-3.91l1.08-5.13c.44-2.07,1.31-3.56,3.54-3.56S403.65,185.88,403.14,188.36Zm-4.41-.39-1.15,5.4c-.32,1.54.17,2.23,1.09,2.23s1.36-.54,1.71-2.16l1.14-5.31c.3-1.4.05-2.31-1.09-2.31S399,186.66,398.73,188Z"/><path d="M405.27,188.76c.42-2,.69-3.33.84-4.16h1.58c0,.23-.09.74-.32,1.81a3.14,3.14,0,0,1,2.86-2l-.43,1.95c-1.62.07-2.62,1.1-3.07,3.24l-1.52,7.19h-1.66Z"/><path d="M411,188.12c.47-2.22.6-2.93.72-3.52h1.59c0,.27-.11.76-.18,1.1a2.5,2.5,0,0,1,2.21-1.29,1.43,1.43,0,0,1,1.59,1.32,2.87,2.87,0,0,1,2.42-1.32c1.24,0,2.23.75,1.76,3l-2,9.44h-1.67l2-9.19c.2-1,.16-1.8-.78-1.8s-1.55,1.12-1.83,2.38L415,196.82h-1.68l1.92-9.07c.32-1.45.07-1.92-.7-1.92-1.06,0-1.61,1.18-1.89,2.48l-1.81,8.51h-1.66Z"/><path d="M432.75,188.36l-1,4.87c-.55,2.65-1.41,3.78-3.61,3.78-2,0-3.1-1.24-2.54-3.91l1.09-5.13c.44-2.07,1.3-3.56,3.53-3.56S433.27,185.88,432.75,188.36Zm-4.4-.39-1.15,5.4c-.32,1.54.17,2.23,1.09,2.23s1.36-.54,1.71-2.16l1.14-5.31c.3-1.4.05-2.31-1.1-2.31S428.63,186.66,428.35,188Z"/><path d="M434.62,184.6H436l.7-3.08h1.63l-.68,3.08h1.67l-.31,1.45h-1.67l-1.82,8.31c-.17.84-.05,1.25.69,1.25a4.45,4.45,0,0,0,.86-.09l-.28,1.31a4.72,4.72,0,0,1-1.3.16c-1.23,0-2.08-.49-1.68-2.36l1.86-8.58h-1.35Z"/><path d="M443.61,180.08l-1.18,5.61a2.57,2.57,0,0,1,2.26-1.28c1.79,0,2.18,1.37,1.81,3.14l-2,9.27h-1.66l1.9-8.94c.24-1.15.25-2-.87-2s-1.72,1.13-2.09,2.82l-1.74,8.17H438.4L442,180.08Z"/><path d="M449.58,191c-.06.28-.35,1.68-.43,2.05-.3,1.4-.24,2.52.93,2.52s1.36-.93,1.6-2l.07-.34h1.64l-.07.32c-.38,1.64-.9,3.42-3.4,3.42-2.77,0-2.78-2.24-2.34-4.32l.92-4.38c.4-1.91,1-3.89,3.52-3.89,2.74,0,2.84,2.13,2.44,4-.06.31-.48,2.28-.56,2.62Zm3-1.37c.05-.26.32-1.52.37-1.77.24-1.15.05-2.13-1-2.13s-1.48,1.17-1.7,2.23l-.36,1.67Z"/><path d="M456.58,188.76c.42-2,.69-3.33.84-4.16H459a16.3,16.3,0,0,1-.32,1.81,3.15,3.15,0,0,1,2.86-2l-.43,1.95c-1.62.07-2.62,1.1-3.07,3.24l-1.52,7.19h-1.65Z"/><path d="M462.64,193.21l-.1.47c-.22,1.15,0,2,1.06,2,.75,0,1.16-.42,1.39-1.47a3,3,0,0,0-1.07-3.21c-1.45-1.4-1.91-2.23-1.59-4a2.74,2.74,0,0,1,2.86-2.55c2.13,0,2.76,1.52,2.42,3.24l-.09.48H466l.09-.58c.18-1.08,0-1.77-.92-1.77-.6,0-1,.42-1.2,1.39s0,1.43,1,2.43c1.69,1.65,2.1,2.64,1.69,4.64s-1.49,2.77-3.14,2.77c-2.45,0-3-1.61-2.53-3.58l.05-.22Z"/><path d="M468,196.82l.68-3.2h1.6l-.68,3.2Z"/><path d="M480.18,180.79l-3.41,16h-1.66l3.41-16Z"/><path d="M57.17,217.56c.41-2,.69-3.33.83-4.16h1.58a15.12,15.12,0,0,1-.31,1.81,3.13,3.13,0,0,1,2.86-2l-.43,1.95c-1.62.07-2.62,1.1-3.07,3.25l-1.52,7.18H55.45Z"/><path d="M63.78,219.84c-.07.28-.36,1.68-.44,2-.29,1.4-.23,2.52.94,2.52s1.36-.93,1.6-2l.07-.34h1.64l-.08.32c-.37,1.64-.9,3.42-3.39,3.42-2.77,0-2.79-2.24-2.34-4.32l.92-4.38c.4-1.91,1-3.89,3.52-3.89,2.73,0,2.84,2.13,2.44,4-.07.31-.49,2.28-.56,2.62Zm3-1.37c0-.26.33-1.52.38-1.77.23-1.15,0-2.13-1-2.13s-1.48,1.17-1.69,2.23l-.36,1.67Z"/><path d="M75.37,222l-.08.32c-.35,1.64-.91,3.49-3.39,3.49-2.71,0-2.72-2.14-2.32-4l1-4.86c.41-2,1.07-3.74,3.37-3.74,2.61,0,2.78,1.92,2.46,3.53l-.12.62H74.7l.13-.7c.25-1.26.12-2-.94-2-.9,0-1.25.8-1.58,2.27l-1.13,5.3c-.29,1.34-.18,2.22.9,2.22s1.23-.77,1.53-2l.11-.43Z"/><path d="M84.43,217.16l-1,4.87c-.55,2.65-1.41,3.78-3.61,3.78-2,0-3.1-1.24-2.53-3.91l1.08-5.13c.44-2.07,1.3-3.56,3.54-3.56S85,214.68,84.43,217.16Zm-4.4-.39-1.15,5.4c-.32,1.54.17,2.23,1.09,2.23s1.36-.54,1.71-2.16l1.14-5.31c.3-1.39.05-2.31-1.1-2.31S80.32,215.46,80,216.77Z"/><path d="M86.7,216.92c.47-2.22.6-2.93.72-3.52H89c0,.27-.11.76-.18,1.1A2.5,2.5,0,0,1,91,213.21a1.44,1.44,0,0,1,1.59,1.32,2.88,2.88,0,0,1,2.42-1.32c1.24,0,2.23.75,1.76,3l-2,9.44H93.14l2-9.19c.2-1.05.16-1.8-.77-1.8s-1.56,1.12-1.84,2.38l-1.82,8.61H89l1.92-9.07c.32-1.45.07-1.92-.7-1.92-1.06,0-1.61,1.18-1.89,2.48l-1.81,8.51H84.85Z"/><path d="M99.18,216.92c.47-2.22.6-2.93.72-3.52h1.59c0,.27-.11.76-.18,1.1a2.5,2.5,0,0,1,2.21-1.29,1.44,1.44,0,0,1,1.59,1.32,2.87,2.87,0,0,1,2.42-1.32c1.24,0,2.23.75,1.76,3l-2,9.44h-1.67l2-9.19c.2-1.05.16-1.8-.78-1.8s-1.55,1.12-1.83,2.38l-1.82,8.61h-1.68l1.92-9.07c.32-1.45.07-1.92-.7-1.92-1.06,0-1.61,1.18-1.89,2.48L99,225.62H97.33Z"/><path d="M112.38,219.84c-.07.28-.36,1.68-.44,2-.3,1.4-.23,2.52.93,2.52s1.37-.93,1.6-2l.08-.34h1.63l-.07.32c-.37,1.64-.9,3.42-3.4,3.42-2.76,0-2.78-2.24-2.34-4.32l.93-4.38c.39-1.91,1-3.89,3.51-3.89,2.74,0,2.85,2.13,2.44,4-.06.31-.48,2.28-.56,2.62Zm3-1.37c.05-.26.32-1.52.37-1.77.24-1.15,0-2.13-1-2.13s-1.48,1.17-1.7,2.23l-.36,1.67Z"/><path d="M119.46,217.12c.51-2.45.67-3.19.76-3.72h1.61a11.36,11.36,0,0,1-.19,1.13,2.7,2.7,0,0,1,2.38-1.32c1.34,0,2.21.92,1.78,2.9l-2,9.51h-1.66l1.93-9.14c.26-1.18.08-1.85-.88-1.85s-1.69.8-2.13,2.92l-1.72,8.07h-1.66Z"/><path d="M135.74,208.88l-2.88,13.59c-.32,1.46-.5,2.44-.62,3.15h-1.61a6.77,6.77,0,0,1,.15-1.13,2.4,2.4,0,0,1-2.21,1.32c-1.89,0-2.25-1.71-1.77-3.94l1-4.86c.41-1.92,1.14-3.8,3.2-3.8a1.81,1.81,0,0,1,1.88,1.09l1.13-5.42ZM129.51,217l-1,4.92c-.26,1.21-.26,2.37.89,2.37s1.73-1.33,2.12-3.14l.84-3.89c.35-1.63.25-2.67-1-2.67C130.34,214.63,129.83,215.52,129.51,217Z"/><path d="M140.92,220.47l-1.84,5.15h-1.73c1-2.78,4.74-12.93,5.92-16h2.47l-.78,16h-1.67l.29-5.15Zm2.75-1.53c.19-3.13.34-6.32.48-7.82h-.07c-.3,1.19-1.57,4.82-2.62,7.82Z"/><path d="M153,223.08c-.15.75-.43,2.12-.49,2.54h-1.61c0-.31.1-.73.17-1.09a2.23,2.23,0,0,1-2.18,1.28c-1.8,0-2.15-1.72-1.76-3.6.57-2.67,2-3.46,4.78-3.92l.48-.08.39-1.83c.26-1.17,0-1.81-.9-1.81s-1.17.74-1.45,1.87l-.07.28h-1.64l0-.16c.34-1.59.8-3.35,3.29-3.35,2,0,2.79,1.19,2.4,3Zm-.87-3.51-.44.08c-1.65.31-2.51.81-2.9,2.53-.26,1.19-.13,2.15.87,2.15s1.69-1.08,2.14-3.25Z"/><path d="M156.64,217.56c.42-2,.7-3.33.84-4.16h1.58a15.12,15.12,0,0,1-.31,1.81,3.13,3.13,0,0,1,2.86-2l-.44,1.95c-1.62.07-2.62,1.1-3.07,3.25l-1.51,7.18h-1.66Z"/><path d="M168.36,217.16l-1,4.87c-.56,2.65-1.42,3.78-3.62,3.78-2,0-3.09-1.24-2.53-3.91l1.08-5.13c.44-2.07,1.31-3.56,3.54-3.56S168.87,214.68,168.36,217.16Zm-4.4-.39-1.16,5.4c-.32,1.54.17,2.23,1.1,2.23s1.36-.54,1.71-2.16l1.14-5.31c.29-1.39,0-2.31-1.1-2.31S164.24,215.46,164,216.77Z"/><path d="M170.58,217.12c.51-2.45.67-3.19.76-3.72H173a11.36,11.36,0,0,1-.19,1.13,2.7,2.7,0,0,1,2.38-1.32c1.34,0,2.21.92,1.78,2.9l-2,9.51h-1.66l1.93-9.14c.26-1.18.08-1.85-.88-1.85s-1.69.8-2.13,2.92l-1.72,8.07h-1.66Z"/><path d="M183.45,213.4h1.66l-2.6,12.22h-1.66Zm1-4.52h1.66l-.52,2.48h-1.66Z"/><path d="M186.87,217.12c.52-2.45.67-3.19.77-3.72h1.61c0,.26-.09.62-.2,1.13a2.7,2.7,0,0,1,2.38-1.32c1.34,0,2.21.92,1.79,2.9l-2,9.51h-1.66l1.94-9.14c.25-1.18.07-1.85-.88-1.85s-1.69.8-2.14,2.92l-1.72,8.07h-1.66Z"/><path d="M198.59,213.4H200l.7-3.08h1.63l-.68,3.08h1.67l-.31,1.45H201.3l-1.81,8.31c-.18.84-.06,1.25.68,1.25a4.56,4.56,0,0,0,.87-.09l-.29,1.31a4.72,4.72,0,0,1-1.3.16c-1.23,0-2.08-.5-1.68-2.36l1.86-8.58h-1.35Z"/><path d="M207.58,208.88l-1.18,5.61a2.57,2.57,0,0,1,2.27-1.28c1.78,0,2.17,1.37,1.8,3.14l-2,9.27h-1.66l1.9-8.94c.24-1.15.25-2.05-.87-2.05s-1.72,1.13-2.08,2.82L204,225.62h-1.66l3.56-16.74Z"/><path d="M213.55,219.84c-.06.28-.35,1.68-.43,2-.3,1.4-.24,2.52.93,2.52s1.37-.93,1.6-2l.08-.34h1.63l-.07.32c-.37,1.64-.9,3.42-3.4,3.42-2.76,0-2.78-2.24-2.34-4.32l.93-4.38c.39-1.91,1-3.89,3.51-3.89,2.74,0,2.84,2.13,2.44,4-.06.31-.48,2.28-.56,2.62Zm3-1.37c.05-.26.32-1.52.37-1.77.24-1.15,0-2.13-1-2.13s-1.48,1.17-1.7,2.23l-.36,1.67Z"/><path d="M227.43,208.88l-1.18,5.61a2.57,2.57,0,0,1,2.26-1.28c1.79,0,2.18,1.37,1.81,3.14l-2,9.27h-1.66l1.9-8.94c.24-1.15.25-2.05-.87-2.05s-1.72,1.13-2.09,2.82l-1.74,8.17h-1.66l3.55-16.74Z"/><path d="M233.44,213.4h1.65l-2.59,12.22h-1.66Zm1-4.52h1.66l-.52,2.48h-1.66Z"/><path d="M241,225.15c-.55,2.66-.86,4.79-3.86,4.79-2.53,0-2.9-1.62-2.65-2.94l0-.12h1.68l0,.15c-.1.57-.1,1.51,1.12,1.51s1.56-1.16,2-3l.28-1.3a2.22,2.22,0,0,1-2.09,1.29c-2.05,0-2.27-1.89-1.89-3.66l1.07-5c.35-1.62,1-3.63,3.17-3.63a1.66,1.66,0,0,1,1.83,1.3c.1-.44.24-.87.32-1.11h1.59c-.16.68-.42,1.78-.72,3.22Zm-2.69-8.37-1.06,5c-.26,1.25-.19,2.25.91,2.25,1.34,0,1.79-1.62,2.17-3.29l.67-3.07c.31-1.44.45-3-1-3C239,214.63,238.56,215.65,238.32,216.78Z"/><path d="M248.65,208.88l-1.19,5.61a2.58,2.58,0,0,1,2.27-1.28c1.78,0,2.17,1.37,1.8,3.14l-2,9.27H247.9l1.89-8.94c.25-1.15.25-2.05-.87-2.05s-1.71,1.13-2.08,2.82l-1.75,8.17h-1.65L247,208.88Z"/><path d="M254.62,219.84c-.07.28-.36,1.68-.44,2-.29,1.4-.23,2.52.94,2.52s1.36-.93,1.6-2l.07-.34h1.63l-.07.32c-.37,1.64-.9,3.42-3.39,3.42-2.77,0-2.79-2.24-2.35-4.32l.93-4.38c.39-1.91,1-3.89,3.52-3.89,2.73,0,2.84,2.13,2.44,4-.07.31-.49,2.28-.56,2.62Zm3-1.37c.05-.26.32-1.52.38-1.77.23-1.15,0-2.13-1-2.13s-1.48,1.17-1.7,2.23l-.35,1.67Z"/><path d="M261.74,222l-.09.47c-.22,1.15,0,2,1.06,2,.74,0,1.16-.43,1.39-1.48a3,3,0,0,0-1.07-3.21c-1.45-1.39-1.91-2.23-1.59-4a2.73,2.73,0,0,1,2.85-2.55c2.13,0,2.77,1.52,2.43,3.24l-.1.48h-1.57l.1-.58c.18-1.08,0-1.77-.92-1.77-.6,0-1,.42-1.2,1.39s0,1.43,1,2.43c1.69,1.64,2.1,2.64,1.69,4.64s-1.49,2.77-3.14,2.77c-2.45,0-3-1.6-2.53-3.58l.05-.22Z"/><path d="M268.45,213.4h1.38l.69-3.08h1.64l-.69,3.08h1.67l-.31,1.45h-1.67l-1.81,8.31c-.17.84-.06,1.25.69,1.25a4.45,4.45,0,0,0,.86-.09l-.29,1.31a4.67,4.67,0,0,1-1.3.16c-1.23,0-2.08-.5-1.68-2.36l1.86-8.58h-1.35Z"/><path d="M283.29,217.16l-1,4.87c-.56,2.65-1.42,3.78-3.62,3.78-2,0-3.09-1.24-2.53-3.91l1.08-5.13c.44-2.07,1.31-3.56,3.54-3.56S283.8,214.68,283.29,217.16Zm-4.4-.39-1.16,5.4c-.32,1.54.17,2.23,1.1,2.23s1.36-.54,1.71-2.16l1.13-5.31c.3-1.39.05-2.31-1.09-2.31S279.17,215.46,278.89,216.77Z"/><path d="M284,225.62l2.28-10.77h-1.32l.31-1.45h1.32l.39-1.81c.32-1.48.85-2.82,2.69-2.82a4.1,4.1,0,0,1,1,.13l-.33,1.45a2.16,2.16,0,0,0-.57-.06c-.7,0-1,.5-1.15,1.45l-.35,1.66h1.54l-.31,1.45h-1.54l-2.28,10.77Z"/><path d="M293.41,213.4h1.37l.7-3.08h1.63l-.68,3.08h1.67l-.31,1.45h-1.67l-1.81,8.31c-.18.84-.06,1.25.68,1.25a4.37,4.37,0,0,0,.86-.09l-.28,1.31a4.72,4.72,0,0,1-1.3.16c-1.23,0-2.08-.5-1.68-2.36l1.86-8.58H293.1Z"/><path d="M299.71,219.84c-.07.28-.36,1.68-.43,2-.3,1.4-.24,2.52.93,2.52s1.36-.93,1.6-2l.07-.34h1.64l-.08.32c-.37,1.64-.9,3.42-3.39,3.42-2.77,0-2.79-2.24-2.34-4.32l.92-4.38c.4-1.91,1-3.89,3.52-3.89,2.74,0,2.84,2.13,2.44,4-.07.31-.48,2.28-.56,2.62Zm3-1.37c.06-.26.33-1.52.38-1.77.24-1.15,0-2.13-1-2.13s-1.48,1.17-1.7,2.23l-.36,1.67Z"/><path d="M306.71,217.56c.42-2,.69-3.33.83-4.16h1.59c0,.23-.09.74-.32,1.81a3.14,3.14,0,0,1,2.86-2l-.43,1.95c-1.62.07-2.62,1.1-3.07,3.25l-1.52,7.18H305Z"/><path d="M312.46,216.92c.47-2.22.59-2.93.71-3.52h1.6c0,.27-.11.76-.18,1.1a2.49,2.49,0,0,1,2.2-1.29,1.44,1.44,0,0,1,1.6,1.32,2.86,2.86,0,0,1,2.41-1.32c1.25,0,2.24.75,1.77,3l-2,9.44H318.9l2-9.19c.2-1.05.16-1.8-.78-1.8s-1.55,1.12-1.83,2.38l-1.82,8.61h-1.68l1.92-9.07c.32-1.45.07-1.92-.7-1.92-1.06,0-1.61,1.18-1.89,2.48l-1.81,8.51h-1.66Z"/><path d="M324.81,222l-.09.47c-.22,1.15,0,2,1.06,2,.74,0,1.15-.43,1.39-1.48a3,3,0,0,0-1.07-3.21c-1.45-1.39-1.91-2.23-1.59-4a2.73,2.73,0,0,1,2.85-2.55c2.13,0,2.77,1.52,2.43,3.24l-.1.48h-1.57l.1-.58c.18-1.08,0-1.77-.92-1.77-.6,0-1,.42-1.2,1.39s0,1.43,1,2.43c1.69,1.64,2.1,2.64,1.69,4.64s-1.49,2.77-3.14,2.77c-2.45,0-3-1.6-2.53-3.58l.05-.22Z"/><path d="M330.19,225.62l.69-3.2h1.6l-.68,3.2Z"/></svg>