<svg id="Layer_1" data-name="Layer 1" xmlns="http://www.w3.org/2000/svg" viewBox="0 0 600 400"><defs><style>.cls-1{fill:#ccc;}.cls-2{fill:#fff;}.cls-3{font-size:48px;font-family:BernardMT-Condensed, Bernard MT Condensed;}</style></defs><title>Testimonial Capt Fitzpatrick</title><rect class="cls-1" x="0.5" y="0.5" width="599" height="399"/><path d="M599,1V399H1V1H599m1-1H0V400H600V0Z"/><rect class="cls-1" x="15.5" y="15.5" width="569" height="369"/><path d="M584,16V384H16V16H584m1-1H15V385H585V15Z"/><circle class="cls-2" cx="300.5" cy="48.5" r="24.5"/><text class="cls-3" transform="translate(288.9 79.41)">“</text><rect class="cls-2" x="45" y="90" width="510" height="170"/><path d="M58.92,137.19h2.63c2.45,0,3.24,1.58,2.77,4l-.21,1.1c-.48,2.43-1.44,3.71-4.35,3.71H58.69l-1.52,7.21H55.51ZM59,144.6h1c1.68,0,2.12-.8,2.47-2.41l.2-1c.31-1.41.26-2.59-1.36-2.59h-1Z"/><path d="M66.49,147.44c-.07.28-.36,1.68-.43,2.05-.3,1.4-.24,2.52.93,2.52s1.36-.93,1.6-2l.07-.34H70.3l-.08.32c-.37,1.64-.9,3.42-3.39,3.42-2.77,0-2.79-2.24-2.34-4.32l.92-4.38c.4-1.91,1-3.89,3.52-3.89,2.74,0,2.84,2.13,2.44,4-.07.31-.48,2.28-.56,2.62Zm3-1.37c0-.26.32-1.52.37-1.77.24-1.15,0-2.13-1-2.13s-1.48,1.17-1.7,2.23l-.36,1.67Z"/><path d="M73.27,141h1.37l.7-3.08H77L76.29,141H78l-.31,1.45H76l-1.81,8.31c-.18.84-.06,1.25.68,1.25a4.37,4.37,0,0,0,.86-.09l-.28,1.31a4.72,4.72,0,0,1-1.3.16c-1.23,0-2.08-.49-1.68-2.36l1.86-8.58H73Z"/><path d="M78.07,141h1.37l.7-3.08h1.63L81.09,141h1.67l-.31,1.45H80.78L79,150.76c-.17.84,0,1.25.69,1.25a4.45,4.45,0,0,0,.86-.09l-.28,1.31a4.72,4.72,0,0,1-1.3.16c-1.23,0-2.08-.49-1.68-2.36l1.86-8.58H77.76Z"/><path d="M85.53,141c-.07,3.66-.21,8.93-.36,10.25h0C85.89,149,87.84,144,89,141h1.7l-5.31,12.89c-1.43,3.43-2.28,3.62-3.63,3.62a4.9,4.9,0,0,1-1.07-.13l.34-1.5a3.58,3.58,0,0,0,.75.08c.85,0,1.21-.42,2-2.37l0-12.59Z"/><path d="M102.28,141.29l-1.7,8c-.56,2.63-1.4,4.19-3.94,4.19s-3.24-1.79-2.72-4.31l1.73-8.2c.52-2.5,1.67-3.95,3.87-3.95C102,137,102.83,138.76,102.28,141.29Zm-4.93-.38-1.78,8.42c-.37,1.74,0,2.66,1.24,2.66s1.67-.87,2-2.62l1.78-8.33c.36-1.7,0-2.61-1.28-2.61S97.69,139.33,97.35,140.91Z"/><path d="M106.55,142.45l-2.28,10.77H102.6l2.28-10.77h-1.31l.31-1.45h1.32l.38-1.81c.32-1.48.85-2.82,2.69-2.82a4,4,0,0,1,1,.13l-.33,1.45a2.12,2.12,0,0,0-.56-.06c-.7,0-1,.5-1.16,1.45l-.35,1.66h2.67l.39-1.81c.31-1.48.85-2.82,2.68-2.82a4,4,0,0,1,1,.13l-.32,1.45a2.16,2.16,0,0,0-.57-.06c-.7,0-1,.5-1.15,1.45L111.2,141h1.52l-.31,1.45h-1.52l-2.29,10.77h-1.67l2.29-10.77Z"/><path d="M114.26,141h1.66l-2.6,12.22h-1.66Zm1-4.52h1.66l-.52,2.48H114.7Z"/><path d="M122.19,149.6l-.08.32c-.35,1.64-.91,3.49-3.39,3.49-2.71,0-2.72-2.14-2.32-4l1-4.86c.41-2,1.07-3.74,3.37-3.74,2.61,0,2.78,1.92,2.46,3.53l-.12.62h-1.62l.13-.7c.25-1.26.12-2-.94-2-.9,0-1.25.8-1.58,2.27l-1.13,5.3c-.29,1.34-.18,2.22.9,2.22s1.23-.77,1.53-2l.11-.43Z"/><path d="M126.15,147.44c-.07.28-.36,1.68-.43,2.05-.3,1.4-.24,2.52.93,2.52s1.36-.93,1.6-2l.07-.34H130l-.08.32c-.37,1.64-.9,3.42-3.39,3.42-2.77,0-2.79-2.24-2.34-4.32l.92-4.38c.4-1.91,1-3.89,3.52-3.89,2.74,0,2.84,2.13,2.44,4-.07.31-.48,2.28-.56,2.62Zm3-1.37c.05-.26.32-1.52.37-1.77.24-1.15,0-2.13-1-2.13s-1.48,1.17-1.7,2.23l-.36,1.67Z"/><path d="M133.15,145.16c.42-2,.69-3.33.83-4.16h1.58a15.12,15.12,0,0,1-.31,1.81,3.13,3.13,0,0,1,2.86-2l-.43,1.95c-1.62.07-2.62,1.1-3.07,3.25l-1.52,7.18h-1.66Z"/><path d="M147.8,148.92l-.08.3c-.51,2.16-1.07,4.21-3.84,4.21-2.54,0-3.13-1.69-2.56-4.36l1.66-7.84c.64-3,1.59-4.26,3.71-4.26,2.95,0,3.11,2.25,2.63,4.22l-.07.31h-1.66l.09-.43c.32-1.54.28-2.64-1.09-2.64-1.09,0-1.5.92-1.85,2.56L143,149.18c-.41,2-.15,2.81,1.07,2.81s1.5-1,1.91-2.59l.11-.48Z"/><path d="M150.59,145.16c.42-2,.7-3.33.84-4.16H153a15.12,15.12,0,0,1-.31,1.81,3.13,3.13,0,0,1,2.86-2l-.44,1.95c-1.62.07-2.62,1.1-3.07,3.25l-1.51,7.18h-1.66Z"/><path d="M162.31,144.76l-1,4.87c-.55,2.65-1.42,3.78-3.62,3.78-2,0-3.09-1.24-2.53-3.91l1.09-5.13c.44-2.07,1.3-3.56,3.53-3.56S162.83,142.28,162.31,144.76Zm-4.4-.39-1.15,5.4c-.33,1.54.17,2.23,1.09,2.23s1.36-.54,1.71-2.16l1.14-5.31c.3-1.39.05-2.31-1.1-2.31S158.19,143.06,157.91,144.37Z"/><path d="M164.53,144.72c.51-2.45.67-3.19.76-3.72h1.61a11.36,11.36,0,0,1-.19,1.13,2.7,2.7,0,0,1,2.38-1.32c1.34,0,2.21.92,1.79,2.9l-2,9.51h-1.66l1.94-9.14c.25-1.18.07-1.85-.88-1.85s-1.7.8-2.14,2.92l-1.72,8.07h-1.66Z"/><path d="M174.43,146.54h0c.84-1.3,2.73-4,3.76-5.54H180c-1.17,1.64-2.27,3.11-3.41,4.72l1.07,7.5H176l-.77-6c-.16.24-1.18,1.54-1.32,1.72l-.92,4.29h-1.65l3.55-16.74h1.65Z"/><path d="M181.1,141.81a22.73,22.73,0,0,0,2.18-5.33h1.53a21.33,21.33,0,0,1-2.31,5.33Z"/><path d="M185,149.61l-.09.47c-.23,1.16,0,2,1,2,.75,0,1.16-.42,1.4-1.47a3,3,0,0,0-1.08-3.21c-1.45-1.39-1.91-2.23-1.59-4a2.74,2.74,0,0,1,2.86-2.55c2.13,0,2.76,1.52,2.42,3.24l-.09.48h-1.57l.1-.58c.18-1.08,0-1.77-.93-1.77-.6,0-1,.42-1.2,1.39s0,1.43,1,2.43c1.7,1.65,2.1,2.64,1.69,4.64s-1.49,2.77-3.14,2.77c-2.44,0-3-1.61-2.52-3.58l0-.22Z"/><path d="M195.49,152.24l-1.08,5.1h-1.66l2.73-12.81c.36-1.67.59-2.77.72-3.53h1.61a10.36,10.36,0,0,1-.19,1.16,2.49,2.49,0,0,1,2.24-1.35c1.9,0,2.2,1.78,1.73,3.94l-1,4.62c-.53,2.5-1.39,4-3.32,4A1.67,1.67,0,0,1,195.49,152.24Zm3.42-2.78,1-4.68c.29-1.37.32-2.53-.83-2.53s-1.78,1.4-2.14,3.14l-.76,3.55c-.32,1.54-.46,3,.94,3C198.19,151.93,198.63,150.81,198.91,149.46Z"/><path d="M204.68,147.44c-.07.28-.36,1.68-.44,2.05-.29,1.4-.23,2.52.94,2.52s1.36-.93,1.6-2l.07-.34h1.64l-.08.32c-.37,1.64-.9,3.42-3.39,3.42-2.77,0-2.79-2.24-2.35-4.32l.93-4.38c.4-1.91,1-3.89,3.52-3.89,2.73,0,2.84,2.13,2.44,4-.07.31-.49,2.28-.56,2.62Zm3-1.37c0-.26.32-1.52.38-1.77.23-1.15,0-2.13-1-2.13s-1.48,1.17-1.69,2.23l-.36,1.67Z"/><path d="M211.67,145.16c.42-2,.7-3.33.84-4.16h1.58a15.12,15.12,0,0,1-.31,1.81,3.13,3.13,0,0,1,2.86-2l-.44,1.95c-1.62.07-2.62,1.1-3.07,3.25l-1.51,7.18H210Z"/><path d="M217.73,149.61l-.09.47c-.22,1.16,0,2,1.05,2,.75,0,1.16-.42,1.4-1.47a3,3,0,0,0-1.07-3.21c-1.45-1.39-1.92-2.23-1.59-4a2.73,2.73,0,0,1,2.85-2.55c2.13,0,2.77,1.52,2.43,3.24l-.1.48H221l.1-.58c.18-1.08,0-1.77-.92-1.77-.6,0-1,.42-1.2,1.39s0,1.43,1,2.43c1.69,1.65,2.1,2.64,1.69,4.64s-1.49,2.77-3.14,2.77c-2.45,0-3-1.61-2.53-3.58l.05-.22Z"/><path d="M230.73,144.76l-1,4.87c-.55,2.65-1.41,3.78-3.61,3.78-2,0-3.1-1.24-2.53-3.91l1.08-5.13c.44-2.07,1.3-3.56,3.54-3.56S231.25,142.28,230.73,144.76Zm-4.4-.39-1.15,5.4c-.32,1.54.17,2.23,1.09,2.23s1.36-.54,1.71-2.16l1.14-5.31c.3-1.39,0-2.31-1.1-2.31S226.62,143.06,226.33,144.37Z"/><path d="M233,144.72c.52-2.45.67-3.19.77-3.72h1.61c0,.26-.09.62-.2,1.13a2.71,2.71,0,0,1,2.38-1.32c1.34,0,2.21.92,1.79,2.9l-2,9.51h-1.66l1.94-9.14c.25-1.18.07-1.85-.88-1.85s-1.69.8-2.14,2.92l-1.72,8.07h-1.66Z"/><path d="M245.85,150.69c-.15.74-.43,2.11-.49,2.53h-1.61c0-.31.1-.73.17-1.09a2.23,2.23,0,0,1-2.18,1.28c-1.8,0-2.16-1.72-1.76-3.6.57-2.67,2-3.46,4.78-3.92l.48-.08.39-1.83c.26-1.17,0-1.81-.9-1.81s-1.17.74-1.45,1.87l-.07.28h-1.64l0-.16c.33-1.59.79-3.35,3.28-3.35,2.06,0,2.8,1.19,2.4,3Zm-.87-3.52-.44.08c-1.65.31-2.51.81-2.9,2.53-.26,1.19-.13,2.15.87,2.15s1.69-1.08,2.14-3.25Z"/><path d="M247.81,153.22l3.55-16.74H253l-3.55,16.74Z"/><path d="M258,141h1.66l-2.6,12.22h-1.66Zm1-4.52h1.66l-.53,2.48h-1.66Z"/><path d="M261.44,144.72c.51-2.45.67-3.19.76-3.72h1.61a11.36,11.36,0,0,1-.19,1.13,2.7,2.7,0,0,1,2.38-1.32c1.34,0,2.21.92,1.78,2.9l-2,9.51H264.1l1.93-9.14c.26-1.18.08-1.85-.88-1.85s-1.69.8-2.13,2.92l-1.72,8.07h-1.66Z"/><path d="M270.88,141h1.66l-2.6,12.22h-1.66Zm1-4.52h1.66L273,139h-1.66Z"/><path d="M274.07,141h1.37l.7-3.08h1.63l-.68,3.08h1.67l-.31,1.45h-1.67L275,150.76c-.17.84,0,1.25.69,1.25a4.45,4.45,0,0,0,.86-.09l-.28,1.31a4.72,4.72,0,0,1-1.3.16c-1.23,0-2.08-.49-1.68-2.36l1.86-8.58h-1.35Z"/><path d="M280.45,141h1.66l-2.6,12.22h-1.66Zm1-4.52h1.65l-.52,2.48h-1.66Z"/><path d="M288.11,150.69c-.15.74-.43,2.11-.49,2.53H286c0-.31.1-.73.17-1.09a2.23,2.23,0,0,1-2.18,1.28c-1.8,0-2.15-1.72-1.76-3.6.57-2.67,1.95-3.46,4.78-3.92l.48-.08.39-1.83c.26-1.17,0-1.81-.9-1.81s-1.17.74-1.45,1.87l-.07.28h-1.64l0-.16c.34-1.59.8-3.35,3.29-3.35,2,0,2.79,1.19,2.39,3Zm-.87-3.52-.44.08c-1.65.31-2.51.81-2.9,2.53-.26,1.19-.13,2.15.87,2.15s1.69-1.08,2.14-3.25Z"/><path d="M291.44,141h1.38l.69-3.08h1.64l-.69,3.08h1.67l-.31,1.45h-1.66l-1.82,8.31c-.17.84-.06,1.25.69,1.25a4.45,4.45,0,0,0,.86-.09l-.29,1.31a4.67,4.67,0,0,1-1.3.16c-1.22,0-2.08-.49-1.67-2.36l1.86-8.58h-1.36Z"/><path d="M297.83,141h1.66l-2.6,12.22h-1.66Zm1-4.52h1.66l-.52,2.48h-1.66Z"/><path d="M302.73,141c-.15,3.41-.28,8.87-.47,10.29h0c.38-1.36,3.11-8.07,4-10.29H308l-5.22,12.22h-1.82L301.1,141Z"/><path d="M309.65,147.44c-.07.28-.36,1.68-.44,2.05-.29,1.4-.23,2.52.94,2.52s1.36-.93,1.6-2l.07-.34h1.64l-.08.32c-.37,1.64-.9,3.42-3.39,3.42-2.77,0-2.79-2.24-2.35-4.32l.93-4.38c.39-1.91,1-3.89,3.52-3.89,2.73,0,2.84,2.13,2.44,4-.07.31-.49,2.28-.56,2.62Zm3-1.37c.05-.26.32-1.52.38-1.77.23-1.15,0-2.13-1-2.13s-1.48,1.17-1.7,2.23l-.35,1.67Z"/><path d="M324.42,150.69c-.15.74-.43,2.11-.49,2.53h-1.61c0-.31.1-.73.17-1.09a2.23,2.23,0,0,1-2.18,1.28c-1.8,0-2.16-1.72-1.76-3.6.57-2.67,1.95-3.46,4.78-3.92l.48-.08.39-1.83c.26-1.17,0-1.81-.9-1.81s-1.17.74-1.45,1.87l-.07.28h-1.64l0-.16c.33-1.59.79-3.35,3.28-3.35,2.06,0,2.8,1.19,2.4,3Zm-.87-3.52-.44.08c-1.65.31-2.51.81-2.9,2.53-.26,1.19-.13,2.15.87,2.15s1.69-1.08,2.14-3.25Z"/><path d="M328.18,144.72c.51-2.45.67-3.19.76-3.72h1.61a11.36,11.36,0,0,1-.19,1.13,2.7,2.7,0,0,1,2.38-1.32c1.34,0,2.21.92,1.78,2.9l-2,9.51h-1.66l1.93-9.14c.26-1.18.07-1.85-.88-1.85s-1.69.8-2.13,2.92L328,153.22h-1.66Z"/><path d="M344.46,136.48l-2.88,13.59c-.32,1.46-.5,2.44-.62,3.15h-1.61a7.75,7.75,0,0,1,.14-1.13,2.37,2.37,0,0,1-2.2,1.32c-1.9,0-2.25-1.71-1.77-3.94l1-4.86c.42-1.92,1.15-3.8,3.2-3.8a1.82,1.82,0,0,1,1.89,1.09l1.13-5.42Zm-6.23,8.16-1,4.92c-.26,1.21-.26,2.37.88,2.37s1.74-1.33,2.13-3.14l.84-3.89c.35-1.63.25-2.67-1-2.67C339.06,142.23,338.55,143.12,338.23,144.64Z"/><path d="M353.61,149.92c-.35,1.58-.59,2.79-.67,3.3h-1.62c0-.22.11-.73.19-1.18a2.34,2.34,0,0,1-2.31,1.37c-.89,0-2.29-.4-1.66-3.35l1.92-9.06h1.66l-1.9,8.88c-.3,1.45-.06,2.05.8,2.05s1.62-.59,2.12-2.94l1.68-8h1.68Z"/><path d="M357.21,144.72c.52-2.45.67-3.19.77-3.72h1.61a9.47,9.47,0,0,1-.2,1.13,2.72,2.72,0,0,1,2.38-1.32c1.34,0,2.22.92,1.79,2.9l-2,9.51h-1.66l1.93-9.14c.26-1.18.07-1.85-.88-1.85s-1.69.8-2.13,2.92l-1.73,8.07h-1.65Z"/><path d="M365.78,149.61l-.09.47c-.22,1.16,0,2,1.05,2,.75,0,1.16-.42,1.4-1.47a3,3,0,0,0-1.07-3.21c-1.46-1.39-1.92-2.23-1.6-4a2.74,2.74,0,0,1,2.86-2.55c2.13,0,2.77,1.52,2.42,3.24l-.09.48h-1.57l.1-.58c.18-1.08,0-1.77-.93-1.77-.6,0-1,.42-1.19,1.39s0,1.43,1,2.43c1.7,1.65,2.1,2.64,1.69,4.64s-1.49,2.77-3.13,2.77c-2.45,0-3-1.61-2.53-3.58l0-.22Z"/><path d="M374.26,141c-.43,5.95-.59,8.61-.77,9.88h0c.46-1.45,1.24-3.46,3.72-9.88h1.59c-.32,6-.41,8.36-.59,9.83h0c.37-1.28.89-2.79,3.41-9.83h1.67l-4.78,12.22h-1.66c.23-4,.34-7.52.54-9.6h0c-.44,1.49-1.88,5.09-3.62,9.6h-1.69l.52-12.22Z"/><path d="M385.1,147.44c-.06.28-.35,1.68-.43,2.05-.3,1.4-.24,2.52.93,2.52s1.36-.93,1.6-2l.07-.34h1.64l-.08.32c-.37,1.64-.9,3.42-3.39,3.42-2.77,0-2.79-2.24-2.34-4.32l.92-4.38c.4-1.91,1-3.89,3.52-3.89,2.74,0,2.84,2.13,2.44,4-.07.31-.48,2.28-.56,2.62Zm3-1.37c.05-.26.32-1.52.37-1.77.24-1.15,0-2.13-1-2.13s-1.48,1.17-1.7,2.23l-.36,1.67Z"/><path d="M392.1,145.16c.42-2,.69-3.33.83-4.16h1.58a15.12,15.12,0,0,1-.31,1.81,3.14,3.14,0,0,1,2.86-2l-.43,1.95c-1.62.07-2.62,1.1-3.07,3.25L392,153.22h-1.66Z"/><path d="M399.83,141c-.15,3.41-.28,8.87-.47,10.29h0c.38-1.36,3.11-8.07,4-10.29h1.72l-5.22,12.22H398L398.2,141Z"/><path d="M406.83,141h1.66l-2.6,12.22h-1.66Zm1-4.52h1.66l-.52,2.48h-1.66Z"/><path d="M410.25,144.72c.52-2.45.67-3.19.77-3.72h1.61c0,.26-.09.62-.2,1.13a2.71,2.71,0,0,1,2.38-1.32c1.34,0,2.21.92,1.79,2.9l-2,9.51h-1.65l1.93-9.14c.25-1.18.07-1.85-.88-1.85s-1.69.8-2.14,2.92l-1.72,8.07h-1.66Z"/><path d="M423.05,152.75c-.56,2.66-.87,4.79-3.87,4.79-2.53,0-2.9-1.62-2.64-2.94l0-.12h1.68l0,.15c-.1.57-.09,1.51,1.12,1.51s1.57-1.16,2-3l.27-1.3a2.22,2.22,0,0,1-2.09,1.29c-2.05,0-2.27-1.89-1.89-3.66l1.07-5c.35-1.62,1-3.63,3.17-3.63a1.66,1.66,0,0,1,1.83,1.3A9.29,9.29,0,0,1,424,141h1.59c-.17.68-.42,1.78-.73,3.22Zm-2.7-8.37-1.05,5c-.27,1.25-.2,2.25.9,2.25,1.35,0,1.8-1.62,2.17-3.29l.67-3.07c.31-1.43.46-3-1-3C421,142.23,420.59,143.25,420.35,144.38Z"/><path d="M438.35,136.48l-2.89,13.59c-.31,1.46-.5,2.44-.62,3.15h-1.61a6.77,6.77,0,0,1,.15-1.13,2.4,2.4,0,0,1-2.21,1.32c-1.89,0-2.25-1.71-1.77-3.94l1.05-4.86c.42-1.92,1.14-3.8,3.2-3.8a1.79,1.79,0,0,1,1.88,1.09l1.14-5.42Zm-6.23,8.16-1,4.92c-.26,1.21-.26,2.37.88,2.37s1.73-1.33,2.13-3.14l.83-3.89c.36-1.63.25-2.67-1-2.67C433,142.23,432.44,143.12,432.12,144.64Z"/><path d="M439.89,147.44c-.07.28-.36,1.68-.43,2.05-.3,1.4-.24,2.52.93,2.52s1.36-.93,1.6-2l.07-.34h1.64l-.08.32c-.37,1.64-.9,3.42-3.39,3.42-2.77,0-2.79-2.24-2.34-4.32l.92-4.38c.4-1.91,1-3.89,3.52-3.89,2.74,0,2.84,2.13,2.44,4-.07.31-.48,2.28-.56,2.62Zm3-1.37c.06-.26.33-1.52.38-1.77.23-1.15,0-2.13-1-2.13s-1.48,1.17-1.7,2.23l-.36,1.67Z"/><path d="M448.4,141c-.15,3.41-.28,8.87-.46,10.29h0c.39-1.36,3.12-8.07,4-10.29h1.73l-5.23,12.22h-1.81l.16-12.22Z"/><path d="M460.43,144.76l-1,4.87c-.55,2.65-1.41,3.78-3.61,3.78-2,0-3.1-1.24-2.53-3.91l1.08-5.13c.44-2.07,1.31-3.56,3.54-3.56S460.94,142.28,460.43,144.76Zm-4.41-.39-1.15,5.4c-.32,1.54.17,2.23,1.09,2.23s1.36-.54,1.71-2.16l1.14-5.31c.3-1.39.05-2.31-1.09-2.31S456.31,143.06,456,144.37Z"/><path d="M462.29,141h1.38l.69-3.08H466l-.69,3.08H467l-.31,1.45H465l-1.81,8.31c-.17.84-.06,1.25.69,1.25a4.45,4.45,0,0,0,.86-.09l-.29,1.31a4.67,4.67,0,0,1-1.3.16c-1.23,0-2.08-.49-1.68-2.36l1.86-8.58H462Z"/><path d="M468.68,141h1.65l-2.6,12.22h-1.65Zm1-4.52h1.66l-.53,2.48h-1.65Z"/><path d="M478,144.76l-1,4.87c-.56,2.65-1.42,3.78-3.62,3.78-2,0-3.09-1.24-2.53-3.91l1.08-5.13c.44-2.07,1.31-3.56,3.54-3.56S478.48,142.28,478,144.76Zm-4.4-.39-1.16,5.4c-.32,1.54.17,2.23,1.1,2.23s1.36-.54,1.71-2.16l1.14-5.31c.29-1.39.05-2.31-1.1-2.31S473.85,143.06,473.57,144.37Z"/><path d="M480.19,144.72c.51-2.45.67-3.19.76-3.72h1.61a11.36,11.36,0,0,1-.19,1.13,2.7,2.7,0,0,1,2.38-1.32c1.33,0,2.21.92,1.78,2.9l-2,9.51h-1.66l1.93-9.14c.26-1.18.07-1.85-.88-1.85s-1.69.8-2.13,2.92L480,153.22h-1.65Z"/><path d="M491.91,141h1.37l.7-3.08h1.63l-.68,3.08h1.67l-.31,1.45h-1.67l-1.82,8.31c-.17.84-.06,1.25.69,1.25a4.45,4.45,0,0,0,.86-.09l-.29,1.31a4.65,4.65,0,0,1-1.29.16c-1.23,0-2.08-.49-1.68-2.36l1.86-8.58H491.6Z"/><path d="M503.31,144.76l-1,4.87c-.55,2.65-1.42,3.78-3.62,3.78-2,0-3.09-1.24-2.53-3.91l1.09-5.13c.44-2.07,1.3-3.56,3.53-3.56S503.83,142.28,503.31,144.76Zm-4.4-.39-1.15,5.4c-.33,1.54.17,2.23,1.09,2.23s1.36-.54,1.71-2.16l1.14-5.31c.3-1.39.05-2.31-1.1-2.31S499.19,143.06,498.91,144.37Z"/><path d="M516.61,136.48l-2.89,13.59c-.31,1.46-.5,2.44-.62,3.15h-1.61a6.77,6.77,0,0,1,.15-1.13,2.4,2.4,0,0,1-2.21,1.32c-1.89,0-2.25-1.71-1.77-3.94l1-4.86c.42-1.92,1.14-3.8,3.2-3.8a1.79,1.79,0,0,1,1.88,1.09l1.14-5.42Zm-6.23,8.16-1.05,4.92c-.25,1.21-.25,2.37.89,2.37s1.73-1.33,2.13-3.14l.83-3.89c.36-1.63.25-2.67-1-2.67C511.21,142.23,510.7,143.12,510.38,144.64Z"/><path d="M522.32,149.92c-.34,1.58-.58,2.79-.67,3.3H520c0-.22.11-.73.2-1.18a2.35,2.35,0,0,1-2.32,1.37c-.89,0-2.29-.4-1.66-3.35l1.92-9.06h1.66l-1.89,8.88c-.31,1.45-.07,2.05.79,2.05s1.62-.59,2.12-2.94l1.69-8h1.68Z"/><path d="M525.7,141h1.37l.7-3.08h1.63l-.68,3.08h1.67l-.31,1.45h-1.67l-1.82,8.31c-.17.84-.06,1.25.69,1.25a4.45,4.45,0,0,0,.86-.09l-.29,1.31a4.65,4.65,0,0,1-1.29.16c-1.23,0-2.08-.49-1.68-2.36l1.86-8.58h-1.35Z"/><path d="M533.16,141c-.07,3.66-.21,8.93-.37,10.25h0c.7-2.22,2.64-7.21,3.85-10.25h1.69l-5.31,12.89c-1.42,3.43-2.27,3.62-3.62,3.62a4.75,4.75,0,0,1-1.07-.13l.34-1.5a3.5,3.5,0,0,0,.75.08c.84,0,1.21-.42,2-2.37l0-12.59Z"/><path d="M57.17,174c.41-2,.69-3.33.83-4.16h1.58a15.12,15.12,0,0,1-.31,1.81,3.13,3.13,0,0,1,2.86-2l-.43,2c-1.62.07-2.62,1.1-3.07,3.24L57.11,182H55.45Z"/><path d="M63.78,176.24c-.07.28-.36,1.68-.44,2-.29,1.4-.23,2.52.94,2.52s1.36-.93,1.6-2l.07-.34h1.64l-.08.32c-.37,1.64-.9,3.42-3.39,3.42-2.77,0-2.79-2.24-2.34-4.32l.92-4.38c.4-1.91,1-3.89,3.52-3.89,2.73,0,2.84,2.13,2.44,4-.07.31-.49,2.28-.56,2.62Zm3-1.37c0-.26.33-1.52.38-1.77.23-1.15,0-2.13-1-2.13s-1.48,1.17-1.69,2.23l-.36,1.67Z"/><path d="M69.33,182l2.29-10.77H70.3l.31-1.45h1.32l.39-1.81c.32-1.48.85-2.82,2.69-2.82a3.94,3.94,0,0,1,1,.13l-.32,1.45a2.16,2.16,0,0,0-.57-.06c-.7,0-.95.5-1.15,1.45l-.35,1.66h1.54l-.31,1.45H73.29L71,182Z"/><path d="M74.08,182l3.55-16.74h1.66L75.74,182Z"/><path d="M80.82,176.24c-.07.28-.36,1.68-.44,2-.29,1.4-.23,2.52.94,2.52s1.36-.93,1.6-2l.07-.34h1.64l-.08.32c-.37,1.64-.9,3.42-3.39,3.42-2.77,0-2.79-2.24-2.35-4.32l.93-4.38c.39-1.91,1-3.89,3.52-3.89,2.73,0,2.84,2.13,2.44,4-.07.31-.49,2.28-.56,2.62Zm3-1.37c.05-.26.32-1.52.38-1.77.23-1.15,0-2.13-1-2.13s-1.48,1.17-1.7,2.23l-.35,1.67Z"/><path d="M92.4,178.4l-.07.32c-.35,1.64-.91,3.49-3.39,3.49-2.71,0-2.72-2.14-2.33-4l1-4.86c.41-2,1.07-3.74,3.37-3.74,2.61,0,2.77,1.92,2.46,3.53l-.12.61H91.74l.13-.69c.24-1.26.12-2.05-.94-2.05-.9,0-1.26.8-1.58,2.27l-1.13,5.3c-.29,1.34-.19,2.22.9,2.22s1.23-.77,1.53-2l.1-.43Z"/><path d="M95.18,169.8h1.37l.7-3.08h1.63l-.68,3.08h1.67l-.31,1.45H97.89l-1.82,8.31c-.17.84,0,1.25.69,1.25a4.45,4.45,0,0,0,.86-.09L97.34,182a4.72,4.72,0,0,1-1.3.16c-1.23,0-2.08-.49-1.68-2.36l1.86-8.58H94.87Z"/><path d="M101.48,176.24c-.07.28-.36,1.68-.44,2-.29,1.4-.23,2.52.94,2.52s1.36-.93,1.6-2l.07-.34h1.64l-.08.32c-.37,1.64-.9,3.42-3.39,3.42-2.77,0-2.79-2.24-2.34-4.32l.92-4.38c.4-1.91,1-3.89,3.52-3.89,2.73,0,2.84,2.13,2.44,4-.07.31-.48,2.28-.56,2.62Zm3-1.37c.06-.26.33-1.52.38-1.77.23-1.15,0-2.13-1-2.13s-1.48,1.17-1.69,2.23l-.36,1.67Z"/><path d="M116.21,165.28l-2.89,13.59c-.31,1.46-.5,2.44-.62,3.15h-1.61a6.77,6.77,0,0,1,.15-1.13,2.4,2.4,0,0,1-2.21,1.32c-1.89,0-2.25-1.71-1.77-3.94l1-4.86c.42-1.92,1.14-3.8,3.2-3.8a1.79,1.79,0,0,1,1.88,1.09l1.14-5.42ZM110,173.44l-1,4.92c-.26,1.21-.26,2.37.88,2.37s1.73-1.33,2.13-3.14l.83-3.89c.36-1.63.25-2.67-1-2.67C110.81,171,110.3,171.92,110,173.44Z"/><path d="M124.92,178.4l-.07.32c-.35,1.64-.91,3.49-3.4,3.49-2.7,0-2.71-2.14-2.32-4l1-4.86c.41-2,1.06-3.74,3.36-3.74,2.62,0,2.78,1.92,2.47,3.53l-.12.61h-1.63l.13-.69c.25-1.26.13-2.05-.93-2.05-.91,0-1.26.8-1.58,2.27l-1.13,5.3c-.29,1.34-.19,2.22.9,2.22.94,0,1.23-.77,1.53-2l.1-.43Z"/><path d="M127.84,174c.42-2,.7-3.33.84-4.16h1.58a15.12,15.12,0,0,1-.31,1.81,3.13,3.13,0,0,1,2.86-2l-.44,2c-1.62.07-2.62,1.1-3.07,3.24L127.79,182h-1.66Z"/><path d="M134.45,176.24c-.06.28-.35,1.68-.43,2-.3,1.4-.24,2.52.93,2.52s1.37-.93,1.6-2l.08-.34h1.63l-.07.32c-.37,1.64-.9,3.42-3.4,3.42-2.76,0-2.78-2.24-2.34-4.32l.93-4.38c.39-1.91,1-3.89,3.51-3.89,2.74,0,2.84,2.13,2.44,4-.06.31-.48,2.28-.56,2.62Zm3-1.37c0-.26.32-1.52.37-1.77.24-1.15,0-2.13-1-2.13s-1.48,1.17-1.7,2.23l-.36,1.67Z"/><path d="M149.18,165.28l-2.88,13.59c-.32,1.46-.5,2.44-.62,3.15h-1.61a7.75,7.75,0,0,1,.14-1.13,2.37,2.37,0,0,1-2.2,1.32c-1.89,0-2.25-1.71-1.77-3.94l1-4.86c.41-1.92,1.14-3.8,3.2-3.8a1.81,1.81,0,0,1,1.88,1.09l1.13-5.42ZM143,173.44l-1,4.92c-.26,1.21-.26,2.37.88,2.37s1.74-1.33,2.13-3.14l.84-3.89c.35-1.63.25-2.67-1-2.67C143.78,171,143.27,171.92,143,173.44Z"/><path d="M150.76,169.8h1.66L149.82,182h-1.66Zm1-4.52h1.66l-.52,2.48H151.2Z"/><path d="M154,169.8h1.38l.69-3.08h1.64L157,169.8h1.67l-.31,1.45h-1.67l-1.81,8.31c-.17.84-.06,1.25.69,1.25a4.45,4.45,0,0,0,.86-.09l-.29,1.31a4.67,4.67,0,0,1-1.3.16c-1.23,0-2.08-.49-1.68-2.36l1.87-8.58h-1.36Z"/><path d="M167.85,178.72c-.34,1.58-.58,2.79-.66,3.3h-1.62c0-.22.11-.73.19-1.18a2.35,2.35,0,0,1-2.31,1.37c-.89,0-2.3-.4-1.66-3.35l1.92-9.06h1.66l-1.9,8.88c-.31,1.45-.06,2,.79,2s1.63-.59,2.12-2.94l1.69-8h1.68Z"/><path d="M171.49,181l-1.08,5.1h-1.66l2.73-12.81c.36-1.67.59-2.77.72-3.53h1.61a10.36,10.36,0,0,1-.19,1.16,2.49,2.49,0,0,1,2.24-1.35c1.9,0,2.2,1.78,1.73,3.94l-1,4.62c-.53,2.5-1.39,4-3.32,4A1.67,1.67,0,0,1,171.49,181Zm3.42-2.78,1-4.68c.3-1.37.33-2.54-.82-2.54s-1.78,1.41-2.14,3.15l-.76,3.55c-.32,1.54-.47,3,.94,3C174.18,180.73,174.63,179.61,174.91,178.26Z"/><path d="M185.78,173.56l-1,4.87c-.55,2.65-1.42,3.78-3.62,3.78-2,0-3.09-1.24-2.53-3.91l1.09-5.13c.43-2.07,1.3-3.56,3.53-3.56S186.3,171.08,185.78,173.56Zm-4.4-.39-1.15,5.4c-.33,1.54.17,2.23,1.09,2.23s1.36-.54,1.71-2.16l1.14-5.31c.3-1.39.05-2.31-1.1-2.31S181.66,171.86,181.38,173.17Z"/><path d="M188,173.52c.51-2.45.67-3.19.76-3.72h1.61a11.36,11.36,0,0,1-.19,1.13,2.7,2.7,0,0,1,2.38-1.32c1.34,0,2.21.92,1.78,2.9l-2,9.51h-1.66l1.93-9.14c.26-1.18.08-1.85-.87-1.85s-1.7.8-2.14,2.92L187.86,182H186.2Z"/><path d="M203.48,165.28l-1.18,5.61a2.57,2.57,0,0,1,2.26-1.28c1.79,0,2.18,1.37,1.81,3.14l-2,9.27h-1.66l1.9-8.94c.24-1.15.25-2.05-.87-2.05s-1.72,1.13-2.09,2.82L199.93,182h-1.66l3.55-16.74Z"/><path d="M209.49,169.8h1.65L208.54,182h-1.65Zm1-4.52h1.66l-.53,2.48h-1.65Z"/><path d="M213,173.32c.47-2.22.59-2.93.71-3.52h1.6c0,.27-.11.76-.18,1.1a2.49,2.49,0,0,1,2.2-1.29,1.44,1.44,0,0,1,1.6,1.32,2.86,2.86,0,0,1,2.41-1.32c1.25,0,2.24.75,1.77,3l-2,9.44H219.4l2-9.19c.2-1.05.16-1.8-.78-1.8s-1.55,1.12-1.83,2.38L216.93,182h-1.68l1.92-9.07c.32-1.45.07-1.92-.7-1.92-1.06,0-1.61,1.18-1.89,2.48L212.77,182h-1.66Z"/><path d="M225.31,178.41l-.09.47c-.22,1.16,0,2,1.06,2,.74,0,1.15-.42,1.39-1.47a3,3,0,0,0-1.07-3.21c-1.45-1.39-1.91-2.23-1.59-4a2.73,2.73,0,0,1,2.85-2.55c2.13,0,2.77,1.52,2.43,3.24l-.1.48h-1.57l.1-.58c.18-1.08,0-1.77-.92-1.77-.6,0-1,.42-1.2,1.39s0,1.43,1,2.43c1.69,1.65,2.1,2.64,1.69,4.64s-1.49,2.77-3.14,2.77c-2.45,0-3-1.61-2.53-3.58l.05-.22Z"/><path d="M233.21,176.24c-.07.28-.36,1.68-.43,2-.3,1.4-.24,2.52.93,2.52s1.36-.93,1.6-2l.07-.34H237l-.08.32c-.37,1.64-.9,3.42-3.39,3.42-2.77,0-2.79-2.24-2.34-4.32l.92-4.38c.4-1.91,1-3.89,3.52-3.89,2.74,0,2.84,2.13,2.44,4-.07.31-.48,2.28-.56,2.62Zm3-1.37c.06-.26.33-1.52.38-1.77.24-1.15,0-2.13-1-2.13s-1.48,1.17-1.7,2.23l-.36,1.67Z"/><path d="M238.45,182,242,165.28h1.66L240.1,182Z"/><path d="M243,182l2.29-10.77h-1.32l.31-1.45h1.32L246,168c.32-1.48.85-2.82,2.69-2.82a4,4,0,0,1,1,.13l-.33,1.45a2.12,2.12,0,0,0-.56-.06c-.7,0-1,.5-1.16,1.45l-.35,1.66h1.54l-.31,1.45h-1.54L244.64,182Z"/><path d="M257.08,179.49c-.15.74-.43,2.11-.49,2.53H255a9.72,9.72,0,0,1,.17-1.09,2.25,2.25,0,0,1-2.19,1.28c-1.79,0-2.15-1.72-1.75-3.6.57-2.67,1.94-3.46,4.78-3.92l.48-.08.39-1.83c.26-1.17,0-1.81-.9-1.81s-1.17.74-1.46,1.87l-.07.28H252.8l0-.16c.33-1.59.79-3.35,3.28-3.35,2.05,0,2.79,1.19,2.4,3Zm-.87-3.52-.44.08c-1.65.31-2.52.81-2.91,2.53-.26,1.19-.12,2.15.88,2.15s1.68-1.08,2.14-3.25Z"/><path d="M260.83,173.52c.52-2.45.67-3.19.77-3.72h1.61c0,.26-.08.62-.2,1.13a2.72,2.72,0,0,1,2.38-1.32c1.34,0,2.21.92,1.79,2.9l-2,9.51H263.5l1.93-9.14c.25-1.18.07-1.85-.88-1.85s-1.69.8-2.13,2.92L260.69,182H259Z"/><path d="M277.12,165.28l-2.89,13.59c-.31,1.46-.49,2.44-.61,3.15H272a8,8,0,0,1,.15-1.13,2.39,2.39,0,0,1-2.21,1.32c-1.89,0-2.24-1.71-1.77-3.94l1.05-4.86c.42-1.92,1.14-3.8,3.2-3.8a1.79,1.79,0,0,1,1.88,1.09l1.14-5.42Zm-6.23,8.16-1,4.92c-.26,1.21-.26,2.37.88,2.37s1.74-1.33,2.13-3.14l.84-3.89c.35-1.63.24-2.67-1-2.67C271.72,171,271.21,171.92,270.89,173.44Z"/><path d="M282.94,169.8c-.42,5.95-.59,8.61-.77,9.88h0c.46-1.45,1.24-3.46,3.73-9.88h1.58c-.32,6-.41,8.36-.59,9.83h0c.37-1.28.9-2.79,3.41-9.83H292L287.24,182h-1.67c.23-4,.35-7.52.54-9.6h0c-.43,1.49-1.88,5.09-3.62,9.6h-1.69l.53-12.22Z"/><path d="M293.78,176.24c-.06.28-.35,1.68-.43,2-.3,1.4-.24,2.52.93,2.52s1.36-.93,1.6-2l.07-.34h1.64l-.07.32c-.38,1.64-.9,3.42-3.4,3.42-2.77,0-2.78-2.24-2.34-4.32l.92-4.38c.4-1.91,1-3.89,3.52-3.89,2.74,0,2.84,2.13,2.44,4-.06.31-.48,2.28-.56,2.62Zm3-1.37c0-.26.32-1.52.37-1.77.24-1.15,0-2.13-1-2.13s-1.48,1.17-1.7,2.23l-.36,1.67Z"/><path d="M300.78,174c.42-2,.69-3.33.84-4.16h1.58a16.3,16.3,0,0,1-.32,1.81,3.15,3.15,0,0,1,2.86-2l-.43,2c-1.62.07-2.62,1.1-3.07,3.24L300.72,182h-1.65Z"/><path d="M307.39,176.24c-.06.28-.35,1.68-.43,2-.3,1.4-.24,2.52.93,2.52s1.36-.93,1.6-2l.07-.34h1.64l-.08.32c-.37,1.64-.9,3.42-3.39,3.42-2.77,0-2.79-2.24-2.34-4.32l.92-4.38c.4-1.91,1-3.89,3.52-3.89,2.74,0,2.84,2.13,2.44,4-.07.31-.48,2.28-.56,2.62Zm3-1.37c.05-.26.32-1.52.37-1.77.24-1.15,0-2.13-1-2.13s-1.48,1.17-1.7,2.23l-.36,1.67Z"/><path d="M318.66,169.8h1.66L317.72,182h-1.66Zm1-4.52h1.66l-.52,2.48H319.1Z"/><path d="M322.08,173.52c.51-2.45.67-3.19.76-3.72h1.62c0,.26-.09.62-.2,1.13a2.7,2.7,0,0,1,2.38-1.32c1.34,0,2.21.92,1.79,2.9l-2,9.51h-1.66l1.94-9.14c.25-1.18.07-1.85-.88-1.85s-1.7.8-2.14,2.92L321.94,182h-1.66Z"/><path d="M335.41,175.34h0c.84-1.3,2.73-4,3.76-5.54H341c-1.17,1.64-2.27,3.11-3.41,4.72l1.07,7.5H337l-.77-6c-.16.24-1.18,1.53-1.32,1.72L334,182h-1.65l3.55-16.74h1.65Z"/><path d="M342.48,176.24c-.07.28-.36,1.68-.44,2-.3,1.4-.23,2.52.93,2.52s1.37-.93,1.6-2l.08-.34h1.63l-.07.32c-.37,1.64-.9,3.42-3.4,3.42-2.76,0-2.78-2.24-2.34-4.32l.93-4.38c.39-1.91,1-3.89,3.52-3.89,2.73,0,2.84,2.13,2.43,4-.06.31-.48,2.28-.56,2.62Zm3-1.37c0-.26.32-1.52.38-1.77.23-1.15,0-2.13-1-2.13s-1.48,1.17-1.7,2.23l-.36,1.67Z"/><path d="M350.32,176.24c-.06.28-.35,1.68-.43,2-.3,1.4-.24,2.52.93,2.52s1.36-.93,1.6-2l.07-.34h1.64l-.07.32c-.37,1.64-.9,3.42-3.4,3.42-2.77,0-2.78-2.24-2.34-4.32l.93-4.38c.39-1.91,1-3.89,3.51-3.89,2.74,0,2.84,2.13,2.44,4-.06.31-.48,2.28-.56,2.62Zm3-1.37c.05-.26.32-1.52.37-1.77.24-1.15.05-2.13-1-2.13s-1.48,1.17-1.7,2.23l-.36,1.67Z"/><path d="M357.43,181l-1.08,5.1h-1.66l2.73-12.81c.36-1.67.59-2.77.72-3.53h1.61a10.36,10.36,0,0,1-.19,1.16,2.49,2.49,0,0,1,2.24-1.35c1.91,0,2.2,1.78,1.74,3.94l-1,4.62c-.53,2.5-1.39,4-3.32,4A1.67,1.67,0,0,1,357.43,181Zm3.42-2.78,1-4.68c.29-1.37.32-2.54-.83-2.54s-1.78,1.41-2.14,3.15l-.76,3.55c-.32,1.54-.46,3,.94,3C360.13,180.73,360.57,179.61,360.85,178.26Z"/><path d="M366.65,169.8h1.66L365.71,182h-1.66Zm1-4.52h1.66l-.53,2.48h-1.66Z"/><path d="M370.08,173.52c.51-2.45.67-3.19.76-3.72h1.61a11.36,11.36,0,0,1-.19,1.13,2.7,2.7,0,0,1,2.38-1.32c1.34,0,2.21.92,1.78,2.9l-2,9.51h-1.66l1.93-9.14c.26-1.18.08-1.85-.88-1.85s-1.69.8-2.13,2.92L369.94,182h-1.66Z"/><path d="M382.87,181.55c-.56,2.66-.86,4.79-3.87,4.79-2.52,0-2.9-1.62-2.64-2.94l0-.12h1.68l0,.15c-.09.57-.09,1.51,1.13,1.51s1.56-1.17,2-3l.28-1.3a2.23,2.23,0,0,1-2.1,1.29c-2,0-2.26-1.89-1.88-3.66l1.07-5c.34-1.62,1-3.63,3.16-3.63a1.68,1.68,0,0,1,1.84,1.3,9.57,9.57,0,0,1,.32-1.11h1.59c-.16.68-.42,1.78-.72,3.22Zm-2.7-8.37-1.05,5c-.26,1.25-.19,2.25.91,2.25,1.34,0,1.79-1.62,2.16-3.29l.68-3.07c.31-1.43.45-3-1-3C380.81,171,380.42,172.05,380.17,173.18Z"/><path d="M392.14,169.8c-.43,5.95-.6,8.61-.78,9.88h0c.45-1.45,1.23-3.46,3.72-9.88h1.58c-.31,6-.41,8.36-.59,9.83h0c.37-1.28.89-2.79,3.41-9.83h1.67L396.43,182h-1.66c.23-4,.34-7.52.53-9.6h0c-.44,1.49-1.88,5.09-3.63,9.6H390l.52-12.22Z"/><path d="M403.06,169.8h1.66L402.12,182h-1.66Zm1-4.52h1.66l-.52,2.48H403.5Z"/><path d="M406.25,169.8h1.38l.69-3.08H410l-.69,3.08h1.67l-.31,1.45H409l-1.81,8.31c-.17.84-.06,1.25.68,1.25a4.48,4.48,0,0,0,.87-.09l-.29,1.31a4.67,4.67,0,0,1-1.3.16c-1.23,0-2.08-.49-1.68-2.36l1.86-8.58h-1.35Z"/><path d="M415.25,165.28l-1.19,5.61a2.57,2.57,0,0,1,2.27-1.28c1.78,0,2.17,1.37,1.8,3.14l-2,9.27H414.5l1.89-8.94c.24-1.15.25-2.05-.87-2.05s-1.72,1.13-2.08,2.82L411.69,182H410l3.55-16.74Z"/><path d="M423.53,169.8h1.38l.69-3.08h1.64l-.69,3.08h1.67l-.31,1.45h-1.67l-1.81,8.31c-.18.84-.06,1.25.68,1.25a4.56,4.56,0,0,0,.87-.09l-.29,1.31a4.72,4.72,0,0,1-1.3.16c-1.23,0-2.08-.49-1.68-2.36l1.86-8.58h-1.35Z"/><path d="M432.53,165.28l-1.19,5.61a2.57,2.57,0,0,1,2.27-1.28c1.78,0,2.17,1.37,1.8,3.14l-2,9.27h-1.65l1.89-8.94c.24-1.15.25-2.05-.87-2.05s-1.72,1.13-2.08,2.82L429,182h-1.66l3.56-16.74Z"/><path d="M438.5,176.24c-.07.28-.36,1.68-.44,2-.3,1.4-.23,2.52.93,2.52s1.37-.93,1.6-2l.08-.34h1.63l-.07.32c-.37,1.64-.9,3.42-3.4,3.42-2.76,0-2.78-2.24-2.34-4.32l.93-4.38c.39-1.91,1-3.89,3.51-3.89,2.74,0,2.85,2.13,2.44,4-.06.31-.48,2.28-.56,2.62Zm3-1.37c.05-.26.32-1.52.38-1.77.23-1.15,0-2.13-1-2.13s-1.48,1.17-1.7,2.23l-.36,1.67Z"/><path d="M452.37,165.28l-1.18,5.61a2.57,2.57,0,0,1,2.26-1.28c1.79,0,2.18,1.37,1.81,3.14l-2,9.27h-1.66l1.9-8.94c.24-1.15.25-2.05-.87-2.05s-1.72,1.13-2.09,2.82L448.82,182h-1.66l3.55-16.74Z"/><path d="M458.38,169.8H460L457.44,182h-1.66Zm1-4.52H461l-.52,2.48h-1.66Z"/><path d="M466,181.55c-.55,2.66-.86,4.79-3.86,4.79-2.53,0-2.9-1.62-2.64-2.94l0-.12h1.68l0,.15c-.1.57-.1,1.51,1.12,1.51s1.56-1.17,2-3l.28-1.3a2.22,2.22,0,0,1-2.09,1.29c-2,0-2.27-1.89-1.89-3.66l1.07-5c.35-1.62,1-3.63,3.17-3.63a1.66,1.66,0,0,1,1.83,1.3c.1-.44.24-.87.32-1.11h1.59c-.16.68-.42,1.78-.72,3.22Zm-2.69-8.37-1.05,5c-.27,1.25-.2,2.25.9,2.25,1.35,0,1.79-1.62,2.17-3.29l.67-3.07c.31-1.43.45-3-1-3C463.89,171,463.5,172.05,463.26,173.18Z"/><path d="M473.59,165.28l-1.19,5.61a2.59,2.59,0,0,1,2.27-1.28c1.79,0,2.17,1.37,1.8,3.14l-2,9.27h-1.66l1.89-8.94c.25-1.15.25-2.05-.86-2.05s-1.72,1.13-2.09,2.82L470,182h-1.66l3.55-16.74Z"/><path d="M479.56,176.24c-.07.28-.36,1.68-.44,2-.29,1.4-.23,2.52.94,2.52s1.36-.93,1.6-2l.07-.34h1.63l-.07.32c-.37,1.64-.9,3.42-3.4,3.42-2.76,0-2.78-2.24-2.34-4.32l.93-4.38c.39-1.91,1-3.89,3.52-3.89,2.73,0,2.84,2.13,2.44,4-.07.31-.49,2.28-.56,2.62Zm3-1.37c.05-.26.32-1.52.38-1.77.23-1.15,0-2.13-1-2.13s-1.48,1.17-1.7,2.23l-.36,1.67Z"/><path d="M486.68,178.41l-.09.47c-.22,1.16,0,2,1.06,2,.74,0,1.15-.42,1.39-1.47a3,3,0,0,0-1.07-3.21c-1.45-1.39-1.91-2.23-1.59-4a2.73,2.73,0,0,1,2.85-2.55c2.13,0,2.77,1.52,2.43,3.24l-.1.48H490l.1-.58c.18-1.08,0-1.77-.92-1.77-.6,0-1,.42-1.2,1.39s0,1.43,1,2.43c1.69,1.65,2.1,2.64,1.69,4.64s-1.49,2.77-3.14,2.77c-2.45,0-3-1.61-2.53-3.58l.05-.22Z"/><path d="M493.39,169.8h1.38l.69-3.08h1.64l-.69,3.08h1.67l-.31,1.45H496.1l-1.81,8.31c-.17.84-.06,1.25.69,1.25a4.45,4.45,0,0,0,.86-.09l-.29,1.31a4.67,4.67,0,0,1-1.3.16c-1.23,0-2.08-.49-1.68-2.36l1.86-8.58h-1.35Z"/><path d="M56.9,198.6h1.38l.69-3.08h1.64l-.69,3.08h1.67l-.31,1.45H59.61l-1.81,8.31c-.17.84-.06,1.25.68,1.25a4.56,4.56,0,0,0,.87-.09l-.29,1.31a4.72,4.72,0,0,1-1.3.16c-1.23,0-2.08-.49-1.68-2.36l1.86-8.58H56.59Z"/><path d="M62.35,202.76c.42-2,.69-3.33.84-4.16h1.58a17.81,17.81,0,0,1-.31,1.81,3.13,3.13,0,0,1,2.85-2l-.43,1.95c-1.62.07-2.62,1.1-3.07,3.24l-1.52,7.19H60.64Z"/><path d="M72.31,208.29c-.15.74-.43,2.11-.49,2.53H70.21c0-.31.1-.73.17-1.09A2.23,2.23,0,0,1,68.2,211c-1.8,0-2.15-1.72-1.76-3.6.57-2.67,2-3.46,4.78-3.92l.48-.08.39-1.83c.26-1.17,0-1.81-.9-1.81s-1.17.74-1.45,1.87l-.07.28H68l0-.16c.34-1.59.8-3.35,3.29-3.35,2,0,2.79,1.19,2.39,3Zm-.87-3.52-.44.08c-1.65.31-2.51.81-2.9,2.53-.26,1.19-.13,2.15.87,2.15s1.69-1.08,2.14-3.25Z"/><path d="M83.71,194.08l-2.88,13.59c-.32,1.46-.5,2.44-.62,3.15H78.6a6.77,6.77,0,0,1,.15-1.13A2.4,2.4,0,0,1,76.54,211c-1.89,0-2.25-1.72-1.77-3.95l1-4.85c.42-1.92,1.14-3.8,3.2-3.8a1.81,1.81,0,0,1,1.88,1.09L82,194.08Zm-6.22,8.16-1,4.92c-.26,1.21-.26,2.37.89,2.37s1.73-1.33,2.12-3.14l.84-3.89c.35-1.63.25-2.67-1-2.67C78.31,199.83,77.81,200.72,77.49,202.24Z"/><path d="M85.29,198.6H87l-2.6,12.22H82.69Zm1-4.52h1.65l-.52,2.48H85.73Z"/><path d="M88.48,198.6h1.38l.69-3.08h1.64l-.69,3.08h1.67l-.31,1.45H91.2l-1.82,8.31c-.17.84-.06,1.25.69,1.25a4.45,4.45,0,0,0,.86-.09l-.29,1.31a4.67,4.67,0,0,1-1.3.16c-1.22,0-2.08-.49-1.67-2.36l1.86-8.58H88.17Z"/><path d="M94.87,198.6h1.65l-2.6,12.22H92.27Zm1-4.52h1.66L97,196.56H95.31Z"/><path d="M104.16,202.36l-1,4.87c-.56,2.65-1.42,3.78-3.62,3.78-2,0-3.09-1.24-2.53-3.91L98.08,202c.43-2.07,1.3-3.56,3.53-3.56S104.67,199.88,104.16,202.36Zm-4.4-.39-1.16,5.4c-.32,1.54.18,2.23,1.1,2.23s1.36-.54,1.71-2.16l1.14-5.31c.29-1.4,0-2.31-1.1-2.31S100,200.66,99.76,202Z"/><path d="M106.38,202.32c.51-2.45.67-3.19.76-3.72h1.61a11.36,11.36,0,0,1-.19,1.13,2.7,2.7,0,0,1,2.38-1.32c1.34,0,2.21.92,1.78,2.9l-2,9.51H109l1.93-9.14c.26-1.18.08-1.85-.88-1.85s-1.69.8-2.13,2.92l-1.72,8.07h-1.66Z"/><path d="M114.94,207.21l-.09.47c-.22,1.15,0,2,1.05,2,.75,0,1.16-.42,1.4-1.47a3,3,0,0,0-1.07-3.21c-1.45-1.4-1.92-2.24-1.59-4a2.73,2.73,0,0,1,2.85-2.55c2.13,0,2.77,1.52,2.43,3.24l-.1.48h-1.57l.1-.58c.18-1.08,0-1.77-.93-1.77-.6,0-1,.42-1.19,1.39s0,1.43,1,2.43c1.69,1.65,2.09,2.64,1.68,4.64S117.44,211,115.8,211c-2.45,0-3-1.61-2.53-3.58l0-.22Z"/><path d="M131.33,202.36l-1,4.87c-.55,2.65-1.41,3.78-3.61,3.78-2,0-3.1-1.24-2.53-3.91l1.08-5.13c.44-2.07,1.31-3.56,3.54-3.56S131.84,199.88,131.33,202.36Zm-4.41-.39-1.15,5.4c-.32,1.54.17,2.23,1.09,2.23s1.36-.54,1.71-2.16l1.14-5.31c.3-1.4,0-2.31-1.09-2.31S127.21,200.66,126.92,202Z"/><path d="M132,210.82l2.28-10.77H133l.31-1.45h1.32l.39-1.81c.32-1.48.85-2.82,2.69-2.82a3.94,3.94,0,0,1,1,.13l-.32,1.45a2.16,2.16,0,0,0-.57-.06c-.7,0-.95.49-1.15,1.45l-.35,1.66h1.54l-.31,1.45H136l-2.29,10.77Z"/><path d="M141.45,198.6h1.37l.7-3.08h1.63l-.68,3.08h1.67l-.31,1.45h-1.67l-1.82,8.31c-.17.84-.05,1.25.69,1.25a4.45,4.45,0,0,0,.86-.09l-.28,1.31a4.72,4.72,0,0,1-1.3.16c-1.23,0-2.08-.49-1.68-2.36l1.86-8.58h-1.35Z"/><path d="M150.44,194.08l-1.18,5.61a2.57,2.57,0,0,1,2.26-1.28c1.79,0,2.18,1.37,1.81,3.14l-2,9.27h-1.66l1.9-8.94c.24-1.15.25-2-.87-2s-1.72,1.13-2.09,2.82l-1.74,8.17h-1.66l3.56-16.74Z"/><path d="M156.41,205c-.06.28-.35,1.68-.43,2.05-.3,1.4-.24,2.52.93,2.52s1.36-.93,1.6-2l.07-.34h1.64l-.07.32c-.37,1.63-.9,3.42-3.4,3.42-2.77,0-2.78-2.24-2.34-4.32l.92-4.38c.4-1.91,1-3.89,3.52-3.89,2.74,0,2.84,2.13,2.44,4-.06.3-.48,2.28-.56,2.62Zm3-1.37c.05-.26.32-1.52.37-1.77.24-1.15.05-2.13-1-2.13s-1.48,1.17-1.7,2.23l-.36,1.67Z"/><path d="M170.12,194.79l-2.64,12.44c-.27,1.25-.1,2.28,1.23,2.28s1.69-1,2-2.31l2.64-12.41H175l-2.61,12.26c-.54,2.51-1.3,4-3.85,4-2.3,0-3.25-1.31-2.71-3.88l2.63-12.34Z"/><path d="M175.81,202.32c.51-2.45.67-3.19.76-3.72h1.61a11.36,11.36,0,0,1-.19,1.13,2.7,2.7,0,0,1,2.38-1.32c1.34,0,2.21.92,1.78,2.9l-2,9.51h-1.66l1.93-9.14c.26-1.18.08-1.85-.88-1.85s-1.69.8-2.13,2.92l-1.72,8.07H174Z"/><path d="M185.25,198.6h1.66l-2.6,12.22h-1.66Zm1-4.52h1.66l-.52,2.48h-1.66Z"/><path d="M188.44,198.6h1.37l.7-3.08h1.63l-.68,3.08h1.67l-.31,1.45h-1.67l-1.82,8.31c-.17.84-.05,1.25.69,1.25a4.45,4.45,0,0,0,.86-.09l-.28,1.31a4.72,4.72,0,0,1-1.3.16c-1.23,0-2.08-.49-1.68-2.36l1.86-8.58h-1.35Z"/><path d="M194.74,205c-.07.28-.36,1.68-.44,2.05-.29,1.4-.23,2.52.94,2.52s1.36-.93,1.6-2l.07-.34h1.64l-.08.32c-.37,1.63-.9,3.42-3.39,3.42-2.77,0-2.79-2.24-2.34-4.32l.92-4.38c.4-1.91,1-3.89,3.52-3.89,2.73,0,2.84,2.13,2.44,4-.07.3-.49,2.28-.56,2.62Zm3-1.37c0-.26.33-1.52.38-1.77.23-1.15,0-2.13-1-2.13s-1.48,1.17-1.69,2.23l-.36,1.67Z"/><path d="M209.47,194.08l-2.89,13.59c-.31,1.46-.5,2.44-.62,3.15h-1.61a6.77,6.77,0,0,1,.15-1.13,2.4,2.4,0,0,1-2.21,1.32c-1.89,0-2.25-1.72-1.77-3.95l1-4.85c.42-1.92,1.14-3.8,3.2-3.8a1.79,1.79,0,0,1,1.88,1.09l1.14-5.42Zm-6.23,8.16-1,4.92c-.26,1.21-.26,2.37.88,2.37s1.73-1.33,2.13-3.14l.83-3.89c.36-1.63.25-2.67-1-2.67C204.07,199.83,203.56,200.72,203.24,202.24Z"/><path d="M213.92,206.67l-.07.42c-.3,1.7,0,2.53,1.28,2.53,1.05,0,1.63-.87,1.91-2.37a4.45,4.45,0,0,0-1.34-4.36c-1.57-1.78-2.09-2.88-1.67-5.09.39-2,1.38-3.23,3.3-3.23,2.62,0,3,2,2.66,4l-.08.4h-1.64l.07-.42c.23-1.28.21-2.5-1.07-2.5-1,0-1.4.76-1.61,1.93a3.78,3.78,0,0,0,1.18,3.62c1.84,2.1,2.32,3.53,1.86,5.86-.44,2.15-1.46,3.62-3.73,3.62-2.57,0-3.26-1.68-2.76-4.07l.06-.29Z"/><path d="M221.44,198.6h1.37l.7-3.08h1.63l-.68,3.08h1.67l-.31,1.45h-1.67l-1.82,8.31c-.17.84-.06,1.25.69,1.25a4.45,4.45,0,0,0,.86-.09l-.29,1.31a4.65,4.65,0,0,1-1.29.16c-1.23,0-2.08-.49-1.68-2.36l1.86-8.58h-1.35Z"/><path d="M231.28,208.29c-.15.74-.43,2.11-.49,2.53h-1.61c0-.31.1-.73.17-1.09a2.23,2.23,0,0,1-2.18,1.28c-1.8,0-2.16-1.72-1.76-3.6.57-2.67,2-3.46,4.78-3.92l.48-.08.39-1.83c.26-1.17,0-1.81-.9-1.81s-1.17.74-1.45,1.87l-.07.28H227l0-.16c.33-1.59.79-3.35,3.28-3.35,2.06,0,2.8,1.19,2.4,3Zm-.87-3.52-.44.08c-1.65.31-2.51.81-2.9,2.53-.26,1.19-.13,2.15.87,2.15s1.69-1.08,2.14-3.25Z"/><path d="M234.61,198.6H236l.69-3.08h1.64l-.69,3.08h1.67l-.31,1.45h-1.67l-1.81,8.31c-.17.84-.06,1.25.69,1.25a4.45,4.45,0,0,0,.86-.09l-.29,1.31a4.67,4.67,0,0,1-1.3.16c-1.23,0-2.08-.49-1.68-2.36l1.86-8.58H234.3Z"/><path d="M240.91,205c-.06.28-.35,1.68-.43,2.05-.3,1.4-.24,2.52.93,2.52s1.36-.93,1.6-2l.07-.34h1.64l-.08.32c-.37,1.63-.89,3.42-3.39,3.42-2.77,0-2.79-2.24-2.34-4.32l.92-4.38c.4-1.91,1-3.89,3.52-3.89,2.74,0,2.84,2.13,2.44,4-.07.3-.48,2.28-.56,2.62Zm3-1.37c.05-.26.32-1.52.37-1.77.24-1.15,0-2.13-1-2.13s-1.48,1.17-1.7,2.23l-.36,1.67Z"/><path d="M248,207.21l-.1.47c-.22,1.15,0,2,1.06,2,.75,0,1.16-.42,1.39-1.47a3,3,0,0,0-1.07-3.21c-1.45-1.4-1.91-2.24-1.59-4a2.74,2.74,0,0,1,2.86-2.55c2.13,0,2.76,1.52,2.42,3.24l-.09.48h-1.57l.09-.58c.19-1.08,0-1.77-.92-1.77-.6,0-1,.42-1.2,1.39s0,1.43,1,2.43c1.7,1.65,2.1,2.64,1.69,4.64s-1.49,2.77-3.14,2.77c-2.44,0-3-1.61-2.53-3.58l0-.22Z"/><path d="M256.82,210.82l3.4-16h2c.17,4.13.54,11.92.53,12.8h0c.38-2.22.81-4.53,1.36-7.15l1.2-5.65H267l-3.4,16h-2c-.15-3.6-.54-11.94-.56-13.11h0c-.33,2-.78,4.49-1.39,7.39l-1.21,5.72Z"/><path d="M272.15,208.29c-.15.74-.43,2.11-.49,2.53h-1.61c0-.31.1-.73.17-1.09A2.23,2.23,0,0,1,268,211c-1.8,0-2.16-1.72-1.76-3.6.57-2.67,2-3.46,4.78-3.92l.48-.08.39-1.83c.26-1.17,0-1.81-.9-1.81s-1.17.74-1.45,1.87l-.07.28h-1.64l0-.16c.33-1.59.79-3.35,3.28-3.35,2.06,0,2.8,1.19,2.4,3Zm-.87-3.52-.44.08c-1.65.31-2.51.81-2.9,2.53-.26,1.19-.13,2.15.87,2.15s1.69-1.08,2.14-3.25Z"/><path d="M277.19,198.6c-.15,3.41-.28,8.87-.47,10.28h0c.38-1.35,3.12-8.06,4-10.28h1.73l-5.23,12.22h-1.81l.16-12.22Z"/><path d="M287.46,208.29c-.15.74-.43,2.11-.49,2.53h-1.61c0-.31.1-.73.17-1.09a2.23,2.23,0,0,1-2.18,1.28c-1.8,0-2.15-1.72-1.76-3.6.57-2.67,2-3.46,4.79-3.92l.47-.08.4-1.83c.25-1.17,0-1.81-.91-1.81s-1.17.74-1.45,1.87l-.07.28h-1.64l0-.16c.34-1.59.8-3.35,3.29-3.35,2.05,0,2.79,1.19,2.4,3Zm-.87-3.52-.44.08c-1.65.31-2.51.81-2.9,2.53-.26,1.19-.12,2.15.87,2.15s1.69-1.08,2.14-3.25Z"/><path d="M289.42,210.82,293,194.08h1.66l-3.55,16.74Z"/><path d="M299.07,206.67l-.07.42c-.3,1.7,0,2.53,1.28,2.53,1.05,0,1.63-.87,1.91-2.37a4.45,4.45,0,0,0-1.34-4.36c-1.57-1.78-2.09-2.88-1.67-5.09.38-2,1.38-3.23,3.3-3.23,2.62,0,3,2,2.65,4l-.07.4h-1.64l.07-.42c.23-1.28.21-2.5-1.07-2.5-1,0-1.4.76-1.61,1.93a3.78,3.78,0,0,0,1.18,3.62c1.84,2.1,2.32,3.53,1.86,5.86-.44,2.15-1.46,3.62-3.73,3.62-2.57,0-3.26-1.68-2.77-4.07l.07-.29Z"/><path d="M307.8,205c-.07.28-.36,1.68-.44,2.05-.29,1.4-.23,2.52.94,2.52s1.36-.93,1.6-2l.07-.34h1.64l-.08.32c-.37,1.63-.9,3.42-3.39,3.42-2.77,0-2.79-2.24-2.35-4.32l.93-4.38c.4-1.91,1-3.89,3.52-3.89,2.73,0,2.84,2.13,2.44,4-.07.3-.49,2.28-.56,2.62Zm3-1.37c.05-.26.33-1.52.38-1.77.23-1.15,0-2.13-1-2.13s-1.48,1.17-1.69,2.23l-.36,1.67Z"/><path d="M314.79,202.76c.42-2,.7-3.33.84-4.16h1.58a15.12,15.12,0,0,1-.31,1.81,3.13,3.13,0,0,1,2.86-2l-.44,1.95c-1.62.07-2.62,1.1-3.07,3.24l-1.51,7.19h-1.66Z"/><path d="M322.52,198.6c-.14,3.41-.27,8.87-.46,10.28h0c.39-1.35,3.12-8.06,4-10.28h1.73l-5.23,12.22h-1.81l.16-12.22Z"/><path d="M329.53,198.6h1.66l-2.6,12.22h-1.66Zm1-4.52h1.66l-.52,2.48H330Z"/><path d="M337.46,207.2l-.08.32c-.35,1.64-.91,3.49-3.39,3.49-2.71,0-2.72-2.14-2.32-4l1-4.86c.41-2,1.07-3.74,3.37-3.74,2.61,0,2.78,1.92,2.46,3.53l-.12.61h-1.62l.13-.69c.25-1.26.12-2.05-.94-2.05-.9,0-1.25.8-1.58,2.27l-1.13,5.3c-.28,1.33-.18,2.22.9,2.22s1.23-.77,1.53-2l.11-.43Z"/><path d="M341.42,205c-.06.28-.35,1.68-.43,2.05-.3,1.4-.24,2.52.93,2.52s1.36-.93,1.6-2l.07-.34h1.64l-.08.32c-.37,1.63-.9,3.42-3.39,3.42-2.77,0-2.79-2.24-2.34-4.32l.92-4.38c.4-1.91,1-3.89,3.52-3.89,2.74,0,2.84,2.13,2.44,4-.07.3-.48,2.28-.56,2.62Zm3-1.37c.05-.26.32-1.52.37-1.77.24-1.15,0-2.13-1-2.13s-1.48,1.17-1.7,2.23l-.36,1.67Z"/><path d="M346.61,210.82l.68-3.2h1.6l-.68,3.2Z"/></svg>