<svg id="Layer_1" data-name="Layer 1" xmlns="http://www.w3.org/2000/svg" viewBox="0 0 600 400"><defs><style>.cls-1{fill:#ccc;}.cls-2{fill:#fff;}.cls-3{font-size:48px;font-family:BernardMT-Condensed, Bernard MT Condensed;}</style></defs><title>Testimonial Sarah Cronk</title><rect class="cls-1" x="0.5" y="0.5" width="599" height="399"/><path d="M599,1V399H1V1H599m1-1H0V400H600V0Z"/><rect class="cls-1" x="15.5" y="15.5" width="569" height="369"/><path d="M584,16V384H16V16H584m1-1H15V385H585V15Z"/><circle class="cls-2" cx="300.5" cy="48.5" r="24.5"/><text class="cls-3" transform="translate(288.9 79.41)">“</text><rect class="cls-2" x="45" y="90" width="510" height="170"/><path d="M59.82,124.72h-2.5l.33-1.53H64.3L64,124.72H61.48l-3.08,14.5H56.75Z"/><path d="M67.5,122.48l-1.18,5.61a2.57,2.57,0,0,1,2.26-1.28c1.79,0,2.18,1.37,1.81,3.14l-2,9.27H66.75l1.9-8.94c.24-1.15.25-2.05-.87-2.05s-1.72,1.13-2.08,2.82L64,139.22H62.29l3.56-16.74Z"/><path d="M73.47,133.44c-.06.28-.35,1.68-.43,2.05-.3,1.4-.24,2.52.93,2.52s1.36-.93,1.6-2l.07-.34h1.64l-.07.32c-.38,1.64-.9,3.42-3.4,3.42-2.77,0-2.78-2.24-2.34-4.32l.92-4.38c.4-1.91,1-3.89,3.52-3.89,2.74,0,2.84,2.13,2.44,4-.06.31-.48,2.28-.56,2.62Zm3-1.37c0-.26.32-1.52.37-1.77.24-1.15.05-2.13-1-2.13s-1.48,1.17-1.7,2.23l-.36,1.67Z"/><path d="M84,135.61l-.1.47c-.22,1.16,0,2,1.06,2,.75,0,1.16-.42,1.39-1.47a3,3,0,0,0-1.07-3.21c-1.45-1.39-1.91-2.23-1.59-4a2.74,2.74,0,0,1,2.86-2.55c2.13,0,2.76,1.52,2.42,3.24l-.09.48H87.32l.09-.58c.18-1.08,0-1.77-.92-1.77-.6,0-1,.42-1.2,1.39s0,1.43,1,2.43c1.69,1.65,2.1,2.64,1.69,4.64s-1.49,2.77-3.14,2.77c-2.44,0-3-1.61-2.53-3.58l0-.22Z"/><path d="M91.9,133.44c-.06.28-.35,1.68-.43,2.05-.3,1.4-.24,2.52.93,2.52s1.37-.93,1.6-2l.08-.34h1.63l-.07.32c-.37,1.64-.9,3.42-3.4,3.42-2.76,0-2.78-2.24-2.34-4.32l.93-4.38c.39-1.91,1-3.89,3.51-3.89,2.74,0,2.84,2.13,2.44,4-.06.31-.48,2.28-.56,2.62Zm3-1.37c0-.26.32-1.52.37-1.77.24-1.15,0-2.13-1-2.13s-1.48,1.17-1.7,2.23l-.36,1.67Z"/><path d="M98.9,131.16c.42-2,.69-3.33.84-4.16h1.58a17.81,17.81,0,0,1-.31,1.81,3.13,3.13,0,0,1,2.85-2l-.43,1.95c-1.62.07-2.62,1.1-3.07,3.25l-1.52,7.18H97.19Z"/><path d="M106.63,127c-.15,3.41-.28,8.87-.46,10.29h0c.39-1.36,3.12-8.07,4-10.29h1.73l-5.23,12.22h-1.81L105,127Z"/><path d="M113.63,127h1.66l-2.6,12.22H111Zm1-4.52h1.66l-.53,2.48h-1.66Z"/><path d="M121.56,135.6l-.07.32c-.35,1.64-.91,3.49-3.4,3.49-2.7,0-2.71-2.14-2.32-4l1-4.86c.41-2,1.07-3.74,3.36-3.74,2.62,0,2.78,1.92,2.47,3.53l-.12.62h-1.63l.13-.7c.25-1.26.13-2-.93-2-.91,0-1.26.8-1.58,2.27l-1.13,5.3c-.29,1.34-.19,2.22.9,2.22.94,0,1.23-.77,1.53-2l.1-.43Z"/><path d="M125.53,133.44c-.07.28-.36,1.68-.44,2.05-.3,1.4-.23,2.52.93,2.52s1.37-.93,1.6-2l.08-.34h1.63l-.07.32c-.37,1.64-.9,3.42-3.4,3.42-2.76,0-2.78-2.24-2.34-4.32l.93-4.38c.39-1.91,1-3.89,3.51-3.89,2.74,0,2.85,2.13,2.44,4-.06.31-.48,2.28-.56,2.62Zm3-1.37c.05-.26.32-1.52.38-1.77.23-1.15,0-2.13-1-2.13s-1.48,1.17-1.7,2.23l-.36,1.67Z"/><path d="M132.65,135.61l-.09.47c-.22,1.16,0,2,1.06,2,.74,0,1.15-.42,1.39-1.47a3,3,0,0,0-1.07-3.21c-1.45-1.39-1.91-2.23-1.59-4a2.73,2.73,0,0,1,2.85-2.55c2.13,0,2.77,1.52,2.43,3.24l-.1.48H136l.1-.58c.18-1.08,0-1.77-.92-1.77-.6,0-1,.42-1.2,1.39s0,1.43,1,2.43c1.69,1.65,2.1,2.64,1.69,4.64s-1.49,2.77-3.14,2.77c-2.45,0-3-1.61-2.53-3.58l.05-.22Z"/><path d="M142.82,127h1.37l.7-3.08h1.63l-.68,3.08h1.67l-.31,1.45h-1.67l-1.82,8.31c-.17.84-.06,1.25.69,1.25a4.45,4.45,0,0,0,.86-.09l-.29,1.31a4.65,4.65,0,0,1-1.29.16c-1.23,0-2.08-.49-1.68-2.36l1.86-8.58h-1.35Z"/><path d="M151.81,122.48l-1.18,5.61a2.57,2.57,0,0,1,2.26-1.28c1.79,0,2.18,1.37,1.81,3.14l-2,9.27h-1.66l1.9-8.94c.24-1.15.25-2.05-.87-2.05s-1.72,1.13-2.09,2.82l-1.74,8.17H146.6l3.55-16.74Z"/><path d="M161.28,136.69c-.15.74-.43,2.11-.49,2.53h-1.62c0-.31.1-.73.17-1.09a2.23,2.23,0,0,1-2.18,1.28c-1.79,0-2.15-1.72-1.76-3.6.57-2.67,1.95-3.46,4.79-3.92l.48-.08.39-1.83c.26-1.17,0-1.81-.91-1.81s-1.17.74-1.45,1.87l-.07.28H157l0-.16c.34-1.59.8-3.35,3.29-3.35,2.05,0,2.79,1.19,2.4,3Zm-.88-3.52-.44.08c-1.65.31-2.51.81-2.9,2.53-.26,1.19-.12,2.15.88,2.15s1.68-1.08,2.13-3.25Z"/><path d="M164.61,127H166l.7-3.08h1.63l-.68,3.08h1.67l-.31,1.45h-1.67l-1.82,8.31c-.17.84-.06,1.25.69,1.25a4.45,4.45,0,0,0,.86-.09l-.29,1.31a4.65,4.65,0,0,1-1.29.16c-1.23,0-2.08-.49-1.68-2.36l1.86-8.58H164.3Z"/><path d="M176.9,123.19l-3.41,16h-1.66l3.41-16Z"/><path d="M184.71,122.48l-1.18,5.61a2.57,2.57,0,0,1,2.26-1.28c1.79,0,2.18,1.37,1.81,3.14l-2,9.27H184l1.9-8.94c.24-1.15.25-2.05-.87-2.05s-1.72,1.13-2.09,2.82l-1.74,8.17H179.5l3.55-16.74Z"/><path d="M194.18,136.69c-.15.74-.43,2.11-.49,2.53h-1.62c0-.31.1-.73.17-1.09a2.23,2.23,0,0,1-2.18,1.28c-1.79,0-2.15-1.72-1.76-3.6.57-2.67,1.95-3.46,4.79-3.92l.48-.08L194,130c.26-1.17,0-1.81-.91-1.81s-1.17.74-1.45,1.87l-.07.28H189.9l0-.16c.34-1.59.8-3.35,3.29-3.35,2.05,0,2.79,1.19,2.4,3Zm-.88-3.52-.44.08c-1.65.31-2.51.81-2.9,2.53-.26,1.19-.12,2.15.88,2.15s1.68-1.08,2.13-3.25Z"/><path d="M199.22,127c-.15,3.41-.28,8.87-.47,10.29h0c.38-1.36,3.11-8.07,4-10.29h1.73l-5.22,12.22h-1.82l.16-12.22Z"/><path d="M206.14,133.44c-.07.28-.36,1.68-.44,2.05-.3,1.4-.23,2.52.93,2.52s1.37-.93,1.6-2l.08-.34h1.63l-.07.32c-.37,1.64-.9,3.42-3.4,3.42-2.76,0-2.78-2.24-2.34-4.32l.93-4.38c.39-1.91,1-3.89,3.52-3.89,2.73,0,2.84,2.13,2.43,4-.06.31-.48,2.28-.56,2.62Zm3-1.37c.05-.26.32-1.52.38-1.77.23-1.15,0-2.13-1-2.13s-1.48,1.17-1.7,2.23l-.36,1.67Z"/><path d="M216.52,131.16c.41-2,.69-3.33.83-4.16h1.58a15.12,15.12,0,0,1-.31,1.81,3.13,3.13,0,0,1,2.86-2l-.43,1.95c-1.62.07-2.63,1.1-3.07,3.25l-1.52,7.18H214.8Z"/><path d="M223.13,133.44c-.07.28-.36,1.68-.44,2.05-.29,1.4-.23,2.52.94,2.52s1.36-.93,1.6-2l.07-.34h1.64l-.08.32c-.37,1.64-.9,3.42-3.39,3.42-2.77,0-2.79-2.24-2.34-4.32l.92-4.38c.4-1.91,1-3.89,3.52-3.89,2.73,0,2.84,2.13,2.44,4-.07.31-.49,2.28-.56,2.62Zm3-1.37c.05-.26.33-1.52.38-1.77.23-1.15,0-2.13-1-2.13s-1.48,1.17-1.69,2.23l-.36,1.67Z"/><path d="M234.71,135.6l-.07.32c-.35,1.64-.91,3.49-3.39,3.49-2.71,0-2.72-2.14-2.33-4l1-4.86c.41-2,1.07-3.74,3.37-3.74,2.61,0,2.78,1.92,2.46,3.53l-.12.62h-1.62l.13-.7c.24-1.26.12-2-.94-2-.9,0-1.25.8-1.58,2.27l-1.13,5.3c-.29,1.34-.19,2.22.9,2.22s1.23-.77,1.53-2l.11-.43Z"/><path d="M238.68,133.44c-.07.28-.36,1.68-.44,2.05-.29,1.4-.23,2.52.94,2.52s1.36-.93,1.6-2l.07-.34h1.64l-.08.32c-.37,1.64-.9,3.42-3.39,3.42-2.77,0-2.79-2.24-2.34-4.32l.92-4.38c.4-1.91,1-3.89,3.52-3.89,2.73,0,2.84,2.13,2.44,4-.07.31-.48,2.28-.56,2.62Zm3-1.37c.06-.26.33-1.52.38-1.77.23-1.15,0-2.13-1-2.13s-1.48,1.17-1.69,2.23l-.36,1.67Z"/><path d="M246.51,127h1.66l-2.6,12.22h-1.66Zm1-4.52h1.65l-.52,2.48H247Z"/><path d="M251.41,127c-.14,3.41-.28,8.87-.46,10.29h0c.39-1.36,3.12-8.07,4-10.29h1.73l-5.23,12.22h-1.81l.16-12.22Z"/><path d="M258.33,133.44c-.06.28-.35,1.68-.43,2.05-.3,1.4-.24,2.52.93,2.52s1.37-.93,1.6-2l.07-.34h1.64l-.07.32c-.37,1.64-.9,3.42-3.4,3.42-2.76,0-2.78-2.24-2.34-4.32l.93-4.38c.39-1.91,1-3.89,3.51-3.89,2.74,0,2.84,2.13,2.44,4-.06.31-.48,2.28-.56,2.62Zm3-1.37c.05-.26.32-1.52.37-1.77.24-1.15.05-2.13-1-2.13s-1.48,1.17-1.7,2.23l-.36,1.67Z"/><path d="M273.06,122.48l-2.88,13.59c-.32,1.46-.5,2.44-.62,3.15H268a7.75,7.75,0,0,1,.14-1.13,2.37,2.37,0,0,1-2.2,1.32c-1.89,0-2.25-1.71-1.77-3.94l1.05-4.86c.41-1.92,1.14-3.8,3.2-3.8a1.81,1.81,0,0,1,1.88,1.09l1.13-5.42Zm-6.23,8.16-1,4.92c-.26,1.21-.26,2.37.88,2.37s1.74-1.33,2.13-3.14l.84-3.89c.35-1.63.25-2.67-1-2.67C267.66,128.23,267.15,129.12,266.83,130.64Z"/><path d="M275.7,139.22,278,128.45h-1.32L277,127h1.32l.38-1.81c.32-1.48.85-2.82,2.69-2.82a4,4,0,0,1,1,.13L282,124a2.07,2.07,0,0,0-.56-.06c-.7,0-1,.5-1.16,1.45L280,127h1.54l-.31,1.45h-1.54l-2.29,10.77Z"/><path d="M282.13,131.16c.42-2,.69-3.33.84-4.16h1.58a17.81,17.81,0,0,1-.31,1.81,3.13,3.13,0,0,1,2.85-2l-.43,1.95c-1.62.07-2.62,1.1-3.07,3.25l-1.51,7.18h-1.66Z"/><path d="M293.85,130.76l-1,4.87c-.55,2.65-1.41,3.78-3.61,3.78-2,0-3.1-1.24-2.53-3.91l1.08-5.13c.44-2.07,1.31-3.56,3.54-3.56S294.36,128.28,293.85,130.76Zm-4.41-.39-1.15,5.4c-.32,1.54.17,2.23,1.09,2.23s1.36-.54,1.71-2.16l1.14-5.31c.3-1.39,0-2.31-1.09-2.31S289.73,129.06,289.44,130.37Z"/><path d="M296.11,130.52c.47-2.22.6-2.93.72-3.52h1.6c0,.27-.12.76-.19,1.1a2.51,2.51,0,0,1,2.21-1.29,1.45,1.45,0,0,1,1.6,1.32,2.86,2.86,0,0,1,2.41-1.32c1.25,0,2.24.75,1.77,3l-2,9.44h-1.67l2-9.19c.21-1.05.17-1.8-.77-1.8s-1.56,1.12-1.83,2.38l-1.83,8.61H298.4l1.92-9.07c.32-1.45.07-1.92-.69-1.92-1.07,0-1.62,1.18-1.9,2.48l-1.81,8.51h-1.66Z"/><path d="M313,134.07l-1.84,5.15h-1.74c1.05-2.78,4.75-12.93,5.93-16h2.46l-.78,16h-1.67l.29-5.15Zm2.74-1.53c.19-3.13.34-6.32.49-7.82h-.07c-.31,1.19-1.58,4.82-2.62,7.82Z"/><path d="M325,136.69c-.16.74-.43,2.11-.5,2.53h-1.61c0-.31.1-.73.17-1.09a2.23,2.23,0,0,1-2.18,1.28c-1.8,0-2.15-1.72-1.76-3.6.57-2.67,1.95-3.46,4.79-3.92l.48-.08.39-1.83c.26-1.17,0-1.81-.91-1.81s-1.17.74-1.45,1.87l-.07.28h-1.63l0-.16c.34-1.59.8-3.35,3.29-3.35,2,0,2.79,1.19,2.4,3Zm-.88-3.52-.44.08c-1.65.31-2.51.81-2.9,2.53-.26,1.19-.12,2.15.88,2.15s1.68-1.08,2.13-3.25Z"/><path d="M328.66,131.16c.42-2,.7-3.33.84-4.16h1.58a15.12,15.12,0,0,1-.31,1.81,3.13,3.13,0,0,1,2.86-2l-.44,1.95c-1.61.07-2.62,1.1-3.07,3.25l-1.51,7.18H327Z"/><path d="M340.38,130.76l-1,4.87c-.55,2.65-1.42,3.78-3.61,3.78-2,0-3.1-1.24-2.54-3.91l1.09-5.13c.44-2.07,1.3-3.56,3.53-3.56S340.9,128.28,340.38,130.76Zm-4.4-.39-1.15,5.4c-.33,1.54.17,2.23,1.09,2.23s1.36-.54,1.71-2.16l1.14-5.31c.3-1.39.05-2.31-1.1-2.31S336.26,129.06,336,130.37Z"/><path d="M342.6,130.72c.51-2.45.67-3.19.76-3.72H345a11.36,11.36,0,0,1-.19,1.13,2.7,2.7,0,0,1,2.38-1.32c1.34,0,2.21.92,1.79,2.9l-2,9.51h-1.66l1.94-9.14c.25-1.18.07-1.85-.88-1.85s-1.7.8-2.14,2.92l-1.72,8.07H340.8Z"/><path d="M358.08,122.48l-1.18,5.61a2.57,2.57,0,0,1,2.26-1.28c1.79,0,2.18,1.37,1.81,3.14l-2,9.27h-1.66l1.9-8.94c.24-1.15.25-2.05-.87-2.05s-1.72,1.13-2.09,2.82l-1.74,8.17h-1.66l3.55-16.74Z"/><path d="M367.55,136.69c-.15.74-.43,2.11-.49,2.53h-1.62c0-.31.1-.73.17-1.09a2.23,2.23,0,0,1-2.18,1.28c-1.79,0-2.15-1.72-1.76-3.6.57-2.67,1.95-3.46,4.79-3.92l.48-.08.39-1.83c.26-1.17,0-1.81-.91-1.81s-1.17.74-1.45,1.87l-.07.28h-1.63l0-.16c.34-1.59.8-3.35,3.29-3.35,2.05,0,2.79,1.19,2.4,3Zm-.88-3.52-.44.08c-1.65.31-2.51.81-2.9,2.53-.26,1.19-.12,2.15.88,2.15s1.68-1.08,2.13-3.25Z"/><path d="M372.58,127c-.14,3.41-.27,8.87-.46,10.29h0c.39-1.36,3.12-8.07,4-10.29h1.73l-5.22,12.22H370.8L371,127Z"/><path d="M379.51,133.44c-.07.28-.36,1.68-.44,2.05-.3,1.4-.23,2.52.93,2.52s1.37-.93,1.6-2l.08-.34h1.63l-.07.32c-.37,1.64-.9,3.42-3.4,3.42-2.76,0-2.78-2.24-2.34-4.32l.93-4.38c.39-1.91,1-3.89,3.52-3.89,2.73,0,2.84,2.13,2.43,4-.06.31-.48,2.28-.56,2.62Zm3-1.37c.05-.26.32-1.52.38-1.77.23-1.15,0-2.13-1-2.13s-1.48,1.17-1.7,2.23l-.36,1.67Z"/><path d="M391.73,122.48h1.65l-1.17,5.44a2.44,2.44,0,0,1,2.11-1.11c1.74,0,2.34,1.43,1.82,3.9l-1,4.7c-.45,2.16-1.21,4-3.26,4a1.68,1.68,0,0,1-1.82-1.35,11.89,11.89,0,0,1-.29,1.18h-1.6c.15-.65.37-1.78.69-3.23Zm1.76,12.89,1-4.79c.29-1.41.2-2.35-.92-2.35-1.29,0-1.77,1.35-2.07,2.79l-.88,4.25c-.34,1.63-.14,2.64,1,2.64C392.63,137.91,393.12,137.06,393.49,135.37Z"/><path d="M399.19,133.44c-.07.28-.36,1.68-.44,2.05-.3,1.4-.23,2.52.93,2.52s1.37-.93,1.6-2l.08-.34H403l-.07.32c-.37,1.64-.9,3.42-3.4,3.42-2.76,0-2.78-2.24-2.34-4.32l.93-4.38c.39-1.91,1-3.89,3.52-3.89,2.73,0,2.84,2.13,2.43,4-.06.31-.48,2.28-.56,2.62Zm3-1.37c.05-.26.32-1.52.38-1.77.23-1.15,0-2.13-1-2.13s-1.48,1.17-1.7,2.23l-.36,1.67Z"/><path d="M407,133.44c-.06.28-.35,1.68-.43,2.05-.3,1.4-.24,2.52.93,2.52s1.36-.93,1.6-2l.07-.34h1.64l-.07.32c-.38,1.64-.9,3.42-3.4,3.42-2.77,0-2.78-2.24-2.34-4.32l.92-4.38c.4-1.91,1-3.89,3.52-3.89,2.74,0,2.84,2.13,2.44,4-.06.31-.48,2.28-.56,2.62Zm3-1.37c0-.26.32-1.52.37-1.77.24-1.15,0-2.13-1-2.13s-1.48,1.17-1.7,2.23l-.36,1.67Z"/><path d="M414.11,130.72c.52-2.45.67-3.19.77-3.72h1.61a9.47,9.47,0,0,1-.2,1.13,2.72,2.72,0,0,1,2.38-1.32c1.34,0,2.21.92,1.79,2.9l-2,9.51h-1.65l1.93-9.14c.25-1.18.07-1.85-.88-1.85s-1.69.8-2.13,2.92L414,139.22h-1.65Z"/><path d="M430.49,136.69c-.15.74-.43,2.11-.49,2.53h-1.61c0-.31.1-.73.17-1.09a2.23,2.23,0,0,1-2.18,1.28c-1.8,0-2.15-1.72-1.76-3.6.57-2.67,1.95-3.46,4.79-3.92l.48-.08.39-1.83c.26-1.17,0-1.81-.91-1.81s-1.17.74-1.45,1.87l-.07.28h-1.63l0-.16c.34-1.59.8-3.35,3.29-3.35,2,0,2.79,1.19,2.4,3Zm-.87-3.52-.44.08c-1.65.31-2.51.81-2.9,2.53-.26,1.19-.12,2.15.87,2.15s1.69-1.08,2.14-3.25Z"/><path d="M434.25,130.72c.51-2.45.67-3.19.76-3.72h1.62c0,.26-.09.62-.2,1.13a2.7,2.7,0,0,1,2.38-1.32c1.34,0,2.21.92,1.79,2.9l-2,9.51h-1.66l1.94-9.14c.25-1.18.07-1.85-.88-1.85s-1.7.8-2.14,2.92l-1.72,8.07h-1.66Z"/><path d="M447.12,127h1.66l-2.6,12.22h-1.66Zm1-4.52h1.66l-.52,2.48h-1.66Z"/><path d="M450.54,130.72c.52-2.45.67-3.19.77-3.72h1.61c0,.26-.09.62-.2,1.13a2.72,2.72,0,0,1,2.38-1.32c1.34,0,2.21.92,1.79,2.9l-2,9.51h-1.65l1.93-9.14c.25-1.18.07-1.85-.88-1.85s-1.69.8-2.13,2.92l-1.73,8.07h-1.65Z"/><path d="M460.54,127c-.15,3.41-.28,8.87-.46,10.29h0c.39-1.36,3.12-8.07,4-10.29h1.73l-5.23,12.22h-1.81l.16-12.22Z"/><path d="M470.81,136.69c-.15.74-.43,2.11-.49,2.53h-1.61c0-.31.1-.73.17-1.09a2.23,2.23,0,0,1-2.18,1.28c-1.8,0-2.15-1.72-1.76-3.6.57-2.67,1.95-3.46,4.79-3.92l.48-.08.39-1.83c.26-1.17,0-1.81-.91-1.81s-1.17.74-1.45,1.87l-.07.28h-1.63l0-.16c.34-1.59.8-3.35,3.29-3.35,2.05,0,2.79,1.19,2.4,3Zm-.87-3.52-.44.08c-1.65.31-2.51.81-2.9,2.53-.26,1.19-.12,2.15.87,2.15s1.69-1.08,2.14-3.25Z"/><path d="M472.77,139.22l3.55-16.74H478l-3.55,16.74Z"/><path d="M483.68,135.92c-.34,1.58-.58,2.79-.67,3.3h-1.62c0-.22.11-.73.2-1.18a2.35,2.35,0,0,1-2.32,1.37c-.89,0-2.29-.4-1.66-3.35l1.92-9.06h1.66l-1.9,8.88c-.3,1.45-.06,2.05.8,2.05s1.62-.59,2.12-2.94l1.68-8h1.69Z"/><path d="M491.6,136.69c-.15.74-.43,2.11-.49,2.53h-1.62c0-.31.1-.73.17-1.09a2.23,2.23,0,0,1-2.18,1.28c-1.79,0-2.15-1.72-1.76-3.6.57-2.67,1.95-3.46,4.79-3.92l.48-.08.39-1.83c.26-1.17,0-1.81-.91-1.81s-1.17.74-1.45,1.87l-.07.28h-1.63l0-.16c.34-1.59.8-3.35,3.29-3.35,2.05,0,2.79,1.19,2.4,3Zm-.88-3.52-.44.08c-1.65.31-2.51.81-2.9,2.53-.26,1.19-.12,2.15.88,2.15s1.68-1.08,2.13-3.25Z"/><path d="M497.1,122.48h1.66l-1.17,5.44a2.44,2.44,0,0,1,2.11-1.11c1.74,0,2.34,1.43,1.82,3.9l-1,4.7c-.45,2.16-1.21,4-3.26,4a1.68,1.68,0,0,1-1.82-1.35,11.89,11.89,0,0,1-.29,1.18h-1.6c.15-.65.37-1.78.69-3.23Zm1.77,12.89,1-4.79c.29-1.41.2-2.35-.92-2.35-1.29,0-1.77,1.35-2.07,2.79l-.88,4.25c-.34,1.63-.14,2.64,1,2.64C498,137.91,498.5,137.06,498.87,135.37Z"/><path d="M502,139.22l3.55-16.74h1.66l-3.55,16.74Z"/><path d="M508.74,133.44c-.07.28-.36,1.68-.43,2.05-.3,1.4-.24,2.52.93,2.52s1.36-.93,1.6-2l.07-.34h1.64l-.08.32c-.37,1.64-.9,3.42-3.39,3.42-2.77,0-2.79-2.24-2.34-4.32l.92-4.38c.4-1.91,1-3.89,3.52-3.89,2.74,0,2.84,2.13,2.44,4-.07.31-.48,2.28-.56,2.62Zm3-1.37c.05-.26.32-1.52.37-1.77.24-1.15,0-2.13-1-2.13s-1.48,1.17-1.7,2.23l-.36,1.67Z"/><path d="M523.51,136.69c-.15.74-.43,2.11-.49,2.53h-1.61c0-.31.1-.73.17-1.09a2.23,2.23,0,0,1-2.18,1.28c-1.8,0-2.15-1.72-1.76-3.6.57-2.67,2-3.46,4.79-3.92l.48-.08.39-1.83c.26-1.17,0-1.81-.91-1.81s-1.17.74-1.45,1.87l-.07.28h-1.63l0-.16c.34-1.59.8-3.35,3.29-3.35,2.05,0,2.79,1.19,2.4,3Zm-.87-3.52-.44.08c-1.65.31-2.51.81-2.9,2.53-.26,1.19-.12,2.15.87,2.15s1.69-1.08,2.14-3.25Z"/><path d="M527.22,135.61l-.09.47c-.23,1.16,0,2,1,2,.75,0,1.16-.42,1.4-1.47a3,3,0,0,0-1.08-3.21c-1.45-1.39-1.91-2.23-1.59-4a2.74,2.74,0,0,1,2.86-2.55c2.13,0,2.76,1.52,2.42,3.24l-.09.48h-1.57l.1-.58c.18-1.08,0-1.77-.93-1.77-.6,0-1,.42-1.2,1.39s0,1.43,1,2.43c1.7,1.65,2.1,2.64,1.69,4.64s-1.49,2.77-3.14,2.77c-2.44,0-3-1.61-2.53-3.58l.05-.22Z"/><path d="M534.54,135.61l-.09.47c-.23,1.16,0,2,1,2,.75,0,1.16-.42,1.4-1.47a3,3,0,0,0-1.08-3.21c-1.45-1.39-1.91-2.23-1.59-4a2.74,2.74,0,0,1,2.86-2.55c2.13,0,2.76,1.52,2.42,3.24l-.09.48h-1.57l.1-.58c.18-1.08,0-1.77-.93-1.77-.6,0-1,.42-1.2,1.39s0,1.43,1,2.43c1.7,1.65,2.1,2.64,1.69,4.64s-1.49,2.77-3.14,2.77c-2.44,0-3-1.61-2.52-3.58l0-.22Z"/><path d="M542.44,133.44c-.07.28-.36,1.68-.44,2.05-.3,1.4-.23,2.52.93,2.52s1.37-.93,1.6-2l.08-.34h1.63l-.07.32c-.37,1.64-.9,3.42-3.4,3.42-2.76,0-2.78-2.24-2.34-4.32l.93-4.38c.39-1.91,1-3.89,3.52-3.89,2.73,0,2.84,2.13,2.43,4-.06.31-.48,2.28-.56,2.62Zm3-1.37c0-.26.32-1.52.38-1.77.23-1.15,0-2.13-1-2.13s-1.48,1.17-1.7,2.23l-.36,1.67Z"/><path d="M549.21,127h1.38l.7-3.08h1.63l-.68,3.08h1.67l-.31,1.45h-1.67l-1.82,8.31c-.17.84-.06,1.25.69,1.25a4.45,4.45,0,0,0,.86-.09l-.29,1.31a4.65,4.65,0,0,1-1.29.16c-1.23,0-2.08-.49-1.68-2.36l1.86-8.58h-1.35Z"/><path d="M58.05,155.8h1.66L57.11,168H55.45Zm1-4.52h1.65l-.52,2.48H58.49Z"/><path d="M61.48,159.52c.51-2.45.67-3.19.76-3.72h1.61a11.36,11.36,0,0,1-.19,1.13A2.7,2.7,0,0,1,66,155.61c1.34,0,2.21.92,1.78,2.9l-2,9.51H64.14l1.93-9.14c.26-1.18.07-1.85-.88-1.85s-1.69.8-2.13,2.92L61.33,168H59.68Z"/><path d="M78.05,164.4l-.07.32c-.35,1.64-.91,3.49-3.4,3.49-2.7,0-2.71-2.14-2.32-4l1-4.86c.41-2,1.07-3.74,3.36-3.74,2.62,0,2.78,1.92,2.47,3.53l-.12.61H77.38l.13-.69c.25-1.26.13-2.05-.93-2.05-.91,0-1.26.8-1.58,2.27l-1.13,5.3c-.29,1.34-.19,2.22.9,2.22s1.23-.77,1.53-2l.1-.43Z"/><path d="M87.12,159.56l-1,4.87c-.55,2.65-1.42,3.78-3.62,3.78-2,0-3.09-1.24-2.53-3.91L81,159.17c.43-2.07,1.3-3.56,3.53-3.56S87.64,157.08,87.12,159.56Zm-4.4-.39-1.15,5.4c-.33,1.54.17,2.23,1.09,2.23s1.36-.54,1.71-2.16l1.14-5.31c.3-1.39,0-2.31-1.1-2.31S83,157.86,82.72,159.17Z"/><path d="M89.39,159.32c.47-2.22.59-2.93.71-3.52h1.6c0,.27-.11.76-.18,1.1a2.49,2.49,0,0,1,2.2-1.29,1.44,1.44,0,0,1,1.6,1.32,2.86,2.86,0,0,1,2.41-1.32c1.25,0,2.24.75,1.77,3l-2,9.44H95.83l2-9.19C98,157.78,98,157,97,157s-1.55,1.12-1.83,2.38L93.36,168H91.68L93.6,159c.32-1.45.07-1.92-.7-1.92-1.07,0-1.62,1.18-1.9,2.48L89.2,168H87.54Z"/><path d="M101.87,159.32c.47-2.22.59-2.93.71-3.52h1.6c0,.27-.11.76-.18,1.1a2.49,2.49,0,0,1,2.2-1.29,1.44,1.44,0,0,1,1.6,1.32,2.86,2.86,0,0,1,2.41-1.32c1.25,0,2.24.75,1.77,3L110,168h-1.67l2-9.19c.21-1.05.17-1.8-.77-1.8s-1.55,1.12-1.83,2.38L105.84,168h-1.68l1.92-9.07c.31-1.45.07-1.92-.7-1.92-1.07,0-1.62,1.18-1.9,2.48l-1.8,8.51H100Z"/><path d="M119.23,164.72c-.34,1.58-.58,2.79-.66,3.3h-1.63c0-.22.11-.73.2-1.18a2.35,2.35,0,0,1-2.31,1.37c-.9,0-2.3-.4-1.67-3.35l1.93-9.06h1.65l-1.89,8.88c-.31,1.45-.06,2,.79,2s1.63-.59,2.12-2.94l1.69-8h1.68Z"/><path d="M122.84,159.52c.52-2.45.67-3.19.77-3.72h1.61c0,.26-.09.62-.2,1.13a2.7,2.7,0,0,1,2.38-1.32c1.34,0,2.21.92,1.79,2.9l-2,9.51H125.5l1.94-9.14c.25-1.18.07-1.85-.88-1.85s-1.69.8-2.14,2.92L122.7,168H121Z"/><path d="M132.28,155.8h1.66L131.34,168h-1.66Zm1-4.52h1.65l-.52,2.48h-1.66Z"/><path d="M140.21,164.4l-.07.32c-.36,1.64-.92,3.49-3.4,3.49-2.71,0-2.71-2.14-2.32-4l1-4.86c.42-2,1.07-3.74,3.37-3.74,2.62,0,2.78,1.92,2.47,3.53l-.12.61h-1.63l.13-.69c.25-1.26.13-2.05-.93-2.05-.91,0-1.26.8-1.58,2.27l-1.14,5.3c-.28,1.34-.18,2.22.91,2.22.94,0,1.23-.77,1.53-2l.1-.43Z"/><path d="M147.6,165.49c-.15.74-.43,2.11-.49,2.53h-1.62c0-.31.1-.73.17-1.09a2.23,2.23,0,0,1-2.18,1.28c-1.79,0-2.15-1.72-1.75-3.6.56-2.67,1.94-3.46,4.78-3.92l.48-.08.39-1.83c.26-1.17,0-1.81-.91-1.81s-1.16.74-1.45,1.87l-.07.28h-1.63l0-.16c.34-1.59.8-3.35,3.29-3.35,2.05,0,2.79,1.19,2.4,3Zm-.88-3.52-.44.08c-1.64.31-2.51.81-2.9,2.53-.26,1.19-.12,2.15.88,2.15s1.68-1.08,2.13-3.25Z"/><path d="M150.93,155.8h1.37l.7-3.08h1.63L154,155.8h1.67l-.31,1.45h-1.67l-1.82,8.31c-.17.84,0,1.25.69,1.25a4.45,4.45,0,0,0,.86-.09l-.28,1.31a4.72,4.72,0,0,1-1.3.16c-1.23,0-2.08-.49-1.68-2.36l1.86-8.58h-1.35Z"/><path d="M157.31,155.8H159L156.37,168h-1.66Zm1-4.52h1.65l-.52,2.48h-1.66Z"/><path d="M160.73,159.52c.52-2.45.67-3.19.77-3.72h1.61a9.47,9.47,0,0,1-.2,1.13,2.72,2.72,0,0,1,2.38-1.32c1.34,0,2.21.92,1.79,2.9l-2,9.51H163.4l1.93-9.14c.25-1.18.07-1.85-.88-1.85s-1.69.8-2.13,2.92L160.59,168h-1.65Z"/><path d="M173.53,167.55c-.56,2.66-.86,4.79-3.87,4.79-2.53,0-2.9-1.62-2.64-2.94l0-.12h1.69l0,.15c-.1.57-.09,1.51,1.12,1.51s1.57-1.17,2-3l.27-1.3a2.22,2.22,0,0,1-2.09,1.29c-2.05,0-2.27-1.89-1.88-3.66l1.06-5c.35-1.62,1-3.63,3.17-3.63a1.66,1.66,0,0,1,1.83,1.3,9.29,9.29,0,0,1,.33-1.11h1.59c-.17.68-.42,1.78-.72,3.22Zm-2.7-8.37-1.05,5c-.27,1.25-.2,2.25.9,2.25,1.35,0,1.8-1.62,2.17-3.29l.67-3.07c.31-1.43.46-3-1-3C171.46,157,171.07,158.05,170.83,159.18Z"/><path d="M182.8,155.8c-.43,5.95-.6,8.61-.78,9.88h0c.46-1.45,1.24-3.46,3.73-9.88h1.58c-.32,6-.41,8.36-.59,9.83h0c.38-1.28.9-2.79,3.42-9.83h1.67L187.09,168h-1.67c.23-4,.35-7.52.54-9.6h0c-.44,1.49-1.89,5.09-3.63,9.6h-1.68l.52-12.22Z"/><path d="M193.72,155.8h1.66L192.78,168h-1.66Zm1-4.52h1.66l-.52,2.48h-1.66Z"/><path d="M196.91,155.8h1.37l.7-3.08h1.63l-.68,3.08h1.67l-.31,1.45h-1.67l-1.82,8.31c-.17.84-.05,1.25.69,1.25a4.45,4.45,0,0,0,.86-.09l-.28,1.31a4.72,4.72,0,0,1-1.3.16c-1.23,0-2.08-.49-1.68-2.36l1.86-8.58H196.6Z"/><path d="M205.9,151.28l-1.18,5.61a2.57,2.57,0,0,1,2.26-1.28c1.79,0,2.18,1.37,1.81,3.14l-2,9.27h-1.66l1.9-8.94c.24-1.15.25-2.05-.87-2.05s-1.72,1.13-2.09,2.82L202.35,168h-1.66l3.56-16.74Z"/><path d="M218.85,165.49c-.15.74-.43,2.11-.49,2.53h-1.62c0-.31.1-.73.17-1.09a2.23,2.23,0,0,1-2.18,1.28c-1.79,0-2.15-1.72-1.75-3.6.56-2.67,1.94-3.46,4.78-3.92l.48-.08.39-1.83c.26-1.17,0-1.81-.91-1.81s-1.16.74-1.45,1.87l-.07.28h-1.63l0-.16c.34-1.59.8-3.35,3.29-3.35,2.05,0,2.79,1.19,2.4,3ZM218,162l-.44.08c-1.64.31-2.51.81-2.9,2.53-.26,1.19-.12,2.15.88,2.15s1.68-1.08,2.13-3.25Z"/><path d="M222.6,159.52c.52-2.45.67-3.19.77-3.72H225c0,.26-.09.62-.2,1.13a2.7,2.7,0,0,1,2.38-1.32c1.34,0,2.21.92,1.79,2.9l-2,9.51h-1.66l1.94-9.14c.25-1.18.07-1.85-.88-1.85s-1.69.8-2.14,2.92L222.46,168H220.8Z"/><path d="M238.89,151.28,236,164.87c-.31,1.46-.5,2.44-.62,3.15h-1.61a6.77,6.77,0,0,1,.15-1.13,2.4,2.4,0,0,1-2.21,1.32c-1.89,0-2.25-1.71-1.77-3.94l1.05-4.86c.42-1.92,1.14-3.8,3.2-3.8a1.79,1.79,0,0,1,1.88,1.09l1.14-5.42Zm-6.23,8.16-1,4.92c-.26,1.21-.26,2.37.88,2.37s1.73-1.33,2.13-3.14l.83-3.89c.36-1.63.25-2.67-1-2.67C233.49,157,233,157.92,232.66,159.44Z"/><path d="M243.14,159.32c.48-2.22.6-2.93.72-3.52h1.6c0,.27-.11.76-.18,1.1a2.49,2.49,0,0,1,2.2-1.29,1.44,1.44,0,0,1,1.6,1.32,2.86,2.86,0,0,1,2.41-1.32c1.25,0,2.24.75,1.77,3l-2,9.44h-1.67l1.95-9.19c.21-1.05.17-1.8-.77-1.8s-1.55,1.12-1.83,2.38L247.12,168h-1.68l1.92-9.07c.31-1.45.07-1.92-.7-1.92-1.07,0-1.62,1.18-1.9,2.48L243,168H241.3Z"/><path d="M259.84,165.49c-.15.74-.43,2.11-.49,2.53h-1.61a9.72,9.72,0,0,1,.17-1.09,2.25,2.25,0,0,1-2.19,1.28c-1.79,0-2.15-1.72-1.75-3.6.57-2.67,1.94-3.46,4.78-3.92l.48-.08.39-1.83c.26-1.17,0-1.81-.91-1.81s-1.16.74-1.45,1.87l-.07.28h-1.63l0-.16c.34-1.59.8-3.35,3.29-3.35,2.05,0,2.79,1.19,2.4,3ZM259,162l-.44.08c-1.64.31-2.51.81-2.9,2.53-.26,1.19-.12,2.15.88,2.15s1.68-1.08,2.14-3.25Z"/><path d="M263.51,160c.42-2,.69-3.33.83-4.16h1.58a15.12,15.12,0,0,1-.31,1.81,3.14,3.14,0,0,1,2.86-2l-.43,2c-1.62.07-2.62,1.1-3.07,3.24L263.45,168h-1.66Z"/><path d="M270.62,161.34h0c.84-1.3,2.73-4,3.76-5.54h1.81c-1.16,1.64-2.26,3.11-3.41,4.72l1.07,7.5h-1.67l-.77-6c-.15.24-1.18,1.53-1.32,1.72L269.2,168h-1.65l3.56-16.74h1.64Z"/><path d="M277.68,162.24c-.07.28-.36,1.68-.44,2-.29,1.4-.23,2.52.94,2.52s1.36-.93,1.6-2l.07-.34h1.64l-.08.32c-.37,1.64-.9,3.42-3.39,3.42-2.77,0-2.79-2.24-2.34-4.32l.92-4.38c.4-1.91,1-3.89,3.52-3.89,2.73,0,2.84,2.13,2.44,4-.07.31-.48,2.28-.56,2.62Zm3-1.37c.06-.26.33-1.52.38-1.77.23-1.15,0-2.13-1-2.13s-1.48,1.17-1.69,2.23l-.36,1.67Z"/><path d="M284.46,155.8h1.37l.7-3.08h1.63l-.68,3.08h1.67l-.31,1.45h-1.67l-1.82,8.31c-.17.84-.06,1.25.69,1.25a4.45,4.45,0,0,0,.86-.09l-.28,1.31a4.77,4.77,0,0,1-1.3.16c-1.23,0-2.08-.49-1.68-2.36l1.86-8.58h-1.35Z"/><path d="M290.84,155.8h1.66L289.9,168h-1.66Zm1-4.52h1.66l-.52,2.48h-1.66Z"/><path d="M294.26,159.52c.52-2.45.67-3.19.77-3.72h1.61c0,.26-.09.62-.2,1.13a2.72,2.72,0,0,1,2.38-1.32c1.34,0,2.21.92,1.79,2.9l-2,9.51h-1.65l1.93-9.14c.25-1.18.07-1.85-.88-1.85s-1.69.8-2.14,2.92L294.12,168h-1.66Z"/><path d="M307.06,167.55c-.56,2.66-.86,4.79-3.87,4.79-2.53,0-2.9-1.62-2.64-2.94l0-.12h1.68l0,.15c-.1.57-.09,1.51,1.12,1.51s1.57-1.17,2-3l.27-1.3a2.22,2.22,0,0,1-2.09,1.29c-2.05,0-2.27-1.89-1.88-3.66l1.06-5c.35-1.62,1-3.63,3.17-3.63a1.66,1.66,0,0,1,1.83,1.3,9.29,9.29,0,0,1,.33-1.11h1.59c-.17.68-.42,1.78-.72,3.22Zm-2.7-8.37-1.05,5c-.27,1.25-.2,2.25.9,2.25,1.35,0,1.8-1.62,2.17-3.29l.67-3.07c.31-1.43.46-3-1-3C305,157,304.6,158.05,304.36,159.18Z"/><path d="M314.36,155.8h1.37l.7-3.08h1.63l-.68,3.08h1.67l-.31,1.45h-1.67l-1.81,8.31c-.18.84-.06,1.25.68,1.25a4.37,4.37,0,0,0,.86-.09l-.28,1.31a4.72,4.72,0,0,1-1.3.16c-1.23,0-2.08-.49-1.68-2.36l1.86-8.58h-1.35Z"/><path d="M325.77,159.56l-1,4.87c-.55,2.65-1.41,3.78-3.61,3.78-2,0-3.1-1.24-2.53-3.91l1.08-5.13c.44-2.07,1.31-3.56,3.54-3.56S326.28,157.08,325.77,159.56Zm-4.41-.39-1.15,5.4c-.32,1.54.17,2.23,1.09,2.23s1.36-.54,1.71-2.16l1.14-5.31c.3-1.39.05-2.31-1.09-2.31S321.65,157.86,321.36,159.17Z"/><path d="M331.46,159.32c.48-2.22.6-2.93.72-3.52h1.6c0,.27-.11.76-.19,1.1a2.52,2.52,0,0,1,2.21-1.29,1.44,1.44,0,0,1,1.6,1.32,2.86,2.86,0,0,1,2.41-1.32c1.25,0,2.24.75,1.77,3l-2,9.44h-1.66l1.95-9.19c.21-1.05.17-1.8-.77-1.8s-1.56,1.12-1.83,2.38L335.43,168h-1.68l1.92-9.07c.32-1.45.07-1.92-.69-1.92-1.07,0-1.62,1.18-1.9,2.48L331.27,168h-1.65Z"/><path d="M345.29,155.8c-.07,3.66-.21,8.93-.36,10.25h0c.71-2.22,2.65-7.21,3.85-10.25h1.7l-5.31,12.89c-1.43,3.43-2.28,3.62-3.62,3.62a4.91,4.91,0,0,1-1.08-.13l.35-1.5a3.41,3.41,0,0,0,.75.08c.84,0,1.21-.42,2-2.37l.06-12.59Z"/><path d="M359.32,164.4l-.07.32c-.36,1.64-.92,3.49-3.4,3.49-2.71,0-2.72-2.14-2.32-4l1-4.86c.42-2,1.07-3.74,3.37-3.74,2.61,0,2.78,1.92,2.47,3.53l-.12.61h-1.63l.13-.69c.25-1.26.13-2.05-.93-2.05s-1.26.8-1.58,2.27l-1.14,5.3c-.28,1.34-.18,2.22.91,2.22.94,0,1.23-.77,1.52-2l.11-.43Z"/><path d="M360.55,168l3.55-16.74h1.66L362.21,168Z"/><path d="M367.33,155.8H369L366.38,168h-1.65Zm1-4.52H370l-.53,2.48h-1.65Z"/><path d="M371.51,162.24c-.06.28-.35,1.68-.43,2-.3,1.4-.24,2.52.93,2.52s1.37-.93,1.6-2l.07-.34h1.64l-.07.32c-.37,1.64-.9,3.42-3.4,3.42-2.77,0-2.78-2.24-2.34-4.32l.93-4.38c.39-1.91,1-3.89,3.51-3.89,2.74,0,2.84,2.13,2.44,4-.06.31-.48,2.28-.56,2.62Zm3-1.37c.05-.26.32-1.52.37-1.77.24-1.15.05-2.13-1-2.13s-1.48,1.17-1.7,2.23l-.36,1.67Z"/><path d="M378.6,159.52c.51-2.45.67-3.19.76-3.72H381a11.36,11.36,0,0,1-.19,1.13,2.7,2.7,0,0,1,2.38-1.32c1.34,0,2.21.92,1.78,2.9l-2,9.51h-1.66l1.93-9.14c.26-1.18.08-1.85-.88-1.85s-1.69.8-2.13,2.92L378.46,168H376.8Z"/><path d="M386.88,155.8h1.38l.7-3.08h1.63l-.68,3.08h1.67l-.31,1.45H389.6l-1.82,8.31c-.17.84-.06,1.25.69,1.25a4.45,4.45,0,0,0,.86-.09L389,168a4.65,4.65,0,0,1-1.29.16c-1.23,0-2.08-.49-1.68-2.36l1.86-8.58h-1.35Z"/><path d="M392.66,164.41l-.1.47c-.22,1.16,0,2,1.06,2,.75,0,1.16-.42,1.39-1.47a3,3,0,0,0-1.07-3.21c-1.45-1.39-1.91-2.23-1.59-4a2.73,2.73,0,0,1,2.86-2.55c2.13,0,2.76,1.52,2.42,3.24l-.09.48H396l.09-.58c.18-1.08,0-1.77-.92-1.77-.6,0-1,.42-1.2,1.39s0,1.43,1,2.43c1.69,1.65,2.1,2.64,1.69,4.64s-1.49,2.77-3.14,2.77c-2.45,0-3-1.61-2.53-3.58l0-.22Z"/><path d="M398,168l.68-3.2h1.6l-.68,3.2Z"/><path d="M407.84,162.87,406,168h-1.74c1.05-2.78,4.75-12.93,5.93-16h2.47l-.79,16h-1.66l.28-5.15Zm2.74-1.54c.19-3.12.34-6.31.49-7.81H411c-.31,1.19-1.58,4.82-2.62,7.81Z"/><path d="M419.89,165.49c-.15.74-.43,2.11-.49,2.53h-1.62c0-.31.1-.73.17-1.09a2.23,2.23,0,0,1-2.18,1.28c-1.79,0-2.15-1.72-1.75-3.6.56-2.67,1.94-3.46,4.78-3.92l.48-.08.39-1.83c.26-1.17,0-1.81-.91-1.81s-1.16.74-1.45,1.87l-.07.28h-1.63l0-.16c.34-1.59.8-3.35,3.29-3.35,2.05,0,2.79,1.19,2.4,3ZM419,162l-.44.08c-1.64.31-2.51.81-2.9,2.53-.26,1.19-.12,2.15.88,2.15s1.68-1.08,2.13-3.25Z"/><path d="M423.56,160c.41-2,.69-3.33.83-4.16H426a15.12,15.12,0,0,1-.31,1.81,3.13,3.13,0,0,1,2.86-2l-.43,2c-1.62.07-2.63,1.1-3.07,3.24L423.5,168h-1.66Z"/><path d="M435.27,159.56l-1,4.87c-.55,2.65-1.42,3.78-3.61,3.78-2,0-3.1-1.24-2.54-3.91l1.09-5.13c.44-2.07,1.3-3.56,3.53-3.56S435.79,157.08,435.27,159.56Zm-4.4-.39-1.15,5.4c-.33,1.54.17,2.23,1.09,2.23s1.36-.54,1.71-2.16l1.14-5.31c.3-1.39,0-2.31-1.1-2.31S431.15,157.86,430.87,159.17Z"/><path d="M437.49,159.52c.51-2.45.67-3.19.76-3.72h1.62c0,.26-.09.62-.2,1.13a2.7,2.7,0,0,1,2.38-1.32c1.34,0,2.21.92,1.79,2.9l-2,9.51h-1.66l1.94-9.14c.25-1.18.07-1.85-.88-1.85s-1.7.8-2.14,2.92L437.35,168h-1.66Z"/><path d="M450.36,155.8H452L449.42,168h-1.66Zm1-4.52H453l-.52,2.48H450.8Z"/><path d="M453.85,164.41l-.09.47c-.22,1.16,0,2,1.06,2,.74,0,1.15-.42,1.39-1.47a3,3,0,0,0-1.07-3.21c-1.45-1.39-1.91-2.23-1.59-4a2.73,2.73,0,0,1,2.85-2.55c2.13,0,2.77,1.52,2.43,3.24l-.1.48h-1.57l.1-.58c.18-1.08,0-1.77-.92-1.77-.6,0-1,.42-1.2,1.39s0,1.43,1,2.43c1.69,1.65,2.1,2.64,1.69,4.64s-1.49,2.77-3.14,2.77c-2.45,0-3-1.61-2.53-3.58l.05-.22Z"/><path d="M468.68,165.49c-.15.74-.43,2.11-.49,2.53h-1.62c0-.31.1-.73.17-1.09a2.23,2.23,0,0,1-2.18,1.28c-1.79,0-2.15-1.72-1.75-3.6.57-2.67,1.94-3.46,4.78-3.92l.48-.08.39-1.83c.26-1.17,0-1.81-.91-1.81s-1.16.74-1.45,1.87l-.07.28H464.4l0-.16c.34-1.59.8-3.35,3.29-3.35,2,0,2.79,1.19,2.4,3ZM467.8,162l-.44.08c-1.64.31-2.51.81-2.9,2.53-.26,1.19-.12,2.15.88,2.15s1.68-1.08,2.13-3.25Z"/><path d="M472.43,159.52c.52-2.45.67-3.19.77-3.72h1.61c0,.26-.09.62-.2,1.13a2.7,2.7,0,0,1,2.38-1.32c1.34,0,2.21.92,1.79,2.9l-2,9.51h-1.66l1.94-9.14c.25-1.18.07-1.85-.88-1.85s-1.69.8-2.14,2.92L472.29,168h-1.66Z"/><path d="M63.12,188.36l-1,4.87c-.55,2.65-1.41,3.78-3.61,3.78-2,0-3.1-1.24-2.53-3.91L57,188c.44-2.07,1.3-3.56,3.53-3.56S63.64,185.88,63.12,188.36Zm-4.4-.39-1.15,5.4c-.32,1.54.17,2.23,1.09,2.23s1.36-.54,1.71-2.16l1.14-5.31c.3-1.4.05-2.31-1.1-2.31S59,186.66,58.72,188Z"/><path d="M70.28,193.52c-.35,1.58-.59,2.79-.67,3.3H68c0-.22.11-.73.19-1.18A2.35,2.35,0,0,1,65.87,197c-.89,0-2.3-.4-1.66-3.35l1.92-9.06h1.66l-1.9,8.88c-.31,1.45-.06,2.05.8,2.05s1.62-.59,2.11-2.94l1.69-8h1.68Z"/><path d="M73.65,184.6H75l.69-3.08h1.64l-.69,3.08h1.67L78,186.05H76.36l-1.81,8.31c-.17.84-.06,1.25.69,1.25a4.45,4.45,0,0,0,.86-.09l-.29,1.31a4.67,4.67,0,0,1-1.3.16c-1.22,0-2.08-.49-1.68-2.36l1.87-8.58H73.34Z"/><path d="M79.42,193.21l-.09.47c-.22,1.15,0,2,1.06,2,.74,0,1.15-.42,1.39-1.47A3,3,0,0,0,80.71,191c-1.45-1.4-1.91-2.23-1.59-4A2.73,2.73,0,0,1,82,184.41c2.13,0,2.77,1.52,2.43,3.24l-.1.48H82.73l.1-.58c.18-1.08,0-1.77-.92-1.77-.6,0-1,.42-1.2,1.39s0,1.43,1,2.43c1.69,1.65,2.1,2.64,1.69,4.64S81.93,197,80.28,197c-2.45,0-3-1.61-2.53-3.58l0-.22Z"/><path d="M86.13,184.6h1.38l.69-3.08h1.64l-.69,3.08h1.67l-.31,1.45H88.84L87,194.36c-.17.84-.06,1.25.69,1.25a4.45,4.45,0,0,0,.86-.09l-.29,1.31A4.67,4.67,0,0,1,87,197c-1.23,0-2.08-.49-1.68-2.36l1.86-8.58H85.82Z"/><path d="M96,194.29c-.15.74-.43,2.11-.49,2.53H93.87c0-.31.1-.73.17-1.09A2.23,2.23,0,0,1,91.86,197c-1.79,0-2.15-1.72-1.76-3.6.57-2.67,2-3.47,4.79-3.92l.48-.08.39-1.83c.26-1.17,0-1.81-.91-1.81s-1.17.74-1.45,1.87l-.07.28H91.7l0-.16c.34-1.59.8-3.35,3.29-3.35,2,0,2.79,1.19,2.4,3Zm-.88-3.52-.44.08c-1.65.31-2.51.81-2.9,2.53-.26,1.19-.12,2.15.88,2.15s1.68-1.08,2.13-3.25Z"/><path d="M99.73,188.32c.51-2.45.67-3.19.77-3.72h1.61c0,.26-.09.62-.2,1.13a2.7,2.7,0,0,1,2.38-1.32c1.34,0,2.21.92,1.79,2.9l-2,9.51h-1.66l1.94-9.14c.25-1.18.07-1.85-.88-1.85s-1.7.8-2.14,2.92l-1.72,8.07H97.93Z"/><path d="M116,180.08l-2.89,13.59c-.31,1.46-.5,2.44-.62,3.15H110.9a6.77,6.77,0,0,1,.15-1.13,2.4,2.4,0,0,1-2.21,1.32c-1.89,0-2.25-1.72-1.77-3.95l1.05-4.85c.42-1.92,1.14-3.8,3.2-3.8a1.8,1.8,0,0,1,1.88,1.09l1.14-5.42Zm-6.23,8.16-1.05,4.92c-.26,1.21-.25,2.37.89,2.37s1.73-1.33,2.12-3.14l.84-3.89c.35-1.63.25-2.67-1-2.67C110.62,185.83,110.11,186.72,109.79,188.24Z"/><path d="M117.59,184.6h1.66l-2.6,12.22H115Zm1-4.52h1.66l-.53,2.48H118Z"/><path d="M121,188.32c.51-2.45.67-3.19.76-3.72h1.61a11.36,11.36,0,0,1-.19,1.13,2.7,2.7,0,0,1,2.38-1.32c1.34,0,2.21.92,1.78,2.9l-2,9.51h-1.66l1.93-9.14c.26-1.18.08-1.85-.88-1.85s-1.69.8-2.13,2.92l-1.72,8.07h-1.66Z"/><path d="M133.81,196.35c-.56,2.66-.86,4.79-3.87,4.79-2.52,0-2.9-1.62-2.64-2.94l0-.12H129l0,.15c-.09.57-.09,1.51,1.13,1.51s1.56-1.17,2-3l.28-1.3a2.23,2.23,0,0,1-2.1,1.29c-2,0-2.26-1.89-1.88-3.66l1.07-5c.34-1.62,1-3.63,3.16-3.63a1.68,1.68,0,0,1,1.84,1.3,9.57,9.57,0,0,1,.32-1.11h1.59c-.17.68-.42,1.78-.72,3.22Zm-2.7-8.37-1.05,5c-.27,1.26-.19,2.26.91,2.26,1.34,0,1.79-1.62,2.16-3.29l.68-3.07c.31-1.44.45-3-1-3C131.75,185.83,131.36,186.85,131.11,188Z"/><path d="M139.67,196.82l3.55-16.74h1.66l-3.56,16.74Z"/><path d="M146.44,184.6h1.66l-2.6,12.22h-1.66Zm1-4.52h1.66l-.52,2.48h-1.66Z"/><path d="M149.86,188.32c.52-2.45.67-3.19.77-3.72h1.61c0,.26-.09.62-.2,1.13a2.72,2.72,0,0,1,2.38-1.32c1.34,0,2.21.92,1.79,2.9l-2,9.51h-1.65l1.93-9.14c.25-1.18.07-1.85-.88-1.85s-1.69.8-2.14,2.92l-1.72,8.07h-1.66Z"/><path d="M162.66,196.35c-.56,2.66-.87,4.79-3.87,4.79-2.53,0-2.9-1.62-2.64-2.94l0-.12h1.68l0,.15c-.1.57-.09,1.51,1.12,1.51s1.57-1.17,2-3l.27-1.3a2.22,2.22,0,0,1-2.09,1.29c-2,0-2.27-1.89-1.89-3.66l1.07-5c.35-1.62,1-3.63,3.17-3.63a1.66,1.66,0,0,1,1.83,1.3,9.29,9.29,0,0,1,.33-1.11h1.59c-.17.68-.42,1.78-.73,3.22ZM160,188l-1.05,5c-.27,1.26-.2,2.26.9,2.26,1.35,0,1.8-1.62,2.17-3.29l.67-3.07c.31-1.44.46-3-1-3C160.59,185.83,160.2,186.85,160,188Z"/><path d="M171.81,193.52c-.34,1.58-.58,2.79-.66,3.3h-1.62c0-.22.11-.73.19-1.18a2.35,2.35,0,0,1-2.31,1.37c-.89,0-2.3-.4-1.66-3.35l1.92-9.06h1.66l-1.9,8.88c-.31,1.45-.06,2.05.79,2.05s1.63-.59,2.12-2.94l1.69-8h1.68Z"/><path d="M176.22,184.6h1.66l-2.6,12.22h-1.66Zm1-4.52h1.66l-.53,2.48h-1.66Z"/><path d="M179.71,193.21l-.09.47c-.22,1.15,0,2,1.06,2,.74,0,1.16-.42,1.39-1.47A3,3,0,0,0,181,191c-1.45-1.4-1.91-2.23-1.59-4a2.73,2.73,0,0,1,2.85-2.55c2.14,0,2.77,1.52,2.43,3.24l-.1.48H183l.09-.58c.18-1.08,0-1.77-.92-1.77-.6,0-1,.42-1.2,1.39s0,1.43,1,2.43c1.69,1.65,2.1,2.64,1.69,4.64s-1.49,2.77-3.14,2.77c-2.45,0-3-1.61-2.53-3.58l.05-.22Z"/><path d="M186.42,184.6h1.38l.69-3.08h1.64l-.69,3.08h1.67l-.31,1.45h-1.67l-1.81,8.31c-.17.84-.06,1.25.69,1.25a4.45,4.45,0,0,0,.86-.09l-.29,1.31a4.67,4.67,0,0,1-1.3.16c-1.22,0-2.08-.49-1.68-2.36l1.87-8.58h-1.36Z"/><path d="M199.7,194.29c-.15.74-.43,2.11-.49,2.53H197.6a9.72,9.72,0,0,1,.17-1.09,2.25,2.25,0,0,1-2.19,1.28c-1.79,0-2.15-1.72-1.75-3.6.57-2.67,1.94-3.47,4.78-3.92l.48-.08.39-1.83c.26-1.17,0-1.81-.9-1.81s-1.17.74-1.46,1.87l-.07.28h-1.63l0-.16c.33-1.59.79-3.35,3.28-3.35,2,0,2.79,1.19,2.4,3Zm-.88-3.52-.44.08c-1.64.31-2.51.81-2.9,2.53-.26,1.19-.12,2.15.88,2.15s1.68-1.08,2.14-3.25Z"/><path d="M203.45,188.32c.52-2.45.67-3.19.77-3.72h1.61c0,.26-.09.62-.2,1.13a2.72,2.72,0,0,1,2.38-1.32c1.34,0,2.21.92,1.79,2.9l-2,9.51h-1.65l1.93-9.14c.25-1.18.07-1.85-.88-1.85s-1.69.8-2.14,2.92l-1.72,8.07h-1.66Z"/><path d="M219.74,180.08l-2.89,13.59c-.31,1.46-.49,2.44-.61,3.15h-1.62a6.77,6.77,0,0,1,.15-1.13,2.4,2.4,0,0,1-2.21,1.32c-1.89,0-2.25-1.72-1.77-3.95l1.05-4.85c.42-1.92,1.14-3.8,3.2-3.8a1.79,1.79,0,0,1,1.88,1.09l1.14-5.42Zm-6.23,8.16-1,4.92c-.26,1.21-.26,2.37.88,2.37s1.74-1.33,2.13-3.14l.83-3.89c.36-1.63.25-2.67-1-2.67C214.34,185.83,213.83,186.72,213.51,188.24Z"/><path d="M228.45,193.2l-.07.32c-.35,1.64-.91,3.49-3.39,3.49-2.71,0-2.72-2.14-2.33-4l1-4.86c.41-2,1.07-3.74,3.37-3.74,2.61,0,2.77,1.92,2.46,3.53l-.12.61h-1.62l.13-.69c.24-1.26.12-2.05-.94-2.05-.9,0-1.26.8-1.58,2.27l-1.13,5.3c-.29,1.33-.19,2.22.9,2.22s1.23-.77,1.53-2l.1-.43Z"/><path d="M237.52,188.36l-1,4.87c-.55,2.65-1.42,3.78-3.61,3.78-2,0-3.1-1.24-2.54-3.91l1.09-5.13c.44-2.07,1.3-3.56,3.53-3.56S238,185.88,237.52,188.36Zm-4.4-.39-1.15,5.4c-.33,1.54.17,2.23,1.09,2.23s1.36-.54,1.71-2.16l1.14-5.31c.3-1.4.05-2.31-1.1-2.31S233.4,186.66,233.12,188Z"/><path d="M239.74,188.32c.51-2.45.67-3.19.76-3.72h1.62c0,.26-.09.62-.2,1.13a2.7,2.7,0,0,1,2.38-1.32c1.34,0,2.21.92,1.79,2.9l-2,9.51H242.4l1.94-9.14c.25-1.18.07-1.85-.88-1.85s-1.7.8-2.14,2.92l-1.72,8.07h-1.66Z"/><path d="M248,184.6h1.37l.7-3.08h1.63l-.68,3.08h1.67l-.31,1.45h-1.67l-1.82,8.31c-.17.84,0,1.25.69,1.25a4.45,4.45,0,0,0,.86-.09l-.28,1.31a4.77,4.77,0,0,1-1.3.16c-1.23,0-2.08-.49-1.68-2.36l1.86-8.58h-1.35Z"/><path d="M254.33,191c-.07.28-.36,1.68-.44,2.05-.29,1.4-.23,2.52.94,2.52s1.36-.93,1.6-2l.07-.34h1.63l-.07.32c-.37,1.64-.9,3.42-3.39,3.42-2.77,0-2.79-2.24-2.35-4.32l.93-4.38c.39-1.91,1-3.89,3.52-3.89,2.73,0,2.84,2.13,2.44,4-.07.31-.49,2.28-.56,2.62Zm3-1.37c.05-.26.32-1.52.38-1.77.23-1.15,0-2.13-1-2.13s-1.48,1.17-1.7,2.23l-.35,1.67Z"/><path d="M261.41,188.32c.51-2.45.67-3.19.76-3.72h1.62c0,.26-.09.62-.2,1.13a2.7,2.7,0,0,1,2.38-1.32c1.34,0,2.21.92,1.79,2.9l-2,9.51h-1.66l1.94-9.14c.25-1.18.07-1.85-.88-1.85s-1.7.8-2.14,2.92l-1.72,8.07h-1.66Z"/><path d="M269.7,184.6h1.37l.7-3.08h1.63l-.68,3.08h1.67l-.31,1.45h-1.67l-1.82,8.31c-.17.84,0,1.25.69,1.25a4.45,4.45,0,0,0,.86-.09l-.28,1.31a4.77,4.77,0,0,1-1.3.16c-1.23,0-2.08-.49-1.68-2.36l1.86-8.58h-1.35Z"/><path d="M280.28,184.6c-.43,6-.6,8.61-.78,9.88h0c.45-1.45,1.23-3.46,3.72-9.88h1.58c-.31,6-.41,8.36-.59,9.83h0c.37-1.28.89-2.79,3.41-9.83h1.67l-4.78,12.22h-1.66c.23-4,.34-7.52.53-9.6h0c-.44,1.49-1.88,5.09-3.63,9.6h-1.68l.52-12.22Z"/><path d="M290.22,188.76c.42-2,.69-3.33.84-4.16h1.58c0,.23-.09.74-.32,1.81a3.14,3.14,0,0,1,2.86-2l-.43,1.95c-1.62.07-2.62,1.1-3.07,3.24l-1.52,7.19H288.5Z"/><path d="M296.89,184.6h1.66L296,196.82h-1.66Zm1-4.52h1.66l-.52,2.48h-1.66Z"/><path d="M300.08,184.6h1.38l.69-3.08h1.64l-.69,3.08h1.67l-.31,1.45h-1.67L301,194.36c-.18.84-.06,1.25.68,1.25a4.56,4.56,0,0,0,.87-.09l-.29,1.31a4.72,4.72,0,0,1-1.3.16c-1.23,0-2.08-.49-1.68-2.36l1.86-8.58h-1.35Z"/><path d="M306.38,191c-.06.28-.35,1.68-.43,2.05-.3,1.4-.24,2.52.93,2.52s1.36-.93,1.6-2l.07-.34h1.64l-.08.32c-.37,1.64-.9,3.42-3.39,3.42-2.77,0-2.79-2.24-2.34-4.32l.92-4.38c.4-1.91,1-3.89,3.52-3.89,2.74,0,2.84,2.13,2.44,4-.07.31-.48,2.28-.56,2.62Zm3-1.37c.05-.26.32-1.52.37-1.77.24-1.15,0-2.13-1-2.13s-1.48,1.17-1.7,2.23l-.36,1.67Z"/><path d="M313.38,188.76c.42-2,.69-3.33.83-4.16h1.58a15.12,15.12,0,0,1-.31,1.81,3.14,3.14,0,0,1,2.86-2l-.43,1.95c-1.62.07-2.62,1.1-3.07,3.24l-1.52,7.19h-1.66Z"/><path d="M316.1,196.82l.69-3.2h1.6l-.68,3.2Z"/><path d="M326.6,180.79h1.66l-1.42,6.7h3.23l1.42-6.7h1.67l-3.41,16h-1.67l1.66-7.81h-3.23l-1.66,7.81H323.2Z"/><path d="M335,184.6h1.66l-2.6,12.22H332.4Zm1-4.52h1.66l-.52,2.48h-1.66Z"/><path d="M338.49,193.21l-.09.47c-.22,1.15,0,2,1.05,2,.75,0,1.16-.42,1.4-1.47a3,3,0,0,0-1.07-3.21c-1.46-1.4-1.92-2.23-1.6-4a2.74,2.74,0,0,1,2.86-2.55c2.13,0,2.77,1.52,2.42,3.24l-.09.48H341.8l.1-.58c.18-1.08,0-1.77-.93-1.77-.6,0-1,.42-1.19,1.39s0,1.43,1,2.43c1.7,1.65,2.1,2.64,1.69,4.64S341,197,339.35,197c-2.45,0-3-1.61-2.53-3.58l0-.22Z"/><path d="M349.07,193.21l-.09.47c-.22,1.15,0,2,1.06,2,.74,0,1.16-.42,1.39-1.47a3,3,0,0,0-1.07-3.21c-1.45-1.4-1.91-2.23-1.59-4a2.73,2.73,0,0,1,2.85-2.55c2.13,0,2.77,1.52,2.43,3.24l-.1.48h-1.57l.1-.58c.18-1.08,0-1.77-.92-1.77-.6,0-1,.42-1.2,1.39s0,1.43,1,2.43c1.69,1.65,2.1,2.64,1.69,4.64s-1.49,2.77-3.14,2.77c-2.45,0-3-1.61-2.53-3.58l.05-.22Z"/><path d="M357,191c-.06.28-.35,1.68-.43,2.05-.3,1.4-.24,2.52.93,2.52s1.36-.93,1.6-2l.07-.34h1.64l-.08.32c-.37,1.64-.9,3.42-3.39,3.42-2.77,0-2.79-2.24-2.34-4.32l.92-4.38c.4-1.91,1-3.89,3.52-3.89,2.74,0,2.84,2.13,2.44,4-.07.31-.48,2.28-.56,2.62Zm3-1.37c0-.26.32-1.52.37-1.77.24-1.15,0-2.13-1-2.13s-1.48,1.17-1.7,2.23l-.36,1.67Z"/><path d="M364,188.76c.42-2,.69-3.33.83-4.16h1.58a15.12,15.12,0,0,1-.31,1.81,3.14,3.14,0,0,1,2.86-2l-.43,1.95c-1.62.07-2.62,1.1-3.07,3.24l-1.52,7.19h-1.66Z"/><path d="M371.7,184.6c-.15,3.41-.28,8.87-.47,10.29h0c.38-1.36,3.12-8.07,4-10.29H377l-5.22,12.22h-1.82l.16-12.22Z"/><path d="M378.7,184.6h1.66l-2.6,12.22H376.1Zm1-4.52h1.65l-.52,2.48h-1.66Z"/><path d="M386.63,193.2l-.07.32c-.35,1.64-.92,3.49-3.4,3.49-2.7,0-2.71-2.14-2.32-4l1-4.86c.42-2,1.07-3.74,3.37-3.74,2.62,0,2.78,1.92,2.47,3.53l-.12.61H386l.13-.69c.25-1.26.13-2.05-.93-2.05s-1.26.8-1.58,2.27l-1.13,5.3c-.29,1.33-.19,2.22.9,2.22.94,0,1.23-.77,1.53-2l.1-.43Z"/><path d="M390.59,191c-.06.28-.35,1.68-.43,2.05-.3,1.4-.24,2.52.93,2.52s1.37-.93,1.6-2l.07-.34h1.64l-.07.32c-.37,1.64-.9,3.42-3.4,3.42-2.76,0-2.78-2.24-2.34-4.32l.93-4.38c.39-1.91,1-3.89,3.51-3.89,2.74,0,2.84,2.13,2.44,4-.06.31-.48,2.28-.56,2.62Zm3-1.37c0-.26.32-1.52.37-1.77.24-1.15,0-2.13-1-2.13s-1.48,1.17-1.7,2.23l-.36,1.67Z"/><path d="M397.72,193.21l-.09.47c-.22,1.15,0,2,1.05,2,.75,0,1.16-.42,1.4-1.47A3,3,0,0,0,399,191c-1.46-1.4-1.92-2.23-1.59-4a2.73,2.73,0,0,1,2.85-2.55c2.13,0,2.77,1.52,2.43,3.24l-.1.48H401l.1-.58c.18-1.08,0-1.77-.93-1.77-.6,0-1,.42-1.19,1.39s0,1.43,1,2.43c1.7,1.65,2.1,2.64,1.69,4.64s-1.49,2.77-3.13,2.77c-2.45,0-3-1.61-2.53-3.58l0-.22Z"/><path d="M412.54,194.29c-.15.74-.43,2.11-.49,2.53h-1.61c0-.31.1-.73.17-1.09a2.23,2.23,0,0,1-2.18,1.28c-1.8,0-2.15-1.72-1.76-3.6.57-2.67,1.95-3.47,4.79-3.92l.48-.08.39-1.83c.26-1.17,0-1.81-.91-1.81s-1.17.74-1.45,1.87l-.07.28h-1.63l0-.16c.34-1.59.8-3.35,3.29-3.35,2.05,0,2.79,1.19,2.4,3Zm-.87-3.52-.44.08c-1.65.31-2.51.81-2.9,2.53-.26,1.19-.12,2.15.87,2.15s1.69-1.08,2.14-3.25Z"/><path d="M416.21,188.76c.42-2,.7-3.33.84-4.16h1.58a15.12,15.12,0,0,1-.31,1.81,3.13,3.13,0,0,1,2.86-2l-.44,1.95c-1.62.07-2.62,1.1-3.07,3.24l-1.51,7.19H414.5Z"/><path d="M422.82,191c-.06.28-.35,1.68-.43,2.05-.3,1.4-.24,2.52.93,2.52s1.37-.93,1.6-2l.08-.34h1.63l-.07.32c-.37,1.64-.9,3.42-3.4,3.42-2.76,0-2.78-2.24-2.34-4.32l.93-4.38c.39-1.91,1-3.89,3.51-3.89,2.74,0,2.84,2.13,2.44,4-.06.31-.48,2.28-.56,2.62Zm3-1.37c.05-.26.32-1.52.37-1.77.24-1.15.05-2.13-1-2.13s-1.48,1.17-1.7,2.23l-.36,1.67Z"/><path d="M434.9,184.6c-.42,6-.59,8.61-.77,9.88h0c.46-1.45,1.24-3.46,3.73-9.88h1.58c-.32,6-.41,8.36-.59,9.83h0c.37-1.28.9-2.79,3.42-9.83H444l-4.78,12.22h-1.67c.23-4,.35-7.52.54-9.6h0c-.44,1.49-1.89,5.09-3.63,9.6h-1.69l.53-12.22Z"/><path d="M445.74,191c-.06.28-.35,1.68-.43,2.05-.3,1.4-.24,2.52.93,2.52s1.36-.93,1.6-2l.07-.34h1.64l-.07.32c-.37,1.64-.9,3.42-3.4,3.42-2.77,0-2.78-2.24-2.34-4.32l.93-4.38c.39-1.91,1-3.89,3.51-3.89,2.74,0,2.84,2.13,2.44,4-.06.31-.48,2.28-.56,2.62Zm3-1.37c.05-.26.32-1.52.37-1.77.24-1.15.05-2.13-1-2.13s-1.48,1.17-1.7,2.23l-.36,1.67Z"/><path d="M451,196.82l3.55-16.74h1.66l-3.55,16.74Z"/><path d="M455.16,196.82l3.55-16.74h1.66l-3.56,16.74Z"/><path d="M466.17,184.6c-.42,6-.59,8.61-.77,9.88h0c.46-1.45,1.24-3.46,3.73-9.88h1.58c-.32,6-.41,8.36-.59,9.83h0c.37-1.28.9-2.79,3.42-9.83h1.67l-4.78,12.22H468.8c.23-4,.35-7.52.54-9.6h0c-.44,1.49-1.89,5.09-3.63,9.6H464l.53-12.22Z"/><path d="M482.12,188.36l-1,4.87c-.56,2.65-1.42,3.78-3.62,3.78-2,0-3.09-1.24-2.53-3.91L476,188c.44-2.07,1.31-3.56,3.54-3.56S482.63,185.88,482.12,188.36Zm-4.4-.39-1.16,5.4c-.32,1.54.17,2.23,1.1,2.23s1.36-.54,1.71-2.16l1.13-5.31c.3-1.4.05-2.31-1.09-2.31S478,186.66,477.72,188Z"/><path d="M484.25,188.76c.42-2,.69-3.33.84-4.16h1.58a17.81,17.81,0,0,1-.31,1.81,3.13,3.13,0,0,1,2.85-2l-.43,1.95c-1.62.07-2.62,1.1-3.07,3.24l-1.51,7.19h-1.66Z"/><path d="M490.34,184.6h1.38l.69-3.08h1.64l-.68,3.08H495l-.32,1.45h-1.66l-1.82,8.31c-.17.84-.06,1.25.69,1.25a4.45,4.45,0,0,0,.86-.09l-.29,1.31a4.65,4.65,0,0,1-1.29.16c-1.23,0-2.09-.49-1.68-2.36l1.86-8.58H490Z"/><path d="M499.34,180.08l-1.19,5.61a2.59,2.59,0,0,1,2.27-1.28c1.79,0,2.17,1.37,1.8,3.14l-2,9.27h-1.66l1.89-8.94c.25-1.15.25-2-.86-2s-1.72,1.13-2.09,2.82l-1.74,8.17h-1.66l3.55-16.74Z"/><path d="M507.62,184.6H509l.69-3.08h1.64l-.69,3.08h1.67l-.31,1.45h-1.67l-1.81,8.31c-.17.84-.06,1.25.69,1.25a4.45,4.45,0,0,0,.86-.09l-.29,1.31a4.67,4.67,0,0,1-1.3.16c-1.22,0-2.08-.49-1.68-2.36l1.87-8.58h-1.36Z"/><path d="M516.62,180.08l-1.19,5.61a2.59,2.59,0,0,1,2.27-1.28c1.79,0,2.17,1.37,1.8,3.14l-2,9.27h-1.66l1.89-8.94c.25-1.15.25-2-.86-2s-1.72,1.13-2.09,2.82l-1.74,8.17h-1.66L515,180.08Z"/><path d="M522.59,191c-.07.28-.36,1.68-.44,2.05-.29,1.4-.23,2.52.94,2.52s1.36-.93,1.6-2l.07-.34h1.64l-.08.32c-.37,1.64-.9,3.42-3.39,3.42-2.77,0-2.79-2.24-2.35-4.32l.93-4.38c.4-1.91,1-3.89,3.52-3.89,2.73,0,2.84,2.13,2.44,4-.07.31-.49,2.28-.56,2.62Zm3-1.37c0-.26.33-1.52.38-1.77.23-1.15,0-2.13-1-2.13s-1.48,1.17-1.69,2.23l-.36,1.67Z"/><path d="M58.05,213.4h1.66l-2.6,12.22H55.45Zm1-4.52h1.65l-.52,2.48H58.49Z"/><path d="M61.48,217.12c.51-2.45.67-3.19.76-3.72h1.61a11.36,11.36,0,0,1-.19,1.13A2.7,2.7,0,0,1,66,213.21c1.34,0,2.21.92,1.78,2.9l-2,9.51H64.14l1.93-9.14c.26-1.18.07-1.85-.88-1.85s-1.69.8-2.13,2.92l-1.73,8.07H59.68Z"/><path d="M71.47,213.4c-.14,3.41-.28,8.87-.46,10.29h0c.39-1.36,3.12-8.07,4-10.29h1.73L71.5,225.62H69.69l.16-12.22Z"/><path d="M78.39,219.84c-.06.28-.35,1.68-.43,2-.3,1.4-.24,2.52.93,2.52s1.36-.93,1.6-2l.07-.34H82.2l-.07.32c-.37,1.64-.9,3.42-3.4,3.42-2.77,0-2.78-2.24-2.34-4.32l.93-4.38c.39-1.91,1-3.89,3.51-3.89,2.74,0,2.84,2.13,2.44,4-.06.31-.48,2.28-.56,2.62Zm3-1.37c0-.26.32-1.52.37-1.77.24-1.15,0-2.13-1-2.13s-1.48,1.17-1.7,2.23l-.36,1.67Z"/><path d="M85.52,222l-.09.47c-.22,1.15,0,2,1,2,.75,0,1.16-.43,1.4-1.48a3,3,0,0,0-1.07-3.21c-1.45-1.39-1.92-2.23-1.59-4a2.73,2.73,0,0,1,2.85-2.55c2.13,0,2.77,1.52,2.43,3.24l-.1.48H88.83l.1-.58c.18-1.08,0-1.77-.93-1.77-.6,0-1,.42-1.19,1.39s0,1.43,1,2.43C89.52,220,89.92,221,89.51,223s-1.49,2.77-3.13,2.77c-2.45,0-3-1.6-2.53-3.58l.05-.22Z"/><path d="M92.23,213.4H93.6l.7-3.08h1.63l-.68,3.08h1.67l-.31,1.45H94.94l-1.81,8.31c-.18.84-.06,1.25.68,1.25a4.37,4.37,0,0,0,.86-.09l-.28,1.31a4.72,4.72,0,0,1-1.3.16c-1.23,0-2.08-.5-1.68-2.36l1.86-8.58H91.92Z"/><path d="M97.81,216.92c.47-2.22.6-2.93.72-3.52h1.6c0,.27-.12.76-.19,1.1a2.51,2.51,0,0,1,2.21-1.29,1.45,1.45,0,0,1,1.6,1.32,2.85,2.85,0,0,1,2.41-1.32c1.25,0,2.23.75,1.77,3l-2,9.44h-1.67l2-9.19c.21-1.05.17-1.8-.77-1.8s-1.56,1.12-1.83,2.38l-1.83,8.61H100.1l1.92-9.07c.32-1.45.07-1.92-.69-1.92-1.07,0-1.62,1.18-1.9,2.48l-1.81,8.51H96Z"/><path d="M111,219.84c-.07.28-.36,1.68-.44,2-.29,1.4-.23,2.52.94,2.52s1.36-.93,1.6-2l.07-.34h1.64l-.08.32c-.37,1.64-.9,3.42-3.39,3.42-2.77,0-2.79-2.24-2.35-4.32l.93-4.38c.4-1.91,1-3.89,3.52-3.89,2.73,0,2.84,2.13,2.44,4-.07.31-.49,2.28-.56,2.62Zm3-1.37c0-.26.32-1.52.38-1.77.23-1.15,0-2.13-1-2.13s-1.48,1.17-1.69,2.23l-.36,1.67Z"/><path d="M118.09,217.12c.51-2.45.67-3.19.77-3.72h1.61c0,.26-.09.62-.2,1.13a2.7,2.7,0,0,1,2.38-1.32c1.34,0,2.21.92,1.79,2.9l-2,9.51h-1.66l1.94-9.14c.25-1.18.07-1.85-.88-1.85s-1.7.8-2.14,2.92L118,225.62h-1.66Z"/><path d="M126.38,213.4h1.37l.7-3.08h1.63l-.68,3.08h1.67l-.31,1.45h-1.67l-1.82,8.31c-.17.84,0,1.25.69,1.25a4.45,4.45,0,0,0,.86-.09l-.28,1.31a4.72,4.72,0,0,1-1.3.16c-1.23,0-2.08-.5-1.68-2.36l1.86-8.58h-1.35Z"/><path d="M139.65,223.08c-.15.75-.43,2.12-.49,2.54h-1.61c0-.31.1-.73.17-1.09a2.23,2.23,0,0,1-2.18,1.28c-1.8,0-2.15-1.72-1.76-3.6.57-2.67,1.95-3.46,4.79-3.92l.47-.08.4-1.83c.26-1.17,0-1.81-.91-1.81s-1.17.74-1.45,1.87l-.07.28h-1.63l0-.16c.34-1.59.8-3.35,3.29-3.35,2.05,0,2.79,1.19,2.4,3Zm-.87-3.51-.44.08c-1.65.31-2.51.81-2.9,2.53-.26,1.19-.12,2.15.87,2.15s1.69-1.08,2.14-3.25Z"/><path d="M143.41,217.12c.51-2.45.67-3.19.76-3.72h1.61a11.36,11.36,0,0,1-.19,1.13,2.7,2.7,0,0,1,2.38-1.32c1.34,0,2.21.92,1.78,2.9l-2,9.51h-1.66l1.93-9.14c.26-1.18.08-1.85-.87-1.85s-1.7.8-2.14,2.92l-1.72,8.07h-1.66Z"/><path d="M159.7,208.88l-2.89,13.59c-.32,1.46-.5,2.44-.62,3.15h-1.61a6.77,6.77,0,0,1,.15-1.13,2.4,2.4,0,0,1-2.21,1.32c-1.89,0-2.25-1.71-1.77-3.94L151.8,217c.42-1.92,1.14-3.8,3.2-3.8a1.8,1.8,0,0,1,1.88,1.09l1.14-5.42ZM153.47,217,152.42,222c-.26,1.21-.25,2.37.89,2.37s1.73-1.33,2.12-3.14l.84-3.89c.35-1.63.25-2.67-1-2.67C154.29,214.63,153.79,215.52,153.47,217Z"/><path d="M167.23,209.59l-3.41,16h-1.65l3.4-16Z"/><path d="M173.25,213.4c-.43,5.95-.6,8.61-.78,9.88h0c.46-1.45,1.24-3.46,3.73-9.88h1.58c-.32,6-.41,8.36-.59,9.83h0c.37-1.28.9-2.79,3.42-9.83h1.67l-4.78,12.22h-1.67c.23-4,.35-7.52.54-9.6h0c-.44,1.49-1.89,5.09-3.63,9.6h-1.69l.53-12.22Z"/><path d="M184.17,213.4h1.66l-2.6,12.22h-1.66Zm1-4.52h1.66l-.52,2.48h-1.66Z"/><path d="M185.79,225.62l3.55-16.74H191l-3.55,16.74Z"/><path d="M190,225.62l3.55-16.74h1.66l-3.56,16.74Z"/><path d="M203.88,222l-.07.32c-.36,1.64-.92,3.49-3.4,3.49-2.71,0-2.72-2.14-2.32-4l1-4.86c.42-2,1.07-3.74,3.37-3.74,2.61,0,2.78,1.92,2.47,3.53l-.13.62h-1.62l.13-.7c.25-1.26.12-2-.94-2-.9,0-1.25.8-1.57,2.27l-1.14,5.3c-.28,1.34-.18,2.22.91,2.22.94,0,1.22-.77,1.52-2l.11-.43Z"/><path d="M213,217.16l-1,4.87c-.55,2.65-1.41,3.78-3.61,3.78-2,0-3.1-1.24-2.53-3.91l1.08-5.13c.44-2.07,1.31-3.56,3.54-3.56S213.46,214.68,213,217.16Zm-4.41-.39-1.15,5.4c-.32,1.54.17,2.23,1.09,2.23s1.36-.54,1.71-2.16l1.14-5.31c.3-1.39,0-2.31-1.09-2.31S208.83,215.46,208.54,216.77Z"/><path d="M215.16,217.12c.52-2.45.67-3.19.77-3.72h1.61c0,.26-.08.62-.2,1.13a2.72,2.72,0,0,1,2.38-1.32c1.34,0,2.21.92,1.79,2.9l-2,9.51h-1.65l1.93-9.14c.25-1.18.07-1.85-.88-1.85s-1.69.8-2.13,2.92L215,225.62h-1.65Z"/><path d="M223.45,213.4h1.38l.69-3.08h1.64l-.69,3.08h1.67l-.31,1.45h-1.67l-1.81,8.31c-.17.84-.06,1.25.69,1.25a4.45,4.45,0,0,0,.86-.09l-.29,1.31a4.67,4.67,0,0,1-1.3.16c-1.23,0-2.08-.5-1.68-2.36l1.87-8.58h-1.36Z"/><path d="M229.84,213.4h1.65l-2.6,12.22h-1.65Zm1-4.52h1.66l-.53,2.48h-1.65Z"/><path d="M233.26,217.12c.51-2.45.67-3.19.76-3.72h1.61a11.36,11.36,0,0,1-.19,1.13,2.7,2.7,0,0,1,2.38-1.32c1.34,0,2.21.92,1.79,2.9l-2,9.51h-1.66l1.94-9.14c.25-1.18.07-1.85-.88-1.85s-1.7.8-2.14,2.92l-1.72,8.07h-1.66Z"/><path d="M246.83,222.32c-.34,1.58-.58,2.79-.66,3.3h-1.63c0-.22.12-.73.2-1.18a2.35,2.35,0,0,1-2.31,1.37c-.89,0-2.3-.4-1.66-3.35l1.92-9.06h1.66l-1.9,8.88c-.31,1.45-.06,2.05.79,2.05s1.63-.59,2.12-2.94l1.69-8h1.68Z"/><path d="M251.21,219.84c-.07.28-.36,1.68-.44,2-.29,1.4-.23,2.52.94,2.52s1.36-.93,1.6-2l.07-.34H255l-.07.32c-.37,1.64-.9,3.42-3.4,3.42-2.76,0-2.78-2.24-2.34-4.32l.93-4.38c.39-1.91,1-3.89,3.52-3.89,2.73,0,2.84,2.13,2.44,4-.07.31-.49,2.28-.56,2.62Zm3-1.37c0-.26.32-1.52.38-1.77.23-1.15,0-2.13-1-2.13s-1.48,1.17-1.7,2.23l-.35,1.67Z"/><path d="M261.32,213.4h1.38l.69-3.08H265l-.69,3.08H266l-.31,1.45H264l-1.81,8.31c-.17.84-.06,1.25.69,1.25a4.45,4.45,0,0,0,.86-.09l-.29,1.31a4.67,4.67,0,0,1-1.3.16c-1.23,0-2.08-.5-1.68-2.36l1.86-8.58H261Z"/><path d="M272.73,217.16l-1,4.87c-.55,2.65-1.41,3.78-3.61,3.78-2,0-3.09-1.24-2.53-3.91l1.08-5.13c.44-2.07,1.31-3.56,3.54-3.56S273.24,214.68,272.73,217.16Zm-4.41-.39-1.15,5.4c-.32,1.54.17,2.23,1.09,2.23s1.37-.54,1.71-2.16l1.14-5.31c.3-1.39.05-2.31-1.09-2.31S268.61,215.46,268.32,216.77Z"/><path d="M283.31,222.32c-.34,1.58-.58,2.79-.66,3.3H281c0-.22.11-.73.2-1.18a2.35,2.35,0,0,1-2.31,1.37c-.9,0-2.3-.4-1.67-3.35l1.93-9.06h1.65l-1.89,8.88c-.31,1.45-.06,2.05.79,2.05s1.63-.59,2.12-2.94l1.69-8h1.68Z"/><path d="M287,222l-.09.47c-.23,1.15,0,2,1.05,2,.75,0,1.16-.43,1.4-1.48a3,3,0,0,0-1.08-3.21c-1.45-1.39-1.91-2.23-1.59-4a2.74,2.74,0,0,1,2.86-2.55c2.13,0,2.76,1.52,2.42,3.24l-.09.48H290.3l.1-.58c.18-1.08,0-1.77-.93-1.77-.6,0-1,.42-1.2,1.39s0,1.43,1,2.43C291,220,291.39,221,291,223s-1.49,2.77-3.14,2.77c-2.44,0-3-1.6-2.52-3.58l0-.22Z"/><path d="M294.89,219.84c-.07.28-.36,1.68-.44,2-.3,1.4-.23,2.52.93,2.52s1.37-.93,1.6-2l.08-.34h1.63l-.07.32c-.37,1.64-.9,3.42-3.4,3.42-2.76,0-2.78-2.24-2.34-4.32l.93-4.38c.39-1.91,1-3.89,3.52-3.89,2.73,0,2.84,2.13,2.43,4-.06.31-.48,2.28-.56,2.62Zm3-1.37c.05-.26.32-1.52.38-1.77.23-1.15,0-2.13-1-2.13s-1.48,1.17-1.7,2.23l-.36,1.67Z"/><path d="M308.76,208.88l-1.18,5.61a2.57,2.57,0,0,1,2.26-1.28c1.79,0,2.18,1.37,1.81,3.14l-2,9.27H308l1.9-8.94c.24-1.15.25-2.05-.87-2.05s-1.72,1.13-2.08,2.82l-1.75,8.17h-1.66l3.56-16.74Z"/><path d="M314.77,213.4h1.66l-2.6,12.22h-1.66Zm1-4.52h1.66l-.52,2.48h-1.66Z"/><path d="M318.26,222l-.09.47c-.22,1.15,0,2,1.05,2,.75,0,1.16-.43,1.4-1.48a3,3,0,0,0-1.08-3.21c-1.45-1.39-1.91-2.23-1.59-4a2.74,2.74,0,0,1,2.86-2.55c2.13,0,2.77,1.52,2.42,3.24l-.09.48h-1.57l.1-.58c.18-1.08,0-1.77-.93-1.77-.6,0-1,.42-1.2,1.39s0,1.43,1,2.43c1.7,1.64,2.1,2.64,1.69,4.64s-1.49,2.77-3.13,2.77c-2.45,0-3-1.6-2.53-3.58l0-.22Z"/><path d="M328.84,222l-.09.47c-.22,1.15,0,2,1.06,2,.74,0,1.15-.43,1.39-1.48a3,3,0,0,0-1.07-3.21c-1.45-1.39-1.91-2.23-1.59-4a2.73,2.73,0,0,1,2.85-2.55c2.13,0,2.77,1.52,2.43,3.24l-.1.48h-1.57l.1-.58c.18-1.08,0-1.77-.92-1.77-.6,0-1,.42-1.2,1.39s0,1.43,1,2.43c1.69,1.64,2.1,2.64,1.69,4.64s-1.49,2.77-3.14,2.77c-2.45,0-3-1.6-2.53-3.58l.05-.22Z"/><path d="M336.74,219.84c-.07.28-.36,1.68-.43,2-.3,1.4-.24,2.52.93,2.52s1.36-.93,1.6-2l.07-.34h1.64l-.08.32c-.37,1.64-.9,3.42-3.39,3.42-2.77,0-2.79-2.24-2.34-4.32l.92-4.38c.4-1.91,1-3.89,3.52-3.89,2.74,0,2.84,2.13,2.44,4-.07.31-.48,2.28-.56,2.62Zm3-1.37c.05-.26.32-1.52.37-1.77.24-1.15,0-2.13-1-2.13s-1.48,1.17-1.7,2.23l-.36,1.67Z"/><path d="M343.74,217.56c.42-2,.69-3.33.83-4.16h1.58a15.12,15.12,0,0,1-.31,1.81,3.13,3.13,0,0,1,2.86-2l-.43,1.95c-1.62.07-2.62,1.1-3.07,3.25l-1.52,7.18H342Z"/><path d="M351.47,213.4c-.15,3.41-.28,8.87-.47,10.29h0c.38-1.36,3.11-8.07,4-10.29h1.72l-5.22,12.22h-1.82l.16-12.22Z"/><path d="M358.47,213.4h1.66l-2.6,12.22h-1.66Zm1-4.52h1.65l-.52,2.48h-1.66Z"/><path d="M366.4,222l-.07.32c-.36,1.64-.92,3.49-3.4,3.49-2.71,0-2.71-2.14-2.32-4l1-4.86c.42-2,1.07-3.74,3.37-3.74,2.62,0,2.78,1.92,2.47,3.53l-.12.62h-1.63l.13-.7c.25-1.26.13-2-.93-2s-1.26.8-1.58,2.27l-1.14,5.3c-.28,1.34-.18,2.22.91,2.22.94,0,1.23-.77,1.53-2l.1-.43Z"/><path d="M370.36,219.84c-.06.28-.35,1.68-.43,2-.3,1.4-.24,2.52.93,2.52s1.37-.93,1.6-2l.08-.34h1.63l-.07.32c-.37,1.64-.9,3.42-3.4,3.42-2.76,0-2.78-2.24-2.34-4.32l.93-4.38c.39-1.91,1-3.89,3.51-3.89,2.74,0,2.84,2.13,2.44,4-.06.31-.48,2.28-.56,2.62Zm3-1.37c.05-.26.32-1.52.37-1.77.24-1.15.05-2.13-1-2.13s-1.48,1.17-1.7,2.23l-.36,1.67Z"/><path d="M377.49,222l-.09.47c-.22,1.15,0,2,1.05,2,.75,0,1.16-.43,1.4-1.48a3,3,0,0,0-1.07-3.21c-1.45-1.39-1.92-2.23-1.59-4a2.73,2.73,0,0,1,2.85-2.55c2.13,0,2.77,1.52,2.43,3.24l-.1.48H380.8l.1-.58c.18-1.08,0-1.77-.93-1.77-.6,0-1,.42-1.19,1.39s0,1.43,1,2.43c1.7,1.64,2.1,2.64,1.69,4.64s-1.49,2.77-3.13,2.77c-2.45,0-3-1.6-2.53-3.58l.05-.22Z"/><path d="M388.81,213.4h1.65l-2.59,12.22h-1.66Zm1-4.52h1.66l-.52,2.48h-1.66Z"/><path d="M392.23,217.12c.51-2.45.67-3.19.76-3.72h1.61a11.36,11.36,0,0,1-.19,1.13,2.7,2.7,0,0,1,2.38-1.32c1.34,0,2.21.92,1.79,2.9l-2,9.51h-1.66l1.94-9.14c.25-1.18.07-1.85-.88-1.85s-1.7.8-2.14,2.92l-1.72,8.07h-1.66Z"/><path d="M404,213.4h1.37l.7-3.08h1.63L407,213.4h1.67l-.31,1.45h-1.67l-1.82,8.31c-.17.84,0,1.25.69,1.25a4.45,4.45,0,0,0,.86-.09l-.28,1.31a4.72,4.72,0,0,1-1.3.16c-1.23,0-2.08-.5-1.68-2.36l1.86-8.58h-1.35Z"/><path d="M412.94,208.88l-1.18,5.61a2.57,2.57,0,0,1,2.26-1.28c1.79,0,2.18,1.37,1.81,3.14l-2,9.27h-1.66l1.9-8.94c.24-1.15.25-2.05-.87-2.05s-1.72,1.13-2.09,2.82l-1.74,8.17h-1.66l3.56-16.74Z"/><path d="M418.91,219.84c-.06.28-.35,1.68-.43,2-.3,1.4-.24,2.52.93,2.52s1.36-.93,1.6-2l.07-.34h1.64l-.07.32c-.37,1.64-.9,3.42-3.4,3.42-2.77,0-2.78-2.24-2.34-4.32l.92-4.38c.4-1.91,1-3.89,3.52-3.89,2.74,0,2.84,2.13,2.44,4-.06.31-.48,2.28-.56,2.62Zm3-1.37c.05-.26.32-1.52.37-1.77.24-1.15,0-2.13-1-2.13s-1.48,1.17-1.7,2.23l-.36,1.67Z"/><path d="M427.81,225.62l2.28-10.77h-1.32l.31-1.45h1.32l.39-1.81c.32-1.48.85-2.82,2.69-2.82a3.94,3.94,0,0,1,1,.13l-.32,1.45a2.16,2.16,0,0,0-.57-.06c-.7,0-.95.5-1.15,1.45l-.35,1.66h1.54l-.31,1.45h-1.54l-2.29,10.77Z"/><path d="M439.16,222.32c-.34,1.58-.58,2.79-.66,3.3h-1.63c0-.22.11-.73.2-1.18a2.35,2.35,0,0,1-2.31,1.37c-.9,0-2.3-.4-1.67-3.35L435,213.4h1.65l-1.89,8.88c-.31,1.45-.06,2.05.79,2.05s1.63-.59,2.12-2.94l1.69-8h1.68Z"/><path d="M442.54,213.4h1.37l.7-3.08h1.63l-.68,3.08h1.67l-.31,1.45h-1.67l-1.81,8.31c-.18.84-.06,1.25.68,1.25a4.37,4.37,0,0,0,.86-.09l-.28,1.31a4.72,4.72,0,0,1-1.3.16c-1.23,0-2.08-.5-1.68-2.36l1.86-8.58h-1.35Z"/><path d="M452.89,222.32c-.34,1.58-.58,2.79-.67,3.3H450.6c0-.22.11-.73.2-1.18a2.35,2.35,0,0,1-2.32,1.37c-.89,0-2.29-.4-1.66-3.35l1.92-9.06h1.66l-1.89,8.88c-.31,1.45-.07,2.05.79,2.05s1.62-.59,2.12-2.94l1.69-8h1.68Z"/><path d="M456.41,217.56c.42-2,.7-3.33.84-4.16h1.58a15.12,15.12,0,0,1-.31,1.81,3.13,3.13,0,0,1,2.86-2l-.44,1.95c-1.62.07-2.62,1.1-3.07,3.25l-1.51,7.18H454.7Z"/><path d="M463,219.84c-.06.28-.35,1.68-.43,2-.3,1.4-.24,2.52.93,2.52s1.36-.93,1.6-2l.07-.34h1.64l-.07.32c-.37,1.64-.9,3.42-3.4,3.42-2.77,0-2.78-2.24-2.34-4.32l.93-4.38c.39-1.91,1-3.89,3.51-3.89,2.74,0,2.84,2.13,2.44,4-.06.31-.48,2.28-.56,2.62Zm3-1.37c.05-.26.32-1.52.37-1.77.24-1.15.05-2.13-1-2.13s-1.48,1.17-1.7,2.23l-.36,1.67Z"/><path d="M468.21,225.62l.68-3.2h1.6l-.68,3.2Z"/></svg>