<svg id="Layer_1" data-name="Layer 1" xmlns="http://www.w3.org/2000/svg" viewBox="0 0 600 400"><defs><style>.cls-1{fill:#ccc;}.cls-2{fill:#fff;}.cls-3{font-size:48px;font-family:BernardMT-Condensed, Bernard MT Condensed;}</style></defs><title>Testimonial Capt Kraft</title><rect class="cls-1" x="0.5" y="0.5" width="599" height="399"/><path d="M599,1V399H1V1H599m1-1H0V400H600V0Z"/><rect class="cls-1" x="15.5" y="15.5" width="569" height="369"/><path d="M584,16V384H16V16H584m1-1H15V385H585V15Z"/><circle class="cls-2" cx="300.5" cy="48.5" r="24.5"/><text class="cls-3" transform="translate(288.9 79.41)">“</text><rect class="cls-2" x="45" y="90" width="510" height="170"/><path d="M58.92,135.19h2.63c2.45,0,3.24,1.58,2.77,4l-.21,1.1c-.48,2.43-1.44,3.71-4.35,3.71H58.69l-1.52,7.21H55.51ZM59,142.6h1c1.68,0,2.12-.8,2.47-2.41l.2-1c.31-1.41.26-2.59-1.36-2.59h-1Z"/><path d="M66.49,145.44c-.07.28-.36,1.68-.43,2.05-.3,1.4-.24,2.52.93,2.52s1.36-.93,1.6-2l.07-.34H70.3l-.08.32c-.37,1.64-.9,3.42-3.39,3.42-2.77,0-2.79-2.24-2.34-4.32l.92-4.38c.4-1.91,1-3.89,3.52-3.89,2.74,0,2.84,2.13,2.44,4-.07.31-.48,2.28-.56,2.62Zm3-1.37c0-.26.32-1.52.37-1.77.24-1.15,0-2.13-1-2.13s-1.48,1.17-1.7,2.23l-.36,1.67Z"/><path d="M73.27,139h1.37l.7-3.08H77L76.29,139H78l-.31,1.45H76l-1.81,8.31c-.18.84-.06,1.25.68,1.25a4.37,4.37,0,0,0,.86-.09l-.28,1.31a4.72,4.72,0,0,1-1.3.16c-1.23,0-2.08-.49-1.68-2.36l1.86-8.58H73Z"/><path d="M78.07,139h1.37l.7-3.08h1.63L81.09,139h1.67l-.31,1.45H80.78L79,148.76c-.17.84,0,1.25.69,1.25a4.45,4.45,0,0,0,.86-.09l-.28,1.31a4.72,4.72,0,0,1-1.3.16c-1.23,0-2.08-.49-1.68-2.36l1.86-8.58H77.76Z"/><path d="M85.53,139c-.07,3.66-.21,8.93-.36,10.25h0C85.89,147,87.84,142,89,139h1.7l-5.31,12.89c-1.43,3.43-2.28,3.62-3.63,3.62a4.9,4.9,0,0,1-1.07-.13l.34-1.5a3.58,3.58,0,0,0,.75.08c.85,0,1.21-.42,2-2.37l0-12.59Z"/><path d="M102.28,139.29l-1.7,8c-.56,2.63-1.4,4.19-3.94,4.19s-3.24-1.79-2.72-4.31l1.73-8.2c.52-2.5,1.67-3.95,3.87-3.95C102,135,102.83,136.76,102.28,139.29Zm-4.93-.38-1.78,8.42c-.37,1.74,0,2.66,1.24,2.66s1.67-.87,2-2.62l1.78-8.33c.36-1.7,0-2.61-1.28-2.61S97.69,137.33,97.35,138.91Z"/><path d="M106.55,140.45l-2.28,10.77H102.6l2.28-10.77h-1.31l.31-1.45h1.32l.38-1.81c.32-1.48.85-2.82,2.69-2.82a4,4,0,0,1,1,.13l-.33,1.45a2.12,2.12,0,0,0-.56-.06c-.7,0-1,.5-1.16,1.45l-.35,1.66h2.67l.39-1.81c.31-1.48.85-2.82,2.68-2.82a4,4,0,0,1,1,.13l-.32,1.45a2.16,2.16,0,0,0-.57-.06c-.7,0-1,.5-1.15,1.45L111.2,139h1.52l-.31,1.45h-1.52l-2.29,10.77h-1.67l2.29-10.77Z"/><path d="M114.26,139h1.66l-2.6,12.22h-1.66Zm1-4.52h1.66l-.52,2.48H114.7Z"/><path d="M122.19,147.6l-.08.32c-.35,1.64-.91,3.49-3.39,3.49-2.71,0-2.72-2.14-2.32-4l1-4.86c.41-2,1.07-3.74,3.37-3.74,2.61,0,2.78,1.92,2.46,3.53l-.12.62h-1.62l.13-.7c.25-1.26.12-2-.94-2-.9,0-1.25.8-1.58,2.27l-1.13,5.3c-.29,1.34-.18,2.22.9,2.22s1.23-.77,1.53-2l.11-.43Z"/><path d="M126.15,145.44c-.07.28-.36,1.68-.43,2.05-.3,1.4-.24,2.52.93,2.52s1.36-.93,1.6-2l.07-.34H130l-.08.32c-.37,1.64-.9,3.42-3.39,3.42-2.77,0-2.79-2.24-2.34-4.32l.92-4.38c.4-1.91,1-3.89,3.52-3.89,2.74,0,2.84,2.13,2.44,4-.07.31-.48,2.28-.56,2.62Zm3-1.37c.05-.26.32-1.52.37-1.77.24-1.15,0-2.13-1-2.13s-1.48,1.17-1.7,2.23l-.36,1.67Z"/><path d="M133.15,143.16c.42-2,.69-3.33.83-4.16h1.58a15.12,15.12,0,0,1-.31,1.81,3.13,3.13,0,0,1,2.86-2l-.43,1.95c-1.62.07-2.62,1.1-3.07,3.25l-1.52,7.18h-1.66Z"/><path d="M147.8,146.92l-.08.3c-.51,2.16-1.07,4.21-3.84,4.21-2.54,0-3.13-1.69-2.56-4.36l1.66-7.84c.64-3,1.59-4.26,3.71-4.26,2.95,0,3.11,2.25,2.63,4.22l-.07.31h-1.66l.09-.43c.32-1.54.28-2.64-1.09-2.64-1.09,0-1.5.92-1.85,2.56L143,147.18c-.41,2-.15,2.81,1.07,2.81s1.5-1,1.91-2.59l.11-.48Z"/><path d="M150.59,143.16c.42-2,.7-3.33.84-4.16H153a15.12,15.12,0,0,1-.31,1.81,3.13,3.13,0,0,1,2.86-2l-.44,1.95c-1.62.07-2.62,1.1-3.07,3.25l-1.51,7.18h-1.66Z"/><path d="M162.31,142.76l-1,4.87c-.55,2.65-1.42,3.78-3.62,3.78-2,0-3.09-1.24-2.53-3.91l1.09-5.13c.44-2.07,1.3-3.56,3.53-3.56S162.83,140.28,162.31,142.76Zm-4.4-.39-1.15,5.4c-.33,1.54.17,2.23,1.09,2.23s1.36-.54,1.71-2.16l1.14-5.31c.3-1.39.05-2.31-1.1-2.31S158.19,141.06,157.91,142.37Z"/><path d="M164.53,142.72c.51-2.45.67-3.19.76-3.72h1.61a11.36,11.36,0,0,1-.19,1.13,2.7,2.7,0,0,1,2.38-1.32c1.34,0,2.21.92,1.79,2.9l-2,9.51h-1.66l1.94-9.14c.25-1.18.07-1.85-.88-1.85s-1.7.8-2.14,2.92l-1.72,8.07h-1.66Z"/><path d="M174.43,144.54h0c.84-1.3,2.73-4,3.76-5.54H180c-1.17,1.64-2.27,3.11-3.41,4.72l1.07,7.5H176l-.77-6c-.16.24-1.18,1.54-1.32,1.72l-.92,4.29h-1.65l3.55-16.74h1.65Z"/><path d="M181.1,139.81a22.73,22.73,0,0,0,2.18-5.33h1.53a21.33,21.33,0,0,1-2.31,5.33Z"/><path d="M185,147.61l-.09.47c-.23,1.16,0,2,1,2,.75,0,1.16-.42,1.4-1.47a3,3,0,0,0-1.08-3.21c-1.45-1.39-1.91-2.23-1.59-4a2.74,2.74,0,0,1,2.86-2.55c2.13,0,2.76,1.52,2.42,3.24l-.09.48h-1.57l.1-.58c.18-1.08,0-1.77-.93-1.77-.6,0-1,.42-1.2,1.39s0,1.43,1,2.43c1.7,1.65,2.1,2.64,1.69,4.64s-1.49,2.77-3.14,2.77c-2.44,0-3-1.61-2.52-3.58l0-.22Z"/><path d="M195.38,143.16c.42-2,.69-3.33.84-4.16h1.58c0,.23-.09.74-.32,1.81a3.14,3.14,0,0,1,2.86-2l-.43,1.95c-1.62.07-2.62,1.1-3.07,3.25l-1.52,7.18h-1.65Z"/><path d="M202,145.44c-.07.28-.36,1.68-.44,2.05-.29,1.4-.23,2.52.94,2.52s1.36-.93,1.6-2l.07-.34h1.64l-.08.32c-.37,1.64-.9,3.42-3.39,3.42-2.77,0-2.79-2.24-2.34-4.32l.92-4.38c.4-1.91,1-3.89,3.52-3.89,2.74,0,2.84,2.13,2.44,4-.07.31-.48,2.28-.56,2.62Zm3-1.37c.06-.26.33-1.52.38-1.77.23-1.15,0-2.13-1-2.13s-1.47,1.17-1.69,2.23l-.36,1.67Z"/><path d="M207.22,151.22l3.56-16.74h1.66l-3.56,16.74Z"/><path d="M214,145.44c-.06.28-.35,1.68-.43,2.05-.3,1.4-.24,2.52.93,2.52s1.37-.93,1.6-2l.08-.34h1.63l-.07.32c-.37,1.64-.9,3.42-3.4,3.42-2.76,0-2.78-2.24-2.34-4.32l.93-4.38c.39-1.91,1-3.89,3.51-3.89,2.74,0,2.85,2.13,2.44,4-.06.31-.48,2.28-.56,2.62Zm3-1.37c.05-.26.32-1.52.37-1.77.24-1.15,0-2.13-1-2.13s-1.48,1.17-1.7,2.23l-.36,1.67Z"/><path d="M221.05,142.72c.51-2.45.67-3.19.76-3.72h1.61a11.36,11.36,0,0,1-.19,1.13,2.7,2.7,0,0,1,2.38-1.32c1.34,0,2.21.92,1.78,2.9l-2,9.51h-1.66l1.93-9.14c.26-1.18.08-1.85-.88-1.85s-1.69.8-2.13,2.92l-1.72,8.07h-1.66Z"/><path d="M229.33,139h1.38l.7-3.08H233l-.68,3.08H234l-.31,1.45h-1.67l-1.82,8.31c-.17.84-.06,1.25.69,1.25a4.45,4.45,0,0,0,.86-.09l-.29,1.31a4.65,4.65,0,0,1-1.29.16c-1.23,0-2.08-.49-1.68-2.36l1.86-8.58H229Z"/><path d="M233.12,151.22l3.55-16.74h1.66l-3.55,16.74Z"/><path d="M239.86,145.44c-.07.28-.36,1.68-.43,2.05-.3,1.4-.24,2.52.93,2.52s1.36-.93,1.6-2l.07-.34h1.64l-.08.32c-.37,1.64-.9,3.42-3.39,3.42-2.77,0-2.79-2.24-2.34-4.32l.92-4.38c.4-1.91,1-3.89,3.52-3.89,2.74,0,2.84,2.13,2.44,4-.07.31-.48,2.28-.56,2.62Zm3-1.37c0-.26.32-1.52.37-1.77.24-1.15,0-2.13-1-2.13s-1.48,1.17-1.7,2.23l-.36,1.67Z"/><path d="M247,147.61l-.1.47c-.22,1.16,0,2,1.06,2,.75,0,1.16-.42,1.39-1.47a3,3,0,0,0-1.07-3.21c-1.45-1.39-1.91-2.23-1.59-4a2.73,2.73,0,0,1,2.86-2.55c2.13,0,2.76,1.52,2.42,3.24l-.09.48H250.3l.09-.58c.18-1.08,0-1.77-.92-1.77-.6,0-1,.42-1.2,1.39s0,1.43,1,2.43c1.69,1.65,2.1,2.64,1.69,4.64s-1.49,2.77-3.14,2.77c-2.45,0-3-1.61-2.53-3.58l.05-.22Z"/><path d="M254.31,147.61l-.1.47c-.22,1.16,0,2,1.06,2,.75,0,1.16-.42,1.39-1.47a3,3,0,0,0-1.07-3.21c-1.45-1.39-1.91-2.23-1.59-4a2.73,2.73,0,0,1,2.86-2.55c2.13,0,2.76,1.52,2.42,3.24l-.09.48h-1.57l.09-.58c.18-1.08,0-1.77-.92-1.77-.6,0-1,.42-1.2,1.39s0,1.43,1,2.43c1.69,1.65,2.1,2.64,1.69,4.64s-1.49,2.77-3.14,2.77c-2.45,0-3-1.61-2.53-3.58l.05-.22Z"/><path d="M272.47,134.48l-2.89,13.59c-.31,1.46-.5,2.44-.62,3.15h-1.61a6.77,6.77,0,0,1,.15-1.13,2.4,2.4,0,0,1-2.21,1.32c-1.89,0-2.25-1.71-1.77-3.94l1.05-4.86c.42-1.92,1.14-3.8,3.2-3.8a1.79,1.79,0,0,1,1.88,1.09l1.14-5.42Zm-6.23,8.16-1,4.92c-.26,1.21-.26,2.37.88,2.37s1.73-1.33,2.13-3.14l.83-3.89c.36-1.63.25-2.67-1-2.67C267.07,140.23,266.56,141.12,266.24,142.64Z"/><path d="M274,145.44c-.06.28-.35,1.68-.43,2.05-.3,1.4-.24,2.52.93,2.52s1.36-.93,1.6-2l.07-.34h1.64l-.08.32c-.37,1.64-.9,3.42-3.39,3.42-2.77,0-2.79-2.24-2.34-4.32l.92-4.38c.4-1.91,1-3.89,3.52-3.89,2.74,0,2.84,2.13,2.44,4-.07.31-.48,2.28-.56,2.62Zm3-1.37c.05-.26.32-1.52.37-1.77.24-1.15,0-2.13-1-2.13s-1.48,1.17-1.7,2.23l-.36,1.67Z"/><path d="M280.79,139h1.37l.7-3.08h1.63l-.68,3.08h1.67l-.31,1.45H283.5l-1.81,8.31c-.18.84-.06,1.25.68,1.25a4.37,4.37,0,0,0,.86-.09l-.28,1.31a4.72,4.72,0,0,1-1.3.16c-1.23,0-2.08-.49-1.68-2.36l1.86-8.58h-1.35Z"/><path d="M287.09,145.44c-.07.28-.36,1.68-.43,2.05-.3,1.4-.24,2.52.93,2.52s1.36-.93,1.6-2l.07-.34h1.64l-.08.32c-.37,1.64-.9,3.42-3.39,3.42-2.77,0-2.79-2.24-2.34-4.32l.92-4.38c.4-1.91,1-3.89,3.52-3.89,2.74,0,2.84,2.13,2.44,4-.07.31-.48,2.28-.56,2.62Zm3-1.37c.06-.26.33-1.52.38-1.77.24-1.15,0-2.13-1-2.13s-1.48,1.17-1.7,2.23l-.36,1.67Z"/><path d="M294.09,143.16c.41-2,.69-3.33.83-4.16h1.58a15.12,15.12,0,0,1-.31,1.81,3.13,3.13,0,0,1,2.86-2l-.43,1.95c-1.62.07-2.62,1.1-3.07,3.25L294,151.22h-1.66Z"/><path d="M299.84,142.52c.47-2.22.59-2.93.71-3.52h1.6c0,.27-.11.76-.18,1.1a2.49,2.49,0,0,1,2.2-1.29,1.44,1.44,0,0,1,1.6,1.32,2.86,2.86,0,0,1,2.41-1.32c1.25,0,2.24.75,1.77,3l-2,9.44h-1.67l2-9.19c.21-1.05.17-1.8-.77-1.8s-1.55,1.12-1.83,2.38l-1.82,8.61h-1.68l1.92-9.07c.32-1.45.07-1.92-.7-1.92-1.07,0-1.62,1.18-1.89,2.48l-1.81,8.51H298Z"/><path d="M313.07,139h1.66l-2.6,12.22h-1.66Zm1-4.52h1.66l-.52,2.48h-1.66Z"/><path d="M316.49,142.72c.52-2.45.67-3.19.77-3.72h1.61c0,.26-.09.62-.2,1.13a2.7,2.7,0,0,1,2.38-1.32c1.34,0,2.21.92,1.79,2.9l-2,9.51h-1.66l1.94-9.14c.25-1.18.07-1.85-.88-1.85s-1.69.8-2.14,2.92l-1.72,8.07h-1.66Z"/><path d="M329.39,148.69c-.15.74-.43,2.11-.49,2.53h-1.61c0-.31.1-.73.17-1.09a2.23,2.23,0,0,1-2.18,1.28c-1.8,0-2.16-1.72-1.76-3.6.57-2.67,2-3.46,4.78-3.92l.48-.08.39-1.83c.26-1.17,0-1.81-.9-1.81s-1.17.74-1.45,1.87l-.07.28h-1.64l0-.16c.33-1.59.79-3.35,3.28-3.35,2.06,0,2.8,1.19,2.4,3Zm-.87-3.52-.44.08c-1.65.31-2.51.81-2.9,2.53-.26,1.19-.13,2.15.87,2.15s1.69-1.08,2.14-3.25Z"/><path d="M332.72,139h1.38l.69-3.08h1.64l-.69,3.08h1.67l-.31,1.45h-1.67l-1.81,8.31c-.17.84-.06,1.25.69,1.25a4.45,4.45,0,0,0,.86-.09l-.29,1.31a4.67,4.67,0,0,1-1.3.16c-1.22,0-2.08-.49-1.68-2.36l1.87-8.58h-1.36Z"/><path d="M339.11,139h1.65l-2.59,12.22h-1.66Zm1-4.52h1.66l-.52,2.48h-1.66Z"/><path d="M348.4,142.76l-1,4.87c-.55,2.65-1.42,3.78-3.62,3.78-2,0-3.09-1.24-2.53-3.91l1.09-5.13c.43-2.07,1.3-3.56,3.53-3.56S348.92,140.28,348.4,142.76Zm-4.4-.39-1.16,5.4c-.32,1.54.18,2.23,1.1,2.23s1.36-.54,1.71-2.16l1.14-5.31c.29-1.39,0-2.31-1.1-2.31S344.28,141.06,344,142.37Z"/><path d="M350.62,142.72c.51-2.45.67-3.19.76-3.72H353a11.36,11.36,0,0,1-.19,1.13,2.7,2.7,0,0,1,2.38-1.32c1.34,0,2.21.92,1.78,2.9l-2,9.51h-1.66l1.93-9.14c.26-1.18.08-1.85-.88-1.85s-1.69.8-2.13,2.92l-1.72,8.07h-1.66Z"/><path d="M355.85,153.46a15.07,15.07,0,0,0,2.46-5.55h1.57a12.06,12.06,0,0,1-2.67,5.55Z"/><path d="M366.3,143.16c.42-2,.69-3.33.84-4.16h1.58a16.3,16.3,0,0,1-.32,1.81,3.15,3.15,0,0,1,2.86-2l-.43,1.95c-1.62.07-2.62,1.1-3.07,3.25l-1.52,7.18h-1.65Z"/><path d="M372.91,145.44c-.07.28-.36,1.68-.43,2.05-.3,1.4-.24,2.52.93,2.52s1.36-.93,1.6-2l.07-.34h1.64l-.08.32c-.37,1.64-.9,3.42-3.39,3.42-2.77,0-2.79-2.24-2.34-4.32l.92-4.38c.4-1.91,1-3.89,3.52-3.89,2.74,0,2.84,2.13,2.44,4-.07.31-.48,2.28-.56,2.62Zm3-1.37c.05-.26.32-1.52.37-1.77.24-1.15,0-2.13-1-2.13s-1.48,1.17-1.7,2.23l-.36,1.67Z"/><path d="M380,147.61l-.1.47c-.22,1.16,0,2,1.06,2,.75,0,1.16-.42,1.39-1.47a3,3,0,0,0-1.07-3.21c-1.45-1.39-1.91-2.23-1.59-4a2.74,2.74,0,0,1,2.86-2.55c2.13,0,2.76,1.52,2.42,3.24l-.09.48h-1.57l.09-.58c.19-1.08,0-1.77-.92-1.77-.6,0-1,.42-1.2,1.39s0,1.43,1,2.43c1.7,1.65,2.1,2.64,1.69,4.64s-1.49,2.77-3.14,2.77c-2.44,0-3-1.61-2.53-3.58l.05-.22Z"/><path d="M393,142.76l-1,4.87c-.56,2.65-1.42,3.78-3.62,3.78-2,0-3.09-1.24-2.53-3.91l1.09-5.13c.43-2.07,1.3-3.56,3.53-3.56S393.55,140.28,393,142.76Zm-4.4-.39-1.16,5.4c-.32,1.54.18,2.23,1.1,2.23s1.36-.54,1.71-2.16l1.14-5.31c.29-1.39.05-2.31-1.1-2.31S388.92,141.06,388.64,142.37Z"/><path d="M400.19,147.92c-.34,1.58-.58,2.79-.66,3.3H397.9c0-.22.11-.73.2-1.18a2.35,2.35,0,0,1-2.31,1.37c-.9,0-2.3-.4-1.67-3.35l1.93-9.06h1.65l-1.89,8.88c-.31,1.45-.06,2.05.79,2.05s1.63-.59,2.12-2.94l1.69-8h1.68Z"/><path d="M403.71,143.16c.42-2,.7-3.33.84-4.16h1.58a15.12,15.12,0,0,1-.31,1.81,3.13,3.13,0,0,1,2.86-2l-.44,1.95c-1.61.07-2.62,1.1-3.07,3.25l-1.51,7.18H402Z"/><path d="M414.06,147.6l-.07.32c-.35,1.64-.91,3.49-3.39,3.49-2.71,0-2.72-2.14-2.33-4l1-4.86c.41-2,1.07-3.74,3.37-3.74,2.61,0,2.78,1.92,2.46,3.53L415,143H413.4l.13-.7c.24-1.26.12-2-.94-2-.9,0-1.26.8-1.58,2.27l-1.13,5.3c-.29,1.34-.19,2.22.9,2.22s1.23-.77,1.53-2l.11-.43Z"/><path d="M418,145.44c-.07.28-.36,1.68-.44,2.05-.29,1.4-.23,2.52.94,2.52s1.36-.93,1.6-2l.07-.34h1.64l-.08.32c-.37,1.64-.9,3.42-3.39,3.42-2.77,0-2.79-2.24-2.34-4.32l.92-4.38c.4-1.91,1-3.89,3.52-3.89,2.74,0,2.84,2.13,2.44,4-.07.31-.48,2.28-.56,2.62Zm3-1.37c.06-.26.33-1.52.38-1.77.23-1.15,0-2.13-1-2.13s-1.48,1.17-1.7,2.23l-.36,1.67Z"/><path d="M423.59,151.22l2.29-10.77h-1.33l.31-1.45h1.32l.39-1.81c.32-1.48.85-2.82,2.69-2.82a4.1,4.1,0,0,1,1,.13l-.33,1.45a2.16,2.16,0,0,0-.57-.06c-.7,0-1,.5-1.15,1.45l-.35,1.66h1.54l-.31,1.45h-1.54l-2.29,10.77Z"/><path d="M434.94,147.92c-.34,1.58-.58,2.79-.66,3.3h-1.63c0-.22.11-.73.2-1.18a2.35,2.35,0,0,1-2.31,1.37c-.9,0-2.3-.4-1.67-3.35L430.8,139h1.65l-1.89,8.88c-.31,1.45-.06,2.05.79,2.05s1.63-.59,2.12-2.94l1.69-8h1.68Z"/><path d="M436.75,151.22l3.55-16.74H442l-3.55,16.74Z"/><path d="M442.73,142.72c.51-2.45.67-3.19.76-3.72h1.61a11.36,11.36,0,0,1-.19,1.13,2.7,2.7,0,0,1,2.38-1.32c1.34,0,2.21.92,1.78,2.9l-2,9.51h-1.66l1.93-9.14c.26-1.18.08-1.85-.88-1.85s-1.69.8-2.13,2.92l-1.72,8.07h-1.66Z"/><path d="M452.13,145.44c-.06.28-.35,1.68-.43,2.05-.3,1.4-.24,2.52.93,2.52s1.36-.93,1.6-2l.07-.34h1.64l-.07.32c-.38,1.64-.9,3.42-3.4,3.42-2.77,0-2.78-2.24-2.34-4.32l.92-4.38c.4-1.91,1-3.89,3.52-3.89,2.74,0,2.84,2.13,2.44,4-.06.31-.48,2.28-.56,2.62Zm3-1.37c.05-.26.32-1.52.37-1.77.24-1.15.05-2.13-1-2.13s-1.48,1.17-1.7,2.23l-.36,1.67Z"/><path d="M459.26,147.61l-.09.47c-.23,1.16,0,2,1.05,2,.75,0,1.16-.42,1.4-1.47a3,3,0,0,0-1.08-3.21c-1.45-1.39-1.91-2.23-1.59-4a2.74,2.74,0,0,1,2.86-2.55c2.13,0,2.76,1.52,2.42,3.24l-.09.48h-1.57l.1-.58c.18-1.08,0-1.77-.93-1.77-.6,0-1,.42-1.2,1.39s0,1.43,1,2.43c1.7,1.65,2.1,2.64,1.69,4.64s-1.49,2.77-3.14,2.77c-2.44,0-3-1.61-2.53-3.58l.05-.22Z"/><path d="M466.58,147.61l-.09.47c-.23,1.16,0,2,1.05,2,.75,0,1.16-.42,1.4-1.47a3,3,0,0,0-1.08-3.21c-1.45-1.39-1.91-2.23-1.59-4a2.74,2.74,0,0,1,2.86-2.55c2.13,0,2.76,1.52,2.42,3.24l-.09.48h-1.57l.1-.58c.18-1.08,0-1.77-.93-1.77-.6,0-1,.42-1.2,1.39s0,1.43,1,2.43c1.7,1.65,2.1,2.64,1.69,4.64s-1.49,2.77-3.14,2.77c-2.44,0-3-1.61-2.52-3.58l0-.22Z"/><path d="M470.62,153.46a15.24,15.24,0,0,0,2.46-5.55h1.57a12.18,12.18,0,0,1-2.68,5.55Z"/><path d="M485.46,148.69c-.15.74-.43,2.11-.49,2.53h-1.61a9.72,9.72,0,0,1,.17-1.09,2.25,2.25,0,0,1-2.19,1.28c-1.79,0-2.15-1.72-1.75-3.6.57-2.67,1.94-3.46,4.78-3.92l.48-.08.39-1.83c.26-1.17,0-1.81-.91-1.81s-1.16.74-1.45,1.87l-.07.28h-1.63l0-.16c.34-1.59.8-3.35,3.29-3.35,2.05,0,2.79,1.19,2.4,3Zm-.88-3.52-.44.08c-1.64.31-2.51.81-2.9,2.53-.26,1.19-.12,2.15.88,2.15s1.68-1.08,2.14-3.25Z"/><path d="M489.21,142.72c.52-2.45.67-3.19.77-3.72h1.61c0,.26-.09.62-.2,1.13a2.71,2.71,0,0,1,2.38-1.32c1.34,0,2.21.92,1.79,2.9l-2,9.51h-1.65l1.93-9.14c.25-1.18.07-1.85-.88-1.85s-1.69.8-2.14,2.92l-1.72,8.07h-1.66Z"/><path d="M505.5,134.48l-2.89,13.59c-.31,1.46-.49,2.44-.61,3.15h-1.62a6.77,6.77,0,0,1,.15-1.13,2.4,2.4,0,0,1-2.21,1.32c-1.89,0-2.25-1.71-1.77-3.94l1.05-4.86c.42-1.92,1.14-3.8,3.2-3.8a1.79,1.79,0,0,1,1.88,1.09l1.14-5.42Zm-6.23,8.16-1,4.92c-.26,1.21-.26,2.37.88,2.37s1.74-1.33,2.13-3.14l.83-3.89c.36-1.63.25-2.67-1-2.67C500.1,140.23,499.59,141.12,499.27,142.64Z"/><path d="M507.91,151.22l3.55-16.74h1.66l-3.55,16.74Z"/><path d="M519.75,142.76l-1,4.87c-.55,2.65-1.41,3.78-3.61,3.78-2,0-3.1-1.24-2.53-3.91l1.08-5.13c.44-2.07,1.3-3.56,3.54-3.56S520.27,140.28,519.75,142.76Zm-4.4-.39-1.15,5.4c-.32,1.54.17,2.23,1.09,2.23s1.36-.54,1.71-2.16l1.14-5.31c.3-1.39.05-2.31-1.1-2.31S515.63,141.06,515.35,142.37Z"/><path d="M523.4,139c-.07,3.66-.22,8.93-.37,10.25h0c.71-2.22,2.65-7.21,3.86-10.25h1.69l-5.31,12.89c-1.42,3.43-2.27,3.62-3.62,3.62a4.91,4.91,0,0,1-1.08-.13l.35-1.5a3.5,3.5,0,0,0,.75.08c.84,0,1.21-.42,2-2.37l0-12.59Z"/><path d="M533.62,148.69c-.15.74-.43,2.11-.49,2.53h-1.61c0-.31.1-.73.17-1.09a2.23,2.23,0,0,1-2.18,1.28c-1.8,0-2.15-1.72-1.76-3.6.57-2.67,2-3.46,4.79-3.92l.48-.08.39-1.83c.26-1.17,0-1.81-.91-1.81s-1.17.74-1.45,1.87l-.07.28h-1.63l0-.16c.34-1.59.8-3.35,3.29-3.35,2.05,0,2.79,1.19,2.4,3Zm-.87-3.52-.44.08c-1.65.31-2.51.81-2.9,2.53-.26,1.19-.12,2.15.87,2.15s1.69-1.08,2.14-3.25Z"/><path d="M535.58,151.22l3.55-16.74h1.66l-3.55,16.74Z"/><path d="M64.9,163.28,62,176.87c-.31,1.46-.5,2.44-.61,3.15H59.78a6.77,6.77,0,0,1,.15-1.13,2.4,2.4,0,0,1-2.21,1.32c-1.89,0-2.25-1.71-1.77-3.94l1-4.86c.42-1.92,1.14-3.8,3.2-3.8a1.79,1.79,0,0,1,1.88,1.09l1.14-5.42Zm-6.23,8.16-1,4.92c-.26,1.21-.26,2.37.88,2.37s1.74-1.33,2.13-3.14l.83-3.89c.36-1.63.25-2.67-1-2.67C59.5,169,59,169.92,58.67,171.44Z"/><path d="M66.44,174.24c-.06.28-.35,1.68-.43,2-.3,1.4-.24,2.52.93,2.52s1.36-.93,1.6-2l.07-.34h1.64l-.08.32c-.37,1.64-.89,3.42-3.39,3.42-2.77,0-2.78-2.24-2.34-4.32l.92-4.38c.4-1.91,1-3.89,3.52-3.89,2.74,0,2.84,2.13,2.44,4-.07.31-.48,2.28-.56,2.62Zm3-1.37c0-.26.32-1.52.37-1.77.24-1.15.05-2.13-1-2.13s-1.48,1.17-1.7,2.23l-.36,1.67Z"/><path d="M81.17,163.28l-2.89,13.59c-.31,1.46-.49,2.44-.61,3.15H76.05a8,8,0,0,1,.15-1.13A2.4,2.4,0,0,1,74,180.21c-1.89,0-2.24-1.71-1.77-3.94l1-4.86c.42-1.92,1.14-3.8,3.2-3.8a1.79,1.79,0,0,1,1.88,1.09l1.14-5.42Zm-6.23,8.16-1,4.92c-.26,1.21-.26,2.37.88,2.37s1.74-1.33,2.13-3.14l.84-3.89c.35-1.63.24-2.67-1-2.67C75.77,169,75.26,169.92,74.94,171.44Z"/><path d="M82.75,167.8h1.66L81.81,180H80.15Zm1-4.52h1.66l-.52,2.48H83.19Z"/><path d="M90.68,176.4l-.08.32c-.35,1.64-.91,3.49-3.39,3.49-2.71,0-2.72-2.14-2.32-4l1-4.86c.41-2,1.07-3.74,3.37-3.74,2.61,0,2.78,1.92,2.46,3.53l-.12.61H90l.13-.69c.25-1.26.12-2.05-.94-2.05-.9,0-1.25.8-1.58,2.27l-1.13,5.3c-.28,1.34-.18,2.22.9,2.22s1.23-.77,1.53-2l.11-.43Z"/><path d="M98.06,177.49c-.15.74-.43,2.11-.49,2.53H96c0-.31.1-.73.17-1.09A2.23,2.23,0,0,1,94,180.21c-1.8,0-2.15-1.72-1.76-3.6.57-2.67,2-3.46,4.78-3.92l.48-.08.39-1.83c.26-1.17,0-1.81-.9-1.81s-1.17.74-1.45,1.87l-.07.28H93.78l0-.16c.34-1.59.8-3.35,3.29-3.35,2,0,2.79,1.19,2.39,3ZM97.19,174l-.44.08c-1.65.31-2.51.81-2.9,2.53-.26,1.19-.13,2.15.87,2.15s1.69-1.08,2.14-3.25Z"/><path d="M101.39,167.8h1.38l.69-3.08h1.64l-.68,3.08h1.66l-.31,1.45h-1.66l-1.82,8.31c-.17.84-.06,1.25.69,1.25a4.45,4.45,0,0,0,.86-.09l-.29,1.31a4.67,4.67,0,0,1-1.3.16c-1.22,0-2.08-.49-1.67-2.36l1.86-8.58h-1.36Z"/><path d="M107.78,167.8h1.66L106.84,180h-1.66Zm1-4.52h1.66l-.52,2.48h-1.66Z"/><path d="M117.07,171.56l-1,4.87c-.55,2.65-1.42,3.78-3.62,3.78-2,0-3.09-1.24-2.53-3.91l1.09-5.13c.43-2.07,1.3-3.56,3.53-3.56S117.59,169.08,117.07,171.56Zm-4.4-.39-1.15,5.4c-.33,1.54.17,2.23,1.09,2.23s1.36-.54,1.71-2.16l1.14-5.31c.3-1.39.05-2.31-1.1-2.31S113,169.86,112.67,171.17Z"/><path d="M119.29,171.52c.51-2.45.67-3.19.76-3.72h1.61a11.36,11.36,0,0,1-.19,1.13,2.7,2.7,0,0,1,2.38-1.32c1.34,0,2.21.92,1.78,2.9l-2,9.51H122l1.93-9.14c.26-1.18.08-1.85-.87-1.85s-1.7.8-2.14,2.92L119.15,180h-1.66Z"/><path d="M131,167.8h1.37l.7-3.08h1.63L134,167.8h1.67l-.31,1.45h-1.67l-1.82,8.31c-.17.84-.05,1.25.69,1.25a4.45,4.45,0,0,0,.86-.09l-.28,1.31a4.72,4.72,0,0,1-1.3.16c-1.23,0-2.08-.49-1.68-2.36l1.86-8.58H130.7Z"/><path d="M142.41,171.56l-1,4.87c-.55,2.65-1.41,3.78-3.61,3.78-2,0-3.1-1.24-2.53-3.91l1.08-5.13c.44-2.07,1.3-3.56,3.54-3.56S142.93,169.08,142.41,171.56Zm-4.4-.39-1.15,5.4c-.32,1.54.17,2.23,1.09,2.23s1.36-.54,1.71-2.16l1.14-5.31c.3-1.39,0-2.31-1.1-2.31S138.29,169.86,138,171.17Z"/><path d="M155.71,163.28l-2.89,13.59c-.31,1.46-.49,2.44-.61,3.15h-1.62a6.77,6.77,0,0,1,.15-1.13,2.4,2.4,0,0,1-2.21,1.32c-1.89,0-2.25-1.71-1.77-3.94l1.05-4.86c.42-1.92,1.14-3.8,3.2-3.8a1.79,1.79,0,0,1,1.88,1.09l1.14-5.42Zm-6.23,8.16-1,4.92c-.26,1.21-.26,2.37.88,2.37s1.74-1.33,2.13-3.14l.83-3.89c.36-1.63.25-2.67-1-2.67C150.31,169,149.8,169.92,149.48,171.44Z"/><path d="M161.42,176.72c-.34,1.58-.58,2.79-.66,3.3h-1.63c0-.22.11-.73.2-1.18a2.35,2.35,0,0,1-2.31,1.37c-.9,0-2.3-.4-1.67-3.35l1.93-9.06h1.65L157,176.68c-.31,1.45-.06,2,.79,2s1.63-.59,2.12-2.94l1.69-8h1.68Z"/><path d="M164.8,167.8h1.37l.7-3.08h1.63l-.68,3.08h1.67l-.31,1.45h-1.67l-1.81,8.31c-.18.84-.06,1.25.68,1.25a4.37,4.37,0,0,0,.86-.09L167,180a4.72,4.72,0,0,1-1.3.16c-1.23,0-2.08-.49-1.68-2.36l1.86-8.58h-1.35Z"/><path d="M172.26,167.8c-.07,3.66-.21,8.93-.36,10.25h0c.7-2.22,2.65-7.21,3.85-10.25h1.7l-5.31,12.89c-1.43,3.43-2.28,3.62-3.63,3.62a4.9,4.9,0,0,1-1.07-.13l.34-1.5a3.58,3.58,0,0,0,.75.08c.85,0,1.21-.42,2-2.37l.05-12.59Z"/><path d="M181.69,172c.42-2,.7-3.33.84-4.16h1.58a15.12,15.12,0,0,1-.31,1.81,3.13,3.13,0,0,1,2.86-2l-.44,2c-1.61.07-2.62,1.1-3.07,3.24L181.64,180H180Z"/><path d="M188.31,174.24c-.07.28-.36,1.68-.44,2-.3,1.4-.23,2.52.93,2.52s1.37-.93,1.6-2l.08-.34h1.63l-.07.32c-.37,1.64-.9,3.42-3.4,3.42-2.76,0-2.78-2.24-2.34-4.32l.93-4.38c.39-1.91,1-3.89,3.52-3.89,2.73,0,2.84,2.13,2.43,4-.06.31-.48,2.28-.56,2.62Zm3-1.37c.05-.26.32-1.52.38-1.77.23-1.15,0-2.13-1-2.13s-1.48,1.17-1.7,2.23l-.36,1.67Z"/><path d="M193.86,180l2.29-10.77h-1.32l.31-1.45h1.32l.39-1.81c.31-1.48.85-2.82,2.68-2.82a4,4,0,0,1,1,.13l-.32,1.45a2.16,2.16,0,0,0-.57-.06c-.7,0-.95.5-1.15,1.45l-.35,1.66h1.54l-.31,1.45h-1.54L195.53,180Z"/><path d="M198.6,180l3.56-16.74h1.66L200.26,180Z"/><path d="M205.35,174.24c-.07.28-.36,1.68-.44,2-.3,1.4-.23,2.52.93,2.52s1.37-.93,1.6-2l.08-.34h1.63l-.07.32c-.37,1.64-.9,3.42-3.4,3.42-2.76,0-2.78-2.24-2.34-4.32l.93-4.38c.39-1.91,1-3.89,3.52-3.89,2.73,0,2.84,2.13,2.43,4-.06.31-.48,2.28-.56,2.62Zm3-1.37c.05-.26.32-1.52.38-1.77.23-1.15,0-2.13-1-2.13s-1.48,1.17-1.7,2.23l-.36,1.67Z"/><path d="M216.93,176.4l-.07.32c-.35,1.64-.91,3.49-3.39,3.49-2.71,0-2.72-2.14-2.33-4l1-4.86c.41-2,1.07-3.74,3.36-3.74,2.62,0,2.78,1.92,2.47,3.53l-.12.61h-1.62l.12-.69c.25-1.26.13-2.05-.93-2.05-.91,0-1.26.8-1.58,2.27l-1.13,5.3c-.29,1.34-.19,2.22.9,2.22.94,0,1.23-.77,1.53-2l.1-.43Z"/><path d="M219.71,167.8h1.37l.7-3.08h1.63l-.68,3.08h1.67l-.31,1.45h-1.67l-1.82,8.31c-.17.84-.06,1.25.69,1.25a4.45,4.45,0,0,0,.86-.09l-.28,1.31a4.77,4.77,0,0,1-1.3.16c-1.23,0-2.08-.49-1.68-2.36l1.86-8.58H219.4Z"/><path d="M226,174.24c-.07.28-.36,1.68-.44,2-.29,1.4-.23,2.52.94,2.52s1.36-.93,1.6-2l.07-.34h1.64l-.08.32c-.37,1.64-.9,3.42-3.39,3.42-2.77,0-2.79-2.24-2.35-4.32l.93-4.38c.4-1.91,1-3.89,3.52-3.89,2.73,0,2.84,2.13,2.44,4-.07.31-.49,2.28-.56,2.62Zm3-1.37c.05-.26.32-1.52.38-1.77.23-1.15,0-2.13-1-2.13s-1.48,1.17-1.69,2.23l-.36,1.67Z"/><path d="M240.74,163.28l-2.89,13.59c-.31,1.46-.5,2.44-.62,3.15h-1.61a6.77,6.77,0,0,1,.15-1.13,2.4,2.4,0,0,1-2.21,1.32c-1.89,0-2.25-1.71-1.77-3.94l1.05-4.86c.42-1.92,1.14-3.8,3.2-3.8a1.79,1.79,0,0,1,1.88,1.09l1.14-5.42Zm-6.23,8.16-1,4.92c-.25,1.21-.25,2.37.89,2.37s1.73-1.33,2.13-3.14l.83-3.89c.36-1.63.25-2.67-1-2.67C235.34,169,234.83,169.92,234.51,171.44Z"/><path d="M249.1,179.55c-.56,2.66-.86,4.79-3.87,4.79-2.53,0-2.9-1.62-2.64-2.94l0-.12h1.69l0,.15c-.1.57-.09,1.51,1.12,1.51s1.57-1.17,2-3l.27-1.3a2.22,2.22,0,0,1-2.09,1.29c-2,0-2.27-1.89-1.88-3.66l1.06-5c.35-1.62,1-3.63,3.17-3.63a1.66,1.66,0,0,1,1.83,1.3,9.29,9.29,0,0,1,.33-1.11h1.59c-.17.68-.42,1.78-.72,3.22Zm-2.7-8.37-1.05,5c-.27,1.25-.2,2.25.9,2.25,1.35,0,1.8-1.62,2.17-3.29l.67-3.07c.31-1.43.46-3-1-3C247,169,246.64,170.05,246.4,171.18Z"/><path d="M253.23,172c.42-2,.7-3.33.84-4.16h1.58a15.12,15.12,0,0,1-.31,1.81,3.13,3.13,0,0,1,2.86-2l-.44,2c-1.61.07-2.62,1.1-3.07,3.24L253.18,180h-1.66Z"/><path d="M259.85,174.24c-.07.28-.36,1.68-.44,2-.29,1.4-.23,2.52.94,2.52s1.36-.93,1.6-2l.07-.34h1.63l-.07.32c-.37,1.64-.9,3.42-3.4,3.42-2.76,0-2.78-2.24-2.34-4.32l.93-4.38c.39-1.91,1-3.89,3.52-3.89,2.73,0,2.84,2.13,2.44,4-.07.31-.49,2.28-.56,2.62Zm3-1.37c0-.26.32-1.52.38-1.77.23-1.15,0-2.13-1-2.13s-1.48,1.17-1.7,2.23l-.36,1.67Z"/><path d="M271.19,177.49c-.15.74-.43,2.11-.49,2.53h-1.61a9.72,9.72,0,0,1,.17-1.09,2.25,2.25,0,0,1-2.19,1.28c-1.79,0-2.15-1.72-1.75-3.6.57-2.67,1.94-3.46,4.78-3.92l.48-.08.39-1.83c.26-1.17,0-1.81-.9-1.81s-1.17.74-1.45,1.87l-.08.28h-1.63l0-.16c.33-1.59.79-3.35,3.28-3.35,2.06,0,2.79,1.19,2.4,3Zm-.88-3.52-.43.08c-1.65.31-2.51.81-2.91,2.53-.26,1.19-.12,2.15.88,2.15s1.68-1.08,2.14-3.25Z"/><path d="M274.52,167.8h1.38l.69-3.08h1.64l-.69,3.08h1.67l-.31,1.45h-1.67l-1.81,8.31c-.17.84-.06,1.25.68,1.25a4.56,4.56,0,0,0,.87-.09l-.29,1.31a4.67,4.67,0,0,1-1.3.16c-1.23,0-2.08-.49-1.68-2.36l1.86-8.58h-1.35Z"/><path d="M288,176.4l-.07.32c-.35,1.64-.91,3.49-3.39,3.49-2.71,0-2.72-2.14-2.33-4l1-4.86c.41-2,1.06-3.74,3.36-3.74,2.62,0,2.78,1.92,2.47,3.53l-.12.61h-1.62l.12-.69c.25-1.26.13-2.05-.93-2.05-.91,0-1.26.8-1.58,2.27l-1.13,5.3c-.29,1.34-.19,2.22.9,2.22s1.23-.77,1.53-2l.1-.43Z"/><path d="M290.91,172c.42-2,.7-3.33.84-4.16h1.58a15.12,15.12,0,0,1-.31,1.81,3.13,3.13,0,0,1,2.86-2l-.44,2c-1.62.07-2.62,1.1-3.07,3.24L290.86,180H289.2Z"/><path d="M297.53,174.24c-.07.28-.36,1.68-.44,2-.3,1.4-.23,2.52.93,2.52s1.37-.93,1.6-2l.08-.34h1.63l-.07.32c-.37,1.64-.9,3.42-3.4,3.42-2.76,0-2.78-2.24-2.34-4.32l.93-4.38c.39-1.91,1-3.89,3.51-3.89,2.74,0,2.85,2.13,2.44,4-.06.31-.48,2.28-.56,2.62Zm3-1.37c.05-.26.32-1.52.38-1.77.23-1.15,0-2.13-1-2.13s-1.48,1.17-1.7,2.23l-.36,1.67Z"/><path d="M312.25,163.28l-2.88,13.59c-.32,1.46-.5,2.44-.62,3.15h-1.61a6.77,6.77,0,0,1,.15-1.13,2.4,2.4,0,0,1-2.21,1.32c-1.89,0-2.25-1.71-1.77-3.94l1.05-4.86c.42-1.92,1.14-3.8,3.2-3.8a1.81,1.81,0,0,1,1.88,1.09l1.14-5.42ZM306,171.44l-1,4.92c-.26,1.21-.26,2.37.89,2.37s1.73-1.33,2.12-3.14l.84-3.89c.35-1.63.25-2.67-1-2.67C306.85,169,306.35,169.92,306,171.44Z"/><path d="M313.83,167.8h1.66L312.89,180h-1.66Zm1-4.52h1.65l-.52,2.48h-1.66Z"/><path d="M317,167.8h1.38l.69-3.08h1.64L320,167.8h1.67l-.31,1.45h-1.67l-1.81,8.31c-.17.84-.06,1.25.69,1.25a4.45,4.45,0,0,0,.86-.09l-.29,1.31a4.67,4.67,0,0,1-1.3.16c-1.22,0-2.08-.49-1.68-2.36l1.87-8.58h-1.36Z"/><path d="M330.92,176.72c-.34,1.58-.58,2.79-.66,3.3h-1.62c0-.22.11-.73.19-1.18a2.35,2.35,0,0,1-2.31,1.37c-.89,0-2.3-.4-1.66-3.35l1.92-9.06h1.66l-1.9,8.88c-.31,1.45-.06,2,.79,2s1.63-.59,2.12-2.94l1.69-8h1.68Z"/><path d="M334.56,179l-1.08,5.1h-1.66l2.73-12.81c.36-1.67.59-2.77.72-3.53h1.61a10.36,10.36,0,0,1-.19,1.16,2.49,2.49,0,0,1,2.24-1.35c1.9,0,2.2,1.78,1.73,3.94l-1,4.62c-.53,2.5-1.39,4-3.32,4A1.67,1.67,0,0,1,334.56,179Zm3.42-2.78,1-4.68c.3-1.37.33-2.54-.82-2.54s-1.78,1.41-2.14,3.15l-.76,3.55c-.32,1.54-.47,3,.94,3C337.26,178.73,337.7,177.61,338,176.26Z"/><path d="M348.85,171.56l-1,4.87c-.55,2.65-1.41,3.78-3.61,3.78-2,0-3.1-1.24-2.54-3.91l1.09-5.13c.44-2.07,1.3-3.56,3.53-3.56S349.37,169.08,348.85,171.56Zm-4.4-.39-1.15,5.4c-.33,1.54.17,2.23,1.09,2.23s1.36-.54,1.71-2.16l1.14-5.31c.3-1.39.05-2.31-1.1-2.31S344.73,169.86,344.45,171.17Z"/><path d="M351.07,171.52c.51-2.45.67-3.19.76-3.72h1.62c0,.26-.09.62-.2,1.13a2.7,2.7,0,0,1,2.38-1.32c1.34,0,2.21.92,1.79,2.9l-2,9.51h-1.66l1.94-9.14c.25-1.18.07-1.85-.88-1.85s-1.7.8-2.14,2.92L350.93,180h-1.66Z"/><path d="M366.55,163.28l-1.18,5.61a2.57,2.57,0,0,1,2.26-1.28c1.79,0,2.18,1.37,1.81,3.14l-2,9.27H365.8l1.9-8.94c.24-1.15.25-2.05-.87-2.05s-1.72,1.13-2.09,2.82L363,180h-1.66l3.55-16.74Z"/><path d="M372.56,167.8h1.66L371.62,180H370Zm1-4.52h1.66l-.52,2.48H373Z"/><path d="M376,171.32c.47-2.22.6-2.93.72-3.52h1.59c0,.27-.11.76-.18,1.1a2.5,2.5,0,0,1,2.21-1.29,1.43,1.43,0,0,1,1.59,1.32,2.87,2.87,0,0,1,2.42-1.32c1.24,0,2.23.75,1.76,3l-2,9.44h-1.67l2-9.19c.2-1.05.16-1.8-.78-1.8s-1.55,1.12-1.83,2.38L380,180h-1.68l1.92-9.07c.32-1.45.07-1.92-.7-1.92-1.06,0-1.61,1.18-1.89,2.48L375.84,180h-1.66Z"/><path d="M388.38,176.41l-.09.47c-.22,1.16,0,2,1.06,2,.74,0,1.16-.42,1.39-1.47a3,3,0,0,0-1.07-3.21c-1.45-1.39-1.91-2.23-1.59-4a2.73,2.73,0,0,1,2.85-2.55c2.14,0,2.77,1.52,2.43,3.24l-.1.48H391.7l.09-.58c.18-1.08,0-1.77-.92-1.77-.6,0-1,.42-1.2,1.39s0,1.43,1,2.43c1.69,1.65,2.1,2.64,1.69,4.64s-1.49,2.77-3.14,2.77c-2.45,0-3-1.61-2.53-3.58l.05-.22Z"/><path d="M396.28,174.24c-.06.28-.35,1.68-.43,2-.3,1.4-.24,2.52.93,2.52s1.36-.93,1.6-2l.07-.34h1.64l-.08.32c-.37,1.64-.89,3.42-3.39,3.42-2.77,0-2.79-2.24-2.34-4.32l.92-4.38c.4-1.91,1-3.89,3.52-3.89,2.74,0,2.84,2.13,2.44,4-.07.31-.48,2.28-.56,2.62Zm3-1.37c0-.26.32-1.52.37-1.77.24-1.15,0-2.13-1-2.13s-1.48,1.17-1.7,2.23l-.36,1.67Z"/><path d="M401.52,180l3.55-16.74h1.66L403.17,180Z"/><path d="M406,180l2.29-10.77H407l.31-1.45h1.32L409,166c.32-1.48.85-2.82,2.69-2.82a4,4,0,0,1,1,.13l-.33,1.45a2.12,2.12,0,0,0-.56-.06c-.7,0-1,.5-1.16,1.45l-.35,1.66h1.54l-.3,1.45H410L407.71,180Z"/><path d="M420.15,177.49c-.15.74-.43,2.11-.49,2.53h-1.61c0-.31.1-.73.17-1.09a2.23,2.23,0,0,1-2.18,1.28c-1.8,0-2.16-1.72-1.76-3.6.57-2.67,2-3.46,4.78-3.92l.48-.08.39-1.83c.26-1.17,0-1.81-.9-1.81s-1.17.74-1.45,1.87l-.07.28h-1.64l0-.16c.33-1.59.79-3.35,3.28-3.35,2.06,0,2.8,1.19,2.4,3Zm-.87-3.52-.44.08c-1.65.31-2.51.81-2.9,2.53-.26,1.19-.13,2.15.87,2.15s1.69-1.08,2.14-3.25Z"/><path d="M423.91,171.52c.51-2.45.67-3.19.76-3.72h1.61a9.47,9.47,0,0,1-.2,1.13,2.72,2.72,0,0,1,2.38-1.32c1.34,0,2.22.92,1.79,2.9l-2,9.51h-1.65l1.93-9.14c.26-1.18.07-1.85-.88-1.85s-1.69.8-2.13,2.92L423.76,180h-1.65Z"/><path d="M440.19,163.28l-2.88,13.59c-.32,1.46-.5,2.44-.62,3.15h-1.61a7.75,7.75,0,0,1,.14-1.13,2.39,2.39,0,0,1-2.2,1.32c-1.9,0-2.25-1.71-1.77-3.94l1-4.86c.42-1.92,1.14-3.8,3.2-3.8a1.82,1.82,0,0,1,1.89,1.09l1.13-5.42ZM434,171.44l-1,4.92c-.26,1.21-.26,2.37.88,2.37s1.74-1.33,2.13-3.14l.84-3.89c.35-1.63.25-2.67-1-2.67C434.79,169,434.28,169.92,434,171.44Z"/><path d="M446,167.8c-.42,5.95-.59,8.61-.77,9.88h0c.46-1.45,1.24-3.46,3.73-9.88h1.58c-.32,6-.41,8.36-.59,9.83h0c.37-1.28.9-2.79,3.42-9.83h1.67L450.31,180h-1.67c.23-4,.35-7.52.54-9.6h0c-.44,1.49-1.89,5.09-3.63,9.6h-1.69l.53-12.22Z"/><path d="M456.85,174.24c-.06.28-.35,1.68-.43,2-.3,1.4-.24,2.52.93,2.52s1.36-.93,1.6-2l.07-.34h1.64l-.07.32c-.37,1.64-.9,3.42-3.4,3.42-2.77,0-2.78-2.24-2.34-4.32l.93-4.38c.39-1.91,1-3.89,3.51-3.89,2.74,0,2.84,2.13,2.44,4-.06.31-.48,2.28-.56,2.62Zm3-1.37c.05-.26.32-1.52.37-1.77.24-1.15,0-2.13-1-2.13s-1.48,1.17-1.7,2.23l-.36,1.67Z"/><path d="M463.85,172c.42-2,.69-3.33.84-4.16h1.58a17.81,17.81,0,0,1-.31,1.81,3.13,3.13,0,0,1,2.85-2l-.43,2c-1.62.07-2.62,1.1-3.07,3.24L463.79,180h-1.65Z"/><path d="M470.46,174.24c-.06.28-.35,1.68-.43,2-.3,1.4-.24,2.52.93,2.52s1.36-.93,1.6-2l.07-.34h1.64l-.07.32c-.38,1.64-.9,3.42-3.4,3.42-2.77,0-2.78-2.24-2.34-4.32l.92-4.38c.4-1.91,1-3.89,3.52-3.89,2.74,0,2.84,2.13,2.44,4-.06.31-.48,2.28-.56,2.62Zm3-1.37c0-.26.32-1.52.37-1.77.24-1.15.05-2.13-1-2.13s-1.48,1.17-1.7,2.23l-.36,1.67Z"/><path d="M481.73,167.8h1.66L480.79,180h-1.66Zm1-4.52h1.66l-.52,2.48h-1.66Z"/><path d="M485.15,171.52c.52-2.45.67-3.19.77-3.72h1.61c0,.26-.09.62-.2,1.13a2.7,2.7,0,0,1,2.38-1.32c1.34,0,2.21.92,1.79,2.9l-2,9.51h-1.66l1.94-9.14c.25-1.18.07-1.85-.88-1.85s-1.7.8-2.14,2.92L485,180h-1.66Z"/><path d="M498.48,173.34h0c.84-1.3,2.73-4,3.76-5.54h1.81c-1.17,1.64-2.26,3.11-3.41,4.72l1.07,7.5h-1.67l-.77-6c-.15.24-1.18,1.53-1.32,1.72l-.92,4.29h-1.65L499,163.28h1.64Z"/><path d="M505.55,174.24c-.07.28-.36,1.68-.44,2-.29,1.4-.23,2.52.94,2.52s1.36-.93,1.6-2l.07-.34h1.63l-.07.32c-.37,1.64-.9,3.42-3.4,3.42-2.76,0-2.78-2.24-2.34-4.32l.93-4.38c.39-1.91,1-3.89,3.52-3.89,2.73,0,2.84,2.13,2.44,4-.07.31-.49,2.28-.56,2.62Zm3-1.37c.05-.26.32-1.52.38-1.77.23-1.15,0-2.13-1-2.13s-1.48,1.17-1.7,2.23l-.36,1.67Z"/><path d="M513.39,174.24c-.06.28-.35,1.68-.43,2-.3,1.4-.24,2.52.93,2.52s1.37-.93,1.6-2l.08-.34h1.63l-.07.32c-.37,1.64-.9,3.42-3.4,3.42-2.76,0-2.78-2.24-2.34-4.32l.93-4.38c.39-1.91,1-3.89,3.51-3.89,2.74,0,2.84,2.13,2.44,4-.06.31-.48,2.28-.56,2.62Zm3-1.37c.05-.26.32-1.52.37-1.77.24-1.15.05-2.13-1-2.13s-1.48,1.17-1.7,2.23l-.36,1.67Z"/><path d="M520.5,179l-1.08,5.1h-1.66l2.74-12.81c.36-1.67.58-2.77.72-3.53h1.61c0,.16-.09.65-.2,1.16a2.51,2.51,0,0,1,2.24-1.35c1.91,0,2.2,1.78,1.74,3.94l-1,4.62c-.53,2.5-1.39,4-3.31,4A1.68,1.68,0,0,1,520.5,179Zm3.43-2.78,1-4.68c.29-1.37.32-2.54-.83-2.54s-1.77,1.41-2.14,3.15l-.76,3.55c-.32,1.54-.46,3,.95,3C523.2,178.73,523.64,177.61,523.93,176.26Z"/><path d="M529.73,167.8h1.65L528.78,180h-1.65Zm1-4.52h1.66l-.53,2.48h-1.65Z"/><path d="M533.15,171.52c.51-2.45.67-3.19.76-3.72h1.61a11.36,11.36,0,0,1-.19,1.13,2.7,2.7,0,0,1,2.38-1.32c1.34,0,2.21.92,1.79,2.9l-2,9.51h-1.66l1.94-9.14c.25-1.18.07-1.85-.88-1.85s-1.7.8-2.14,2.92L533,180h-1.66Z"/><path d="M545.94,179.55c-.55,2.66-.86,4.79-3.86,4.79-2.53,0-2.91-1.62-2.65-2.94l0-.12h1.68l0,.15c-.1.57-.1,1.51,1.12,1.51s1.56-1.17,2-3l.28-1.3a2.23,2.23,0,0,1-2.09,1.29c-2,0-2.27-1.89-1.89-3.66l1.07-5c.35-1.62,1-3.63,3.17-3.63a1.66,1.66,0,0,1,1.83,1.3,9.57,9.57,0,0,1,.32-1.11h1.59c-.16.68-.42,1.78-.72,3.22Zm-2.69-8.37-1.06,5c-.26,1.25-.19,2.25.91,2.25,1.34,0,1.79-1.62,2.17-3.29l.67-3.07c.31-1.43.45-3-1-3C543.88,169,543.49,170.05,543.25,171.18Z"/><path d="M58.87,196.6c-.43,6-.6,8.61-.78,9.88h0c.45-1.45,1.23-3.46,3.72-9.88h1.58c-.32,6-.41,8.36-.59,9.83h0c.38-1.28.9-2.79,3.42-9.83h1.67l-4.78,12.22H61.5c.22-4,.34-7.52.53-9.6h0c-.44,1.49-1.89,5.09-3.63,9.6H56.7l.52-12.22Z"/><path d="M69.79,196.6h1.66l-2.6,12.22H67.19Zm1-4.52h1.66l-.52,2.48H70.23Z"/><path d="M73,196.6h1.37l.7-3.08h1.63L76,196.6h1.67l-.31,1.45H75.69l-1.81,8.31c-.18.84-.06,1.25.68,1.25a4.37,4.37,0,0,0,.86-.09l-.28,1.31a4.72,4.72,0,0,1-1.3.16c-1.23,0-2.08-.49-1.68-2.36L74,198.05H72.67Z"/><path d="M82,192.08l-1.18,5.61a2.57,2.57,0,0,1,2.26-1.28c1.79,0,2.18,1.37,1.81,3.14l-2,9.27H81.22l1.9-8.94c.24-1.15.25-2-.87-2s-1.72,1.13-2.08,2.82l-1.75,8.17H76.76l3.56-16.74Z"/><path d="M90.26,196.6h1.37l.7-3.08H94l-.68,3.08H95l-.31,1.45H93l-1.81,8.31c-.18.84-.06,1.25.68,1.25a4.37,4.37,0,0,0,.86-.09l-.28,1.31a4.72,4.72,0,0,1-1.3.16c-1.23,0-2.08-.49-1.68-2.36l1.86-8.58H90Z"/><path d="M99.25,192.08l-1.18,5.61a2.57,2.57,0,0,1,2.26-1.28c1.79,0,2.18,1.37,1.81,3.14l-2,9.27H98.5l1.9-8.94c.24-1.15.25-2-.87-2s-1.72,1.13-2.09,2.82l-1.74,8.17H94l3.55-16.74Z"/><path d="M105.22,203c-.06.28-.35,1.68-.43,2.05-.3,1.4-.24,2.52.93,2.52s1.36-.93,1.6-2l.07-.34H109l-.07.32c-.38,1.63-.9,3.42-3.4,3.42-2.77,0-2.78-2.24-2.34-4.32l.92-4.38c.4-1.91,1-3.89,3.52-3.89,2.74,0,2.84,2.13,2.44,4-.06.31-.48,2.28-.56,2.62Zm3-1.37c0-.26.32-1.52.37-1.77.24-1.15.05-2.13-1-2.13s-1.48,1.17-1.7,2.23l-.36,1.67Z"/><path d="M119.1,192.08l-1.18,5.61a2.57,2.57,0,0,1,2.26-1.28c1.79,0,2.18,1.37,1.81,3.14l-2,9.27h-1.66l1.9-8.94c.24-1.15.25-2-.87-2s-1.72,1.13-2.09,2.82l-1.74,8.17h-1.66l3.55-16.74Z"/><path d="M125.1,196.6h1.66l-2.6,12.22H122.5Zm1-4.52h1.66l-.53,2.48h-1.66Z"/><path d="M132.68,208.35c-.55,2.66-.86,4.79-3.87,4.79-2.52,0-2.9-1.62-2.64-2.94l0-.12h1.68l0,.15c-.09.57-.09,1.51,1.13,1.51s1.56-1.17,2-3l.28-1.3a2.23,2.23,0,0,1-2.09,1.29c-2,0-2.27-1.9-1.89-3.66l1.07-5c.35-1.62,1-3.63,3.16-3.63a1.68,1.68,0,0,1,1.84,1.3,9.57,9.57,0,0,1,.32-1.11h1.59c-.16.68-.42,1.78-.72,3.22ZM130,200l-1,5c-.26,1.26-.19,2.26.91,2.26,1.34,0,1.79-1.62,2.16-3.29l.68-3.07c.31-1.44.45-3-1-3C130.62,197.83,130.23,198.85,130,200Z"/><path d="M140.32,192.08l-1.19,5.61a2.57,2.57,0,0,1,2.27-1.28c1.78,0,2.17,1.37,1.8,3.14l-2,9.27h-1.65l1.89-8.94c.24-1.15.25-2-.87-2s-1.72,1.13-2.08,2.82l-1.75,8.17H135.1l3.56-16.74Z"/><path d="M146.29,203c-.07.28-.36,1.68-.44,2.05-.3,1.4-.23,2.52.93,2.52s1.37-.93,1.6-2l.08-.34h1.63l-.07.32c-.37,1.63-.9,3.42-3.4,3.42-2.76,0-2.78-2.24-2.34-4.32l.93-4.38c.39-1.91,1-3.89,3.51-3.89,2.74,0,2.85,2.13,2.44,4-.06.31-.48,2.28-.56,2.62Zm3-1.37c.05-.26.32-1.52.38-1.77.23-1.15,0-2.13-1-2.13s-1.48,1.17-1.7,2.23l-.36,1.67Z"/><path d="M153.41,205.21l-.09.47c-.22,1.15,0,2,1.06,2,.74,0,1.15-.42,1.39-1.47A3,3,0,0,0,154.7,203c-1.45-1.4-1.91-2.23-1.59-4a2.73,2.73,0,0,1,2.85-2.55c2.13,0,2.77,1.52,2.43,3.24l-.1.48h-1.57l.1-.58c.18-1.08,0-1.77-.92-1.77-.6,0-1,.42-1.2,1.39s0,1.43,1,2.43c1.69,1.65,2.1,2.64,1.69,4.64s-1.49,2.77-3.14,2.77c-2.45,0-3-1.61-2.53-3.58l0-.22Z"/><path d="M160.12,196.6h1.38l.69-3.08h1.64l-.69,3.08h1.67l-.31,1.45h-1.67L161,206.36c-.18.84-.06,1.25.68,1.25a4.56,4.56,0,0,0,.87-.09l-.29,1.31a4.72,4.72,0,0,1-1.3.16c-1.23,0-2.08-.49-1.68-2.36l1.86-8.58h-1.35Z"/><path d="M168.74,196.6h1.37l.7-3.08h1.63l-.68,3.08h1.67l-.31,1.45h-1.67l-1.82,8.31c-.17.84-.06,1.25.69,1.25a4.45,4.45,0,0,0,.86-.09l-.29,1.31a4.65,4.65,0,0,1-1.29.16c-1.23,0-2.08-.49-1.68-2.36l1.86-8.58h-1.35Z"/><path d="M174.18,200.76c.42-2,.7-3.33.84-4.16h1.58a15.12,15.12,0,0,1-.31,1.81,3.13,3.13,0,0,1,2.86-2l-.44,1.95c-1.62.07-2.62,1.1-3.07,3.24l-1.51,7.19h-1.66Z"/><path d="M184.15,206.29c-.15.74-.43,2.11-.49,2.53H182c0-.31.1-.73.17-1.09A2.23,2.23,0,0,1,180,209c-1.79,0-2.15-1.72-1.75-3.6.56-2.67,1.94-3.46,4.78-3.92l.48-.08.39-1.83c.26-1.17,0-1.81-.91-1.81s-1.16.74-1.45,1.87l-.07.28h-1.63l0-.16c.34-1.59.8-3.35,3.29-3.35,2.05,0,2.79,1.19,2.4,3Zm-.88-3.52-.44.08c-1.64.31-2.51.81-2.9,2.53-.26,1.19-.12,2.15.88,2.15s1.68-1.08,2.13-3.25Z"/><path d="M195.55,192.08l-2.89,13.59c-.31,1.46-.5,2.44-.62,3.15h-1.61a6.77,6.77,0,0,1,.15-1.13,2.4,2.4,0,0,1-2.21,1.32c-1.89,0-2.25-1.72-1.77-3.95l1.05-4.85c.42-1.92,1.14-3.8,3.2-3.8a1.79,1.79,0,0,1,1.88,1.09l1.14-5.42Zm-6.23,8.16-1,4.92c-.26,1.21-.26,2.37.88,2.37s1.73-1.33,2.13-3.14l.83-3.89c.36-1.63.25-2.67-1-2.67C190.15,197.83,189.64,198.72,189.32,200.24Z"/><path d="M197.13,196.6h1.65l-2.6,12.22h-1.65Zm1-4.52h1.66l-.53,2.48h-1.65Z"/><path d="M200.32,196.6h1.37l.7-3.08H204l-.68,3.08H205l-.31,1.45H203l-1.82,8.31c-.17.84-.05,1.25.69,1.25a4.45,4.45,0,0,0,.86-.09l-.28,1.31a4.77,4.77,0,0,1-1.3.16c-1.23,0-2.08-.49-1.68-2.36l1.86-8.58H200Z"/><path d="M206.7,196.6h1.66l-2.6,12.22H204.1Zm1-4.52h1.65l-.52,2.48h-1.66Z"/><path d="M216,200.36l-1,4.87c-.55,2.65-1.41,3.78-3.61,3.78-2,0-3.1-1.24-2.53-3.91l1.08-5.13c.44-2.07,1.3-3.56,3.54-3.56S216.51,197.88,216,200.36Zm-4.41-.39-1.15,5.4c-.32,1.54.17,2.23,1.09,2.23s1.36-.54,1.71-2.16l1.14-5.31c.3-1.4.05-2.31-1.09-2.31S211.88,198.66,211.59,200Z"/><path d="M218.21,200.32c.52-2.45.67-3.19.77-3.72h1.61c0,.26-.09.62-.2,1.13a2.71,2.71,0,0,1,2.38-1.32c1.34,0,2.21.92,1.79,2.9l-2,9.51h-1.66l1.94-9.14c.25-1.18.07-1.85-.88-1.85s-1.69.8-2.14,2.92l-1.72,8.07h-1.66Z"/><path d="M226.78,205.21l-.1.47c-.22,1.15,0,2,1.06,2,.75,0,1.16-.42,1.39-1.47a3,3,0,0,0-1.07-3.21c-1.45-1.4-1.91-2.23-1.59-4a2.73,2.73,0,0,1,2.86-2.55c2.13,0,2.76,1.52,2.42,3.24l-.09.48h-1.57l.09-.58c.18-1.08,0-1.77-.92-1.77-.6,0-1,.42-1.2,1.39s0,1.43,1,2.43c1.69,1.65,2.1,2.64,1.69,4.64s-1.49,2.77-3.14,2.77c-2.45,0-3-1.61-2.53-3.58l.05-.22Z"/><path d="M243.16,200.36l-1,4.87c-.55,2.65-1.41,3.78-3.61,3.78-2,0-3.1-1.24-2.53-3.91l1.08-5.13c.44-2.07,1.3-3.56,3.53-3.56S243.68,197.88,243.16,200.36Zm-4.4-.39-1.15,5.4c-.32,1.54.17,2.23,1.09,2.23s1.36-.54,1.71-2.16l1.14-5.31c.3-1.4,0-2.31-1.1-2.31S239,198.66,238.76,200Z"/><path d="M243.83,208.82l2.29-10.77H244.8l.31-1.45h1.32l.38-1.81c.32-1.48.86-2.82,2.69-2.82a4,4,0,0,1,1,.13l-.32,1.45a2.21,2.21,0,0,0-.57-.06c-.7,0-1,.49-1.15,1.45l-.35,1.66h1.54l-.31,1.45h-1.54l-2.29,10.77Z"/><path d="M253.28,196.6h1.38l.69-3.08H257l-.69,3.08H258l-.31,1.45H256l-1.81,8.31c-.17.84-.06,1.25.69,1.25a4.45,4.45,0,0,0,.86-.09l-.29,1.31a4.67,4.67,0,0,1-1.3.16c-1.22,0-2.08-.49-1.68-2.36l1.87-8.58H253Z"/><path d="M262.28,192.08l-1.19,5.61a2.58,2.58,0,0,1,2.27-1.28c1.78,0,2.17,1.37,1.8,3.14l-2,9.27h-1.66l1.89-8.94c.25-1.15.25-2-.87-2s-1.72,1.13-2.08,2.82l-1.75,8.17h-1.65l3.55-16.74Z"/><path d="M268.25,203c-.07.28-.36,1.68-.44,2.05-.29,1.4-.23,2.52.94,2.52s1.36-.93,1.6-2l.07-.34h1.63l-.07.32c-.37,1.63-.9,3.42-3.4,3.42-2.76,0-2.78-2.24-2.34-4.32l.93-4.38c.39-1.91,1-3.89,3.52-3.89,2.73,0,2.84,2.13,2.44,4-.07.31-.49,2.28-.56,2.62Zm3-1.37c.05-.26.32-1.52.38-1.77.23-1.15,0-2.13-1-2.13s-1.48,1.17-1.7,2.23l-.35,1.67Z"/><path d="M282,192.79l-2.65,12.44c-.26,1.25-.09,2.28,1.23,2.28s1.7-1,2-2.31l2.65-12.41h1.68l-2.61,12.26c-.54,2.51-1.3,4-3.86,4-2.29,0-3.25-1.31-2.7-3.88l2.62-12.34Z"/><path d="M287.64,200.32c.52-2.45.67-3.19.77-3.72H290c0,.26-.09.62-.2,1.13a2.7,2.7,0,0,1,2.38-1.32c1.34,0,2.21.92,1.79,2.9l-2,9.51H290.3l1.94-9.14c.25-1.18.07-1.85-.88-1.85s-1.69.8-2.14,2.92l-1.72,8.07h-1.66Z"/><path d="M297.08,196.6h1.66l-2.6,12.22h-1.66Zm1-4.52h1.65l-.52,2.48h-1.66Z"/><path d="M300.27,196.6h1.38l.69-3.08H304l-.69,3.08H305l-.31,1.45H303l-1.81,8.31c-.17.84-.06,1.25.69,1.25a4.45,4.45,0,0,0,.86-.09l-.29,1.31a4.67,4.67,0,0,1-1.3.16c-1.22,0-2.08-.49-1.68-2.36l1.87-8.58H300Z"/><path d="M306.57,203c-.06.28-.35,1.68-.43,2.05-.3,1.4-.24,2.52.93,2.52s1.36-.93,1.6-2l.07-.34h1.64l-.07.32c-.37,1.63-.9,3.42-3.4,3.42-2.77,0-2.78-2.24-2.34-4.32l.93-4.38c.39-1.91,1-3.89,3.51-3.89,2.74,0,2.84,2.13,2.44,4-.06.31-.48,2.28-.56,2.62Zm3-1.37c.05-.26.32-1.52.37-1.77.24-1.15.05-2.13-1-2.13s-1.48,1.17-1.7,2.23l-.36,1.67Z"/><path d="M321.3,192.08l-2.88,13.59c-.32,1.46-.5,2.44-.62,3.15h-1.61a7.75,7.75,0,0,1,.14-1.13,2.39,2.39,0,0,1-2.2,1.32c-1.9,0-2.25-1.72-1.77-3.95l1-4.85c.42-1.92,1.14-3.8,3.2-3.8a1.82,1.82,0,0,1,1.89,1.09l1.13-5.42Zm-6.23,8.16-1,4.92c-.26,1.21-.26,2.37.88,2.37s1.74-1.33,2.13-3.14l.84-3.89c.35-1.63.25-2.67-1-2.67C315.9,197.83,315.39,198.72,315.07,200.24Z"/><path d="M325.76,204.67l-.08.42c-.29,1.7.05,2.53,1.28,2.53,1.06,0,1.63-.87,1.91-2.37.32-1.7.07-2.75-1.33-4.36-1.57-1.78-2.09-2.88-1.67-5.09.38-2,1.37-3.23,3.29-3.23,2.62,0,3,2,2.66,4l-.07.4H330.1l.08-.42c.23-1.28.2-2.5-1.08-2.5-1,0-1.4.76-1.61,1.93a3.8,3.8,0,0,0,1.18,3.62c1.84,2.1,2.33,3.53,1.86,5.86-.44,2.15-1.46,3.62-3.73,3.62-2.56,0-3.25-1.68-2.76-4.07l.06-.29Z"/><path d="M333.27,196.6h1.38l.69-3.08H337l-.69,3.08H338l-.31,1.45H336l-1.81,8.31c-.17.84-.06,1.25.68,1.25a4.56,4.56,0,0,0,.87-.09l-.29,1.31a4.67,4.67,0,0,1-1.3.16c-1.23,0-2.08-.49-1.68-2.36l1.86-8.58H333Z"/><path d="M343.11,206.29c-.15.74-.43,2.11-.49,2.53H341c0-.31.1-.73.17-1.09A2.23,2.23,0,0,1,339,209c-1.8,0-2.15-1.72-1.76-3.6.57-2.67,1.95-3.46,4.79-3.92l.48-.08.39-1.83c.26-1.17,0-1.81-.91-1.81s-1.17.74-1.45,1.87l-.07.28h-1.63l0-.16c.34-1.59.8-3.35,3.29-3.35,2,0,2.79,1.19,2.4,3Zm-.87-3.52-.44.08c-1.65.31-2.51.81-2.9,2.53-.26,1.19-.12,2.15.87,2.15s1.69-1.08,2.14-3.25Z"/><path d="M346.45,196.6h1.37l.7-3.08h1.63l-.68,3.08h1.67l-.31,1.45h-1.67l-1.82,8.31c-.17.84-.06,1.25.69,1.25a4.45,4.45,0,0,0,.86-.09l-.29,1.31a4.65,4.65,0,0,1-1.29.16c-1.23,0-2.08-.49-1.68-2.36l1.86-8.58h-1.35Z"/><path d="M352.75,203c-.07.28-.36,1.68-.44,2.05-.3,1.4-.23,2.52.94,2.52s1.36-.93,1.59-2l.08-.34h1.63l-.07.32c-.37,1.63-.9,3.42-3.4,3.42-2.76,0-2.78-2.24-2.34-4.32l.93-4.38c.39-1.91,1-3.89,3.52-3.89,2.73,0,2.84,2.13,2.44,4-.07.31-.49,2.28-.57,2.62Zm3-1.37c.05-.26.32-1.52.38-1.77.23-1.15,0-2.13-1-2.13s-1.48,1.17-1.7,2.23l-.36,1.67Z"/><path d="M359.87,205.21l-.09.47c-.22,1.15,0,2,1.06,2,.74,0,1.16-.42,1.39-1.47a3,3,0,0,0-1.07-3.21c-1.45-1.4-1.91-2.23-1.59-4a2.73,2.73,0,0,1,2.85-2.55c2.13,0,2.77,1.52,2.43,3.24l-.1.48h-1.57l.1-.58c.18-1.08,0-1.77-.92-1.77-.6,0-1,.42-1.2,1.39s0,1.43,1,2.43c1.69,1.65,2.1,2.64,1.69,4.64s-1.49,2.77-3.14,2.77c-2.45,0-3-1.61-2.53-3.58l.05-.22Z"/><path d="M368.65,208.82l3.41-16h2c.17,4.13.55,11.92.53,12.8h0c.39-2.22.81-4.53,1.37-7.15l1.19-5.65h1.61l-3.41,16h-2c-.15-3.6-.55-11.94-.56-13.11h0c-.33,2-.78,4.49-1.4,7.39l-1.2,5.72Z"/><path d="M384,206.29c-.16.74-.43,2.11-.49,2.53h-1.62c0-.31.1-.73.17-1.09a2.23,2.23,0,0,1-2.18,1.28c-1.79,0-2.15-1.72-1.76-3.6.57-2.67,1.95-3.46,4.79-3.92l.48-.08.39-1.83c.26-1.17,0-1.81-.91-1.81s-1.17.74-1.45,1.87l-.07.28h-1.63l0-.16c.34-1.59.8-3.35,3.29-3.35,2.05,0,2.79,1.19,2.4,3Zm-.88-3.52-.44.08c-1.65.31-2.51.81-2.9,2.53-.26,1.19-.12,2.15.88,2.15s1.68-1.08,2.13-3.25Z"/><path d="M389,196.6c-.15,3.41-.28,8.87-.47,10.28h0c.39-1.35,3.12-8.06,4-10.28h1.73l-5.22,12.22h-1.82l.16-12.22Z"/><path d="M399.3,206.29c-.15.74-.43,2.11-.49,2.53h-1.62c0-.31.1-.73.17-1.09a2.23,2.23,0,0,1-2.18,1.28c-1.79,0-2.15-1.72-1.75-3.6.57-2.67,1.94-3.46,4.78-3.92l.48-.08.39-1.83c.26-1.17,0-1.81-.91-1.81s-1.16.74-1.45,1.87l-.07.28H395l0-.16c.34-1.59.8-3.35,3.29-3.35,2.05,0,2.79,1.19,2.4,3Zm-.88-3.52-.44.08c-1.64.31-2.51.81-2.9,2.53-.26,1.19-.12,2.15.88,2.15s1.68-1.08,2.13-3.25Z"/><path d="M401.25,208.82l3.56-16.74h1.65l-3.55,16.74Z"/><path d="M410.91,204.67l-.08.42c-.29,1.7.05,2.53,1.28,2.53,1.05,0,1.63-.87,1.91-2.37.32-1.7.07-2.75-1.33-4.36-1.57-1.78-2.09-2.88-1.67-5.09.38-2,1.37-3.23,3.29-3.23,2.62,0,3,2,2.66,4l-.08.4h-1.64l.08-.42c.23-1.28.2-2.5-1.08-2.5-1,0-1.4.76-1.61,1.93a3.78,3.78,0,0,0,1.18,3.62c1.84,2.1,2.33,3.53,1.86,5.86-.44,2.15-1.46,3.62-3.73,3.62-2.57,0-3.25-1.68-2.76-4.07l.06-.29Z"/><path d="M419.63,203c-.06.28-.35,1.68-.43,2.05-.3,1.4-.24,2.52.93,2.52s1.36-.93,1.6-2l.07-.34h1.64l-.07.32c-.38,1.63-.9,3.42-3.4,3.42-2.77,0-2.78-2.24-2.34-4.32l.92-4.38c.4-1.91,1-3.89,3.52-3.89,2.74,0,2.84,2.13,2.44,4-.06.31-.48,2.28-.56,2.62Zm3-1.37c.05-.26.32-1.52.37-1.77.24-1.15.05-2.13-1-2.13s-1.48,1.17-1.7,2.23l-.36,1.67Z"/><path d="M426.63,200.76c.42-2,.69-3.33.84-4.16h1.58c0,.23-.09.74-.32,1.81a3.14,3.14,0,0,1,2.86-2l-.43,1.95c-1.62.07-2.62,1.1-3.07,3.24l-1.52,7.19h-1.65Z"/><path d="M434.36,196.6c-.15,3.41-.28,8.87-.47,10.28h0c.38-1.35,3.12-8.06,4-10.28h1.73l-5.23,12.22h-1.82l.17-12.22Z"/><path d="M441.36,196.6H443l-2.6,12.22h-1.66Zm1-4.52H444l-.53,2.48H441.8Z"/><path d="M449.29,205.2l-.07.32c-.35,1.64-.91,3.49-3.4,3.49-2.7,0-2.71-2.14-2.32-4l1-4.86c.41-2,1.06-3.74,3.36-3.74,2.62,0,2.78,1.92,2.47,3.53l-.12.61h-1.63l.13-.69c.25-1.26.13-2.05-.93-2.05-.91,0-1.26.8-1.58,2.27l-1.13,5.3c-.29,1.33-.19,2.22.9,2.22s1.23-.77,1.53-2l.1-.43Z"/><path d="M453.26,203c-.07.28-.36,1.68-.44,2.05-.3,1.4-.23,2.52.93,2.52s1.37-.93,1.6-2l.08-.34h1.63l-.07.32c-.37,1.63-.9,3.42-3.4,3.42-2.76,0-2.78-2.24-2.34-4.32l.93-4.38c.39-1.91,1-3.89,3.52-3.89,2.73,0,2.84,2.13,2.43,4-.06.31-.48,2.28-.56,2.62Zm3-1.37c.05-.26.32-1.52.38-1.77.23-1.15,0-2.13-1-2.13s-1.48,1.17-1.7,2.23l-.36,1.67Z"/><path d="M458.44,208.82l.68-3.2h1.61l-.69,3.2Z"/></svg>