<svg id="Layer_1" data-name="Layer 1" xmlns="http://www.w3.org/2000/svg" viewBox="0 0 600 400"><defs><style>.cls-1{fill:#ccc;}.cls-2{fill:#fff;}.cls-3{font-size:48px;font-family:BernardMT-Condensed, Bernard MT Condensed;}</style></defs><title>Testimonial Fusebox Marketing</title><rect class="cls-1" x="0.5" y="0.5" width="599" height="399"/><path d="M599,1V399H1V1H599m1-1H0V400H600V0Z"/><rect class="cls-1" x="15.5" y="15.5" width="569" height="369"/><path d="M584,16V384H16V16H584m1-1H15V385H585V15Z"/><circle class="cls-2" cx="300.5" cy="48.5" r="24.5"/><text class="cls-3" transform="translate(288.9 79.41)">“</text><rect class="cls-2" x="45" y="90" width="510" height="170"/><path d="M58.22,146.07l-1.84,5.15H54.65c1-2.78,4.74-12.93,5.92-16H63l-.78,16H60.59l.29-5.15ZM61,144.54c.19-3.13.34-6.32.48-7.82h-.07c-.3,1.19-1.57,4.82-2.62,7.82Z"/><path d="M70.27,148.69c-.15.74-.43,2.11-.49,2.53H68.17c0-.31.1-.73.17-1.09a2.23,2.23,0,0,1-2.18,1.28c-1.8,0-2.15-1.72-1.76-3.6.57-2.67,1.95-3.46,4.78-3.92l.48-.08.39-1.83c.26-1.17,0-1.81-.9-1.81S68,140.91,67.7,142l-.07.28H66l0-.16c.34-1.59.8-3.35,3.29-3.35,2.05,0,2.79,1.19,2.39,3Zm-.87-3.52-.44.08c-1.65.31-2.51.81-2.9,2.53-.26,1.19-.13,2.15.87,2.15s1.69-1.08,2.14-3.25Z"/><path d="M73.94,143.16c.42-2,.7-3.33.84-4.16h1.58a17.81,17.81,0,0,1-.31,1.81,3.13,3.13,0,0,1,2.86-2l-.44,1.95c-1.62.07-2.62,1.1-3.07,3.25l-1.51,7.18H72.23Z"/><path d="M85.66,142.76l-1,4.87c-.56,2.65-1.42,3.78-3.62,3.78-2,0-3.09-1.24-2.53-3.91l1.08-5.13c.44-2.07,1.31-3.56,3.54-3.56S86.17,140.28,85.66,142.76Zm-4.4-.39-1.16,5.4c-.32,1.54.17,2.23,1.1,2.23s1.36-.54,1.71-2.16L84,142.53c.3-1.39,0-2.31-1.09-2.31S81.54,141.06,81.26,142.37Z"/><path d="M87.88,142.72c.51-2.45.67-3.19.76-3.72h1.61a11.36,11.36,0,0,1-.19,1.13,2.7,2.7,0,0,1,2.38-1.32c1.34,0,2.21.92,1.78,2.9l-2,9.51H90.54l1.93-9.14c.26-1.18.07-1.85-.88-1.85s-1.69.8-2.13,2.92l-1.72,8.07H86.08Z"/><path d="M103.36,134.48l-1.19,5.61a2.59,2.59,0,0,1,2.27-1.28c1.79,0,2.17,1.37,1.8,3.14l-2,9.27h-1.66l1.89-8.94c.25-1.15.25-2.05-.86-2.05s-1.72,1.13-2.09,2.82l-1.74,8.17H98.15l3.55-16.74Z"/><path d="M112.82,148.69c-.15.74-.43,2.11-.49,2.53h-1.61c0-.31.1-.73.17-1.09a2.23,2.23,0,0,1-2.18,1.28c-1.8,0-2.16-1.72-1.76-3.6.57-2.67,2-3.46,4.78-3.92l.48-.08.39-1.83c.26-1.17,0-1.81-.9-1.81s-1.17.74-1.45,1.87l-.07.28h-1.64l0-.16c.33-1.59.79-3.35,3.28-3.35,2.06,0,2.8,1.19,2.4,3Zm-.87-3.52-.44.08c-1.65.31-2.51.81-2.9,2.53-.26,1.19-.13,2.15.87,2.15s1.69-1.08,2.14-3.25Z"/><path d="M116.53,147.61l-.1.47c-.22,1.16,0,2,1.06,2,.75,0,1.16-.42,1.39-1.47a3,3,0,0,0-1.07-3.21c-1.45-1.39-1.91-2.23-1.59-4a2.73,2.73,0,0,1,2.86-2.55c2.13,0,2.76,1.52,2.42,3.24l-.09.48h-1.57l.09-.58c.18-1.08,0-1.77-.92-1.77-.6,0-1,.42-1.2,1.39s0,1.43,1,2.43c1.69,1.65,2.1,2.64,1.69,4.64s-1.49,2.77-3.14,2.77c-2.45,0-3-1.61-2.53-3.58l.05-.22Z"/><path d="M128.79,134.48h1.66l-1.17,5.44a2.44,2.44,0,0,1,2.11-1.11c1.74,0,2.34,1.43,1.82,3.9l-1,4.7c-.45,2.16-1.21,4-3.26,4a1.68,1.68,0,0,1-1.82-1.35,11.89,11.89,0,0,1-.29,1.18h-1.6c.15-.65.37-1.78.69-3.23Zm1.77,12.89,1-4.79c.29-1.41.2-2.35-.92-2.35-1.29,0-1.77,1.35-2.07,2.79l-.88,4.25c-.34,1.63-.14,2.64,1,2.64C129.7,149.91,130.19,149.06,130.56,147.37Z"/><path d="M136.25,145.44c-.06.28-.35,1.68-.43,2.05-.3,1.4-.24,2.52.93,2.52s1.37-.93,1.6-2l.08-.34h1.63L140,148c-.37,1.64-.9,3.42-3.4,3.42-2.76,0-2.78-2.24-2.34-4.32l.93-4.38c.39-1.91,1-3.89,3.51-3.89,2.74,0,2.85,2.13,2.44,4-.06.31-.48,2.28-.56,2.62Zm3-1.37c.05-.26.32-1.52.37-1.77.24-1.15.05-2.13-1-2.13s-1.48,1.17-1.7,2.23l-.36,1.67Z"/><path d="M144.1,145.44c-.06.28-.35,1.68-.43,2.05-.3,1.4-.24,2.52.93,2.52s1.36-.93,1.6-2l.07-.34h1.64l-.07.32c-.38,1.64-.9,3.42-3.4,3.42-2.77,0-2.78-2.24-2.34-4.32l.92-4.38c.4-1.91,1-3.89,3.52-3.89,2.74,0,2.84,2.13,2.44,4-.06.31-.48,2.28-.56,2.62Zm3-1.37c0-.26.32-1.52.37-1.77.24-1.15.05-2.13-1-2.13s-1.48,1.17-1.7,2.23l-.36,1.67Z"/><path d="M151.18,142.72c.52-2.45.67-3.19.77-3.72h1.61a9.47,9.47,0,0,1-.2,1.13,2.72,2.72,0,0,1,2.38-1.32c1.34,0,2.22.92,1.79,2.9l-2,9.51h-1.65l1.93-9.14c.26-1.18.07-1.85-.88-1.85s-1.69.8-2.13,2.92L151,151.22h-1.65Z"/><path d="M164,145.44c-.06.28-.35,1.68-.43,2.05-.3,1.4-.24,2.52.93,2.52s1.36-.93,1.6-2l.07-.34h1.64l-.08.32c-.37,1.64-.89,3.42-3.39,3.42-2.77,0-2.78-2.24-2.34-4.32l.92-4.38c.4-1.91,1-3.89,3.52-3.89,2.74,0,2.84,2.13,2.44,4-.07.31-.48,2.28-.56,2.62Zm3-1.37c.05-.26.32-1.52.37-1.77.24-1.15,0-2.13-1-2.13s-1.48,1.17-1.7,2.23l-.36,1.67Z"/><path d="M172.57,139c.32,1.87.69,3.91.75,4.44h0c.45-.83,1.3-2.45,2.37-4.44h1.75l-3.55,5.9,1.23,6.32h-1.65c-.36-2.06-.72-4.11-.8-4.76h0L170,151.22h-1.73l3.77-6.35L170.91,139Z"/><path d="M178.43,139h1.38l.69-3.08h1.64l-.69,3.08h1.67l-.31,1.45h-1.67l-1.81,8.31c-.17.84-.06,1.25.69,1.25a4.45,4.45,0,0,0,.86-.09l-.29,1.31a4.67,4.67,0,0,1-1.3.16c-1.23,0-2.08-.49-1.68-2.36l1.86-8.58h-1.35Z"/><path d="M183.88,143.16c.42-2,.69-3.33.84-4.16h1.58a17.81,17.81,0,0,1-.31,1.81,3.13,3.13,0,0,1,2.85-2l-.43,1.95c-1.62.07-2.62,1.1-3.07,3.25l-1.51,7.18h-1.66Z"/><path d="M190.49,145.44c-.06.28-.35,1.68-.43,2.05-.3,1.4-.24,2.52.93,2.52s1.36-.93,1.6-2l.07-.34h1.64l-.07.32c-.38,1.64-.9,3.42-3.4,3.42-2.77,0-2.78-2.24-2.34-4.32l.92-4.38c.4-1.91,1-3.89,3.52-3.89,2.74,0,2.84,2.13,2.44,4-.06.31-.48,2.28-.56,2.62Zm3-1.37c.05-.26.32-1.52.37-1.77.24-1.15,0-2.13-1-2.13s-1.48,1.17-1.7,2.23l-.36,1.67Z"/><path d="M197.62,142.52c.48-2.22.6-2.93.72-3.52h1.6c0,.27-.11.76-.19,1.1a2.52,2.52,0,0,1,2.21-1.29,1.45,1.45,0,0,1,1.6,1.32,2.86,2.86,0,0,1,2.41-1.32c1.25,0,2.24.75,1.77,3l-2,9.44h-1.66l2-9.19c.21-1.05.17-1.8-.77-1.8s-1.56,1.12-1.83,2.38l-1.83,8.61h-1.67l1.91-9.07c.32-1.45.07-1.92-.69-1.92-1.07,0-1.62,1.18-1.9,2.48l-1.81,8.51h-1.65Z"/><path d="M210.82,145.44c-.07.28-.36,1.68-.43,2.05-.3,1.4-.24,2.52.93,2.52s1.36-.93,1.6-2l.07-.34h1.64l-.08.32c-.37,1.64-.9,3.42-3.39,3.42-2.77,0-2.79-2.24-2.34-4.32l.92-4.38c.4-1.91,1-3.89,3.52-3.89,2.74,0,2.84,2.13,2.44,4-.07.31-.48,2.28-.56,2.62Zm3-1.37c0-.26.32-1.52.37-1.77.24-1.15,0-2.13-1-2.13s-1.48,1.17-1.7,2.23l-.36,1.67Z"/><path d="M216.06,151.22l3.55-16.74h1.66l-3.56,16.74Z"/><path d="M223.62,139c-.07,3.66-.21,8.93-.36,10.25h0c.7-2.22,2.65-7.21,3.85-10.25h1.7l-5.31,12.89c-1.43,3.43-2.28,3.62-3.63,3.62a4.9,4.9,0,0,1-1.07-.13l.34-1.5a3.61,3.61,0,0,0,.76.08c.84,0,1.2-.42,2-2.37L222,139Z"/><path d="M233.06,143.16c.41-2,.69-3.33.83-4.16h1.58a15.12,15.12,0,0,1-.31,1.81,3.13,3.13,0,0,1,2.86-2l-.43,1.95c-1.62.07-2.63,1.1-3.07,3.25L233,151.22h-1.66Z"/><path d="M239.67,145.44c-.07.28-.36,1.68-.44,2.05-.29,1.4-.23,2.52.94,2.52s1.36-.93,1.6-2l.07-.34h1.64l-.08.32c-.37,1.64-.9,3.42-3.39,3.42-2.77,0-2.79-2.24-2.34-4.32l.92-4.38c.4-1.91,1-3.89,3.52-3.89,2.73,0,2.84,2.13,2.44,4-.07.31-.49,2.28-.56,2.62Zm3-1.37c.05-.26.33-1.52.38-1.77.23-1.15,0-2.13-1-2.13s-1.48,1.17-1.69,2.23l-.36,1.67Z"/><path d="M244.9,151.22l3.56-16.74h1.65l-3.55,16.74Z"/><path d="M251.68,139h1.66l-2.6,12.22h-1.66Zm1-4.52h1.66l-.52,2.48h-1.66Z"/><path d="M259.34,148.69c-.15.74-.43,2.11-.49,2.53h-1.62c0-.31.1-.73.17-1.09a2.23,2.23,0,0,1-2.18,1.28c-1.79,0-2.15-1.72-1.75-3.6.57-2.67,1.94-3.46,4.78-3.92l.48-.08.39-1.83c.26-1.17,0-1.81-.91-1.81s-1.16.74-1.45,1.87l-.07.28h-1.63l0-.16c.34-1.59.8-3.35,3.29-3.35,2.05,0,2.79,1.19,2.4,3Zm-.88-3.52-.44.08c-1.64.31-2.51.81-2.9,2.53-.26,1.19-.12,2.15.88,2.15s1.68-1.08,2.13-3.25Z"/><path d="M264.85,134.48h1.65l-1.17,5.44a2.44,2.44,0,0,1,2.11-1.11c1.74,0,2.34,1.43,1.82,3.9l-1,4.7c-.45,2.16-1.21,4-3.26,4a1.68,1.68,0,0,1-1.82-1.35,11.89,11.89,0,0,1-.29,1.18h-1.6c.15-.65.37-1.78.69-3.23Zm1.76,12.89,1-4.79c.29-1.41.2-2.35-.92-2.35-1.29,0-1.77,1.35-2.07,2.79l-.88,4.25c-.34,1.63-.14,2.64,1,2.64C265.75,149.91,266.24,149.06,266.61,147.37Z"/><path d="M269.74,151.22l3.55-16.74H275l-3.55,16.74Z"/><path d="M276.48,145.44c-.06.28-.35,1.68-.43,2.05-.3,1.4-.24,2.52.93,2.52s1.36-.93,1.6-2l.07-.34h1.64l-.08.32c-.37,1.64-.89,3.42-3.39,3.42-2.77,0-2.78-2.24-2.34-4.32l.92-4.38c.4-1.91,1-3.89,3.52-3.89,2.74,0,2.84,2.13,2.44,4-.07.31-.48,2.28-.56,2.62Zm3-1.37c.05-.26.32-1.52.37-1.77.24-1.15.05-2.13-1-2.13s-1.48,1.17-1.7,2.23l-.36,1.67Z"/><path d="M280.18,153.46a15.07,15.07,0,0,0,2.46-5.55h1.57a12.06,12.06,0,0,1-2.67,5.55Z"/><path d="M289.14,151.22l2.29-10.77h-1.32l.31-1.45h1.32l.38-1.81c.32-1.48.86-2.82,2.69-2.82a4,4,0,0,1,1,.13l-.32,1.45a2.16,2.16,0,0,0-.57-.06c-.7,0-1,.5-1.15,1.45l-.35,1.66H295l-.31,1.45H293.1l-2.29,10.77Z"/><path d="M293.88,151.22l3.56-16.74h1.65l-3.55,16.74Z"/><path d="M300.62,145.44c-.06.28-.35,1.68-.43,2.05-.3,1.4-.24,2.52.93,2.52s1.37-.93,1.6-2l.07-.34h1.64l-.07.32c-.37,1.64-.9,3.42-3.4,3.42-2.76,0-2.78-2.24-2.34-4.32l.93-4.38c.39-1.91,1-3.89,3.51-3.89,2.74,0,2.84,2.13,2.44,4-.06.31-.48,2.28-.56,2.62Zm3-1.37c.05-.26.32-1.52.37-1.77.24-1.15.05-2.13-1-2.13s-1.48,1.17-1.7,2.23l-.36,1.67Z"/><path d="M309.17,139c.33,1.87.69,3.91.75,4.44h0c.45-.83,1.3-2.45,2.37-4.44h1.76l-3.56,5.9,1.23,6.32h-1.65c-.36-2.06-.71-4.11-.8-4.76h0c-.38.67-1.36,2.46-2.63,4.76h-1.73l3.78-6.35L307.51,139Z"/><path d="M315.83,139h1.65l-2.6,12.22h-1.65Zm1-4.52h1.66l-.53,2.48h-1.65Z"/><path d="M321,134.48h1.66l-1.17,5.44a2.44,2.44,0,0,1,2.11-1.11c1.73,0,2.33,1.43,1.82,3.9l-1,4.7c-.46,2.16-1.21,4-3.26,4a1.68,1.68,0,0,1-1.82-1.35,11.89,11.89,0,0,1-.29,1.18h-1.6c.15-.65.37-1.78.68-3.23Zm1.76,12.89,1-4.79c.3-1.41.21-2.35-.91-2.35-1.29,0-1.77,1.35-2.07,2.79l-.88,4.25c-.35,1.63-.14,2.64,1,2.64C321.91,149.91,322.4,149.06,322.76,147.37Z"/><path d="M325.9,151.22l3.55-16.74h1.66l-3.55,16.74Z"/><path d="M332.64,145.44c-.07.28-.36,1.68-.44,2.05-.29,1.4-.23,2.52.94,2.52s1.36-.93,1.6-2l.07-.34h1.64l-.08.32c-.37,1.64-.9,3.42-3.39,3.42-2.77,0-2.79-2.24-2.35-4.32l.93-4.38c.4-1.91,1-3.89,3.52-3.89,2.73,0,2.84,2.13,2.44,4-.07.31-.49,2.28-.56,2.62Zm3-1.37c.05-.26.32-1.52.38-1.77.23-1.15,0-2.13-1-2.13s-1.48,1.17-1.69,2.23l-.36,1.67Z"/><path d="M349,142.76l-1,4.87c-.55,2.65-1.41,3.78-3.61,3.78-2,0-3.1-1.24-2.53-3.91l1.08-5.13c.44-2.07,1.3-3.56,3.54-3.56S349.49,140.28,349,142.76Zm-4.4-.39-1.15,5.4c-.32,1.54.17,2.23,1.09,2.23s1.36-.54,1.71-2.16l1.14-5.31c.3-1.39.05-2.31-1.1-2.31S344.86,141.06,344.57,142.37Z"/><path d="M351.19,142.72c.52-2.45.67-3.19.77-3.72h1.61c0,.26-.09.62-.2,1.13a2.7,2.7,0,0,1,2.38-1.32c1.34,0,2.21.92,1.79,2.9l-2,9.51h-1.66l1.94-9.14c.25-1.18.07-1.85-.88-1.85s-1.69.8-2.14,2.92l-1.72,8.07h-1.66Z"/><path d="M363.18,143.16c.42-2,.69-3.33.83-4.16h1.58a15.12,15.12,0,0,1-.31,1.81,3.14,3.14,0,0,1,2.86-2l-.43,1.95c-1.62.07-2.62,1.1-3.07,3.25l-1.52,7.18h-1.66Z"/><path d="M369.79,145.44c-.07.28-.36,1.68-.44,2.05-.29,1.4-.23,2.52.94,2.52s1.36-.93,1.6-2l.07-.34h1.64l-.08.32c-.37,1.64-.9,3.42-3.39,3.42-2.77,0-2.79-2.24-2.34-4.32l.92-4.38c.4-1.91,1-3.89,3.52-3.89,2.73,0,2.84,2.13,2.44,4-.07.31-.48,2.28-.56,2.62Zm3-1.37c.06-.26.33-1.52.38-1.77.23-1.15,0-2.13-1-2.13s-1.47,1.17-1.69,2.23l-.36,1.67Z"/><path d="M376.92,147.61l-.1.47c-.22,1.16,0,2,1.06,2,.75,0,1.16-.42,1.39-1.47a3,3,0,0,0-1.07-3.21c-1.45-1.39-1.91-2.23-1.59-4a2.73,2.73,0,0,1,2.85-2.55c2.14,0,2.77,1.52,2.43,3.24l-.1.48h-1.56l.09-.58c.18-1.08,0-1.77-.92-1.77-.6,0-1,.42-1.2,1.39s0,1.43,1,2.43c1.69,1.65,2.1,2.64,1.69,4.64s-1.49,2.77-3.14,2.77c-2.45,0-3-1.61-2.53-3.58l.05-.22Z"/><path d="M384,150.24l-1.08,5.1h-1.66L384,142.53c.35-1.67.58-2.77.71-3.53h1.62c0,.16-.09.65-.2,1.16a2.51,2.51,0,0,1,2.24-1.35c1.91,0,2.2,1.78,1.74,3.94l-1,4.62c-.53,2.5-1.39,4-3.32,4A1.67,1.67,0,0,1,384,150.24Zm3.42-2.78,1-4.68c.29-1.37.32-2.53-.83-2.53s-1.77,1.4-2.14,3.14l-.76,3.55c-.32,1.54-.46,3,.94,3C386.7,149.93,387.14,148.81,387.42,147.46Z"/><path d="M398.29,142.76l-1,4.87c-.55,2.65-1.41,3.78-3.61,3.78-2,0-3.1-1.24-2.53-3.91l1.08-5.13c.44-2.07,1.3-3.56,3.54-3.56S398.81,140.28,398.29,142.76Zm-4.4-.39-1.15,5.4c-.32,1.54.17,2.23,1.09,2.23s1.36-.54,1.71-2.16l1.14-5.31c.3-1.39.05-2.31-1.1-2.31C394.58,140.22,394.18,141.06,393.89,142.37Z"/><path d="M400.51,142.72c.52-2.45.67-3.19.77-3.72h1.61c0,.26-.09.62-.2,1.13a2.7,2.7,0,0,1,2.38-1.32c1.34,0,2.21.92,1.79,2.9l-2,9.51h-1.66l1.94-9.14c.25-1.18.07-1.85-.88-1.85s-1.69.8-2.14,2.92l-1.72,8.07h-1.66Z"/><path d="M409.08,147.61l-.1.47c-.22,1.16,0,2,1.06,2,.75,0,1.16-.42,1.39-1.47a3,3,0,0,0-1.07-3.21c-1.45-1.39-1.91-2.23-1.59-4a2.73,2.73,0,0,1,2.86-2.55c2.13,0,2.76,1.52,2.42,3.24l-.09.48h-1.57l.09-.58c.18-1.08,0-1.77-.92-1.77-.6,0-1,.42-1.2,1.39s0,1.43,1,2.43c1.69,1.65,2.1,2.64,1.69,4.64s-1.49,2.77-3.14,2.77c-2.45,0-3-1.61-2.53-3.58l.05-.22Z"/><path d="M417.06,139h1.65l-2.6,12.22h-1.65Zm1-4.52h1.66l-.53,2.48H417.5Z"/><path d="M422.23,134.48h1.66l-1.17,5.44a2.44,2.44,0,0,1,2.11-1.11c1.74,0,2.33,1.43,1.82,3.9l-1,4.7c-.46,2.16-1.21,4-3.26,4a1.68,1.68,0,0,1-1.82-1.35,11.89,11.89,0,0,1-.29,1.18h-1.6c.15-.65.37-1.78.69-3.23ZM424,147.37l1-4.79c.29-1.41.2-2.35-.92-2.35-1.29,0-1.77,1.35-2.07,2.79l-.88,4.25c-.35,1.63-.14,2.64,1,2.64C423.14,149.91,423.63,149.06,424,147.37Z"/><path d="M429.73,139h1.66l-2.6,12.22h-1.66Zm1-4.52h1.66l-.52,2.48h-1.66Z"/><path d="M431.35,151.22l3.55-16.74h1.66L433,151.22Z"/><path d="M438.13,139h1.66l-2.6,12.22h-1.66Zm1-4.52h1.66l-.52,2.48h-1.66Z"/><path d="M441.32,139h1.37l.7-3.08H445l-.68,3.08H446l-.31,1.45H444l-1.82,8.31c-.17.84,0,1.25.69,1.25a4.45,4.45,0,0,0,.86-.09l-.28,1.31a4.77,4.77,0,0,1-1.3.16c-1.23,0-2.08-.49-1.68-2.36l1.86-8.58H441Z"/><path d="M448.78,139c-.07,3.66-.21,8.93-.36,10.25h0c.7-2.22,2.65-7.21,3.85-10.25H454l-5.31,12.89c-1.43,3.43-2.28,3.62-3.63,3.62a4.9,4.9,0,0,1-1.07-.13l.34-1.5a3.58,3.58,0,0,0,.75.08c.85,0,1.21-.42,2-2.37l.05-12.59Z"/><path d="M450.62,153.46a15.07,15.07,0,0,0,2.46-5.55h1.57a12.06,12.06,0,0,1-2.67,5.55Z"/><path d="M465.46,148.69c-.15.74-.42,2.11-.49,2.53h-1.61c0-.31.1-.73.17-1.09a2.23,2.23,0,0,1-2.18,1.28c-1.8,0-2.15-1.72-1.76-3.6.57-2.67,2-3.46,4.79-3.92l.48-.08.39-1.83c.26-1.17,0-1.81-.91-1.81s-1.17.74-1.45,1.87l-.07.28h-1.63l0-.16c.34-1.59.8-3.35,3.29-3.35,2.05,0,2.79,1.19,2.4,3Zm-.87-3.52-.44.08c-1.65.31-2.51.81-2.9,2.53-.26,1.19-.12,2.15.88,2.15s1.68-1.08,2.13-3.25Z"/><path d="M469.22,142.72c.51-2.45.67-3.19.77-3.72h1.61c0,.26-.09.62-.2,1.13a2.7,2.7,0,0,1,2.38-1.32c1.34,0,2.21.92,1.79,2.9l-2,9.51h-1.66l1.94-9.14c.25-1.18.07-1.85-.88-1.85s-1.7.8-2.14,2.92l-1.72,8.07h-1.66Z"/><path d="M485.51,134.48l-2.89,13.59c-.31,1.46-.5,2.44-.62,3.15h-1.61a6.77,6.77,0,0,1,.15-1.13,2.4,2.4,0,0,1-2.21,1.32c-1.89,0-2.25-1.71-1.77-3.94l1.05-4.86c.42-1.92,1.14-3.8,3.2-3.8a1.8,1.8,0,0,1,1.88,1.09l1.14-5.42Zm-6.23,8.16-1,4.92c-.26,1.21-.25,2.37.89,2.37s1.73-1.33,2.13-3.14l.83-3.89c.35-1.63.25-2.67-1-2.67C480.11,140.23,479.6,141.12,479.28,142.64Z"/><path d="M494,148.69c-.15.74-.43,2.11-.49,2.53h-1.61c0-.31.1-.73.17-1.09a2.23,2.23,0,0,1-2.18,1.28c-1.8,0-2.15-1.72-1.76-3.6.57-2.67,2-3.46,4.79-3.92l.48-.08.39-1.83c.26-1.17,0-1.81-.91-1.81s-1.17.74-1.45,1.87l-.07.28h-1.63l0-.16c.34-1.59.8-3.35,3.29-3.35,2.05,0,2.79,1.19,2.4,3Zm-.87-3.52-.44.08c-1.65.31-2.51.81-2.9,2.53-.26,1.19-.12,2.15.87,2.15s1.69-1.08,2.14-3.25Z"/><path d="M504.62,134.48l-1.18,5.61a2.57,2.57,0,0,1,2.26-1.28c1.79,0,2.18,1.37,1.81,3.14l-2,9.27h-1.66l1.9-8.94c.24-1.15.25-2.05-.87-2.05s-1.72,1.13-2.09,2.82l-1.74,8.17h-1.66L503,134.48Z"/><path d="M514.76,147.92c-.34,1.58-.58,2.79-.67,3.3h-1.62c0-.22.11-.73.2-1.18a2.35,2.35,0,0,1-2.31,1.37c-.9,0-2.3-.4-1.67-3.35l1.92-9.06h1.66l-1.89,8.88c-.31,1.45-.06,2.05.79,2.05s1.62-.59,2.12-2.94l1.69-8h1.68Z"/><path d="M522.52,150.75c-.55,2.66-.86,4.79-3.86,4.79-2.53,0-2.91-1.62-2.65-2.94l0-.12h1.68l0,.15c-.1.57-.1,1.51,1.12,1.51s1.56-1.16,2-3l.28-1.3a2.22,2.22,0,0,1-2.09,1.29c-2.05,0-2.27-1.89-1.89-3.66l1.07-5c.35-1.62,1-3.63,3.17-3.63a1.66,1.66,0,0,1,1.83,1.3c.1-.44.24-.87.32-1.11h1.59c-.16.68-.42,1.78-.72,3.22Zm-2.69-8.37-1.06,5c-.26,1.25-.19,2.25.91,2.25,1.34,0,1.79-1.62,2.17-3.29l.67-3.07c.31-1.43.45-3-1-3C520.46,140.23,520.07,141.25,519.83,142.38Z"/><path d="M527.51,145.44c-.06.28-.35,1.68-.43,2.05-.3,1.4-.24,2.52.93,2.52s1.36-.93,1.6-2l.07-.34h1.64l-.08.32c-.37,1.64-.9,3.42-3.39,3.42-2.77,0-2.79-2.24-2.34-4.32l.92-4.38c.4-1.91,1-3.89,3.52-3.89,2.74,0,2.84,2.13,2.44,4-.07.31-.48,2.28-.56,2.62Zm3-1.37c.05-.26.32-1.52.37-1.77.24-1.15,0-2.13-1-2.13s-1.48,1.17-1.7,2.23l-.36,1.67Z"/><path d="M61.56,177.49c-.15.74-.43,2.11-.49,2.53H59.46c0-.31.1-.73.17-1.09a2.23,2.23,0,0,1-2.18,1.28c-1.8,0-2.16-1.72-1.76-3.6.57-2.67,2-3.46,4.78-3.92l.48-.08.39-1.83c.26-1.17,0-1.81-.9-1.81s-1.17.74-1.45,1.87l-.07.28H57.28l0-.16c.33-1.59.79-3.35,3.28-3.35,2.06,0,2.8,1.19,2.4,3ZM60.69,174l-.44.08c-1.65.31-2.51.81-2.9,2.53-.26,1.19-.13,2.15.87,2.15s1.69-1.08,2.14-3.25Z"/><path d="M65.26,176.41l-.09.47c-.22,1.16,0,2,1.06,2,.74,0,1.16-.42,1.39-1.47a3,3,0,0,0-1.07-3.21c-1.45-1.39-1.91-2.23-1.59-4a2.73,2.73,0,0,1,2.85-2.55c2.14,0,2.77,1.52,2.43,3.24l-.1.48H68.58l.09-.58c.18-1.08,0-1.77-.92-1.77-.6,0-1,.42-1.2,1.39s0,1.43,1,2.43c1.69,1.65,2.1,2.64,1.69,4.64s-1.49,2.77-3.14,2.77c-2.45,0-3-1.61-2.53-3.58l0-.22Z"/><path d="M72.58,176.41l-.09.47c-.22,1.16,0,2,1.06,2,.74,0,1.16-.42,1.39-1.47a3,3,0,0,0-1.07-3.21c-1.45-1.39-1.91-2.23-1.59-4a2.73,2.73,0,0,1,2.85-2.55c2.14,0,2.77,1.52,2.43,3.24l-.1.48H75.9l.09-.58c.18-1.08,0-1.77-.92-1.77-.6,0-1,.42-1.2,1.39s0,1.43,1,2.43c1.69,1.65,2.1,2.64,1.69,4.64s-1.49,2.77-3.14,2.77c-2.45,0-3-1.61-2.53-3.58l0-.22Z"/><path d="M80.48,174.24c-.06.28-.35,1.68-.43,2-.3,1.4-.24,2.52.93,2.52s1.36-.93,1.6-2l.07-.34h1.64l-.08.32c-.37,1.64-.89,3.42-3.39,3.42-2.77,0-2.78-2.24-2.34-4.32l.92-4.38c.4-1.91,1-3.89,3.52-3.89,2.74,0,2.84,2.13,2.44,4-.07.31-.48,2.28-.56,2.62Zm3-1.37c.05-.26.32-1.52.37-1.77.24-1.15,0-2.13-1-2.13s-1.48,1.17-1.7,2.23l-.36,1.67Z"/><path d="M87.26,167.8h1.38l.69-3.08H91l-.69,3.08H92l-.31,1.45H90l-1.81,8.31c-.17.84-.06,1.25.68,1.25a4.48,4.48,0,0,0,.87-.09L89.42,180a4.67,4.67,0,0,1-1.3.16c-1.23,0-2.08-.49-1.68-2.36l1.86-8.58H87Z"/><path d="M95.88,167.8h1.37l.7-3.08h1.63l-.68,3.08h1.67l-.31,1.45H98.59l-1.82,8.31c-.17.84-.06,1.25.69,1.25a4.45,4.45,0,0,0,.86-.09L98,180a4.65,4.65,0,0,1-1.29.16c-1.23,0-2.08-.49-1.68-2.36l1.86-8.58H95.57Z"/><path d="M107.28,171.56l-1,4.87c-.55,2.65-1.42,3.78-3.62,3.78-2,0-3.09-1.24-2.53-3.91l1.09-5.13c.43-2.07,1.3-3.56,3.53-3.56S107.79,169.08,107.28,171.56Zm-4.4-.39-1.16,5.4c-.32,1.54.18,2.23,1.1,2.23s1.36-.54,1.71-2.16l1.14-5.31c.29-1.39,0-2.31-1.1-2.31S103.16,169.86,102.88,171.17Z"/><path d="M118.8,171.56l-1,4.87c-.56,2.65-1.42,3.78-3.62,3.78-2,0-3.09-1.24-2.53-3.91l1.08-5.13c.44-2.07,1.31-3.56,3.54-3.56S119.31,169.08,118.8,171.56Zm-4.4-.39-1.16,5.4c-.32,1.54.18,2.23,1.1,2.23s1.36-.54,1.71-2.16l1.14-5.31c.29-1.39,0-2.31-1.1-2.31S114.68,169.86,114.4,171.17Z"/><path d="M126,176.72c-.34,1.58-.58,2.79-.66,3.3h-1.63c0-.22.12-.73.2-1.18a2.35,2.35,0,0,1-2.31,1.37c-.89,0-2.3-.4-1.67-3.35l1.93-9.06h1.65l-1.89,8.88c-.31,1.45-.06,2,.79,2s1.63-.59,2.12-2.94l1.69-8h1.68Z"/><path d="M129.48,172c.41-2,.69-3.33.83-4.16h1.58a15.12,15.12,0,0,1-.31,1.81,3.13,3.13,0,0,1,2.86-2l-.43,2c-1.62.07-2.63,1.1-3.07,3.24L129.42,180h-1.66Z"/><path d="M138.82,171.32c.48-2.22.6-2.93.72-3.52h1.6c0,.27-.11.76-.18,1.1a2.49,2.49,0,0,1,2.2-1.29,1.44,1.44,0,0,1,1.6,1.32,2.86,2.86,0,0,1,2.41-1.32c1.25,0,2.24.75,1.77,3l-2,9.44h-1.67l1.95-9.19c.21-1.05.17-1.8-.77-1.8s-1.55,1.12-1.83,2.38L142.8,180h-1.68L143,171c.31-1.45.07-1.92-.7-1.92-1.07,0-1.62,1.18-1.9,2.48l-1.8,8.51H137Z"/><path d="M155.52,177.49c-.15.74-.43,2.11-.49,2.53h-1.62c0-.31.1-.73.17-1.09a2.23,2.23,0,0,1-2.18,1.28c-1.79,0-2.15-1.72-1.75-3.6.56-2.67,1.94-3.46,4.78-3.92l.48-.08.39-1.83c.26-1.17,0-1.81-.91-1.81s-1.16.74-1.45,1.87l-.07.28h-1.63l0-.16c.34-1.59.8-3.35,3.29-3.35,2.05,0,2.79,1.19,2.4,3Zm-.88-3.52-.44.08c-1.64.31-2.51.81-2.9,2.53-.26,1.19-.12,2.15.88,2.15s1.68-1.08,2.13-3.25Z"/><path d="M159.19,172c.41-2,.69-3.33.83-4.16h1.58a15.12,15.12,0,0,1-.31,1.81,3.13,3.13,0,0,1,2.86-2l-.43,2c-1.62.07-2.63,1.1-3.07,3.24L159.13,180h-1.66Z"/><path d="M166.29,173.34h0c.84-1.3,2.73-4,3.76-5.54h1.81c-1.16,1.64-2.26,3.11-3.41,4.72l1.07,7.5h-1.67l-.77-6c-.15.24-1.18,1.53-1.32,1.72l-.92,4.29h-1.65l3.56-16.74h1.64Z"/><path d="M173.36,174.24c-.07.28-.36,1.68-.44,2-.29,1.4-.23,2.52.94,2.52s1.36-.93,1.6-2l.07-.34h1.64l-.08.32c-.37,1.64-.9,3.42-3.39,3.42-2.77,0-2.79-2.24-2.34-4.32l.92-4.38c.4-1.91,1-3.89,3.52-3.89,2.73,0,2.84,2.13,2.44,4-.07.31-.49,2.28-.56,2.62Zm3-1.37c.06-.26.33-1.52.38-1.77.23-1.15,0-2.13-1-2.13s-1.48,1.17-1.69,2.23l-.36,1.67Z"/><path d="M180.14,167.8h1.37l.7-3.08h1.63l-.68,3.08h1.67l-.31,1.45h-1.67L181,177.56c-.17.84-.06,1.25.69,1.25a4.45,4.45,0,0,0,.86-.09l-.29,1.31a4.65,4.65,0,0,1-1.29.16c-1.23,0-2.08-.49-1.68-2.36l1.86-8.58h-1.35Z"/><path d="M186.52,167.8h1.66L185.58,180h-1.66Zm1-4.52h1.66l-.52,2.48H187Z"/><path d="M189.94,171.52c.52-2.45.67-3.19.77-3.72h1.61c0,.26-.09.62-.2,1.13a2.71,2.71,0,0,1,2.38-1.32c1.34,0,2.21.92,1.79,2.9l-2,9.51H192.6l1.94-9.14c.25-1.18.07-1.85-.88-1.85s-1.69.8-2.14,2.92L189.8,180h-1.66Z"/><path d="M202.74,179.55c-.56,2.66-.87,4.79-3.87,4.79-2.53,0-2.9-1.62-2.64-2.94l0-.12h1.68l0,.15c-.1.57-.09,1.51,1.12,1.51s1.57-1.17,2-3l.27-1.3a2.22,2.22,0,0,1-2.09,1.29c-2.05,0-2.27-1.89-1.89-3.66l1.07-5c.35-1.62,1-3.63,3.17-3.63a1.66,1.66,0,0,1,1.83,1.3,9.29,9.29,0,0,1,.33-1.11h1.59c-.17.68-.42,1.78-.73,3.22Zm-2.7-8.37-1,5c-.27,1.25-.2,2.25.9,2.25,1.35,0,1.79-1.62,2.17-3.29l.67-3.07c.31-1.43.46-3-1-3C200.67,169,200.28,170.05,200,171.18Z"/><path d="M210,167.8h1.37l.7-3.08h1.63l-.68,3.08h1.67l-.31,1.45h-1.67l-1.82,8.31c-.17.84-.05,1.25.69,1.25a4.45,4.45,0,0,0,.86-.09L212.2,180a4.72,4.72,0,0,1-1.3.16c-1.23,0-2.08-.49-1.68-2.36l1.86-8.58h-1.35Z"/><path d="M216.34,174.24c-.07.28-.36,1.68-.44,2-.29,1.4-.23,2.52.94,2.52s1.36-.93,1.6-2l.07-.34h1.64l-.08.32c-.37,1.64-.9,3.42-3.39,3.42-2.77,0-2.79-2.24-2.34-4.32l.92-4.38c.4-1.91,1-3.89,3.52-3.89,2.73,0,2.84,2.13,2.44,4-.07.31-.48,2.28-.56,2.62Zm3-1.37c.06-.26.33-1.52.38-1.77.23-1.15,0-2.13-1-2.13s-1.47,1.17-1.69,2.23l-.36,1.67Z"/><path d="M227.68,177.49c-.15.74-.43,2.11-.49,2.53h-1.61c0-.31.1-.73.17-1.09a2.23,2.23,0,0,1-2.18,1.28c-1.8,0-2.15-1.72-1.76-3.6.57-2.67,1.95-3.46,4.78-3.92l.48-.08.39-1.83c.26-1.17,0-1.81-.9-1.81s-1.17.74-1.45,1.87l-.07.28H223.4l0-.16c.33-1.59.79-3.35,3.28-3.35,2.06,0,2.8,1.19,2.4,3Zm-.87-3.52-.44.08c-1.65.31-2.51.81-2.9,2.53-.26,1.19-.13,2.15.87,2.15s1.69-1.08,2.14-3.25Z"/><path d="M231.48,171.32c.48-2.22.6-2.93.72-3.52h1.6c0,.27-.11.76-.18,1.1a2.49,2.49,0,0,1,2.2-1.29,1.44,1.44,0,0,1,1.6,1.32,2.86,2.86,0,0,1,2.41-1.32c1.25,0,2.24.75,1.77,3l-2,9.44h-1.67l1.95-9.19c.21-1.05.17-1.8-.77-1.8s-1.55,1.12-1.83,2.38L235.46,180h-1.68L235.7,171c.31-1.45.07-1.92-.7-1.92-1.07,0-1.62,1.18-1.9,2.48L231.3,180h-1.66Z"/><path d="M241.9,180l.68-3.2h1.6l-.68,3.2Z"/><path d="M252.4,164h2.69c2.33,0,3.09,1.45,2.69,3.75l-.14.79c-.31,1.73-1.09,2.76-2.35,3,1.2.5,1.69,1.68,1.37,3.37l-.19,1c-.43,2.36-1.37,4.11-4.27,4.11H249Zm-1.46,14.62h1.39c1.57,0,2.12-1,2.47-2.86l.19-1c.26-1.41.12-2.57-1.81-2.57h-.86Zm2.58-7.85c1.65,0,2.19-.61,2.52-2.43l.12-.68c.23-1.34,0-2.24-1.54-2.24h-.88l-1.12,5.35Z"/><path d="M264,177.49c-.15.74-.43,2.11-.49,2.53h-1.62c0-.31.1-.73.17-1.09a2.23,2.23,0,0,1-2.18,1.28c-1.79,0-2.15-1.72-1.76-3.6.57-2.67,1.95-3.46,4.79-3.92l.48-.08.39-1.83c.26-1.17,0-1.81-.91-1.81s-1.17.74-1.45,1.87l-.07.28h-1.63l0-.16c.34-1.59.8-3.35,3.29-3.35,2.05,0,2.79,1.19,2.4,3Zm-.88-3.52-.44.08c-1.65.31-2.51.81-2.9,2.53-.26,1.19-.12,2.15.88,2.15s1.68-1.08,2.13-3.25Z"/><path d="M267.72,176.41l-.09.47c-.22,1.16,0,2,1.05,2,.75,0,1.16-.42,1.4-1.47a3,3,0,0,0-1.07-3.21c-1.46-1.39-1.92-2.23-1.59-4a2.73,2.73,0,0,1,2.85-2.55c2.13,0,2.77,1.52,2.43,3.24l-.1.48H271l.1-.58c.18-1.08,0-1.77-.93-1.77-.6,0-1,.42-1.19,1.39s0,1.43,1,2.43c1.7,1.65,2.1,2.64,1.69,4.64s-1.49,2.77-3.13,2.77c-2.45,0-3-1.61-2.53-3.58l0-.22Z"/><path d="M275.62,174.24c-.07.28-.36,1.68-.44,2-.29,1.4-.23,2.52.94,2.52s1.36-.93,1.6-2l.07-.34h1.63l-.07.32c-.37,1.64-.9,3.42-3.39,3.42-2.77,0-2.79-2.24-2.35-4.32l.93-4.38c.39-1.91,1-3.89,3.52-3.89,2.73,0,2.84,2.13,2.44,4-.07.31-.49,2.28-.56,2.62Zm3-1.37c.05-.26.32-1.52.38-1.77.23-1.15,0-2.13-1-2.13s-1.48,1.17-1.7,2.23l-.35,1.67Z"/><path d="M290.35,163.28l-2.89,13.59c-.31,1.46-.5,2.44-.62,3.15h-1.61a6.77,6.77,0,0,1,.15-1.13,2.4,2.4,0,0,1-2.21,1.32c-1.89,0-2.25-1.71-1.77-3.94l1.05-4.86c.42-1.92,1.14-3.8,3.2-3.8a1.8,1.8,0,0,1,1.88,1.09l1.14-5.42Zm-6.23,8.16-1.05,4.92c-.26,1.21-.25,2.37.89,2.37s1.73-1.33,2.12-3.14l.84-3.89c.35-1.63.25-2.67-1-2.67C285,169,284.44,169.92,284.12,171.44Z"/><path d="M300.43,171.56l-1,4.87c-.55,2.65-1.41,3.78-3.61,3.78-2,0-3.1-1.24-2.53-3.91l1.08-5.13c.44-2.07,1.31-3.56,3.54-3.56S300.94,169.08,300.43,171.56Zm-4.41-.39-1.15,5.4c-.32,1.54.17,2.23,1.09,2.23s1.36-.54,1.71-2.16l1.14-5.31c.3-1.39.05-2.31-1.09-2.31S296.31,169.86,296,171.17Z"/><path d="M302.64,171.52c.52-2.45.67-3.19.77-3.72H305c0,.26-.09.62-.2,1.13a2.71,2.71,0,0,1,2.38-1.32c1.34,0,2.21.92,1.79,2.9L307,180H305.3l1.94-9.14c.25-1.18.07-1.85-.88-1.85s-1.69.8-2.14,2.92L302.5,180h-1.66Z"/><path d="M320.58,171.56l-1,4.87c-.55,2.65-1.41,3.78-3.61,3.78-2,0-3.1-1.24-2.53-3.91l1.08-5.13c.44-2.07,1.3-3.56,3.54-3.56S321.1,169.08,320.58,171.56Zm-4.4-.39-1.15,5.4c-.32,1.54.17,2.23,1.09,2.23s1.36-.54,1.71-2.16l1.14-5.31c.3-1.39,0-2.31-1.09-2.31S316.47,169.86,316.18,171.17Z"/><path d="M327.74,176.72c-.35,1.58-.59,2.79-.67,3.3h-1.62c0-.22.11-.73.19-1.18a2.34,2.34,0,0,1-2.31,1.37c-.89,0-2.29-.4-1.66-3.35l1.92-9.06h1.66l-1.9,8.88c-.3,1.45-.06,2,.8,2s1.62-.59,2.12-2.94l1.68-8h1.68Z"/><path d="M331.26,172c.42-2,.69-3.33.84-4.16h1.58a17.81,17.81,0,0,1-.31,1.81,3.13,3.13,0,0,1,2.85-2l-.43,2c-1.62.07-2.62,1.1-3.07,3.24L331.2,180h-1.65Z"/><path d="M341.33,174.24c-.07.28-.36,1.68-.44,2-.3,1.4-.23,2.52.94,2.52s1.36-.93,1.59-2l.08-.34h1.63l-.07.32c-.37,1.64-.9,3.42-3.4,3.42-2.76,0-2.78-2.24-2.34-4.32l.93-4.38c.39-1.91,1-3.89,3.52-3.89,2.73,0,2.84,2.13,2.44,4-.07.31-.49,2.28-.57,2.62Zm3-1.37c.05-.26.32-1.52.38-1.77.23-1.15,0-2.13-1-2.13s-1.48,1.17-1.7,2.23l-.36,1.67Z"/><path d="M349.87,167.8c.33,1.87.69,3.91.75,4.44h0c.44-.83,1.29-2.45,2.37-4.44h1.75l-3.56,5.9,1.23,6.32h-1.65c-.36-2.06-.71-4.11-.8-4.76h0c-.38.67-1.35,2.46-2.63,4.76h-1.73l3.78-6.35-1.17-5.87Z"/><path d="M355.59,179l-1.09,5.1h-1.65l2.73-12.81c.36-1.67.59-2.77.72-3.53h1.61a11.2,11.2,0,0,1-.2,1.16,2.51,2.51,0,0,1,2.25-1.35c1.9,0,2.19,1.78,1.73,3.94l-1,4.62c-.54,2.5-1.39,4-3.32,4A1.67,1.67,0,0,1,355.59,179Zm3.42-2.78,1-4.68c.29-1.37.33-2.54-.82-2.54s-1.78,1.41-2.15,3.15l-.75,3.55c-.33,1.54-.47,3,.94,3C358.28,178.73,358.73,177.61,359,176.26Z"/><path d="M364.77,174.24c-.06.28-.35,1.68-.43,2-.3,1.4-.24,2.52.93,2.52s1.36-.93,1.6-2l.07-.34h1.64l-.07.32c-.37,1.64-.9,3.42-3.4,3.42-2.77,0-2.78-2.24-2.34-4.32l.93-4.38c.39-1.91,1-3.89,3.51-3.89,2.74,0,2.84,2.13,2.44,4-.06.31-.48,2.28-.56,2.62Zm3-1.37c.05-.26.32-1.52.37-1.77.24-1.15.05-2.13-1-2.13s-1.48,1.17-1.7,2.23l-.36,1.67Z"/><path d="M371.77,172c.42-2,.69-3.33.84-4.16h1.58a17.81,17.81,0,0,1-.31,1.81,3.13,3.13,0,0,1,2.85-2l-.43,2c-1.62.07-2.62,1.1-3.07,3.24L371.71,180h-1.65Z"/><path d="M378.44,167.8h1.66L377.5,180h-1.66Zm1-4.52h1.66l-.52,2.48h-1.66Z"/><path d="M382.63,174.24c-.07.28-.36,1.68-.44,2-.29,1.4-.23,2.52.94,2.52s1.36-.93,1.6-2l.07-.34h1.64l-.08.32c-.37,1.64-.9,3.42-3.39,3.42-2.77,0-2.79-2.24-2.34-4.32l.92-4.38c.4-1.91,1-3.89,3.52-3.89,2.73,0,2.84,2.13,2.44,4-.07.31-.48,2.28-.56,2.62Zm3-1.37c.06-.26.33-1.52.38-1.77.23-1.15,0-2.13-1-2.13s-1.47,1.17-1.69,2.23l-.36,1.67Z"/><path d="M389.71,171.52c.52-2.45.67-3.19.77-3.72h1.61c0,.26-.09.62-.2,1.13a2.7,2.7,0,0,1,2.38-1.32c1.34,0,2.21.92,1.79,2.9L394,180h-1.66l1.94-9.14c.25-1.18.07-1.85-.88-1.85s-1.69.8-2.14,2.92L389.57,180h-1.66Z"/><path d="M402.86,176.4l-.08.32c-.35,1.64-.91,3.49-3.39,3.49-2.71,0-2.72-2.14-2.32-4l1-4.86c.41-2,1.07-3.74,3.37-3.74,2.61,0,2.78,1.92,2.46,3.53l-.12.61h-1.62l.13-.69c.25-1.26.12-2.05-.94-2.05-.9,0-1.25.8-1.58,2.27l-1.13,5.3c-.29,1.34-.18,2.22.9,2.22s1.23-.77,1.53-2l.11-.43Z"/><path d="M406.82,174.24c-.07.28-.36,1.68-.43,2-.3,1.4-.24,2.52.93,2.52s1.36-.93,1.6-2l.07-.34h1.64l-.08.32c-.37,1.64-.9,3.42-3.39,3.42-2.77,0-2.79-2.24-2.34-4.32l.92-4.38c.4-1.91,1-3.89,3.52-3.89,2.74,0,2.84,2.13,2.44,4-.07.31-.48,2.28-.56,2.62Zm3-1.37c.05-.26.32-1.52.37-1.77.24-1.15,0-2.13-1-2.13s-1.48,1.17-1.7,2.23l-.36,1.67Z"/><path d="M410.52,182.26a15.24,15.24,0,0,0,2.46-5.55h1.57a12.26,12.26,0,0,1-2.67,5.55Z"/><path d="M424.38,164,421,180h-1.65l3.4-16Z"/><path d="M433.29,176.4l-.08.32c-.35,1.64-.91,3.49-3.39,3.49-2.71,0-2.72-2.14-2.32-4l1-4.86c.41-2,1.07-3.74,3.37-3.74,2.61,0,2.78,1.92,2.46,3.53l-.12.61h-1.62l.13-.69c.25-1.26.12-2.05-.94-2.05-.9,0-1.25.8-1.58,2.27l-1.13,5.3c-.29,1.34-.18,2.22.9,2.22s1.23-.77,1.53-2l.11-.43Z"/><path d="M442.35,171.56l-1,4.87c-.55,2.65-1.41,3.78-3.61,3.78-2,0-3.1-1.24-2.53-3.91l1.08-5.13c.44-2.07,1.3-3.56,3.54-3.56S442.87,169.08,442.35,171.56Zm-4.4-.39-1.15,5.4c-.32,1.54.17,2.23,1.09,2.23s1.36-.54,1.71-2.16l1.14-5.31c.3-1.39.05-2.31-1.1-2.31S438.24,169.86,438,171.17Z"/><path d="M444.57,171.52c.52-2.45.67-3.19.77-3.72H447c0,.26-.09.62-.2,1.13a2.7,2.7,0,0,1,2.38-1.32c1.34,0,2.21.92,1.79,2.9l-2,9.51h-1.66l1.94-9.14c.25-1.18.07-1.85-.88-1.85s-1.69.8-2.14,2.92L444.43,180h-1.66Z"/><path d="M451.59,180l2.29-10.77h-1.32l.31-1.45h1.32l.38-1.81c.32-1.48.86-2.82,2.69-2.82a4,4,0,0,1,1,.13l-.32,1.45a2.21,2.21,0,0,0-.57-.06c-.7,0-1,.5-1.15,1.45l-.35,1.66h1.54l-.31,1.45h-1.54L453.26,180Z"/><path d="M458.93,167.8h1.66L458,180h-1.66Zm1-4.52h1.65l-.52,2.48h-1.66Z"/><path d="M470,163.28l-2.88,13.59c-.32,1.46-.5,2.44-.62,3.15h-1.62a9.88,9.88,0,0,1,.15-1.13,2.39,2.39,0,0,1-2.2,1.32c-1.9,0-2.25-1.71-1.77-3.94l1-4.86c.42-1.92,1.14-3.8,3.2-3.8a1.79,1.79,0,0,1,1.88,1.09l1.14-5.42Zm-6.23,8.16-1,4.92c-.26,1.21-.26,2.37.88,2.37s1.74-1.33,2.13-3.14l.84-3.89c.35-1.63.25-2.67-1-2.67C464.6,169,464.09,169.92,463.77,171.44Z"/><path d="M471.54,174.24c-.06.28-.35,1.68-.43,2-.3,1.4-.24,2.52.93,2.52s1.37-.93,1.6-2l.07-.34h1.64l-.07.32c-.37,1.64-.9,3.42-3.4,3.42-2.76,0-2.78-2.24-2.34-4.32l.93-4.38c.39-1.91,1-3.89,3.51-3.89,2.74,0,2.84,2.13,2.44,4-.06.31-.48,2.28-.56,2.62Zm3-1.37c.05-.26.32-1.52.37-1.77.24-1.15.05-2.13-1-2.13s-1.48,1.17-1.7,2.23l-.36,1.67Z"/><path d="M478.63,171.52c.51-2.45.66-3.19.76-3.72H481a9.47,9.47,0,0,1-.2,1.13,2.72,2.72,0,0,1,2.38-1.32c1.34,0,2.22.92,1.79,2.9L483,180h-1.66l1.93-9.14c.26-1.18.07-1.85-.88-1.85s-1.69.8-2.13,2.92L478.48,180h-1.65Z"/><path d="M486.91,167.8h1.38l.69-3.08h1.64l-.69,3.08h1.67l-.31,1.45h-1.66l-1.82,8.31c-.17.84-.06,1.25.69,1.25a4.45,4.45,0,0,0,.86-.09l-.29,1.31a4.67,4.67,0,0,1-1.3.16c-1.22,0-2.08-.49-1.68-2.36l1.87-8.58H486.6Z"/><path d="M490.7,180l3.55-16.74h1.66L492.36,180Z"/><path d="M498.26,167.8c-.07,3.66-.21,8.93-.36,10.25h0c.71-2.22,2.65-7.21,3.85-10.25h1.7l-5.31,12.89c-1.43,3.43-2.28,3.62-3.62,3.62a4.91,4.91,0,0,1-1.08-.13l.35-1.5a3.41,3.41,0,0,0,.75.08c.84,0,1.21-.42,2-2.37l.06-12.59Z"/><path d="M57.17,200.76c.41-2,.69-3.33.83-4.16h1.58a15.12,15.12,0,0,1-.31,1.81,3.13,3.13,0,0,1,2.86-2l-.43,1.95c-1.62.07-2.62,1.1-3.07,3.24l-1.52,7.19H55.45Z"/><path d="M63.78,203c-.07.28-.36,1.68-.44,2.05-.29,1.4-.23,2.52.94,2.52s1.36-.93,1.6-2l.07-.34h1.64l-.08.32c-.37,1.63-.9,3.42-3.39,3.42-2.77,0-2.79-2.24-2.34-4.32l.92-4.38c.4-1.91,1-3.89,3.52-3.89,2.73,0,2.84,2.13,2.44,4-.07.31-.49,2.28-.56,2.62Zm3-1.37c0-.26.33-1.52.38-1.77.23-1.15,0-2.13-1-2.13s-1.48,1.17-1.69,2.23l-.36,1.67Z"/><path d="M75.37,205.2l-.08.32c-.35,1.64-.91,3.49-3.39,3.49-2.71,0-2.72-2.14-2.32-4l1-4.86c.41-2,1.07-3.74,3.37-3.74,2.61,0,2.78,1.92,2.46,3.53l-.12.61H74.7l.13-.69c.25-1.26.12-2.05-.94-2.05-.9,0-1.25.8-1.58,2.27l-1.13,5.3c-.29,1.33-.18,2.22.9,2.22s1.23-.77,1.53-2l.11-.43Z"/><path d="M84.43,200.36l-1,4.87C82.86,207.88,82,209,79.8,209c-2,0-3.1-1.24-2.53-3.91L78.35,200c.44-2.07,1.3-3.56,3.54-3.56S85,197.88,84.43,200.36ZM80,200l-1.15,5.4c-.32,1.54.17,2.23,1.09,2.23s1.36-.54,1.71-2.16l1.14-5.31c.3-1.4.05-2.31-1.1-2.31S80.32,198.66,80,200Z"/><path d="M86.7,200.12c.47-2.22.6-2.93.72-3.52H89c0,.27-.11.76-.18,1.1A2.5,2.5,0,0,1,91,196.41a1.43,1.43,0,0,1,1.59,1.32,2.88,2.88,0,0,1,2.42-1.32c1.24,0,2.23.75,1.76,3l-2,9.44H93.14l2-9.19c.2-1,.16-1.8-.77-1.8s-1.56,1.12-1.84,2.38l-1.82,8.61H89l1.92-9.07c.32-1.45.07-1.92-.7-1.92-1.06,0-1.61,1.18-1.89,2.48l-1.81,8.51H84.85Z"/><path d="M99.18,200.12c.47-2.22.6-2.93.72-3.52h1.59c0,.27-.11.76-.18,1.1a2.5,2.5,0,0,1,2.21-1.29,1.43,1.43,0,0,1,1.59,1.32,2.87,2.87,0,0,1,2.42-1.32c1.24,0,2.23.75,1.76,3l-2,9.44h-1.67l2-9.19c.2-1,.16-1.8-.78-1.8s-1.55,1.12-1.83,2.38l-1.82,8.61h-1.68l1.92-9.07c.32-1.45.07-1.92-.7-1.92-1.06,0-1.61,1.18-1.89,2.48L99,208.82H97.33Z"/><path d="M112.38,203c-.07.28-.36,1.68-.44,2.05-.3,1.4-.23,2.52.93,2.52s1.37-.93,1.6-2l.08-.34h1.63l-.07.32c-.37,1.63-.9,3.42-3.4,3.42-2.76,0-2.78-2.24-2.34-4.32l.93-4.38c.39-1.91,1-3.89,3.51-3.89,2.74,0,2.85,2.13,2.44,4-.06.31-.48,2.28-.56,2.62Zm3-1.37c.05-.26.32-1.52.37-1.77.24-1.15,0-2.13-1-2.13s-1.48,1.17-1.7,2.23l-.36,1.67Z"/><path d="M119.46,200.32c.51-2.45.67-3.19.76-3.72h1.61a11.36,11.36,0,0,1-.19,1.13,2.7,2.7,0,0,1,2.38-1.32c1.34,0,2.21.92,1.78,2.9l-2,9.51h-1.66l1.93-9.14c.26-1.18.08-1.85-.88-1.85s-1.69.8-2.13,2.92l-1.72,8.07h-1.66Z"/><path d="M135.74,192.08l-2.88,13.59c-.32,1.46-.5,2.44-.62,3.15h-1.61a6.77,6.77,0,0,1,.15-1.13,2.4,2.4,0,0,1-2.21,1.32c-1.89,0-2.25-1.72-1.77-3.95l1-4.85c.41-1.92,1.14-3.8,3.2-3.8a1.81,1.81,0,0,1,1.88,1.09l1.13-5.42Zm-6.23,8.16-1,4.92c-.26,1.21-.26,2.37.89,2.37s1.73-1.33,2.12-3.14l.84-3.89c.35-1.63.25-2.67-1-2.67C130.34,197.83,129.83,198.72,129.51,200.24Z"/><path d="M140.92,203.67l-1.84,5.15h-1.73c1-2.78,4.74-12.93,5.92-16h2.47l-.78,16h-1.67l.29-5.15Zm2.75-1.54c.19-3.12.34-6.31.48-7.81h-.07c-.3,1.19-1.57,4.82-2.62,7.81Z"/><path d="M153,206.29c-.15.74-.43,2.11-.49,2.53h-1.61c0-.31.1-.73.17-1.09a2.23,2.23,0,0,1-2.18,1.28c-1.8,0-2.15-1.72-1.76-3.6.57-2.67,2-3.46,4.78-3.92l.48-.08.39-1.83c.26-1.17,0-1.81-.9-1.81s-1.17.74-1.45,1.87l-.07.28h-1.64l0-.16c.34-1.59.8-3.35,3.29-3.35,2,0,2.79,1.19,2.4,3Zm-.87-3.52-.44.08c-1.65.31-2.51.81-2.9,2.53-.26,1.19-.13,2.15.87,2.15s1.69-1.08,2.14-3.25Z"/><path d="M156.64,200.76c.42-2,.7-3.33.84-4.16h1.58a15.12,15.12,0,0,1-.31,1.81,3.13,3.13,0,0,1,2.86-2l-.44,1.95c-1.62.07-2.62,1.1-3.07,3.24l-1.51,7.19h-1.66Z"/><path d="M168.36,200.36l-1,4.87c-.56,2.65-1.42,3.78-3.62,3.78-2,0-3.09-1.24-2.53-3.91l1.08-5.13c.44-2.07,1.31-3.56,3.54-3.56S168.87,197.88,168.36,200.36ZM164,200l-1.16,5.4c-.32,1.54.17,2.23,1.1,2.23s1.36-.54,1.71-2.16l1.14-5.31c.29-1.4,0-2.31-1.1-2.31S164.24,198.66,164,200Z"/><path d="M170.58,200.32c.51-2.45.67-3.19.76-3.72H173a11.36,11.36,0,0,1-.19,1.13,2.7,2.7,0,0,1,2.38-1.32c1.34,0,2.21.92,1.78,2.9l-2,9.51h-1.66l1.93-9.14c.26-1.18.08-1.85-.88-1.85s-1.69.8-2.13,2.92l-1.72,8.07h-1.66Z"/><path d="M181.07,208.82l2.29-10.77H182l.31-1.45h1.32l.39-1.81c.32-1.48.85-2.82,2.69-2.82a3.94,3.94,0,0,1,1,.13l-.32,1.45a2.16,2.16,0,0,0-.57-.06c-.7,0-1,.49-1.15,1.45l-.35,1.66h1.54l-.31,1.45H185l-2.29,10.77Z"/><path d="M193.49,200.36l-1,4.87c-.55,2.65-1.41,3.78-3.61,3.78-2,0-3.1-1.24-2.53-3.91L187.4,200c.44-2.07,1.31-3.56,3.54-3.56S194,197.88,193.49,200.36Zm-4.41-.39-1.15,5.4c-.32,1.54.17,2.23,1.09,2.23s1.36-.54,1.71-2.16l1.14-5.31c.3-1.4,0-2.31-1.09-2.31S189.37,198.66,189.08,200Z"/><path d="M195.62,200.76c.42-2,.69-3.33.83-4.16H198a15.12,15.12,0,0,1-.31,1.81,3.13,3.13,0,0,1,2.86-2l-.43,1.95c-1.62.07-2.62,1.1-3.07,3.24l-1.52,7.19H193.9Z"/><path d="M209.42,205.2l-.07.32c-.35,1.64-.91,3.49-3.39,3.49-2.71,0-2.72-2.14-2.33-4l1-4.86c.41-2,1.07-3.74,3.37-3.74,2.61,0,2.77,1.92,2.46,3.53l-.12.61h-1.62l.12-.69c.25-1.26.13-2.05-.93-2.05-.91,0-1.26.8-1.58,2.27l-1.13,5.3c-.29,1.33-.19,2.22.9,2.22s1.23-.77,1.53-2l.1-.43Z"/><path d="M218.49,200.36l-1,4.87c-.55,2.65-1.42,3.78-3.61,3.78-2,0-3.1-1.24-2.54-3.91l1.09-5.13c.44-2.07,1.3-3.56,3.53-3.56S219,197.88,218.49,200.36Zm-4.4-.39-1.15,5.4c-.33,1.54.17,2.23,1.09,2.23s1.36-.54,1.71-2.16l1.14-5.31c.3-1.4.05-2.31-1.1-2.31S214.37,198.66,214.09,200Z"/><path d="M220.71,200.32c.51-2.45.67-3.19.76-3.72h1.61a11.36,11.36,0,0,1-.19,1.13,2.7,2.7,0,0,1,2.38-1.32c1.34,0,2.21.92,1.79,2.9l-2,9.51h-1.66l1.94-9.14c.25-1.18.07-1.85-.88-1.85s-1.7.8-2.14,2.92l-1.72,8.07h-1.66Z"/><path d="M229,196.6h1.37l.7-3.08h1.63L232,196.6h1.67l-.31,1.45h-1.67l-1.82,8.31c-.17.84-.06,1.25.69,1.25a4.45,4.45,0,0,0,.86-.09l-.28,1.31a4.77,4.77,0,0,1-1.3.16c-1.23,0-2.08-.49-1.68-2.36l1.86-8.58h-1.35Z"/><path d="M235.3,203c-.07.28-.36,1.68-.44,2.05-.29,1.4-.23,2.52.94,2.52s1.36-.93,1.6-2l.07-.34h1.64l-.08.32c-.37,1.63-.9,3.42-3.39,3.42-2.77,0-2.79-2.24-2.35-4.32l.93-4.38c.4-1.91,1-3.89,3.52-3.89,2.73,0,2.84,2.13,2.44,4-.07.31-.49,2.28-.56,2.62Zm3-1.37c0-.26.33-1.52.38-1.77.23-1.15,0-2.13-1-2.13s-1.48,1.17-1.69,2.23l-.36,1.67Z"/><path d="M242.38,200.32c.51-2.45.67-3.19.77-3.72h1.61c0,.26-.09.62-.2,1.13a2.7,2.7,0,0,1,2.38-1.32c1.34,0,2.21.92,1.79,2.9l-2,9.51H245l1.94-9.14c.25-1.18.07-1.85-.88-1.85s-1.7.8-2.14,2.92l-1.72,8.07h-1.66Z"/><path d="M250.67,196.6H252l.7-3.08h1.63l-.68,3.08h1.67l-.31,1.45h-1.67l-1.82,8.31c-.17.84-.05,1.25.69,1.25a4.45,4.45,0,0,0,.86-.09l-.28,1.31a4.72,4.72,0,0,1-1.3.16c-1.23,0-2.08-.49-1.68-2.36l1.86-8.58h-1.35Z"/><path d="M261.25,196.6c-.43,6-.6,8.61-.78,9.88h0c.45-1.45,1.23-3.46,3.72-9.88h1.58c-.31,6-.41,8.36-.59,9.83h0c.37-1.28.89-2.79,3.41-9.83h1.67l-4.78,12.22h-1.66c.23-4,.34-7.52.54-9.6h0c-.44,1.49-1.88,5.09-3.63,9.6h-1.68l.52-12.22Z"/><path d="M271.19,200.76c.42-2,.69-3.33.84-4.16h1.58c0,.23-.09.74-.32,1.81a3.14,3.14,0,0,1,2.86-2l-.43,1.95c-1.62.07-2.62,1.1-3.07,3.24l-1.52,7.19h-1.66Z"/><path d="M277.86,196.6h1.66l-2.6,12.22h-1.66Zm1-4.52h1.66l-.52,2.48H278.3Z"/><path d="M281.05,196.6h1.37l.7-3.08h1.63l-.68,3.08h1.67l-.31,1.45h-1.67L282,206.36c-.18.84-.06,1.25.68,1.25a4.56,4.56,0,0,0,.87-.09l-.29,1.31a4.72,4.72,0,0,1-1.3.16c-1.23,0-2.08-.49-1.68-2.36l1.86-8.58h-1.35Z"/><path d="M287.43,196.6h1.66l-2.6,12.22h-1.66Zm1-4.52h1.66l-.53,2.48h-1.66Z"/><path d="M290.86,200.32c.51-2.45.67-3.19.76-3.72h1.61a11.36,11.36,0,0,1-.19,1.13,2.7,2.7,0,0,1,2.38-1.32c1.34,0,2.21.92,1.78,2.9l-2,9.51h-1.66l1.93-9.14c.26-1.18.08-1.85-.88-1.85s-1.69.8-2.13,2.92l-1.72,8.07h-1.66Z"/><path d="M303.65,208.35c-.56,2.66-.86,4.79-3.87,4.79-2.53,0-2.9-1.62-2.64-2.94l0-.12h1.68l0,.15c-.09.57-.09,1.51,1.13,1.51s1.56-1.17,2-3l.28-1.3a2.23,2.23,0,0,1-2.1,1.29c-2,0-2.26-1.9-1.88-3.66l1.07-5c.34-1.62,1-3.63,3.16-3.63a1.68,1.68,0,0,1,1.84,1.3,9.57,9.57,0,0,1,.32-1.11h1.59c-.17.68-.42,1.78-.72,3.22ZM301,200l-1.05,5c-.27,1.26-.19,2.26.91,2.26,1.34,0,1.79-1.62,2.16-3.29l.68-3.07c.31-1.44.45-3-1-3C301.59,197.83,301.2,198.85,301,200Z"/><path d="M315.61,206.29c-.15.74-.43,2.11-.49,2.53h-1.61c0-.31.1-.73.17-1.09A2.23,2.23,0,0,1,311.5,209c-1.8,0-2.15-1.72-1.76-3.6.57-2.67,1.95-3.46,4.78-3.92l.48-.08.39-1.83c.26-1.17,0-1.81-.9-1.81s-1.17.74-1.45,1.87l-.07.28h-1.64l0-.16c.34-1.59.8-3.35,3.29-3.35,2,0,2.79,1.19,2.39,3Zm-.87-3.52-.44.08c-1.65.31-2.51.81-2.9,2.53-.26,1.19-.13,2.15.87,2.15s1.69-1.08,2.14-3.25Z"/><path d="M319.37,200.32c.51-2.45.67-3.19.76-3.72h1.61a11.36,11.36,0,0,1-.19,1.13,2.7,2.7,0,0,1,2.38-1.32c1.34,0,2.21.92,1.78,2.9l-2,9.51H322l1.93-9.14c.26-1.18.08-1.85-.88-1.85s-1.69.8-2.13,2.92l-1.72,8.07h-1.66Z"/><path d="M335.65,192.08l-2.88,13.59c-.32,1.46-.5,2.44-.62,3.15h-1.61a6.77,6.77,0,0,1,.15-1.13,2.4,2.4,0,0,1-2.21,1.32c-1.89,0-2.25-1.72-1.77-3.95l1.05-4.85c.41-1.92,1.14-3.8,3.2-3.8a1.81,1.81,0,0,1,1.88,1.09l1.13-5.42Zm-6.23,8.16-1,4.92c-.26,1.21-.26,2.37.89,2.37s1.73-1.33,2.12-3.14l.84-3.89c.35-1.63.25-2.67-1-2.67C330.25,197.83,329.75,198.72,329.42,200.24Z"/><path d="M339.89,207.84l-1.08,5.1h-1.66l2.73-12.81c.36-1.67.59-2.77.72-3.53h1.61a10.36,10.36,0,0,1-.19,1.16,2.49,2.49,0,0,1,2.24-1.35c1.9,0,2.2,1.78,1.73,3.94L345,205c-.53,2.49-1.39,4-3.32,4A1.67,1.67,0,0,1,339.89,207.84Zm3.42-2.78,1-4.68c.29-1.37.33-2.54-.82-2.54s-1.78,1.41-2.15,3.14l-.75,3.56c-.33,1.54-.47,3,.94,3C342.58,207.53,343,206.41,343.31,205.06Z"/><path d="M348.22,200.76c.42-2,.7-3.33.84-4.16h1.58a15.12,15.12,0,0,1-.31,1.81,3.13,3.13,0,0,1,2.86-2l-.44,1.95c-1.62.07-2.62,1.1-3.07,3.24l-1.51,7.19h-1.66Z"/><path d="M359.94,200.36l-1,4.87c-.55,2.65-1.42,3.78-3.62,3.78-2,0-3.09-1.24-2.53-3.91l1.09-5.13c.43-2.07,1.3-3.56,3.53-3.56S360.46,197.88,359.94,200.36Zm-4.4-.39-1.16,5.4c-.32,1.54.18,2.23,1.1,2.23s1.36-.54,1.71-2.16l1.14-5.31c.3-1.4.05-2.31-1.1-2.31S355.82,198.66,355.54,200Z"/><path d="M364.73,196.6l-2.83,13.31c-.37,1.76-.7,3.18-2.66,3.18a5.08,5.08,0,0,1-1.13-.12l.32-1.48c.17,0,.47.06.65.06.62,0,.83-.19,1.09-1.37l2.9-13.58Zm-1.19-2,.53-2.48h1.66l-.54,2.48Z"/><path d="M367.27,203c-.07.28-.36,1.68-.44,2.05-.29,1.4-.23,2.52.94,2.52s1.36-.93,1.6-2l.07-.34h1.63l-.07.32c-.37,1.63-.9,3.42-3.4,3.42-2.76,0-2.78-2.24-2.34-4.32l.93-4.38c.39-1.91,1-3.89,3.52-3.89,2.73,0,2.84,2.13,2.44,4-.07.31-.49,2.28-.57,2.62Zm3-1.37c.05-.26.32-1.52.38-1.77.23-1.15,0-2.13-1-2.13s-1.48,1.17-1.7,2.23l-.36,1.67Z"/><path d="M378.85,205.2l-.07.32c-.35,1.64-.91,3.49-3.39,3.49-2.71,0-2.72-2.14-2.33-4l1-4.86c.41-2,1.07-3.74,3.37-3.74,2.61,0,2.77,1.92,2.46,3.53l-.12.61h-1.62l.13-.69c.24-1.26.12-2.05-.94-2.05-.9,0-1.26.8-1.58,2.27l-1.13,5.3c-.29,1.33-.19,2.22.9,2.22s1.23-.77,1.53-2l.1-.43Z"/><path d="M381.63,196.6H383l.7-3.08h1.63l-.68,3.08h1.67l-.31,1.45h-1.67l-1.81,8.31c-.18.84-.06,1.25.68,1.25a4.37,4.37,0,0,0,.86-.09l-.28,1.31a4.72,4.72,0,0,1-1.3.16c-1.23,0-2.08-.49-1.68-2.36l1.86-8.58h-1.35Z"/><path d="M390.64,200.12c.48-2.22.6-2.93.72-3.52H393c0,.27-.11.76-.18,1.1a2.49,2.49,0,0,1,2.2-1.29,1.44,1.44,0,0,1,1.6,1.32,2.86,2.86,0,0,1,2.41-1.32c1.25,0,2.24.75,1.77,3l-2,9.44h-1.67l2-9.19c.21-1,.17-1.8-.77-1.8s-1.55,1.12-1.83,2.38l-1.82,8.61h-1.68l1.91-9.07c.32-1.45.07-1.92-.69-1.92-1.07,0-1.62,1.18-1.9,2.48l-1.8,8.51H388.8Z"/><path d="M407.34,206.29c-.15.74-.43,2.11-.49,2.53h-1.62c0-.31.1-.73.17-1.09a2.23,2.23,0,0,1-2.18,1.28c-1.79,0-2.15-1.72-1.76-3.6.57-2.67,2-3.46,4.79-3.92l.48-.08.39-1.83c.26-1.17,0-1.81-.91-1.81s-1.17.74-1.45,1.87l-.07.28h-1.63l0-.16c.34-1.59.8-3.35,3.29-3.35,2.05,0,2.79,1.19,2.4,3Zm-.88-3.52-.44.08c-1.64.31-2.51.81-2.9,2.53-.26,1.19-.12,2.15.88,2.15s1.68-1.08,2.13-3.25Z"/><path d="M411.09,200.32c.52-2.45.67-3.19.77-3.72h1.61c0,.26-.09.62-.2,1.13a2.7,2.7,0,0,1,2.38-1.32c1.34,0,2.21.92,1.79,2.9l-2,9.51h-1.66l1.94-9.14c.25-1.18.07-1.85-.88-1.85s-1.69.8-2.14,2.92L411,208.82h-1.66Z"/><path d="M424,206.29c-.15.74-.43,2.11-.49,2.53h-1.61c0-.31.1-.73.17-1.09a2.23,2.23,0,0,1-2.18,1.28c-1.8,0-2.16-1.72-1.76-3.6.57-2.67,1.95-3.46,4.78-3.92l.48-.08.39-1.83c.26-1.17,0-1.81-.9-1.81s-1.17.74-1.45,1.87l-.07.28h-1.64l0-.16c.33-1.59.79-3.35,3.28-3.35,2.06,0,2.8,1.19,2.4,3Zm-.87-3.52-.44.08c-1.65.31-2.51.81-2.9,2.53-.26,1.19-.13,2.15.87,2.15s1.68-1.08,2.14-3.25Z"/><path d="M431.9,208.35c-.56,2.66-.86,4.79-3.87,4.79-2.53,0-2.9-1.62-2.64-2.94l0-.12h1.69l0,.15c-.1.57-.09,1.51,1.12,1.51s1.57-1.17,2-3l.27-1.3a2.22,2.22,0,0,1-2.09,1.29c-2,0-2.27-1.9-1.88-3.66l1.06-5c.35-1.62,1-3.63,3.17-3.63a1.66,1.66,0,0,1,1.83,1.3,9.29,9.29,0,0,1,.33-1.11h1.59c-.17.68-.42,1.78-.72,3.22ZM429.2,200l-1.05,5c-.27,1.26-.2,2.26.9,2.26,1.35,0,1.8-1.62,2.17-3.29l.67-3.07c.31-1.44.46-3-1-3C429.83,197.83,429.44,198.85,429.2,200Z"/><path d="M436.89,203c-.07.28-.36,1.68-.44,2.05-.3,1.4-.23,2.52.93,2.52s1.37-.93,1.6-2l.08-.34h1.63l-.07.32c-.37,1.63-.9,3.42-3.4,3.42-2.76,0-2.78-2.24-2.34-4.32l.93-4.38c.39-1.91,1-3.89,3.52-3.89,2.73,0,2.84,2.13,2.43,4-.06.31-.48,2.28-.56,2.62Zm3-1.37c.05-.26.32-1.52.38-1.77.23-1.15,0-2.13-1-2.13s-1.48,1.17-1.7,2.23l-.36,1.67Z"/><path d="M444,200.12c.47-2.22.59-2.93.71-3.52h1.6c0,.27-.11.76-.18,1.1a2.49,2.49,0,0,1,2.2-1.29,1.44,1.44,0,0,1,1.6,1.32,2.86,2.86,0,0,1,2.41-1.32c1.25,0,2.24.75,1.77,3l-2,9.44h-1.67l2-9.19c.2-1,.16-1.8-.78-1.8s-1.55,1.12-1.83,2.38L448,208.82h-1.68l1.92-9.07c.32-1.45.07-1.92-.7-1.92-1.07,0-1.61,1.18-1.89,2.48l-1.81,8.51h-1.66Z"/><path d="M457.21,203c-.06.28-.35,1.68-.43,2.05-.3,1.4-.24,2.52.93,2.52s1.37-.93,1.6-2l.07-.34H461l-.07.32c-.37,1.63-.9,3.42-3.4,3.42-2.76,0-2.78-2.24-2.34-4.32l.93-4.38c.39-1.91,1-3.89,3.51-3.89,2.74,0,2.84,2.13,2.44,4-.06.31-.48,2.28-.56,2.62Zm3-1.37c0-.26.32-1.52.37-1.77.24-1.15.05-2.13-1-2.13s-1.48,1.17-1.7,2.23l-.36,1.67Z"/><path d="M464.3,200.32c.51-2.45.67-3.19.76-3.72h1.61a11.36,11.36,0,0,1-.19,1.13,2.7,2.7,0,0,1,2.38-1.32c1.34,0,2.21.92,1.78,2.9l-2,9.51H467l1.93-9.14c.26-1.18.07-1.85-.88-1.85s-1.69.8-2.13,2.92l-1.72,8.07H462.5Z"/><path d="M472.58,196.6H474l.69-3.08h1.64l-.68,3.08h1.67l-.32,1.45H475.3l-1.82,8.31c-.17.84-.06,1.25.69,1.25a4.45,4.45,0,0,0,.86-.09l-.29,1.31a4.65,4.65,0,0,1-1.29.16c-1.23,0-2.09-.49-1.68-2.36l1.86-8.58h-1.36Z"/><path d="M476.56,208.82l.68-3.2h1.6l-.68,3.2Z"/></svg>